<svg width="82" height="92" fill="none" xmlns="http://www.w3.org/2000/svg"><path d="M0 0v88.764a2 2 0 0 0 2.894 1.789l37.21-18.605a6.233 6.233 0 0 1 2.172 0L79.1 90.536A2 2 0 0 0 82 88.75V.09L0 0Z" fill="#3757BE"/><path d="M11.653 38.16V18h8.064c1.438 0 2.6.29 3.486.868.887.57 1.535 1.288 1.946 2.156.41.868.616 1.745.616 2.632 0 1.13-.256 2.067-.77 2.814-.504.747-1.2 1.246-2.086 1.498v-.7c1.26.261 2.203.845 2.828 1.75a5.17 5.17 0 0 1 .952 3.038c0 1.204-.224 2.263-.672 3.178a4.886 4.886 0 0 1-2.016 2.156c-.905.513-2.044.77-3.416.77h-8.932Zm3.864-3.584h4.676c.513 0 .97-.107 1.372-.322.401-.224.714-.532.938-.924.233-.401.35-.873.35-1.414a2.7 2.7 0 0 0-.294-1.274 2.097 2.097 0 0 0-.896-.882c-.392-.224-.882-.336-1.47-.336h-4.676v5.152Zm0-8.708h4.144a2.8 2.8 0 0 0 1.148-.224c.336-.15.602-.378.798-.686.196-.317.294-.723.294-1.218 0-.616-.191-1.134-.574-1.554-.383-.42-.938-.63-1.666-.63h-4.144v4.312ZM36.51 38.58c-1.55 0-2.917-.331-4.103-.994a7.35 7.35 0 0 1-2.772-2.758c-.662-1.176-.994-2.52-.994-4.032 0-1.652.327-3.09.98-4.312.654-1.223 1.554-2.17 2.702-2.842 1.148-.681 2.469-1.022 3.962-1.022 1.587 0 2.936.373 4.046 1.12 1.111.747 1.932 1.797 2.464 3.15s.719 2.945.56 4.774H39.59v-1.4c0-1.54-.247-2.646-.742-3.318-.485-.681-1.283-1.022-2.394-1.022-1.297 0-2.254.397-2.87 1.19-.606.784-.91 1.946-.91 3.486 0 1.41.304 2.501.91 3.276.616.765 1.517 1.148 2.702 1.148.747 0 1.386-.163 1.918-.49.532-.327.938-.798 1.218-1.414l3.808 1.092c-.569 1.381-1.47 2.455-2.702 3.22a7.426 7.426 0 0 1-4.018 1.148Zm-5.013-6.916v-2.828h10.024v2.828H31.497ZM52.424 38.58c-1.904 0-3.444-.43-4.62-1.288-1.166-.868-1.876-2.09-2.128-3.668l3.892-.588c.16.71.51 1.265 1.05 1.666.551.401 1.246.602 2.086.602.691 0 1.223-.13 1.596-.392.374-.27.56-.644.56-1.12 0-.299-.074-.537-.224-.714-.149-.187-.485-.369-1.008-.546-.513-.177-1.316-.41-2.408-.7-1.232-.317-2.216-.672-2.954-1.064-.737-.392-1.269-.859-1.596-1.4-.326-.55-.49-1.213-.49-1.988 0-.97.248-1.81.742-2.52.495-.719 1.19-1.27 2.086-1.652.906-.392 1.97-.588 3.192-.588 1.186 0 2.236.182 3.15.546.915.364 1.652.882 2.212 1.554.57.672.92 1.465 1.05 2.38l-3.892.7c-.065-.56-.308-1.003-.728-1.33-.42-.327-.989-.518-1.708-.574-.7-.047-1.264.047-1.694.28-.42.233-.63.57-.63 1.008 0 .261.09.48.266.658.187.177.565.36 1.134.546.58.187 1.456.43 2.632.728 1.148.299 2.068.649 2.758 1.05.7.392 1.21.868 1.526 1.428.318.55.476 1.218.476 2.002 0 1.55-.56 2.767-1.68 3.654-1.12.887-2.669 1.33-4.648 1.33ZM70.9 38.16c-1.044.196-2.071.28-3.08.252-.998-.019-1.894-.191-2.687-.518a3.633 3.633 0 0 1-1.792-1.61c-.373-.69-.57-1.39-.588-2.1a95.06 95.06 0 0 1-.028-2.436V18.84h3.808v12.684c0 .588.005 1.12.014 1.596.019.467.117.84.294 1.12.336.532.873.821 1.61.868.737.047 1.554.01 2.45-.112v3.164ZM60.15 25.98v-2.94H70.9v2.94H60.149ZM14.475 59.46c-1.114 0-2.064-.247-2.85-.74a4.927 4.927 0 0 1-1.81-2.04c-.414-.86-.624-1.833-.63-2.92.006-1.107.223-2.087.65-2.94a4.905 4.905 0 0 1 1.84-2.02c.793-.493 1.736-.74 2.83-.74 1.226 0 2.263.31 3.11.93.853.613 1.41 1.453 1.67 2.52l-2.4.65c-.187-.58-.497-1.03-.93-1.35a2.394 2.394 0 0 0-1.48-.49c-.627 0-1.144.15-1.55.45-.407.293-.707.7-.9 1.22-.194.52-.29 1.11-.29 1.77 0 1.027.23 1.857.69 2.49.46.633 1.143.95 2.05.95.64 0 1.143-.147 1.51-.44.373-.293.653-.717.84-1.27l2.46.55c-.334 1.1-.917 1.947-1.75 2.54-.834.587-1.854.88-3.06.88ZM28.759 59.16v-5.2c0-.34-.024-.717-.07-1.13a3.908 3.908 0 0 0-.33-1.19 2.256 2.256 0 0 0-.76-.95c-.334-.247-.787-.37-1.36-.37-.307 0-.61.05-.91.15-.3.1-.574.273-.82.52-.24.24-.434.573-.58 1-.147.42-.22.96-.22 1.62l-1.43-.61c0-.92.176-1.753.53-2.5.36-.747.886-1.34 1.58-1.78.693-.447 1.546-.67 2.56-.67.8 0 1.46.133 1.98.4s.933.607 1.24 1.02c.306.413.533.853.68 1.32.146.467.24.91.28 1.33.046.413.07.75.07 1.01v6.03h-2.44Zm-7.49 0v-14.4h2.15v7.58h.29v6.82h-2.44ZM38.578 59.46c-1.08 0-2.023-.243-2.83-.73a5.015 5.015 0 0 1-1.88-2.01c-.44-.86-.66-1.847-.66-2.96 0-1.133.227-2.127.68-2.98a5.014 5.014 0 0 1 1.89-2c.807-.48 1.74-.72 2.8-.72 1.087 0 2.033.243 2.84.73a4.998 4.998 0 0 1 1.88 2.02c.447.853.67 1.837.67 2.95 0 1.12-.227 2.11-.68 2.97a5.015 5.015 0 0 1-1.88 2.01c-.807.48-1.75.72-2.83.72Zm0-2.26c.96 0 1.673-.32 2.14-.96.467-.64.7-1.467.7-2.48 0-1.047-.237-1.88-.71-2.5-.473-.627-1.183-.94-2.13-.94-.647 0-1.18.147-1.6.44-.413.287-.72.69-.92 1.21-.2.513-.3 1.11-.3 1.79 0 1.047.237 1.883.71 2.51.48.62 1.183.93 2.11.93ZM46.371 46.72v-2.21h2.41v2.21h-2.41Zm0 12.44v-10.8h2.41v10.8h-2.41ZM56.467 59.46c-1.114 0-2.064-.247-2.85-.74a4.927 4.927 0 0 1-1.81-2.04c-.414-.86-.624-1.833-.63-2.92.006-1.107.223-2.087.65-2.94a4.905 4.905 0 0 1 1.84-2.02c.793-.493 1.736-.74 2.83-.74 1.226 0 2.263.31 3.11.93.853.613 1.41 1.453 1.67 2.52l-2.4.65c-.187-.58-.497-1.03-.93-1.35a2.394 2.394 0 0 0-1.48-.49c-.627 0-1.144.15-1.55.45-.407.293-.707.7-.9 1.22-.194.52-.29 1.11-.29 1.77 0 1.027.23 1.857.69 2.49.46.633 1.143.95 2.05.95.64 0 1.143-.147 1.51-.44.373-.293.653-.717.84-1.27l2.46.55c-.334 1.1-.917 1.947-1.75 2.54-.834.587-1.854.88-3.06.88ZM67.898 59.46c-1.094 0-2.054-.237-2.88-.71a5.056 5.056 0 0 1-1.94-1.97c-.46-.84-.69-1.807-.69-2.9 0-1.18.226-2.203.68-3.07.453-.873 1.083-1.55 1.89-2.03.806-.48 1.74-.72 2.8-.72 1.12 0 2.07.263 2.85.79.786.52 1.37 1.257 1.75 2.21.38.953.523 2.077.43 3.37h-2.39v-.88c-.007-1.173-.214-2.03-.62-2.57-.407-.54-1.047-.81-1.92-.81-.987 0-1.72.307-2.2.92-.48.607-.72 1.497-.72 2.67 0 1.093.24 1.94.72 2.54.48.6 1.18.9 2.1.9.593 0 1.103-.13 1.53-.39.433-.267.766-.65 1-1.15l2.38.72c-.414.973-1.054 1.73-1.92 2.27-.86.54-1.81.81-2.85.81Zm-3.72-5.03v-1.82h7.43v1.82h-7.43Z" fill="#fff"/></svg>