<svg xmlns="http://www.w3.org/2000/svg" width="82" height="92" fill="none" viewBox="0 0 82 92"><path fill="#3757be" d="M0 0v88.764a2 2 0 0 0 2.894 1.789l37.21-18.605a6.2 6.2 0 0 1 2.172 0L79.1 90.536A2 2 0 0 0 82 88.75V.09Z"/><path fill="#fff" d="M11.653 38.16V18h8.064q2.157 0 3.486.868 1.33.855 1.946 2.156t.616 2.632q0 1.694-.77 2.814-.756 1.12-2.086 1.498v-.7q1.89.392 2.828 1.75a5.17 5.17 0 0 1 .952 3.038q0 1.806-.672 3.178a4.9 4.9 0 0 1-2.016 2.156q-1.358.77-3.416.77Zm3.864-3.584h4.676q.77 0 1.372-.322.602-.336.938-.924.35-.602.35-1.414a2.7 2.7 0 0 0-.294-1.274 2.1 2.1 0 0 0-.896-.882q-.588-.336-1.47-.336h-4.676Zm0-8.708h4.144a2.8 2.8 0 0 0 1.148-.224q.504-.224.798-.686.294-.475.294-1.218 0-.924-.574-1.554t-1.666-.63h-4.144Z"/><path fill="#fff" d="M36.51 38.58q-2.324 0-4.103-.994a7.35 7.35 0 0 1-2.772-2.758q-.993-1.764-.994-4.032 0-2.479.98-4.312.98-1.834 2.702-2.842 1.722-1.022 3.962-1.022 2.38 0 4.046 1.12t2.464 3.15.56 4.774H39.59v-1.4q0-2.31-.742-3.318-.727-1.022-2.394-1.022-1.946 0-2.87 1.19-.91 1.176-.91 3.486 0 2.114.91 3.276.924 1.148 2.702 1.148 1.12 0 1.918-.49t1.218-1.414l3.808 1.092q-.854 2.072-2.702 3.22a7.43 7.43 0 0 1-4.018 1.148m-5.013-6.916v-2.828h10.024v2.828ZM52.424 38.58q-2.856 0-4.62-1.288-1.75-1.302-2.128-3.668l3.892-.588q.24 1.065 1.05 1.666.826.602 2.086.602 1.037 0 1.596-.392.56-.406.56-1.12 0-.448-.224-.714-.224-.28-1.008-.546-.77-.265-2.408-.7-1.848-.476-2.954-1.064t-1.596-1.4q-.49-.825-.49-1.988 0-1.455.742-2.52.742-1.079 2.086-1.652 1.359-.588 3.192-.588 1.779 0 3.15.546t2.212 1.554q.855 1.008 1.05 2.38l-3.892.7q-.098-.84-.728-1.33t-1.708-.574q-1.05-.07-1.694.28-.63.35-.63 1.008.001.391.266.658.28.266 1.134.546.869.28 2.632.728 1.722.449 2.758 1.05 1.051.588 1.526 1.428.477.825.476 2.002 0 2.324-1.68 3.654t-4.648 1.33"/><path fill="#fff" d="M70.9 38.16q-1.566.294-3.08.252-1.497-.028-2.687-.518a3.63 3.63 0 0 1-1.792-1.61q-.56-1.035-.588-2.1a95 95 0 0 1-.028-2.436V18.84h3.808v12.684q0 .882.014 1.596.029.7.294 1.12.504.798 1.61.868t2.45-.112ZM60.15 25.98v-2.94H70.9v2.94ZM14.475 59.46q-1.671 0-2.85-.74a4.93 4.93 0 0 1-1.81-2.04q-.621-1.29-.63-2.92.01-1.66.65-2.94a4.9 4.9 0 0 1 1.84-2.02q1.19-.74 2.83-.74 1.84 0 3.11.93 1.28.92 1.67 2.52l-2.4.65q-.28-.87-.93-1.35a2.4 2.4 0 0 0-1.48-.49q-.94 0-1.55.45-.61.44-.9 1.22t-.29 1.77q0 1.54.69 2.49t2.05.95q.96 0 1.51-.44.56-.44.84-1.27l2.46.55q-.5 1.65-1.75 2.54-1.251.88-3.06.88M28.759 59.16v-5.2q0-.51-.07-1.13a3.9 3.9 0 0 0-.33-1.19 2.26 2.26 0 0 0-.76-.95q-.5-.37-1.36-.37-.46 0-.91.15t-.82.52q-.36.36-.58 1-.22.63-.22 1.62l-1.43-.61q0-1.38.53-2.5.54-1.12 1.58-1.78 1.04-.67 2.56-.67 1.2 0 1.98.4t1.24 1.02.68 1.32.28 1.33q.07.62.07 1.01v6.03Zm-7.49 0v-14.4h2.15v7.58h.29v6.82Z"/><path fill="#fff" d="M38.578 59.46q-1.62 0-2.83-.73a5 5 0 0 1-1.88-2.01q-.66-1.29-.66-2.96 0-1.7.68-2.98a5 5 0 0 1 1.89-2q1.21-.72 2.8-.72 1.63 0 2.84.73a5 5 0 0 1 1.88 2.02q.67 1.28.67 2.95 0 1.68-.68 2.97a5 5 0 0 1-1.88 2.01q-1.21.72-2.83.72m0-2.26q1.44 0 2.14-.96t.7-2.48q0-1.57-.71-2.5-.71-.94-2.13-.94-.97 0-1.6.44-.62.43-.92 1.21-.3.77-.3 1.79 0 1.57.71 2.51.72.93 2.11.93M46.371 46.72v-2.21h2.41v2.21Zm0 12.44v-10.8h2.41v10.8ZM56.467 59.46q-1.671 0-2.85-.74a4.93 4.93 0 0 1-1.81-2.04q-.621-1.29-.63-2.92.01-1.66.65-2.94a4.9 4.9 0 0 1 1.84-2.02q1.19-.74 2.83-.74 1.84 0 3.11.93 1.28.92 1.67 2.52l-2.4.65q-.28-.87-.93-1.35a2.4 2.4 0 0 0-1.48-.49q-.94 0-1.55.45-.61.44-.9 1.22t-.29 1.77q0 1.54.69 2.49t2.05.95q.96 0 1.51-.44.56-.44.84-1.27l2.46.55q-.5 1.65-1.75 2.54-1.251.88-3.06.88M67.898 59.46q-1.641 0-2.88-.71a5.06 5.06 0 0 1-1.94-1.97q-.69-1.26-.69-2.9 0-1.77.68-3.07.68-1.31 1.89-2.03t2.8-.72q1.68 0 2.85.79 1.18.78 1.75 2.21t.43 3.37h-2.39v-.88q-.01-1.76-.62-2.57t-1.92-.81q-1.48 0-2.2.92-.72.91-.72 2.67 0 1.64.72 2.54t2.1.9q.89 0 1.53-.39.65-.4 1-1.15l2.38.72q-.621 1.46-1.92 2.27-1.29.81-2.85.81m-3.72-5.03v-1.82h7.43v1.82Z"/></svg>