<svg xmlns="http://www.w3.org/2000/svg" width="984" height="984" viewBox="0 0 375 984" fill="none"><g filter="url('#filter0_f_209_451')"><path fill-rule="evenodd" clip-rule="evenodd" d="M-19.595 744.508c-52.81-5.763-105.893-11.548-149.993-42.54-45.291-31.829-86.405-76.061-98.177-131.867-11.34-53.761 23.456-103.211 37.394-156.297 14.863-56.612 2.494-128.835 46.874-164.666 44.391-35.84 108.913-16.789 163.902-5.507 46.13 9.465 84.582 36.13 123.086 64.389 39.273 28.823 77.741 57.595 102.099 100.877 29.603 52.602 60.001 110.356 50.706 170.645-9.895 64.177-47.475 125.625-101.35 157.839-51.842 30.998-115.177 13.604-174.54 7.127Z" fill="#E0E5FF"/></g><defs><filter id="filter0_f_209_451" x="-498" y=".369" width="984" height="984" filterUnits="userSpaceOnUse" color-interpolation-filters="sRGB"><feFlood flood-opacity="0" result="BackgroundImageFix"/><feBlend in="SourceGraphic" in2="BackgroundImageFix" result="shape"/><feGaussianBlur stdDeviation="114" result="effect1_foregroundBlur_209_451"/></filter></defs></svg>