<svg xmlns="http://www.w3.org/2000/svg" width="1920" height="1920" viewBox="-640 -480 1920 1920" fill="none"><g filter="url('#filter0_f_202_744')"><path fill-rule="evenodd" clip-rule="evenodd" d="M237.11 440.939c4.889-44.908 9.797-90.049 36.09-127.551 27.004-38.514 64.53-73.477 111.876-83.487 45.611-9.643 87.563 19.946 132.601 31.799 48.03 12.639 109.304 2.12 139.703 39.861 30.406 37.748 14.244 92.616 4.672 139.378-8.03 39.228-30.653 71.927-54.627 104.67-24.454 33.397-48.864 66.109-85.585 86.822-44.627 25.174-93.625 51.024-144.774 43.12-54.447-8.414-106.58-40.372-133.91-86.186-26.299-44.085-11.542-97.944-6.046-148.426Z" fill="#FFE5C2"/></g><defs><filter id="filter0_f_202_744" x="-640" y="-480" width="1920" height="1920" filterUnits="userSpaceOnUse" color-interpolation-filters="sRGB"><feFlood flood-opacity="0" result="BackgroundImageFix"/><feBlend in="SourceGraphic" in2="BackgroundImageFix" result="shape"/><feGaussianBlur stdDeviation="114" result="effect1_foregroundBlur_202_744"/></filter></defs></svg>