<svg xmlns="http://www.w3.org/2000/svg" width="1920" height="1920" viewBox="-800 -480 1920 1920" fill="none"><g filter="url('#filter0_f_326_2119')"><path fill-rule="evenodd" clip-rule="evenodd" d="M87.351 499.355c-43.308-3.03-86.84-6.071-123.005-22.365-37.142-16.734-70.859-39.988-80.513-69.328-9.3-28.264 19.236-54.262 30.666-82.171 12.189-29.764 2.045-67.734 38.44-86.572 36.404-18.842 89.317-8.827 134.412-2.895 37.83 4.976 69.364 18.995 100.94 33.852 32.207 15.153 63.753 30.28 83.729 53.035 24.276 27.655 49.205 58.018 41.583 89.715-8.115 33.74-38.934 66.046-83.115 82.982-42.514 16.297-94.454 7.152-143.137 3.747Z" fill="#E0E5FF"/></g><defs><filter id="filter0_f_326_2119" x="-800" y="-480" width="1920" height="1920" filterUnits="userSpaceOnUse" color-interpolation-filters="sRGB"><feFlood flood-opacity="0" result="BackgroundImageFix"/><feBlend in="SourceGraphic" in2="BackgroundImageFix" result="shape"/><feGaussianBlur stdDeviation="114" result="effect1_foregroundBlur_326_2119"/></filter></defs></svg>