<svg xmlns="http://www.w3.org/2000/svg" width="1920" height="1920" viewBox="-640 -480 1920 1920" fill="none"><g filter="url('#filter0_f_202_743')"><path fill-rule="evenodd" clip-rule="evenodd" d="M478.405 756.015c-52.809-5.895-105.893-11.813-149.993-43.518-45.291-32.562-86.405-77.811-98.177-134.901-11.34-54.999 23.456-105.586 37.394-159.894 14.863-57.915 2.494-131.8 46.874-168.456 44.391-36.664 108.913-17.175 163.902-5.633 46.13 9.682 84.582 36.961 123.086 65.87 39.273 29.487 77.741 58.921 102.099 103.199 29.603 53.813 60.001 112.895 50.706 174.571-9.895 65.654-47.475 128.517-101.35 161.472-51.842 31.712-115.177 13.917-174.541 7.29Z" fill="#E0E5FF"/></g><defs><filter id="filter0_f_202_743" x="-640" y="-480" width="1920" height="1920" filterUnits="userSpaceOnUse" color-interpolation-filters="sRGB"><feFlood flood-opacity="0" result="BackgroundImageFix"/><feBlend in="SourceGraphic" in2="BackgroundImageFix" result="shape"/><feGaussianBlur stdDeviation="114" result="effect1_foregroundBlur_202_743"/></filter></defs></svg>