<svg xmlns="http://www.w3.org/2000/svg" width="634" height="766" fill="none"><g filter="url('#filter0_f_202_740')"><path fill-rule="evenodd" clip-rule="evenodd" d="M391.178 235.023c31.043 3.38 62.247 6.773 88.17 24.948 26.623 18.667 50.791 44.606 57.711 77.334 6.666 31.529-13.789 60.529-21.981 91.662-8.738 33.2-1.466 75.556-27.554 96.569-26.094 21.019-64.022 9.847-96.346 3.23-27.117-5.551-49.72-21.189-72.353-37.761-23.086-16.904-45.698-33.777-60.017-59.161-17.401-30.848-35.27-64.718-29.806-100.075 5.816-37.637 27.907-73.674 59.576-92.566 30.474-18.179 67.704-7.979 102.6-4.18Z" fill="#FFE5C2"/></g><defs><filter id="filter0_f_202_740" x="0" y="0" width="634" height="766" filterUnits="userSpaceOnUse" color-interpolation-filters="sRGB"><feFlood flood-opacity="0" result="BackgroundImageFix"/><feBlend in="SourceGraphic" in2="BackgroundImageFix" result="shape"/><feGaussianBlur stdDeviation="72" result="effect1_foregroundBlur_202_740"/></filter></defs></svg>