<svg xmlns="http://www.w3.org/2000/svg" width="984" height="1267" viewBox="-240 0 984 1267" fill="none"><g filter="url('#filter0_f_209_452')"><path fill-rule="evenodd" clip-rule="evenodd" d="M70.11 612.819c4.889-81.077 9.797-162.575 36.09-230.279 27.004-69.534 64.53-132.656 111.876-150.728 45.611-17.41 87.563 36.012 132.601 57.41 48.03 22.819 109.304 3.828 139.703 71.964 30.406 68.151 14.244 167.209 4.672 251.633-8.03 70.821-30.653 129.855-54.627 188.969-24.454 60.294-48.864 119.352-85.585 156.748-44.627 45.444-93.625 92.114-144.774 77.844-54.447-15.19-106.58-72.883-133.91-155.595-26.3-79.591-11.542-176.827-6.046-267.966Z" fill="#FFE5C2"/></g><defs><filter id="filter0_f_209_452" x="-240" y="0" width="984" height="1267" filterUnits="userSpaceOnUse" color-interpolation-filters="sRGB"><feFlood flood-opacity="0" result="BackgroundImageFix"/><feBlend in="SourceGraphic" in2="BackgroundImageFix" result="shape"/><feGaussianBlur stdDeviation="114" result="effect1_foregroundBlur_209_452"/></filter></defs></svg>