<svg xmlns="http://www.w3.org/2000/svg" width="984" height="985" fill="none" viewBox="-240 0 984 985"><g filter="url(#filter0_f_217_2254)"><path fill="#e0e5ff" fill-rule="evenodd" d="M631.914 499.644c-4.115 52.978-8.244 106.231-38.447 151.372-31.019 46.361-74.86 88.975-131.521 102.661-54.586 13.184-106.316-19.891-161.061-31.993-58.383-12.906-131.81 1.942-169.938-41.18-38.137-43.132-20.83-108.273-11.145-163.619 8.125-46.43 34.095-85.778 61.692-125.233 28.148-40.243 56.271-79.679 99.705-105.513 52.786-31.397 110.812-63.766 172.766-56.551 65.95 7.68 130.041 43.124 164.79 95.859 33.438 50.746 17.785 114.644 13.159 174.197" clip-rule="evenodd"/></g><defs><filter id="filter0_f_217_2254" width="984" height="985" x="-240" y="0" color-interpolation-filters="sRGB" filterUnits="userSpaceOnUse"><feFlood flood-opacity="0" result="BackgroundImageFix"/><feBlend in="SourceGraphic" in2="BackgroundImageFix" result="shape"/><feGaussianBlur result="effect1_foregroundBlur_217_2254" stdDeviation="72"/></filter></defs></svg>