<svg xmlns="http://www.w3.org/2000/svg" width="984" height="811" viewBox="-240 0 984 811" fill="none"><g filter="url('#filter0_f_326_2118')"><path fill-rule="evenodd" clip-rule="evenodd" d="M259.902 235.971c-43.213 4.277-86.651 8.572-122.737 31.578-37.06 23.627-70.704 56.461-80.336 97.886-9.28 39.908 19.194 76.615 30.599 116.022 12.162 42.024-.626 53.309 35.69 79.908 36.323 26.604 86.129 21.621 142.446 20.606 50.086-.903 94.753.371 126.26-20.606 32.137-21.396 32.41-44.137 52.342-76.266 24.223-39.047 68.574-87.006 60.968-131.759-8.096-47.64-58.324-88.166-102.409-112.079-42.421-23.011-94.247-10.099-142.823-5.29Z" fill="#FFE5C2"/></g><defs><filter id="filter0_f_326_2118" x="-240" y="0" width="984" height="811" filterUnits="userSpaceOnUse" color-interpolation-filters="sRGB"><feFlood flood-opacity="0" result="BackgroundImageFix"/><feBlend in="SourceGraphic" in2="BackgroundImageFix" result="shape"/><feGaussianBlur stdDeviation="114" result="effect1_foregroundBlur_326_2118"/></filter></defs></svg>