<svg xmlns="http://www.w3.org/2000/svg" width="1920" height="1920" fill="none" viewBox="-640 -480 1920 1920"><g filter="url(#filter0_f_209_449)"><path fill="#e0e5ff" fill-rule="evenodd" d="M314.07 627.338c41.742-4.66 83.702-9.338 118.56-34.399 35.8-25.738 68.299-61.505 77.603-106.631 8.964-43.473-18.541-83.46-29.557-126.387-11.749-45.778-1.972-104.18-37.052-133.154-35.088-28.981-86.088-13.576-129.554-4.453-36.463 7.654-66.857 29.216-97.292 52.067-31.043 23.307-61.45 46.573-80.703 81.573-23.4 42.535-47.428 89.236-40.08 137.987 7.82 51.896 37.526 101.585 80.11 127.634 40.979 25.066 91.041 11.001 137.965 5.763" clip-rule="evenodd"/></g><defs><filter id="filter0_f_209_449" width="1920" height="1920" x="-640" y="-480" color-interpolation-filters="sRGB" filterUnits="userSpaceOnUse"><feFlood flood-opacity="0" result="BackgroundImageFix"/><feBlend in="SourceGraphic" in2="BackgroundImageFix" result="shape"/><feGaussianBlur result="effect1_foregroundBlur_209_449" stdDeviation="72"/></filter></defs></svg>