<svg xmlns="http://www.w3.org/2000/svg" width="1920" height="1920" viewBox="-720 -560 1920 1920" fill="none"><g filter="url('#filter0_f_209_450')"><path fill-rule="evenodd" clip-rule="evenodd" d="M298.494 377.844c-3.864-35.497-7.744-71.178-28.527-100.821-21.345-30.443-51.007-58.08-88.431-65.992-36.053-7.622-69.214 15.767-104.814 25.135-37.965 9.991-86.398 1.676-110.427 31.508-24.034 29.838-11.258 73.208-3.692 110.17 6.347 31.008 24.229 56.854 43.18 82.735 19.328 26.399 38.623 52.256 67.648 68.628 35.276 19.899 74.006 40.332 114.436 34.084 43.037-6.651 84.245-31.912 105.848-68.125 20.788-34.847 9.123-77.419 4.779-117.322Z" fill="#FFE5C2"/></g><defs><filter id="filter0_f_209_450" x="-720" y="-560" width="1920" height="1920" filterUnits="userSpaceOnUse" color-interpolation-filters="sRGB"><feFlood flood-opacity="0" result="BackgroundImageFix"/><feBlend in="SourceGraphic" in2="BackgroundImageFix" result="shape"/><feGaussianBlur stdDeviation="104.5" result="effect1_foregroundBlur_209_450"/></filter></defs></svg>