<svg xmlns="http://www.w3.org/2000/svg" width="984" height="935" fill="none"><g filter="url('#filter0_f_209_455')"><path fill-rule="evenodd" clip-rule="evenodd" d="M319.405 697.238c-52.809-5.239-105.893-10.498-149.993-38.674-45.291-28.937-86.405-69.149-98.177-119.884-11.34-48.877 23.456-93.833 37.394-142.095 14.863-51.468 2.494-117.128 46.874-149.704 44.391-32.582 108.913-15.263 163.902-5.006 46.13 8.605 84.582 32.847 123.086 58.538 39.273 26.204 77.741 52.362 102.099 91.711 29.603 47.822 60.001 100.328 50.706 155.138-9.895 58.346-47.475 114.211-101.35 143.497-51.842 28.182-115.177 12.368-174.541 6.479Z" fill="#E0E5FF"/></g><defs><filter id="filter0_f_209_455" x="-159" y="0" width="984" height="935" filterUnits="userSpaceOnUse" color-interpolation-filters="sRGB"><feFlood flood-opacity="0" result="BackgroundImageFix"/><feBlend in="SourceGraphic" in2="BackgroundImageFix" result="shape"/><feGaussianBlur stdDeviation="114" result="effect1_foregroundBlur_209_455"/></filter></defs></svg>