<svg xmlns="http://www.w3.org/2000/svg" width="984" height="898" viewBox="-240 0 984 898" fill="none"><g filter="url('#filter0_f_217_2255')"><path fill-rule="evenodd" clip-rule="evenodd" d="M406.303 663.524c-45.047-3.376-90.328-6.762-128.693-31.779-39.401-25.693-75.607-62.021-87.204-109.003-11.173-45.26 16.989-88.185 27.319-133.597 11.016-48.427-1.558-109.312 35.138-140.964 36.704-31.659 92.085-17.352 139.142-9.359 39.476 6.705 72.917 28.215 106.448 51.075 34.201 23.316 67.716 46.611 89.654 82.614 26.66 43.755 54.145 91.856 47.966 143.241-6.578 54.7-36.763 107.879-81.632 136.735-43.175 27.767-97.5 14.831-148.138 11.037Z" fill="#FFE5C2"/></g><defs><filter id="filter0_f_217_2255" x="-240" y="0" width="984" height="898" filterUnits="userSpaceOnUse" color-interpolation-filters="sRGB"><feFlood flood-opacity="0" result="BackgroundImageFix"/><feBlend in="SourceGraphic" in2="BackgroundImageFix" result="shape"/><feGaussianBlur stdDeviation="114" result="effect1_foregroundBlur_217_2255"/></filter></defs></svg>