<svg xmlns="http://www.w3.org/2000/svg" width="796" height="220" fill="none" viewBox="0 0 199 55"><circle cx="178.906" cy="30" r="5" fill="#ffbd13"/><path fill="#ffbd13" fill-rule="evenodd" d="M133.906 14a5 5 0 0 0-5 5v16c0 11.046 8.955 20 20 20 10.711 0 19.455-8.419 19.976-19h-.076q.1-.485.1-1v-2a5 5 0 1 0-10 0v2c0 5.523-4.477 10-10 10s-10-4.477-10-10V17.676l-.153.09A5 5 0 0 0 133.906 14m25.1 22h-.1v-1q.001.515.1 1m-.1-18.324q.274.158.541.324h-.541Z" clip-rule="evenodd"/><path fill="#0496ff" fill-rule="evenodd" d="M193.882 41a5 5 0 0 0 5-5V20c0-11.046-8.955-20-20-20-10.486 0-19.087 8.07-19.932 18.337a5 5 0 0 0-.044.663v2a5 5 0 0 0 10 0v-1.706c.363-5.194 4.69-9.294 9.976-9.294 5.523 0 10 4.477 10 10v17.324l.153-.09A5 5 0 0 0 193.882 41m-25-3.676a20 20 0 0 1-.541-.324h.541Z" clip-rule="evenodd"/><path fill="#2a2d34" fill-rule="evenodd" d="M113.906 39.094V13.782h-.001c-.048-1.259-1.237-2.266-2.698-2.266s-2.65 1.007-2.698 2.265h-.001v9.961q-2.24-1.992-5.803-1.992-4.725 0-7.855 2.648-3.347 2.86-3.347 6.727v7.969q0 3.914 3.347 6.726 3.185 2.649 7.855 2.649 4.724 0 7.854-2.649 3.347-2.859 3.347-6.726M0 13.859v-.078h.001C.05 12.523 1.24 11.516 2.7 11.516s2.65 1.007 2.698 2.265h.001v9.961q2.052-1.992 5.804-1.992 4.67 0 7.854 2.648 3.348 2.813 3.347 6.727v7.969q0 3.867-3.347 6.726-3.13 2.649-7.854 2.649-4.67 0-7.855-2.649Q0 43.007 0 39.094Zm5.398 25.235q0 2.695 1.674 3.96 1.7 1.243 4.13 1.243t4.103-1.242q1.7-1.266 1.7-3.961v-7.969q0-2.696-1.7-3.938-1.674-1.265-4.103-1.265-2.43 0-4.13 1.265-1.674 1.243-1.674 3.938Zm25.103 0v-7.969q0-3.867 3.347-6.727 3.131-2.648 7.855-2.648 4.669 0 7.854 2.648 3.347 2.813 3.347 6.727v7.969q0 3.867-3.347 6.726-3.13 2.649-7.854 2.649-4.67 0-7.855-2.649-3.347-2.813-3.347-6.726m5.398 0q0 2.695 1.674 3.96 1.7 1.243 4.13 1.243t4.102-1.242q1.7-1.266 1.7-3.961v-7.969q0-2.696-1.7-3.938-1.673-1.265-4.102-1.265t-4.13 1.265q-1.674 1.243-1.674 3.938Zm25.103-7.969v15.203h.01c.118 1.2 1.277 2.14 2.69 2.14 1.411 0 2.57-.94 2.688-2.14h.01V31.125q0-2.696 1.674-3.938 1.7-1.265 4.13-1.265t4.102 1.265q1.7 1.243 1.7 3.938v15.203h.01c.12 1.2 1.278 2.14 2.69 2.14s2.57-.94 2.69-2.14h.01V31.125q0-3.915-3.348-6.727-3.184-2.648-7.854-2.648-4.725 0-7.855 2.648-3.347 2.86-3.347 6.727m35.9 7.969q0 2.695 1.673 3.96 1.7 1.243 4.13 1.243 2.429 0 4.102-1.242 1.701-1.266 1.701-3.961v-7.969q0-2.696-1.701-3.938-1.673-1.265-4.102-1.265t-4.13 1.265Q96.9 28.43 96.9 31.126Z" clip-rule="evenodd"/></svg>