<svg width="796" height="220" viewBox="0 0 199 55" fill="none" xmlns="http://www.w3.org/2000/svg"><circle cx="178.906" cy="30" r="5" fill="#FFBD13"/><path fill-rule="evenodd" clip-rule="evenodd" d="M133.906 14a5 5 0 0 0-5 5v16c0 11.046 8.955 20 20 20 10.711 0 19.455-8.419 19.976-19h-.076c.066-.323.1-.657.1-1v-2a5 5 0 1 0-10 0v2c0 5.523-4.477 10-10 10s-10-4.477-10-10V17.676l-.153.09A5.003 5.003 0 0 0 133.906 14Zm25.1 22h-.1v-1c0 .343.035.677.1 1Zm-.1-18.324c.182.105.363.213.541.324h-.541v-.324Z" fill="#FFBD13"/><path fill-rule="evenodd" clip-rule="evenodd" d="M193.882 41a5 5 0 0 0 5-5V20c0-11.046-8.955-20-20-20-10.486 0-19.087 8.07-19.932 18.337a5.005 5.005 0 0 0-.044.663v2a5 5 0 0 0 10 0v-1.706c.363-5.194 4.69-9.294 9.976-9.294 5.523 0 10 4.477 10 10v17.324l.153-.09A5.003 5.003 0 0 0 193.882 41Zm-25-3.676a19.582 19.582 0 0 1-.541-.324h.541v.324Z" fill="#0496FF"/><path fill-rule="evenodd" clip-rule="evenodd" d="M113.906 39.094V13.78h-.001c-.048-1.258-1.237-2.265-2.698-2.265-1.461 0-2.65 1.007-2.698 2.265h-.001V23.742c-1.494-1.328-3.428-1.992-5.803-1.992-3.15 0-5.768.883-7.855 2.648-2.231 1.907-3.347 4.149-3.347 6.727v7.969c0 2.61 1.116 4.851 3.347 6.726 2.123 1.766 4.742 2.649 7.855 2.649 3.149 0 5.767-.883 7.854-2.649 2.232-1.906 3.347-4.148 3.347-6.726ZM0 13.859v-.078h.001C.05 12.523 1.24 11.516 2.7 11.516s2.65 1.007 2.698 2.265h.001V23.742c1.368-1.328 3.302-1.992 5.804-1.992 3.113 0 5.731.883 7.854 2.648 2.232 1.875 3.347 4.118 3.347 6.727v7.969c0 2.578-1.115 4.82-3.347 6.726-2.087 1.766-4.705 2.649-7.854 2.649-3.113 0-5.732-.883-7.855-2.649C1.116 43.945 0 41.703 0 39.094V13.859Zm5.398 25.235c0 1.797.558 3.117 1.674 3.96 1.134.829 2.51 1.243 4.13 1.243s2.987-.414 4.103-1.242c1.133-.844 1.7-2.164 1.7-3.961v-7.969c0-1.797-.567-3.11-1.7-3.938-1.116-.843-2.484-1.265-4.103-1.265-1.62 0-2.996.422-4.13 1.265-1.116.829-1.674 2.141-1.674 3.938v7.969Zm25.103 0v-7.969c0-2.578 1.116-4.82 3.347-6.727 2.087-1.765 4.706-2.648 7.855-2.648 3.113 0 5.73.883 7.854 2.648 2.232 1.875 3.347 4.118 3.347 6.727v7.969c0 2.578-1.115 4.82-3.347 6.726-2.087 1.766-4.705 2.649-7.854 2.649-3.113 0-5.732-.883-7.855-2.649-2.231-1.875-3.347-4.117-3.347-6.726Zm5.398 0c0 1.797.558 3.117 1.674 3.96 1.133.829 2.51 1.243 4.13 1.243s2.987-.414 4.102-1.242c1.134-.844 1.7-2.164 1.7-3.961v-7.969c0-1.797-.566-3.11-1.7-3.938-1.115-.843-2.483-1.265-4.102-1.265-1.62 0-2.997.422-4.13 1.265-1.116.829-1.674 2.141-1.674 3.938v7.969Zm25.103-7.969v15.203h.01c.118 1.2 1.277 2.14 2.69 2.14 1.411 0 2.57-.94 2.688-2.14h.01V31.125c0-1.797.558-3.11 1.674-3.938 1.133-.843 2.51-1.265 4.13-1.265s2.987.422 4.102 1.265c1.134.829 1.7 2.141 1.7 3.938v15.203h.01c.12 1.2 1.278 2.14 2.69 2.14s2.57-.94 2.69-2.14h.01V31.125c0-2.61-1.116-4.852-3.348-6.727-2.123-1.765-4.741-2.648-7.854-2.648-3.15 0-5.768.883-7.855 2.648-2.231 1.907-3.347 4.149-3.347 6.727Zm35.9 7.969c0 1.797.557 3.117 1.673 3.96 1.133.829 2.51 1.243 4.13 1.243 1.619 0 2.987-.414 4.102-1.242 1.134-.844 1.701-2.164 1.701-3.961v-7.969c0-1.797-.567-3.11-1.701-3.938-1.115-.843-2.483-1.265-4.102-1.265-1.62 0-2.996.422-4.13 1.265-1.116.829-1.674 2.141-1.674 3.938v7.969Z" fill="#2A2D34"/></svg>