<svg xmlns="http://www.w3.org/2000/svg" width="1000" height="1000" fill="none" viewBox="0 0 1000 1000"><path fill="#000" d="M500 1000c219.101 0 340.901 0 420.45-79.55C1000 840.901 1000 719.174 1000 500s0-340.901-79.55-420.45C840.901 0 719.101 0 500 0S159.099 0 79.55 79.55C0 159.099 0 280.899 0 500s0 340.901 79.55 420.45C159.099 1000 280.899 1000 500 1000"/><path fill="#fff" d="M687.788 401.139c-37.771 0-65.805 29.158-65.805 65.134 0 29.375 20.654 52.295 46.801 59.077l-53.601 82.107h50.065l45.569-76.413h34.108v76.413h41.797V401.139Zm5.748 94.999c-17.19 0-27.834-13.491-27.834-28.868s9.755-30.028 27.834-30.028h51.443v58.896ZM458.891 401.139l-13.872 38.188 56.92-.326-33.71 123.631c-9.61 36.048 27.961 63.284 60.021 42.086l72.913-49.466-21.47-31.552-72.822 50.446 49.086-173.007ZM537.391 374.611c15.974 0 28.923-11.667 28.923-26.058s-12.949-26.057-28.923-26.057-28.922 11.666-28.922 26.057 12.949 26.058 28.922 26.058M389.86 569.374V353.192H229.473v115.38c0 54.291-15.721 87.855-24.987 100.711h-19.003v94.292h40.672v-55.741h152.064v55.832h40.654v-94.292ZM269.91 466.197v-74.654h78.244v177.704H247.153c9.157-14.978 22.757-53.093 22.757-103.05"/></svg>