<svg width="298" height="244" fill="none" xmlns="http://www.w3.org/2000/svg"><path d="M210.079 31.105h-2.016" stroke="#1F294C" stroke-linejoin="round"/><path d="M204.036 31.105H77.186" stroke="#1F294C" stroke-linejoin="round" stroke-dasharray="6.99 6.99"/><path d="M75.17 31.105h-2.016M211.474 195.228v-2.016" stroke="#1F294C" stroke-linejoin="round"/><path d="M211.474 189.144V36.549" stroke="#1F294C" stroke-linejoin="round" stroke-dasharray="7.06 7.06"/><path d="M211.474 34.516v-2.017M212.868 29.71h-2.788v2.795h2.788v-2.794Z" stroke="#1F294C" stroke-linejoin="round"/><path d="m234.805 39.453-20.278-8.52 8.52 20.283 2.351-6.86 4.528 4.527 2.546-2.546-4.528-4.528 6.861-2.356Z" stroke="#1F294C" stroke-linecap="round" stroke-linejoin="round"/><path d="m169.085 62.266 5.426-6.7a6.503 6.503 0 0 0 1.302-5.461l-5.144-23.868a3.984 3.984 0 0 0-3.895-3.14h-9.972c-.709 0-1.414.117-2.085.346L58.233 62.934 82.683 189.9c3.456 5.185 99.894-28.177 99.894-28.177a6.494 6.494 0 0 0 4.257-7.656l-19.72-83.095a10.125 10.125 0 0 1 1.971-8.705Z" fill="#75A4E5" stroke="#1F294C" stroke-linecap="round" stroke-linejoin="round"/><path opacity=".3" d="m154.976 25.903 30.533 130.877s-103.253 38.46-98.39 26.558c0 0-24.571-116.918-22.497-117.35 2.074-.433 90.354-40.085 90.354-40.085Z" fill="#000" fill-opacity=".7"/><path d="m180.468 154.446-89.047 28.269-21.8-113.594-1.238-6.463 79.328-38.385a2.962 2.962 0 0 1 4.033 1.993l1.642 6.418 29.801 116.71a4.129 4.129 0 0 1-2.719 5.052Z" fill="#fff"/><mask id="mask0_326_1934" style="mask-type:luminance" maskUnits="userSpaceOnUse" x="68" y="24" width="116" height="159"><path d="m180.468 154.446-89.047 28.269-21.8-113.594-1.238-6.463 79.328-38.385a2.962 2.962 0 0 1 4.033 1.993l1.642 6.418 29.801 116.71a4.129 4.129 0 0 1-2.719 5.052Z" fill="#fff"/></mask><g mask="url('#mask0_326_1934')"><path d="M153.409 32.684 70.261 70.74l-1.878-8.065 79.328-38.385a2.963 2.963 0 0 1 4.033 1.993l1.665 6.4Z" fill="#1F294C"/><path d="M149.255 29.866a1.838 1.838 0 0 1-.485 1.392 1.824 1.824 0 0 1-1.352.585 2.164 2.164 0 0 1-1.844-2.236 1.815 1.815 0 0 1 .485-1.395 1.822 1.822 0 0 1 1.359-.58 2.163 2.163 0 0 1 1.837 2.234ZM144.491 32.217a1.723 1.723 0 0 1-.468 1.29 1.726 1.726 0 0 1-1.26.542 2.006 2.006 0 0 1-1.729-2.074 1.722 1.722 0 0 1 .468-1.29 1.736 1.736 0 0 1 1.261-.542 2.012 2.012 0 0 1 1.728 2.074ZM140.003 34.25a1.581 1.581 0 0 1-.954 1.601c-.205.088-.425.131-.647.128a1.869 1.869 0 0 1-1.596-1.936 1.586 1.586 0 0 1 .952-1.597c.203-.088.422-.133.644-.131a1.881 1.881 0 0 1 1.601 1.935Z" fill="#75A4E5" stroke="#1F294C" stroke-linecap="round" stroke-linejoin="round"/><path opacity=".3" d="m180.468 154.446-89.047 28.269-21.8-113.594-1.238-6.463 79.328-38.385a2.962 2.962 0 0 1 4.033 1.993l1.642 6.418 29.801 116.71a4.129 4.129 0 0 1-2.719 5.052Z" fill="#000" fill-opacity=".7"/></g><path d="m180.468 154.446-89.047 28.269-21.8-113.594-1.238-6.463 79.328-38.385a2.962 2.962 0 0 1 4.033 1.993l1.642 6.418 29.801 116.71a4.129 4.129 0 0 1-2.719 5.052Z" stroke="#1F294C" stroke-linecap="round" stroke-linejoin="round"/><path d="m175.18 148.847-87.826 34.49L65.85 71.264l-1.222-6.371 78.257-43.927a2.741 2.741 0 0 1 4.004 1.728l1.613 6.303 29.38 114.642a4.449 4.449 0 0 1-2.701 5.208Z" fill="#fff" stroke="#1F294C" stroke-linecap="round" stroke-linejoin="round"/><path d="M148.501 28.974 66.477 72.843l-1.85-7.95 78.257-43.927a2.741 2.741 0 0 1 4.004 1.728l1.613 6.28Z" fill="#1F294C"/><path d="M144.393 26.45a1.841 1.841 0 0 1-1.304 1.5 1.84 1.84 0 0 1-2.185-2.531 1.837 1.837 0 0 1 1.674-1.071 1.977 1.977 0 0 1 1.815 2.102ZM139.704 29.118a1.732 1.732 0 0 1-2.197 1.44 1.729 1.729 0 0 1 .515-3.387 1.831 1.831 0 0 1 1.682 1.947ZM135.279 31.48a1.592 1.592 0 0 1-1.132 1.301 1.597 1.597 0 1 1-.446-3.128 1.73 1.73 0 0 1 1.578 1.827Z" fill="#75A4E5" stroke="#1F294C" stroke-linecap="round" stroke-linejoin="round"/><path opacity=".3" d="m147.573 31.808 25.878 101.283a.877.877 0 0 1-.495 1.019l-2.362 1.043a.864.864 0 0 1-1.187-.576l-25.175-100.7a1.19 1.19 0 0 1 .576-1.326l1.947-1.095a.577.577 0 0 1 .818.352Z" fill="#000" fill-opacity=".7"/><path d="m145.355 34.734 1.429-.789a1.022 1.022 0 0 1 1.269.234c.101.12.173.26.211.411l2.645 10.612a1.202 1.202 0 0 1-.576 1.342l-1.729.922a.735.735 0 0 1-1.077-.49l-2.731-10.945a1.19 1.19 0 0 1 .559-1.297Z" fill="#BFBFBF" stroke="#1F294C" stroke-linecap="round" stroke-linejoin="round"/><path opacity=".4" d="m158.271 148.133-56.583 23.303M165.921 141.029l-71.878 30.406" stroke="#000" stroke-width="2" stroke-linecap="round" stroke-linejoin="round"/><path opacity=".3" d="m158.859 110.456-5.801-24.668-15.716 7.512 5.743 24.582 15.774-7.426ZM130.93 65.895l5.461 23.355 15.699-7.599-5.629-23.93-15.531 8.174ZM145.966 55.606l-4.597-19.558-15.515 8.129 4.598 19.662 15.514-8.233ZM143.656 120.319l5.288 22.617 15.912-6.971-5.346-22.738-15.854 7.092Z" fill="#000" fill-opacity=".7"/><path d="M58.233 62.934 82.683 189.9c7.828-8.935 63.727-49.878 63.727-49.878a13.436 13.436 0 0 0 5.213-13.826l-25.884-110.99a5.694 5.694 0 0 0-6.716-4.305 5.703 5.703 0 0 0-2.605 1.303S64.42 44.863 58.233 62.934Z" fill="#75A4E5" stroke="#1F294C" stroke-linecap="round" stroke-linejoin="round"/><path d="M147.193 130.147a1.632 1.632 0 0 1-1.59-1.256c-.446-1.813-.88-3.629-1.302-5.45a1.64 1.64 0 1 1 3.191-.749c.427 1.815.853 3.624 1.291 5.427a1.642 1.642 0 0 1-.624 1.713 1.644 1.644 0 0 1-.966.315ZM143.846 115.56a1.639 1.639 0 0 1-1.596-1.273l-22.427-98.454a.184.184 0 0 0-.121-.144.189.189 0 0 0-.184 0c-5.761 3.837-25.239 16.903-34.272 24.127-5.761 4.787-11.02 10.294-17.07 17.818a1.637 1.637 0 1 1-2.552-2.05c6.187-7.709 11.603-13.355 17.554-18.309 8.906-7.126 27.111-19.374 34.525-24.31a3.455 3.455 0 0 1 5.317 2.125l22.427 98.448a1.647 1.647 0 0 1-.212 1.239 1.656 1.656 0 0 1-1.026.726c-.118.033-.24.053-.363.057Z" fill="#fff" opacity=".7"/><g filter="url('#filter0_f_326_1934')"><path d="M78.473 232.909a2006.608 2006.608 0 0 1-2.692-24.807c-1.3-12.915-8.012-24.764-7.465-26.252.743-1.885 3.292-10.761 3.21-12.778 2.715-.287-1.32-6.389-1.32-6.389l-1.89-6.921s1.904 1.534.793-5.324c-1.112-6.859-4.3-1.918-4.392-3.727-.091-1.809-1.098-5.857-1.098-5.857l-3.842 10.649-3.294 6.921-4.391-1.065c-.303 5.727 8.782 25.024 8.782 25.024l-1.442 6.389s0-20.764-7.34-19.7c-6.039.876-7.214-10.303-13.724 19.7-.595 14.064-2.339 30.371-5.368 44.137h45.473Z" fill="#fff"/></g><path d="M74 199.082c-2.182-7.209.905 9.211 0 0 0 0-.553-14.109 0-15.658a15.556 15.556 0 0 0 1.014-6.159c2.742-.299 3.97-4.032 3.97-4.032l-1.475-13.141s.916-25.169-.208-32.313c-1.123-7.143-5.72-11.942-5.813-13.826-.092-1.884 3.578-10.266 4.782-12.674 1.204-2.408.513-15.866-1.434-20.077a4.378 4.378 0 0 0-2.201-2.304c-2.051-.916-4.39.11-4.39.11a37.592 37.592 0 0 1-5.023 16.936c-1.89 3.284-3.636 5.404-3.952 7.138-.675 3.71-8.86 13.285-10.41 18.239-1.55 4.954-2.046 21.788-4.454 28.424-5.828 16.064-6.97 53.219-9.742 76.509 18.854-67.1 17.825-36.643 24.4-35.49 7.48 1.311 14.936 8.318 14.936 8.318Z" fill="#fff"/><path opacity=".4" d="M76.27 101.262c-1.204 2.39-4.874 10.755-4.781 12.674.092 1.918 4.677 6.694 5.812 13.826 1.135 7.132.208 32.313.208 32.313l1.463 13.146s-1.227 3.745-3.97 4.033c.082 2.1-.263 4.195-1.013 6.158-.576 1.573.472 14.022 1.786 27.474-1.371-5.807-2.5-10.289-2.5-10.289s-.577 7.144-1.377 12.784c-.801 5.64-2.639 13.659-2.639 13.659s-4.119-38.823-3.163-45.31c.957-6.487 3.319-5.421 1.492-8.526-1.826-3.105-12.892-5.778-11.81-8.129 1.084-2.35 9.742 1.815 10.105 1.982-.294-.236-5.11-4.09-5.07-5.876.04-1.786 7.726 2.88 7.726 2.88a26.27 26.27 0 0 0 5.553-4.608c2.345-2.697-1.152-28.488-1.797-30.349-.645-1.861-4.776-1.596-5.98-3.145-1.204-1.55 2.068-2.241 1.44-4.609-.627-2.368-2.304-2.155-2.304-2.155s2.702-3.957 2.46-7.408c-.242-3.451 4.24-7.61 3.918-10.099-1.256-9.69-7.029-3.013-8.596-5.761a37.59 37.59 0 0 0 5.024-16.92s2.339-1.025 4.39-.11a4.378 4.378 0 0 1 2.2 2.305c1.936 4.194 2.633 17.663 1.423 20.06Z" fill="#75A4E5"/><path d="M34.411 227.051a252.898 252.898 0 0 0 3.63-33.874c1.088-30.354 5.184-40.326 6.337-43.431 2.425-6.631 2.932-23.482 4.476-28.436 1.544-4.955 9.736-14.529 10.404-18.239.668-3.71 7.973-9.258 8.976-24.064 0 0 4.637-2.033 6.59 2.178 1.953 4.211 2.644 17.68 1.434 20.077-1.21 2.396-4.879 10.755-4.781 12.674.098 1.918 4.678 6.694 5.807 13.826 1.13 7.132.213 32.319.213 32.319l1.475 13.14s-1.221 3.745-3.964 4.033A15.556 15.556 0 0 1 74 183.407c-.87 2.442 2.063 30.999 4.033 48.893" stroke="#1F294C" stroke-linecap="round" stroke-linejoin="round"/><path d="M71.483 113.918s-1.446 4.033-4.252 4.033" stroke="#1F294C" stroke-linecap="round" stroke-linejoin="round"/><path d="M70.555 115.721s.853 4.897-2.172 8.014M60.3 100.663s3.4-.669 5.531.616M57.939 165.928s11.044 3.457 12.79 5.225c1.745 1.769 4.285 6.112 4.285 6.112M66.563 164.229c1.625 1.826 5.254 3.911 6.97 5.53 1.718 1.619 2.576 5.237 2.576 5.237M73.816 163.376s2.552-1.262 3.865-5.26M70.838 178.089c-2.42 1.222-2.483 15.094-1.21 30.804M72.105 180.964c0 1.532 2.08 13.25 3.03 23.078" stroke="#1F294C" stroke-linecap="round" stroke-linejoin="round"/><path d="M169.943 86.537s-4.517 8.25-4.47 10.116c.046 1.866 8.641 14.817 8.871 16.286.231 1.469 6.447 4.303 8.717 5.807 2.269 1.504 5.138-9.396 4.764-17.243-.375-7.846-17.882-14.966-17.882-14.966Z" fill="#fff"/><mask id="mask1_326_1934" style="mask-type:luminance" maskUnits="userSpaceOnUse" x="165" y="86" width="23" height="33"><path d="M169.943 86.537s-4.517 8.25-4.47 10.116c.046 1.866 8.641 14.817 8.871 16.286.231 1.469 6.447 4.303 8.717 5.807 2.269 1.504 5.138-9.396 4.764-17.243-.375-7.846-17.882-14.966-17.882-14.966Z" fill="#fff"/></mask><g mask="url('#mask1_326_1934')"><path opacity=".5" d="M169.943 86.537s-4.517 8.25-4.47 10.116c.046 1.866 8.641 14.817 8.871 16.286.231 1.469 6.447 4.303 8.717 5.807 2.269 1.504 5.138-9.396 4.764-17.243-.375-7.846-17.882-14.966-17.882-14.966Z" fill="#75A4E5"/></g><path d="M169.943 86.537s-4.517 8.25-4.47 10.116c.046 1.866 8.641 14.817 8.871 16.286.231 1.469 6.447 4.303 8.717 5.807 2.269 1.504 5.138-9.396 4.764-17.243-.375-7.846-17.882-14.966-17.882-14.966Z" stroke="#1F294C" stroke-linecap="round" stroke-linejoin="round"/><path d="M173.031 101.866s4.436-2.016 9.263 3.359" stroke="#1F294C" stroke-linecap="round" stroke-linejoin="round"/><g filter="url('#filter1_f_326_1934')"><path d="m264.56 178.585-27.076 30.579s-4.453-5.548-10.024-12.329c-7.921-9.626-18.095-21.741-20.975-23.948-3.515-2.702-26.357-18.32-32.671-26.057 15.568 0 6.838-7.295 6.141-8.193-4.165-5.37 21.207 9.152 19.138 1.663-2.413-8.756 4.707 2.36 4.707 2.36l-2.885-4.023h5.57l-5.57 4.023s-5.058-12.301-5.433-5.687l-5.545-6.1s2.756-20.365 1.109-23.291c-.764-1.338-3.259-1.233-3.328-2.773 7.437-7.339 15.721 1.569 1.11-2.218 0 0 8.901 3.884 6.654-1.664-2.247-5.547-10.25 2.208-11.091-6.1 0 0-1.96 8.254 1.664 5.546 1.377-1.031 2.042-.677 3.327 1.109.686 1.045.174-5.073.555-3.882 5.421 15.301 11.645 5.546 11.645 5.546l-13.864 1.663 3.328 6.655c1.423.956 6.654 8.872 6.654 8.872h6.1l5.546 1.11 3.327 7.209 3.327 2.218s4.689-13.636 6.1-10.537c2.489 5.439 2.178 18.159 8.873 23.846 3.007 9.58 14.761 18.341 24.992 27.351a188.508 188.508 0 0 0 8.595 7.052Z" fill="#fff"/></g><path d="m264.56 178.585-54.105-37.176s18.566 55.026 12.995 48.246c-7.921-9.627-14.085-14.562-16.965-16.768-3.515-2.702-26.357-18.32-32.671-26.057a169.609 169.609 0 0 1-2.39-2.99c-4.166-5.369-4.995-7.673-7.063-15.162-2.414-8.757-5.076-13.59-5.761-16.828 0-.098-.041-.196-.058-.305-.697-3.589-1.918-14.403-3.508-17.15-1.636-2.835 4.862-4.206 7.339-2.627 2.477 1.578 8.642 9.217 8.267 15.83 0 0 4.857 11.966 7.334 11.643 0 0-.323-11.988-1.97-14.915a9.707 9.707 0 0 1-1.268-4.378 5.74 5.74 0 0 1 .035-1.112s-7.634-8.238-9.88-13.786c-2.247-5.547-6.648-14.085-7.489-22.392 0 0-.991-5.974 2.632-8.682 1.377-1.031 2.65-1.325 3.935.46a13.77 13.77 0 0 1 1.607 3.37c5.421 15.302 12.098 21.166 12.098 21.166a51.637 51.637 0 0 1 7.656 2.65c.544.272 1.068.582 1.567.928 1.423.956 3.152 2.339 4.938 3.699 2.569 1.953 5.248 3.842 7.258 4.286 7.011 1.52 10.37 5.08 10.37 5.08s4.655-.99 7.115 3.342c2.39 4.194 3.704 5.029 3.704 5.029s1.757 0 3.168 3.1c2.489 5.438 9.967 34.404 10.336 35.573 3.007 9.581 11.948 19.864 22.179 28.874a188.508 188.508 0 0 0 8.595 7.052Z" fill="#fff"/><path opacity=".4" d="M194.461 94.297s-8.099-1.458-9.695-5.133c-1.596-3.676-8.377-11.522-10.001-12.03a2.558 2.558 0 0 0-2.633.623s-2.811-4.436-4.925-8.267c-2.005-3.64-11.926-14.558-3.244-15.053a13.77 13.77 0 0 1 1.607 3.37c5.421 15.3 12.098 21.165 12.098 21.165a51.69 51.69 0 0 1 7.657 2.65c.544.272 1.067.582 1.567.928-.208-.052-3.457-.858-2.806.8.651 1.66 5.934 6.5 8.711 8.596 2.776 2.097 1.664 2.35 1.664 2.35ZM256.005 171.539c-4.58-2.506-11.521-6.648-13.826-9.903-3.56-5.012-6.204-7.524-8.578-10.427-2.373-2.904-6.867-5.277-5.813-4.886 1.055.392 5.825 2.046 5.825 2.046a46.018 46.018 0 0 1-6.337-11.805c-2.771-7.391-7.818-33.413-11.568-36.293-3.751-2.88 0 25.509 0 25.509a84.196 84.196 0 0 1-5.329-17.283c-1.728-9.332-3.284-13.912-5.312-15.174-2.028-1.262-5.91 1.394-6.97 0-1.06-1.394.138-1.907-6.234-7.057 2.57 1.953 5.248 3.842 7.259 4.286 7.011 1.52 10.37 5.081 10.37 5.081s4.655-.99 7.114 3.342c2.391 4.193 3.705 5.029 3.705 5.029s1.757 0 3.168 3.099c2.489 5.438 9.967 34.404 10.335 35.574 3.008 9.569 11.96 19.852 22.191 28.862ZM180.641 124.749c-.3 1.728-2.477-3.376-2.673-2.587-.196.789-.789 3.393-.824 2.587-.034-.807-4.655-3.376-5.45-7.207-.795-3.831-1.319-5.462-1.728-6.424-.409-.962-1.1.64-1.152-1.682-.04-2.08-6.735-4.269-10.301 2.109-.697-3.589-1.918-14.403-3.508-17.15-1.636-2.835 4.862-4.206 7.339-2.628 2.478 1.579 8.642 9.218 8.267 15.831 0 0 4.857 11.966 7.334 11.643 0 0-.323-11.988-1.97-14.915a9.707 9.707 0 0 1-1.268-4.378l2.414.328c.651 1.429-.622 3.457 0 4.494s4.528 8.538 3.232 12.426c-1.296 3.889.588 5.824.288 7.553ZM227.443 196.835c-7.922-9.626-18.095-21.742-20.976-23.948-3.514-2.702-26.356-18.32-32.67-26.057a170.021 170.021 0 0 1-2.391-2.99c3.365 4.108 7.489 6.268 9.264 7.236 3.168 1.728 12.345 3.192 18.752 10.139 3.11 3.376 4.885 5.836 8.71 10.059 3.825 4.223 9.373 4.488 12.674 10.3 1.654 2.915 4.401 9.477 6.637 15.261Z" fill="#75A4E5"/><path d="M237.467 209.164s-26.097-32.515-31-36.294c-3.514-2.696-26.356-18.32-32.67-26.057-6.314-7.737-7.04-9.39-9.453-18.141-2.414-8.751-5.07-13.584-5.761-16.828-.692-3.243-1.93-14.62-3.566-17.45-1.636-2.828 4.862-4.205 7.339-2.632 2.477 1.573 8.641 9.217 8.267 15.837 0 0 4.856 11.965 7.334 11.642 0 0-.323-11.988-1.971-14.915a9.137 9.137 0 0 1-1.227-5.484s-7.644-8.244-9.874-13.792c-2.229-5.547-6.648-14.085-7.489-22.392 0 0-.985-5.969 2.638-8.682 1.948-1.458 3.676-1.44 5.542 3.83 5.427 15.302 12.098 21.167 12.098 21.167a51.69 51.69 0 0 1 7.657 2.65c3.226 1.515 9.793 8.065 13.78 8.912 7.005 1.526 10.369 5.087 10.369 5.087s4.655-.991 7.115 3.341c2.385 4.194 3.704 5.035 3.704 5.035s1.729 0 3.169 3.094c2.489 5.438 9.966 34.404 10.335 35.573 3.831 12.196 17.283 25.527 30.735 35.92" stroke="#1F294C" stroke-linecap="round" stroke-linejoin="round"/><path d="M177.691 78.972s6.631 9.183 11.275 10.946M188.603 91.946c4.47 1.434 7.356 2.304 8.18 5.657.824 3.353 3.215 10.992 4.367 13.988 1.152 2.995 3.917 10.571 3.917 10.571M177.968 119.241s3.042 3.958 2.304 7.835M176.678 118.602s-.133 4.303.944 7.184M174.771 98.825s2.442 1.313 3.024 2.88M176.545 105.772a17.61 17.61 0 0 0 2.27 3.664c1.181 1.296 1.728 5.508 1.728 5.508M158.594 111.844s2.633-2.961 5.352-3.364M171.055 78.39s3.065-2.304 5.386-.708M222.039 111.458c.611 1.677 3.745 16.816 4.528 18.965M200.608 94.106s2.881-2.062 6.487.467c3.607 2.529 3.612 3.75 5.836 3.157a3.744 3.744 0 0 1 3.687 1.233M212.223 104.77c.576 3.393 3.018 20.002 4.199 24.196" stroke="#1F294C" stroke-linecap="round" stroke-linejoin="round"/><defs><filter id="filter0_f_326_1934" x="28" y="135.854" width="55.473" height="102.054" filterUnits="userSpaceOnUse" color-interpolation-filters="sRGB"><feFlood flood-opacity="0" result="BackgroundImageFix"/><feBlend in="SourceGraphic" in2="BackgroundImageFix" result="shape"/><feGaussianBlur stdDeviation="2.5" result="effect1_foregroundBlur_326_1934"/></filter><filter id="filter1_f_326_1934" x="163.814" y="84.827" width="110.746" height="134.336" filterUnits="userSpaceOnUse" color-interpolation-filters="sRGB"><feFlood flood-opacity="0" result="BackgroundImageFix"/><feBlend in="SourceGraphic" in2="BackgroundImageFix" result="shape"/><feGaussianBlur stdDeviation="5" result="effect1_foregroundBlur_326_1934"/></filter></defs></svg>