<svg xmlns="http://www.w3.org/2000/svg" viewBox="0 0 784 500"><g id="freepik--Device--inject-2"><path style="fill:#263238;stroke:#263238;stroke-linecap:round;stroke-linejoin:round" d="M391.04 337.85h30.22v121.93h-30.22z"/><path style="fill:#263238;stroke:#263238;stroke-linecap:round;stroke-linejoin:round" d="M223.12 136.72h381.42v231.35H223.12z"/><path style="fill:#75a4e5;stroke:#263238;stroke-linecap:round;stroke-linejoin:round" d="M215.44 136.72h381.42v231.35H215.44z"/><path style="fill:#fff;stroke:#263238;stroke-linecap:round;stroke-linejoin:round" d="M229.18 145.05h353.93v214.68H229.18z"/><path style="fill:#fff;stroke:#263238;stroke-linecap:round;stroke-linejoin:round" d="M229.18 346.81h353.93v12.93H229.18z"/><path style="fill:#263238;stroke:#263238;stroke-linecap:round;stroke-linejoin:round" d="m407.8 446.1-112.05 7.24v7.3h220.8v-7.3L407.8 446.1z"/><path style="fill:#fff;stroke:#263238;stroke-linecap:round;stroke-linejoin:round" d="M229.18 145.05h353.93v214.68H229.18z"/><path style="fill:#fff;stroke:#263238;stroke-linecap:round;stroke-linejoin:round" d="M405.08 156.71h170.66v48.35H405.08zM467.45 216.64h107.61v64.02H467.45z"/><path style="fill:#263238;stroke:#263238;stroke-linecap:round;stroke-linejoin:round" d="m467.45 280.66 37.46-29.97 15.66 11.58 32.69-25.2 21.11 20.43v23.16H467.45zM493.33 233a7.49 7.49 0 1 1-7.49-7.5 7.5 7.5 0 0 1 7.49 7.5Z"/><path style="fill:#fff;stroke:#263238;stroke-linecap:round;stroke-linejoin:round" d="M467.45 289.51h107.61v64.02H467.45z"/><path style="fill:#263238;stroke:#263238;stroke-linecap:round;stroke-linejoin:round" d="m467.45 353.53 37.46-29.97 15.66 11.58 32.69-25.2 21.11 20.44v23.15H467.45zM493.33 305.86a7.49 7.49 0 1 1-7.49-7.49 7.5 7.5 0 0 1 7.49 7.49Z"/><path d="m413.91 320.57-4.19-25.72h3l2.76 18.48 3.45-18.33h2.54l3.53 18.43 2.7-18.58h2.93l-4.13 25.72h-2.61l-3.59-19.05-3.62 19.05Z" style="fill:#263238"/><path style="fill:none;stroke:#263238;stroke-miterlimit:10" d="M434.49 296.41h25.16M434.49 303.35h25.16M434.49 310.29h25.16M434.49 317.23h25.16M434.49 324.17h25.16M434.49 331.11h25.16M434.49 338.05h25.16M434.49 344.99h25.16M434.49 351.93h25.16"/><path d="M419.47 217.66a34.55 34.55 0 0 0-19.3 5.86v-78.47h-171v214.68h171v-78.46a34.73 34.73 0 1 0 19.3-63.61Z" style="fill:#263238;stroke:#263238;stroke-linecap:round;stroke-linejoin:round"/><path style="fill:none;stroke:#fff;stroke-linecap:round;stroke-linejoin:round;stroke-width:2px" d="M246.97 177.82h76.96M246.97 200.85h40.18"/><path style="fill:none;stroke:#75a4e5;stroke-linecap:round;stroke-linejoin:round;stroke-width:2px" d="M246.97 188.18h37.46M292.6 188.18h19.75M323.93 188.18h19.75"/><path style="fill:none;stroke:#fff;stroke-linecap:round;stroke-linejoin:round;stroke-width:2px" d="M246.97 210.64h37.46M292.6 210.64h19.75"/><path style="fill:none;stroke:#75a4e5;stroke-linecap:round;stroke-linejoin:round;stroke-width:2px" d="M323.93 210.64h19.75"/><path style="fill:none;stroke:#fff;stroke-linecap:round;stroke-linejoin:round;stroke-width:2px" d="M246.97 233.09h37.46"/><path style="fill:none;stroke:#75a4e5;stroke-linecap:round;stroke-linejoin:round;stroke-width:2px" d="M292.6 233.09h19.75"/><path style="fill:none;stroke:#fff;stroke-linecap:round;stroke-linejoin:round;stroke-width:2px" d="M323.93 233.09h19.75M270.12 242.88h28.49M304.83 242.88h15.02M328.65 242.88h15.03M270.12 254.97h28.49M304.83 254.97h15.02M328.65 254.97h15.03"/><path style="fill:none;stroke:#75a4e5;stroke-linecap:round;stroke-linejoin:round;stroke-width:2px" d="M246.97 268.21h76.96"/><path style="fill:none;stroke:#fff;stroke-linecap:round;stroke-linejoin:round;stroke-width:2px" d="M246.97 291.24h40.18"/><path style="fill:none;stroke:#75a4e5;stroke-linecap:round;stroke-linejoin:round;stroke-width:2px" d="M246.97 278.57h37.46"/><path style="fill:none;stroke:#fff;stroke-linecap:round;stroke-linejoin:round;stroke-width:2px" d="M292.6 278.57h19.75"/><path style="fill:none;stroke:#75a4e5;stroke-linecap:round;stroke-linejoin:round;stroke-width:2px" d="M323.93 278.57h19.75M246.97 301.03h37.46M292.6 301.03h19.75"/><path style="fill:none;stroke:#fff;stroke-linecap:round;stroke-linejoin:round;stroke-width:2px" d="M323.93 301.03h19.75M246.97 323.48h37.46"/><path style="fill:none;stroke:#75a4e5;stroke-linecap:round;stroke-linejoin:round;stroke-width:2px" d="M292.6 323.48h19.75M323.93 323.48h19.75"/><path style="fill:none;stroke:#fff;stroke-linecap:round;stroke-linejoin:round;stroke-width:2px" d="M270.12 333.27h28.49M304.83 333.27h15.02M328.65 333.27h15.03M270.12 345.36h28.49M304.83 345.36h15.02M328.65 345.36h15.03"/><path d="m249.07 164 7.23-3.73v1.08l-6.09 3.06 6.09 3.05v1.08l-7.23-3.73ZM260.63 169.2l4.37-11.3h1l-4.36 11.3ZM277.57 164.87l-7.23 3.71v-1.08l6.14-3.05-6.14-3.06v-1.08l7.23 3.71Z" style="fill:#fff;stroke:#fff;stroke-miterlimit:10"/></g><g id="freepik--Table--inject-2"><path style="fill:none;stroke:#263238;stroke-miterlimit:10" d="M85.96 460.64h635.03M52.99 460.64h17.09"/></g></svg>