<svg xmlns="http://www.w3.org/2000/svg" viewBox="0 0 500 500"><defs><clipPath id="freepik--clip-path--inject-2"><path d="m307.18 319.55-154.57 49.07-37.84-197.18-2.15-11.22 137.7-66.63a5.14 5.14 0 0 1 7 3.46l2.85 11.14 51.73 202.59a7.17 7.17 0 0 1-4.72 8.77Z" style="fill:#fff;stroke:#263238;stroke-linecap:round;stroke-linejoin:round"/></clipPath><clipPath id="freepik--clip-path-2--inject-2"><path d="M288.91 201.67s-7.84 14.32-7.76 17.56 15 25.72 15.4 28.27 11.19 7.47 15.13 10.08 8.92-16.31 8.27-29.93-31.04-25.98-31.04-25.98Z" style="fill:#fff;stroke:#263238;stroke-linecap:round;stroke-linejoin:round"/></clipPath></defs><g id="freepik--left-hand--inject-2"><path d="m287.42 159.54 9.42-11.63a11.29 11.29 0 0 0 2.26-9.48L290.17 97a6.91 6.91 0 0 0-6.76-5.45H266.1a11.17 11.17 0 0 0-3.62.6L95 160.7l42.44 220.39c6 9 173.4-48.91 173.4-48.91a11.27 11.27 0 0 0 7.39-13.29L284 174.65a17.58 17.58 0 0 1 3.42-15.11Z" style="fill:#75a4e5;stroke:#263238;stroke-linecap:round;stroke-linejoin:round"/><path d="m262.93 96.42 53 227.18s-179.23 66.76-170.79 46.1c0 0-42.65-202.95-39.05-203.7s156.84-69.58 156.84-69.58Z" style="fill-opacity:.7;opacity:.3"/><path d="m307.18 319.55-154.57 49.07-37.84-197.18-2.15-11.22 137.7-66.63a5.14 5.14 0 0 1 7 3.46l2.85 11.14 51.73 202.59a7.17 7.17 0 0 1-4.72 8.77Z" style="fill:#fff"/><g style="-webkit-clip-path:url(#freepik--clip-path--inject-2);clip-path:url(#freepik--clip-path--inject-2)"><path d="m260.21 108.19-144.33 66.06-3.26-14 137.7-66.63a5.14 5.14 0 0 1 7 3.46Z" style="fill:#263238"/><path d="M253 103.3a3.18 3.18 0 0 1-3.19 3.43 3.76 3.76 0 0 1-3.2-3.88 3.17 3.17 0 0 1 3.2-3.43 3.76 3.76 0 0 1 3.19 3.88ZM244.73 107.38a3 3 0 0 1-3 3.18 3.48 3.48 0 0 1-3-3.6 3 3 0 0 1 3-3.18 3.49 3.49 0 0 1 3 3.6ZM236.94 110.91a2.75 2.75 0 0 1-2.78 3 3.25 3.25 0 0 1-2.77-3.36 2.76 2.76 0 0 1 2.77-3 3.26 3.26 0 0 1 2.78 3.36Z" style="fill:#75a4e5;stroke:#263238;stroke-linecap:round;stroke-linejoin:round"/><path d="m307.18 319.55-154.57 49.07-37.84-197.18-2.15-11.22 137.7-66.63a5.14 5.14 0 0 1 7 3.46l2.85 11.14 51.73 202.59a7.17 7.17 0 0 1-4.72 8.77Z" style="fill-opacity:.7;opacity:.3"/></g><path d="m307.18 319.55-154.57 49.07-37.84-197.18-2.15-11.22 137.7-66.63a5.14 5.14 0 0 1 7 3.46l2.85 11.14 51.73 202.59a7.17 7.17 0 0 1-4.72 8.77Z" style="fill:none;stroke:#263238;stroke-linecap:round;stroke-linejoin:round"/><path d="M298 309.83 145.55 369.7l-37.33-194.54-2.12-11.06 135.84-76.25a4.76 4.76 0 0 1 6.95 3l2.8 10.94 51 199a7.73 7.73 0 0 1-4.69 9.04Z" style="fill:#fff;stroke:#263238;stroke-linecap:round;stroke-linejoin:round"/><path d="M251.69 101.75 109.31 177.9l-3.21-13.8 135.84-76.25a4.76 4.76 0 0 1 6.95 3Z" style="fill:#263238"/><path d="M244.56 97.37a3.19 3.19 0 1 1-3.15-3.65 3.43 3.43 0 0 1 3.15 3.65ZM236.42 102a3 3 0 1 1-2.92-3.38 3.18 3.18 0 0 1 2.92 3.38ZM228.74 106.1a2.77 2.77 0 1 1-2.74-3.17 3 3 0 0 1 2.74 3.17Z" style="fill:#75a4e5;stroke:#263238;stroke-linecap:round;stroke-linejoin:round"/><path d="M250.08 106.67 295 282.48a1.53 1.53 0 0 1-.86 1.77l-4.1 1.81a1.5 1.5 0 0 1-2.06-1l-43.7-174.8a2.06 2.06 0 0 1 1-2.3l3.38-1.9a1 1 0 0 1 1.42.61Z" style="fill-opacity:.7;opacity:.3"/><path d="m246.23 111.75 2.48-1.37a1.77 1.77 0 0 1 2.57 1.12l4.59 18.42a2.08 2.08 0 0 1-1 2.33l-3 1.6A1.28 1.28 0 0 1 250 133l-4.74-19a2.06 2.06 0 0 1 .97-2.25Z" style="fill:#bfbfbf;stroke:#263238;stroke-linecap:round;stroke-linejoin:round"/><path style="fill:none;stroke:#000;stroke-linecap:round;stroke-linejoin:round;stroke-width:2px;opacity:.4" d="m268.65 308.59-98.22 40.45M281.93 296.26l-124.77 52.78"/><path style="fill-opacity:.7;opacity:.3" d="m269.67 243.19-10.07-42.82-27.28 13.04 9.97 42.67 27.38-12.89zM221.19 165.84l9.48 40.54 27.25-13.19-9.77-41.54-26.96 14.19zM247.29 147.98l-7.98-33.95-26.93 14.11 7.98 34.13 26.93-14.29zM243.28 260.31l9.18 39.26 27.62-12.1L270.8 248l-27.52 12.31z"/><path d="m95 160.7 42.44 220.39c13.59-15.51 110.62-86.58 110.62-86.58a23.31 23.31 0 0 0 9.05-24L212.18 77.85A9.89 9.89 0 0 0 196 72.64s-90.26 56.69-101 88.06Z" style="fill:#75a4e5;stroke:#263238;stroke-linecap:round;stroke-linejoin:round"/><g style="opacity:.7"><path d="M249.42 277.37a2.84 2.84 0 0 1-2.76-2.18q-1.16-4.72-2.26-9.46a2.85 2.85 0 1 1 5.54-1.3c.74 3.15 1.48 6.29 2.24 9.42a2.84 2.84 0 0 1-2.09 3.44 3.07 3.07 0 0 1-.67.08Z" style="fill:#fff"/></g><g style="opacity:.7"><path d="M243.61 252.05a2.84 2.84 0 0 1-2.77-2.21l-38.93-170.9a.32.32 0 0 0-.21-.25.33.33 0 0 0-.32 0c-10 6.66-43.81 29.34-59.49 41.88-10 8.31-19.13 17.87-29.63 30.93a2.84 2.84 0 0 1-4.43-3.56c10.74-13.38 20.14-23.18 30.47-31.78 15.46-12.37 47.06-33.63 59.93-42.2a6 6 0 0 1 9.23 3.69l38.93 170.89a2.85 2.85 0 0 1-2.15 3.41 2.7 2.7 0 0 1-.63.1Z" style="fill:#fff"/></g><path d="M130.19 462.39c-1.34-12.08-3.15-28.86-4.72-44.85-2.28-23.35-4.06-45-3.1-47.69a27 27 0 0 0 1.76-10.69c4.76-.52 6.89-7 6.89-7l-2.56-22.81s1.59-43.69-.36-56.09-9.93-20.73-10.09-24 6.21-17.82 8.3-22 .89-27.54-2.49-34.85a7.6 7.6 0 0 0-3.82-4c-3.56-1.59-7.62.19-7.62.19a65.25 65.25 0 0 1-8.72 29.4c-3.28 5.7-6.31 9.38-6.86 12.39-1.17 6.44-15.38 23.06-18.07 31.66s-3.55 37.82-7.73 49.34c-2 5.42-9.13 22.7-11 75.39a450.83 450.83 0 0 1-9.55 75.61Z" style="fill:#fff"/><path d="M126.31 227.23c-2.09 4.15-8.46 18.67-8.3 22s8.12 11.62 10.09 24 .36 56.09.36 56.09l2.54 22.82s-2.13 6.5-6.89 7a27 27 0 0 1-1.76 10.69c-1 2.73.82 24.34 3.1 47.69-2.38-10.08-4.34-17.86-4.34-17.86s-1 12.4-2.39 22.19-4.58 23.71-4.58 23.71-7.15-67.39-5.49-78.65 5.76-9.41 2.59-14.8-22.38-10.03-20.5-14.11 16.91 3.15 17.54 3.44c-.51-.41-8.87-7.1-8.8-10.2s13.41 5 13.41 5a45.62 45.62 0 0 0 9.64-8c4.07-4.68-2-49.45-3.12-52.68s-8.29-2.77-10.38-5.46 3.59-3.89 2.5-8-4-3.74-4-3.74 4.69-6.87 4.27-12.86 7.36-13.21 6.8-17.53c-2.18-16.82-12.2-5.23-14.92-10a65.25 65.25 0 0 0 8.72-29.37s4.06-1.78 7.62-.19a7.6 7.6 0 0 1 3.82 4c3.36 7.28 4.57 30.66 2.47 34.82Z" style="fill:#75a4e5;opacity:.4"/><path d="M53.65 445.58a439 439 0 0 0 6.3-58.8c1.89-52.69 9-70 11-75.39 4.21-11.51 5.09-40.76 7.77-49.36s16.9-25.22 18.06-31.66 13.84-16.07 15.58-41.77c0 0 8.05-3.53 11.44 3.78s4.59 30.69 2.49 34.85-8.47 18.67-8.3 22 8.12 11.62 10.08 24 .37 56.1.37 56.1l2.56 22.81s-2.12 6.5-6.88 7a27 27 0 0 1-1.75 10.68c-1.51 4.24 3.58 53.81 7 84.87" style="fill:none;stroke:#263238;stroke-linecap:round;stroke-linejoin:round"/><path d="M118 249.2s-2.51 7-7.38 7" style="fill:none;stroke:#263238;stroke-linecap:round;stroke-linejoin:round"/><path d="M116.39 252.33s1.48 8.5-3.77 13.91M98.59 226.19s5.9-1.16 9.6 1.07M94.49 339.48s19.17 6 22.2 9.07 7.44 10.61 7.44 10.61M109.46 336.53c2.82 3.17 9.12 6.79 12.1 9.6s4.47 9.09 4.47 9.09M122.05 335.05s4.43-2.19 6.71-9.13M116.88 360.59c-4.2 2.12-4.31 26.2-2.1 53.47M119.08 365.58c0 2.66 3.61 23 5.26 40.06" style="fill:none;stroke:#263238;stroke-linecap:round;stroke-linejoin:round"/></g><g id="freepik--right-hand--inject-2"><path d="M288.91 201.67s-7.84 14.32-7.76 17.56 15 25.72 15.4 28.27 11.19 7.47 15.13 10.08 8.92-16.31 8.27-29.93-31.04-25.98-31.04-25.98Z" style="fill:#fff"/><g style="-webkit-clip-path:url(#freepik--clip-path-2--inject-2);clip-path:url(#freepik--clip-path-2--inject-2)"><path d="M288.91 201.67s-7.84 14.32-7.76 17.56 15 25.72 15.4 28.27 11.19 7.47 15.13 10.08 8.92-16.31 8.27-29.93-31.04-25.98-31.04-25.98Z" style="fill:#75a4e5;opacity:.5"/></g><path d="M288.91 201.67s-7.84 14.32-7.76 17.56 15 25.72 15.4 28.27 11.19 7.47 15.13 10.08 8.92-16.31 8.27-29.93-31.04-25.98-31.04-25.98Z" style="fill:none;stroke:#263238;stroke-linecap:round;stroke-linejoin:round"/><path d="M294.27 228.28s7.7-3.5 16.08 5.83" style="fill:none;stroke:#263238;stroke-linecap:round;stroke-linejoin:round"/><path d="m453.15 361.45-47 53.08s-7.73-9.63-17.4-21.4c-13.75-16.71-31.41-37.74-36.41-41.57-6.1-4.69-45.75-31.8-56.71-45.23-1.57-1.93-2.94-3.63-4.15-5.19-7.23-9.32-8.67-13.32-12.26-26.32-4.19-15.2-8.81-23.59-10-29.21 0-.17-.07-.34-.1-.53-1.21-6.23-3.33-25-6.09-29.77-2.84-4.92 8.44-7.3 12.74-4.56s15 16 14.35 27.48c0 0 8.43 20.77 12.73 20.21 0 0-.56-20.81-3.42-25.89a16.85 16.85 0 0 1-2.2-7.6 10 10 0 0 1 .06-1.93s-13.25-14.3-17.15-23.93-11.54-24.45-13-38.87c0 0-1.72-10.37 4.57-15.07 2.39-1.79 4.6-2.3 6.83.8a23.91 23.91 0 0 1 2.79 5.85c9.41 26.56 21 36.74 21 36.74a89.74 89.74 0 0 1 13.29 4.6 21.92 21.92 0 0 1 2.72 1.61c2.47 1.66 5.47 4.06 8.57 6.42 4.46 3.39 9.11 6.67 12.6 7.44 12.17 2.64 18 8.82 18 8.82s8.08-1.72 12.35 5.8c4.15 7.28 6.43 8.73 6.43 8.73s3.05 0 5.5 5.38c4.32 9.44 17.3 59.72 17.94 61.75 5.22 16.63 20.74 34.48 38.5 50.12 4.91 4.28 9.91 8.37 14.92 12.24Z" style="fill:#fff"/><path d="M318.39 194.76ZM331.47 215.14s-14.06-2.53-16.83-8.91-14.54-20-17.36-20.88a4.44 4.44 0 0 0-4.57 1.08s-4.88-7.7-8.55-14.35c-3.48-6.32-20.7-25.27-5.63-26.13a23.91 23.91 0 0 1 2.79 5.85c9.41 26.56 21 36.74 21 36.74a89.74 89.74 0 0 1 13.29 4.6 21.92 21.92 0 0 1 2.72 1.61c-.36-.09-6-1.49-4.87 1.39s10.3 11.28 15.12 14.92 2.89 4.08 2.89 4.08ZM438.3 349.22c-7.95-4.35-20-11.54-24-17.19-6.18-8.7-10.77-13.06-14.89-18.1s-11.92-9.16-10.09-8.48 10.11 3.55 10.11 3.55a79.87 79.87 0 0 1-11-20.49c-4.81-12.83-13.57-58-20.08-63s0 44.28 0 44.28a146.21 146.21 0 0 1-9.25-30c-3-16.2-5.7-24.15-9.22-26.34s-10.26 2.42-12.1 0 .24-3.31-10.82-12.25c4.46 3.39 9.11 6.67 12.6 7.44 12.17 2.64 18 8.82 18 8.82s8.08-1.72 12.35 5.8c4.15 7.28 6.43 8.73 6.43 8.73s3.05 0 5.5 5.38c4.32 9.44 17.3 59.72 17.94 61.75 5.22 16.61 20.76 34.46 38.52 50.1ZM307.48 268c-.52 3-4.3-5.86-4.64-4.49s-1.37 5.89-1.43 4.49-8.08-5.86-9.46-12.51-2.29-9.48-3-11.15-1.91 1.11-2-2.92c-.07-3.61-11.69-7.41-17.88 3.66-1.21-6.23-3.33-25-6.09-29.77-2.84-4.92 8.44-7.3 12.74-4.56s15 16 14.35 27.48c0 0 8.43 20.77 12.73 20.21 0 0-.56-20.81-3.42-25.89a16.85 16.85 0 0 1-2.2-7.6l4.19.57c1.13 2.48-1.08 6 0 7.8s7.86 14.82 5.61 21.57 1.02 10.11.5 13.11ZM388.72 393.13c-13.75-16.71-31.41-37.74-36.41-41.57-6.1-4.69-45.75-31.8-56.71-45.23-1.57-1.93-2.94-3.63-4.15-5.19 5.84 7.13 13 10.88 16.08 12.56 5.5 3 21.43 5.54 32.55 17.6 5.4 5.86 8.48 10.13 15.12 17.46s16.27 7.79 22 17.88c2.87 5.06 7.64 16.45 11.52 26.49Z" style="fill:#75a4e5;opacity:.4"/><path d="M406.12 414.53s-45.3-56.44-53.81-63c-6.1-4.68-45.75-31.8-56.71-45.23s-12.22-16.3-16.41-31.49-8.8-23.58-10-29.21-3.35-25.38-6.19-30.29 8.44-7.3 12.74-4.57 15 16 14.35 27.49c0 0 8.43 20.77 12.73 20.21 0 0-.56-20.81-3.42-25.89a15.85 15.85 0 0 1-2.13-9.52s-13.27-14.31-17.14-23.94-11.54-24.45-13-38.87c0 0-1.71-10.36 4.58-15.07 3.38-2.53 6.38-2.5 9.62 6.65 9.42 26.56 21 36.74 21 36.74a89.74 89.74 0 0 1 13.29 4.6c5.6 2.63 17 14 23.92 15.47 12.16 2.65 18 8.83 18 8.83s8.08-1.72 12.35 5.8c4.14 7.28 6.43 8.74 6.43 8.74s3 0 5.5 5.37c4.32 9.44 17.3 59.72 17.94 61.75 6.65 21.17 30 44.31 53.35 62.35" style="fill:none;stroke:#263238;stroke-linecap:round;stroke-linejoin:round"/><path d="M302.36 188.54s11.51 15.94 19.57 19M321.3 211.06c7.76 2.49 12.77 4 14.2 9.82s5.58 19.08 7.58 24.28 6.8 18.35 6.8 18.35M302.84 258.44s5.28 6.87 4 13.6M300.6 257.33s-.23 7.47 1.64 12.47M297.29 223s4.24 2.28 5.25 5M300.37 235.06a30.57 30.57 0 0 0 3.94 6.36c2.05 2.25 3 9.56 3 9.56M269.21 245.6s4.57-5.14 9.29-5.84M290.84 187.53s5.32-4 9.35-1.23M379.34 244.93c1.06 2.91 6.5 29.19 7.86 32.92M342.14 214.81s5-3.58 11.26.81 6.27 6.51 10.13 5.48a6.5 6.5 0 0 1 6.4 2.14M362.3 233.32c1 5.89 5.24 34.72 7.29 42" style="fill:none;stroke:#263238;stroke-linecap:round;stroke-linejoin:round"/></g></svg>