<svg xmlns="http://www.w3.org/2000/svg" viewBox="0 0 500 500"><g id="freepik--Shadow--inject-4"><ellipse cx="275.1" cy="416.25" rx="179.33" ry="48.3" style="fill:#75a4e5"/><ellipse cx="275.1" cy="416.25" rx="179.33" ry="48.3" style="fill:#fff;opacity:.5"/></g><g id="freepik--Window--inject-4"><rect width="228.73" height="136.09" x="77.18" y="68.3" rx="8.95" style="fill:#fff"/><path d="M305.91 77.25v3.54H77.18v-3.54a9 9 0 0 1 8.95-9H297a8.94 8.94 0 0 1 8.91 9" style="fill:#75a4e5"/><rect width="228.73" height="136.09" x="77.18" y="68.3" rx="8.95" style="fill:none;stroke:#263238;stroke-linecap:round;stroke-linejoin:round"/><path d="M305.91 77.25v3.54H77.18v-3.54a9 9 0 0 1 8.95-9H297a8.94 8.94 0 0 1 8.91 9" style="fill:none;stroke:#263238;stroke-linecap:round;stroke-linejoin:round"/><path d="M102.87 74.54a2.29 2.29 0 1 1-2.29-2.28 2.29 2.29 0 0 1 2.29 2.28M114.82 74.54a2.29 2.29 0 1 1-2.29-2.28 2.29 2.29 0 0 1 2.29 2.28" style="fill:#263238"/><circle cx="124.48" cy="74.54" r="2.29" style="fill:#263238"/><rect width="72.05" height="38.49" x="90.74" y="90.7" rx="3.69" style="fill:none;stroke:#263238;stroke-linecap:round;stroke-linejoin:round"/><path d="M94.98 124.35h62.47" style="fill:none;stroke:#263238;stroke-linecap:round;stroke-linejoin:round"/><path d="M99.62 117h7.25v7.25h-7.25ZM110.23 107.47h7.25v16.88h-7.25ZM122.18 110.37h7.25v14.15h-7.25ZM134.74 96.28h7.25v27.75h-7.25ZM147.29 96.5h7.25v27.75h-7.25Z" style="fill:#75a4e5;stroke:#263238;stroke-miterlimit:10"/><circle cx="252.12" cy="110.91" r="20.27" style="fill:#75a4e5;stroke:#263238;stroke-miterlimit:10"/><path d="M253.78 123.55v2.08h-3.4v-2.08a6.18 6.18 0 0 1-4.72-6.3v-.94l3.85-.42v1c0 1.93 1 3.1 2.57 3.1a2.37 2.37 0 0 0 2.56-2.53c0-1.85-1.73-3.44-3.77-5.13-2.42-2-4.83-4.38-4.83-7.74s1.58-5.63 4.34-6.31v-2.09h3.4v2.07c2.79.65 4.41 3 4.41 6.35v.68l-3.85.41v-.7c0-2-.79-3.1-2.19-3.1s-2.19.87-2.19 2.53c0 1.85 1.78 3.4 3.78 5.13 2.38 2 4.83 4.38 4.83 7.74a6.15 6.15 0 0 1-4.79 6.25" style="fill:#263238"/><path d="M89.06 148.85h5.92M89.06 160.29h5.92M89.06 171.74h5.92M89.06 183.18h5.92M108.03 191.82v-4.6M117.41 191.82v-4.6M126.79 191.82v-4.6M136.18 191.82v-4.6M145.56 191.82v-4.6M154.94 191.82v-4.6M164.32 191.82v-4.6M173.71 191.82v-4.6M183.09 191.82v-4.6M192.47 191.82v-4.6M201.85 191.82v-4.6M211.24 191.82v-4.6M220.62 191.82v-4.6M230 191.82v-4.6M239.38 191.82v-4.6M248.41 191.82v-4.6M257.44 191.82v-4.6M266.46 191.82v-4.6" style="fill:none;stroke:#263238;stroke-linecap:round;stroke-linejoin:round"/><path d="M290.34 141.85v44.46c0 3.05-3.1 5.51-6.92 5.51H96a7.42 7.42 0 0 1-6-2.71 4.73 4.73 0 0 1-1-2.8v-44.46c0-3 3.1-5.51 6.92-5.51h187.5c3.82 0 6.92 2.46 6.92 5.51" style="fill:none;stroke:#75a4e5;stroke-linecap:round;stroke-linejoin:round"/><path d="m233.3 55.74-59.83 80.6-22.88 30.82-25-15.92L95 191.82h-.44a5.51 5.51 0 0 1-4.75-2.71l34.37-45.61 25 15.89 17.11-23 62.39-84Z" style="fill:#263238"/><path d="m218.12 56.76 21.99-13.33-6.08 23.06-3.88-10.67Z" style="fill:#263238"/></g><g id="freepik--Floor--inject-4"><path d="M426.23 310.52H74.54l-39.42 35.05M74.76 285.98v-68.15M74.76 306.56v-13.18" style="fill:none;stroke:#263238;stroke-linecap:round;stroke-linejoin:round"/><g id="freepik--freepik--Plants--inject-120--inject-4"><path d="M405.06 144.72s0-4.12-5.77-9.88-9.47-9.06-9.47-9.06-2.89 9.47 2.47 15.24a101 101 0 0 0 12.77 11.14Z" style="fill:#75a4e5"/><path d="M396.69 170.45s0-4.12-5.77-9.89-9.47-9.06-9.47-9.06-2.88 9.47 2.47 15.24a102.6 102.6 0 0 0 12.77 11.15Z" style="fill:#75a4e5"/><path d="M404.69 151.74s.44-4.1 6.78-9.23 10.38-8 10.38-8 1.86 9.75-4.07 14.89a101.5 101.5 0 0 1-13.87 9.71Z" style="fill:#75a4e5"/><path d="M394.58 182.12s.87-4 7.71-8.46 11.15-6.88 11.15-6.88.83 9.87-5.58 14.39a101 101 0 0 1-14.81 8.19Z" style="fill:#75a4e5"/><path d="M396.49 215.23s0-4.12 5.76-9.88 9.47-9.06 9.47-9.06 2.89 9.48-2.47 15.24a100 100 0 0 1-12.76 11.15Z" style="fill:#75a4e5"/><path d="M396.39 223.32s.58-4.08-4.31-10.6S384 202.4 384 202.4s-4.18 9 .29 15.44a101.4 101.4 0 0 0 11.06 12.82Z" style="fill:#75a4e5"/><path d="M390.7 247.27s0-4.11 5.77-9.88 9.47-9 9.47-9 2.89 9.47-2.47 15.23a101 101 0 0 1-12.77 11.15Z" style="fill:#75a4e5"/><path d="M394.55 269s-1-4 3.09-11 6.87-11.15 6.87-11.15 5.18 8.44 1.47 15.37a101 101 0 0 1-9.54 14Z" style="fill:#75a4e5"/><path d="M405.58 143.7a117 117 0 0 1-1.58 12.78c-2.28 11.78-8 19.38-10.26 30s4.27 24.35 2.52 38-7.08 21.26-5.58 30.38 9.5 33.8 9.5 33.8M404.64 154.48l6.21-4.78M404.92 148.99l-2.59-4.63" style="fill:none;stroke:#263238;stroke-linecap:round;stroke-linejoin:round;stroke-width:1.17749px"/><path d="M394.09 186s5.2-3.91 10.55-7.81M396.69 177.84s-4.34-8.5-9.25-14.14" style="fill:none;stroke:#263238;stroke-linecap:round;stroke-linejoin:round;stroke-width:1.17749px"/><path d="M396.69 221.09a64.6 64.6 0 0 1 11.15-14.88" style="fill:none;stroke:#263238;stroke-linecap:round;stroke-linejoin:round;stroke-width:1.17749px"/><path d="M395.68 226.87a73.4 73.4 0 0 0-5.68-10.71c-3-4.48-3.48-5.06-3.48-5.06" style="fill:none;stroke:#263238;stroke-linecap:round;stroke-linejoin:round;stroke-width:1.17749px"/><path d="M390.7 254.85a69.6 69.6 0 0 1 4.69-9.48 61.6 61.6 0 0 1 6.06-8M396.43 276.17a17.6 17.6 0 0 1 1.56-9.12c2.17-4.19 4.62-9.69 5.64-11.85" style="fill:none;stroke:#263238;stroke-linecap:round;stroke-linejoin:round;stroke-width:1.17749px"/><path d="M367.3 199.74s-.45-2.57 2.54-6.82 5-6.72 5-6.72 2.83 5.62.1 9.82a64 64 0 0 1-6.8 8.36Z" style="fill:#75a4e5"/><path d="M375.34 215s-.45-2.59 2.54-6.83 5-6.71 5-6.71 2.83 5.63.1 9.82a63.5 63.5 0 0 1-6.8 8.36Z" style="fill:#75a4e5"/><path d="M368.29 204.1s-.7-2.52-5.25-5-7.38-3.9-7.38-3.9-.11 6.27 4.18 8.9a64 64 0 0 0 9.75 4.58Z" style="fill:#75a4e5"/><path d="M377.93 222.05s-1-2.43-5.76-4.46-7.75-3.1-7.75-3.1.55 6.27 5.08 8.41a64.5 64.5 0 0 0 10.18 3.53Z" style="fill:#75a4e5"/><path d="M380.33 243s-.45-2.58-4.69-5.57-6.93-4.66-6.93-4.66-.78 6.27 3.21 9.29a64 64 0 0 0 9.21 5.57Z" style="fill:#75a4e5"/><path d="M381.26 248.09s-.81-2.49 1.55-7.11 4-7.35 4-7.35 3.6 5.16 1.5 9.71a65 65 0 0 1-5.58 9.24Z" style="fill:#75a4e5"/><path d="M388.5 268.92s.3-2.6 4.36-5.83 6.65-5 6.65-5 1.14 6.2-2.67 9.46a65 65 0 0 1-8.87 6.1Z" style="fill:#75a4e5"/><path d="M387.43 262.5s-.45-2.59-4.69-5.58-6.92-4.65-6.92-4.65-.78 6.27 3.2 9.29a64.4 64.4 0 0 0 9.22 5.57Z" style="fill:#75a4e5"/><path d="M387.37 276.54s.23-2.62-3.12-6.58-5.52-6.27-5.52-6.27-2.34 5.85.75 9.8a65.4 65.4 0 0 0 7.5 7.75Z" style="fill:#75a4e5"/><path d="M366.85 199.14a74 74 0 0 0 2.39 7.85c2.7 7.13 7.1 11.28 9.68 17.7s0 15.73 2.55 24.1 6.75 12.54 6.78 18.45-2.25 22.24-2.25 22.24M368.62 205.81l-4.41-2.31M367.84 202.4l1.13-3.18" style="fill:none;stroke:#263238;stroke-linecap:round;stroke-linejoin:round;stroke-width:1.17749px"/><path d="M378.66 224.42s-3.69-1.88-7.46-3.75M376.14 219.64a53 53 0 0 1 4.27-9.86" style="fill:none;stroke:#263238;stroke-linecap:round;stroke-linejoin:round;stroke-width:1.17749px"/><path d="M380.84 246.72a41.2 41.2 0 0 0-8.6-8.12" style="fill:none;stroke:#263238;stroke-linecap:round;stroke-linejoin:round;stroke-width:1.17749px"/><path d="M382.1 250.24a46 46 0 0 1 2.37-7.31c1.39-3.15 1.63-3.56 1.63-3.56" style="fill:none;stroke:#263238;stroke-linecap:round;stroke-linejoin:round;stroke-width:1.17749px"/><path d="M388.06 271.7a38.5 38.5 0 0 1 4.74-4.92 25.5 25.5 0 0 0 3.08-2.69" style="fill:none;stroke:#263238;stroke-linecap:round;stroke-linejoin:round;stroke-width:1.17749px"/><path d="M388.25 267.24a45 45 0 0 0-4-5.43 39 39 0 0 0-4.67-4.33M387 281.24a11.3 11.3 0 0 0-2-5.57c-1.82-2.4-4-5.58-4.82-6.83" style="fill:none;stroke:#263238;stroke-linecap:round;stroke-linejoin:round;stroke-width:1.17749px"/><path d="M406.18 317.64h-26.26a2 2 0 0 1-2-1.95l-3.77-29.06h37.72l-3.77 29.06a2 2 0 0 1-1.92 1.95" style="fill:#263238"/><path d="M411.57 291.54h-37.38a2.94 2.94 0 0 1-2.95-2.92 3 3 0 0 1 2.94-2.95h37.39a2.94 2.94 0 0 1 2.95 2.94 2.94 2.94 0 0 1-2.95 2.93" style="fill:#263238"/></g></g><g id="freepik--Coins--inject-4"><path d="M327.3 175.31a36.31 36.31 0 0 1-28.13 35.37h-.11c-.95.21-1.9.4-2.88.54a37 37 0 0 1-5.19.37 36.31 36.31 0 0 1-1.34-72.59h1a1.7 1.7 0 0 1 .32 0 2.3 2.3 0 0 1 .37 0 35.75 35.75 0 0 1 14.22 3.05 36.31 36.31 0 0 1 21.74 33.26" style="fill:#75a4e5"/><path d="M305.58 142.06c-41.93-2.18-42.13 44.37-42.13 44.37s-6.4-15.19 4.05-32c5.84-9.41 16-13.56 23.86-15.4a35.75 35.75 0 0 1 14.22 3.03" style="fill:#fff;opacity:.4"/><path d="M327.3 175.31a36.31 36.31 0 0 1-28.24 35.4 35.7 35.7 0 0 1-8.07.91 36.31 36.31 0 0 1-1.34-72.62h1.34a36.32 36.32 0 0 1 36.31 36.31" style="fill:none;stroke:#263238;stroke-linecap:round;stroke-linejoin:round"/><path d="M327.3 175.31a36.31 36.31 0 0 1-28.24 35.4h-1.34a36.32 36.32 0 0 1-8.07-71.71h1.34a36.32 36.32 0 0 1 36.31 36.31" style="fill:none;stroke:#263238;stroke-linecap:round;stroke-linejoin:round"/><path d="m303.5 198 .94 3.84-6.28 1.53-.94-3.83c-5.62 0-10.13-3.65-11.57-9.51l-.43-1.74 6.93-2.51.44 1.81c.87 3.56 3.22 5.27 6.15 4.55a4.5 4.5 0 0 0 3.59-5.83c-.84-3.42-4.76-5.56-9.3-7.77-5.37-2.6-10.91-5.9-12.43-12.11-1.48-6.06.38-11.11 5.17-13.61l-.94-3.84 6.27-1.53.94 3.83c5.45-.08 9.51 3.51 11 9.71l.31 1.26-6.92 2.51-.35-1.39c-.92-3.77-2.86-5.36-5.44-4.73s-3.65 2.6-2.9 5.66c.84 3.42 4.81 5.48 9.3 7.78 5.31 2.69 10.91 5.9 12.43 12.1 1.53 5.97-.91 11.29-5.97 13.82Z" style="fill:none;stroke:#263238;stroke-miterlimit:10"/><path d="m303.5 198 .94 3.84-6.28 1.53-.94-3.83c-5.62 0-10.13-3.65-11.57-9.51l-.43-1.74 6.93-2.51.44 1.81c.87 3.56 3.22 5.27 6.15 4.55a4.5 4.5 0 0 0 3.59-5.83c-.84-3.42-4.76-5.56-9.3-7.77-5.37-2.6-10.91-5.9-12.43-12.11-1.48-6.06.38-11.11 5.17-13.61l-.94-3.84 6.27-1.53.94 3.83c5.45-.08 9.51 3.51 11 9.71l.31 1.26-6.92 2.51-.35-1.39c-.92-3.77-2.86-5.36-5.44-4.73s-3.65 2.6-2.9 5.66c.84 3.42 4.81 5.48 9.3 7.78 5.31 2.69 10.91 5.9 12.43 12.1 1.53 5.97-.91 11.29-5.97 13.82" style="opacity:.3"/><path d="m272.43 206.53 7.67-.35M268.74 203.98l6.69-.57M265.74 201.29l6.69-.57M264.82 150.13h5.73M267.65 147.49l5.71-.26M271.23 144.84l6.02-.57" style="fill:none;stroke:#263238;stroke-linecap:round;stroke-linejoin:round"/><path d="M299.17 210.68h-.11a35.7 35.7 0 0 1-8.07.91 36.31 36.31 0 0 1-1.34-72.59h1c-8.85 2.79-23.7 9.92-27.67 24.79-5.61 21.13 7.02 45.12 36.19 46.89" style="opacity:.3"/><path d="M327.3 175.31a36.31 36.31 0 0 1-28.13 35.37h-.11c-.95.21-1.9.4-2.88.54l9.4-69.19a36.31 36.31 0 0 1 21.72 33.28" style="opacity:.1"/><path d="M347.9 118.15a22 22 0 0 1-26.31 7.64l-.13-.06a23 23 0 0 1-2-1 20 20 0 0 1-2.12-1.32 22 22 0 0 1 24.19-36.63l.49.31c.23.13.45.29.68.45s.67.49 1 .75a22 22 0 0 1 4.2 29.86" style="fill:#75a4e5"/><path d="M314.76 118.45s-3.59-10.57 1.18-18.35c6-9.75 15.19-14.2 27.7-11.8 0 0-6.78-4.58-18.13-1.33s-17.44 18.87-10.75 31.48" style="fill:#fff;opacity:.4"/><path d="M347.9 118.16a22 22 0 0 1-26.31 7.62 21.6 21.6 0 0 1-4.3-2.36A22 22 0 0 1 342 87.1c.22.13.45.28.67.44a22 22 0 0 1 5.23 30.62" style="fill:none;stroke:#263238;stroke-linecap:round;stroke-linejoin:round"/><path d="M347.9 118.16a22 22 0 0 1-26.31 7.62l-.67-.44A22 22 0 0 1 342 87.1c.22.13.45.28.67.44a22 22 0 0 1 5.23 30.62" style="fill:none;stroke:#263238;stroke-linecap:round;stroke-linejoin:round"/><path d="m328.21 121.08-.87 2.22-3.64-1.43.87-2.23a7.12 7.12 0 0 1-2.4-8.73l.4-1 4.3 1.17-.41 1.06c-.81 2.06-.26 3.72 1.44 4.39a2.72 2.72 0 0 0 3.81-1.63c.78-2-.41-4.41-1.88-7.08-1.74-3.16-3.32-6.72-1.91-10.32s4.07-5.36 7.3-4.92l.88-2.22 3.63 1.43-.87 2.21c2.72 1.86 3.47 5 2.06 8.65l-.29.72-4.3-1.17.32-.81c.86-2.18.46-3.65-1-4.24s-2.71 0-3.41 1.79c-.78 2 .47 4.38 1.88 7.08 1.69 3.19 3.33 6.73 1.92 10.32a7.09 7.09 0 0 1-7.83 4.74Z" style="fill:none;stroke:#263238;stroke-miterlimit:10"/><path d="m328.21 121.08-.87 2.22-3.64-1.43.87-2.23a7.12 7.12 0 0 1-2.4-8.73l.4-1 4.3 1.17-.41 1.06c-.81 2.06-.26 3.72 1.44 4.39a2.72 2.72 0 0 0 3.81-1.63c.78-2-.41-4.41-1.88-7.08-1.74-3.16-3.32-6.72-1.91-10.32s4.07-5.36 7.3-4.92l.88-2.22 3.63 1.43-.87 2.21c2.72 1.86 3.47 5 2.06 8.65l-.29.72-4.3-1.17.32-.81c.86-2.18.46-3.65-1-4.24s-2.71 0-3.41 1.79c-.78 2 .47 4.38 1.88 7.08 1.69 3.19 3.33 6.73 1.92 10.32a7.09 7.09 0 0 1-7.83 4.74" style="opacity:.3"/><path d="M341.48 86.79c-6-1.07-13.6-1.66-17.7 1-7.53 4.83-12.22 10.92-12.15 20.79s9.29 16.79 9.29 16.79l.54.39a21.7 21.7 0 0 1-4.17-2.31 22 22 0 0 1 24.19-36.63Z" style="opacity:.3"/><path d="M347.9 118.15a22 22 0 0 1-26.31 7.64l-.13-.06a23 23 0 0 1-2-1l24.18-36.43a22 22 0 0 1 4.26 29.85" style="opacity:.1"/></g><g id="freepik--Character--inject-4"><path d="M336.58 399.76a132 132 0 0 1-32.84 28.35 116 116 0 0 1-12 6.26c-28.41 12.77-60.79 13.6-91.07 6.26C137 425.2 103.22 369 98.93 306.61c-1.15-16.86-3.73-35.07 3.1-51.11s20.64-26 36.26-32.92c11.34-5.05 23.59-8.44 34.72-11.21a89.3 89.3 0 0 1 60.09 6.2c13.09 6.21 22.41 17 33.42 26.09q1.75 1.44 3.52 2.87a330 330 0 0 0 35 24.61c18.51 11.29 37.46 21.94 49.29 40.9 18.87 30.22 2.95 63.12-17.75 87.72" style="fill:#75a4e5"/><path d="M336.58 399.76a132 132 0 0 1-32.84 28.35 116 116 0 0 1-12 6.26c-28.41 12.77-60.79 13.6-91.07 6.26C137 425.2 103.22 369 98.93 306.61c-1.15-16.86-3.73-35.07 3.1-51.11s20.64-26 36.26-32.92c11.34-5.05 23.59-8.44 34.72-11.21a89.3 89.3 0 0 1 60.09 6.2c13.09 6.21 22.41 17 33.42 26.09q1.75 1.44 3.52 2.87a330 330 0 0 0 35 24.61c18.51 11.29 37.46 21.94 49.29 40.9 18.87 30.22 2.95 63.12-17.75 87.72" style="fill:#fff;opacity:.4"/><path d="M270 246.53q-1.77-1.42-3.52-2.88c-11-9.11-20.34-19.87-33.42-26.08a89.37 89.37 0 0 0-60.09-6.2c-26.47 6.57-59.3 16.69-71 44.14-6.83 16-4.25 34.24-3.09 51.1C103.22 369 137 425.2 200.67 440.63c34.64 8.4 72 6.1 103.07-12.52a132 132 0 0 0 32.84-28.35c20.7-24.6 36.62-57.5 17.77-87.72-11.82-19-30.77-29.61-49.29-40.9A330 330 0 0 1 270 246.53Z" style="fill:none;stroke:#263238;stroke-miterlimit:10"/><path d="M173.55 357.78a91.6 91.6 0 0 0-15.37 6.22" style="fill:none;stroke:#263238;stroke-linecap:round;stroke-linejoin:round"/><path d="M206 351.6a164 164 0 0 0-23 3.65" style="fill:none;stroke:#263238;stroke-linecap:round;stroke-linejoin:round"/><path d="M199.25 350s-29.88-17.38-65.94-3.45" style="fill:none;stroke:#263238;stroke-linecap:round;stroke-linejoin:round"/><path d="M336.58 399.76a132 132 0 0 1-32.84 28.35 116 116 0 0 1-12 6.26 94 94 0 0 1-9.57-3.51c-18.66-8-34.32-21.53-49.62-34.87-9.23-8-18.61-16.2-29.66-21.47a68.22 68.22 0 0 0-47.84-3.94 53.73 53.73 0 0 1 31.64-17.41c-7.9-7.19-18.89-10.21-29.57-10.4s-16.56 1.12-27 3.46c3.49-6.42 12.75-12.23 20.06-12.06a182 182 0 0 1-20.78-1.47c-9.43-1.52-13.65-12.62-15.06-22.06-3.9-26 .05-53.69 14.24-75.79a77 77 0 0 1 9.7-12.27c11.34-5.05 23.59-8.44 34.72-11.21a89.3 89.3 0 0 1 60.09 6.2c13.09 6.21 22.41 17 33.42 26.09q1.75 1.44 3.52 2.87a330 330 0 0 0 35 24.61c18.51 11.29 37.46 21.94 49.29 40.9 18.88 30.22 2.96 63.12-17.74 87.72" style="opacity:.1"/><path d="M347 399a193 193 0 0 0 17.57 13c11.89.8 6.56 15.17 6.56 15.17l-10.18 6.55s-17.43-13.85-26.95-18.34S347 399 347 399" style="fill:#fff"/><path d="M262.51 247.7s-1.63-16.13-4.23-20.66L218.8 219v-3.06s.91-5.32-7.89-8.65-27.14 1-31.87 4.58-3 9.74-3 9.74-15.9 8.03-23.04 11.09a182 182 0 0 0-17.07 9s-3.24 37.08-2.6 45.69-.52 16.71.22 21.48 1.32 7.48 6.32 11.54 9.55 10 22.66 4.11l-1.83-1.45L247 294Z" style="opacity:.3"/><path d="M262.51 247.7s-1.63-16.13-4.23-20.66L218.8 219v-3.06s.91-5.32-7.89-8.65-27.14 1-31.87 4.58-3 9.74-3 9.74-15.9 8.03-23.04 11.09a182 182 0 0 0-17.07 9s-3.24 37.08-2.6 45.69-.52 16.71.22 21.48 1.32 7.48 6.32 11.54 9.55 10 22.66 4.11l-1.83-1.45L247 294Z" style="fill:#75a4e5"/><path d="M262.51 247.7s-1.63-16.13-4.23-20.66L218.8 219v-3.06s.91-5.32-7.89-8.65-27.14 1-31.87 4.58-3 9.74-3 9.74-15.9 8.03-23.04 11.09a182 182 0 0 0-17.07 9s-3.24 37.08-2.6 45.69-.52 16.71.22 21.48 1.32 7.48 6.32 11.54 9.55 10 22.66 4.11l-1.83-1.45L247 294Z" style="opacity:.05"/><path d="M258.8 229h-16.52a6.57 6.57 0 0 0-6.47 5.49l-8.14 49s-11.21.93-19.15 6.72-27.47-35.52-58.33-35.54c0 0 8.88 20.3 10.85 36.5 0 0-19.29-2.1-22.49 5.45s1.45 21.7 9.61 16.22S164 298.22 169.45 304s29.8 8.89 29.8 8.89L236.72 294l14.53-6.83Z" style="opacity:.1"/><path d="M206.35 204.71s9.38 2.6 10.9 5.75 1.36 11.12 1.36 11.12a38.5 38.5 0 0 1-10.09 13.88l-7-13.88.63 15.74s-13.28-2.21-18.92-6.45l-5.63-4.25s-2.43-8-2.08-10.71S186 207.7 186 207.7Z" style="fill:#fff;opacity:.4"/><path d="M362.59 447.42c-.26-.57 3.85-7.83.63-15.22s-8.35-4.54-8.35-4.54-14.61-9.3-20.75-12.24a105 105 0 0 1-12.75-7.58l-6.49 8.74 6 18.56Z" style="fill:#75a4e5"/><path d="m354.34 427.21 18.76 11.46s13.19-8.46 19.48-14.3S413 406.09 413 406.09l9-12.11s-6.24-7.72-16.64-1.52c-13.44 8-29.83 19.62-40.76 19.51 0 0 2.15 13.43-10.19 15.24" style="fill:#75a4e5"/><path d="M203.17 156.23s8.51 12.88 10.06 17.05 2.8 10.34 2.49 13.31-3.43 18.88-5 19.34l-1.51 1.71 1 6.74s-6.66 11.51-26.24 3.07c0 0-.76-13.44-3.14-17.66s-5.94.8-9.51-11.39 7.8-25 7.8-25Z" style="fill:#fff"/><path d="M413.83 390.22s-9.65 1.68-12.78 7.39-9.14 16.32-11.19 21.45-19 17.52-19 17.52l2.25 2.09s13.8-8.53 22.13-16.64 26.7-28.51 26.7-28.51-1.32-1.31-8.11-3.3M317.27 413.37l-2.39 3.21 7.34 15.22 40.37 14.51 1.87-5.91s.62-6-13.55-10.56-22.81-7.57-26.84-10.7-6.8-5.77-6.8-5.77" style="fill:#fff;opacity:.5"/><path d="M184 300.33s-12.36-1.86-18.13 8.25-5.18 14.49-5.18 14.49 8.17 7.42 19.4 7 27.58-13.28 32.91-17.47 18.77-16.18 27.94-13.7l1-8.67s-.9-3.89-8.74-2.84-10.92 5.52-13.45 5.52-4.92-2.43-10 6.25c-.01 0-17.84 3.16-25.75 1.17" style="fill:#fff"/><path d="M200.06 174.75a36 36 0 0 0 1.12 4.79 5.6 5.6 0 0 0 1 2.11c.94 1 2.46 1.26 3.85 1.47a1.05 1.05 0 0 1 .62.26 1 1 0 0 1 .15.6 8 8 0 0 1-1.36 4.42" style="fill:none;stroke:#263238;stroke-linecap:round;stroke-linejoin:round"/><path d="m325.56 403-8.29 10.33s9.1 8.41 18.52 11.53 25.91 9 28.67 13.53L363.4 433s-25.79-15.82-31.71-19.6a13.66 13.66 0 0 1-6.13-10.4" style="opacity:.1"/><path d="m354.34 427.21 16.51 9.37S379 431 383 426.89s8.93-8.67 12-17.88c4.19-12.73 16.19-18.79 16.19-18.79s-16.69 7.86-25.38 14-17.16 8.74-22.08 8.32c-.05.03 3.9 12.53-9.39 14.67" style="opacity:.1"/><path d="M194.24 190.67s6.49 5.09 13.23 3.18c0 0-6.36 12.6-13.23-3.18" style="fill:#fff;stroke:#263238;stroke-linecap:round;stroke-linejoin:round"/><path d="M194 179.67c.19 1.4-.24 2.61-.94 2.71s-1.43-1-1.62-2.37.23-2.61.94-2.71 1.47.97 1.62 2.37M208.13 177.12c.18 1.41-.24 2.62-.94 2.71s-1.44-1-1.62-2.36.23-2.62.94-2.71 1.43.96 1.62 2.36" style="fill:#263238"/><path d="M193 173.73s-3.78-1.95-6.47 2.23M202.69 171.13s4-3.43 6.31 0M180.16 186.6s-2.43-3.59-5-3.48-3.59 3.71-2.67 7.19 4.75 8.34 7.65 7.88a6.44 6.44 0 0 0 4.17-2.32" style="fill:none;stroke:#263238;stroke-linecap:round;stroke-linejoin:round"/><path d="M203.46 159.13c2.73 2.27 5.62 4.74 7 8.08 1.22 2.84 1.49 6 2.61 8.87 1.19 3.07 2.49 6.28 2.59 9.63a40.8 40.8 0 0 1-1.21 9.19 50.7 50.7 0 0 1-1.85 7.69c-1.35 3.59-3.84 5.8-7.18 7.5-2.43 1.24-6.48 3-9.11 1.34-1.53-1-3.83-3.86-5.74-6.49M180.16 198.19s4.3 10.54 3.26 17.95" style="fill:none;stroke:#263238;stroke-linecap:round;stroke-linejoin:round"/><path d="M179.06 184.83a4.14 4.14 0 0 0 1.66-3.71c-.16-1.62-1.28-3.12-1.06-4.74a8.7 8.7 0 0 1 .86-2.22 9.31 9.31 0 0 0-.52-8.42s13.66.64 20.06-3.43 11.28-14.48 7.41-19.45-11.41 1.81-17 2.56S165 149.34 161.83 157s1.66 10.41 1.81 17.72.15 21.16 11.08 19.89c0 0-4.09-5.29-1.25-10.74 1.93-2.29 5.59.96 5.59.96" style="fill:#263238"/><path d="M205.85 151.5a17.14 17.14 0 0 1 6.54 12c.61 5.48 10.33 16.13 3.32 22.2 0 0-1.63-6.45-2.59-9.63s-2.19-9-3.8-11-10.15-9-10.15-9Z" style="fill:#263238"/><path d="M181.42 215.91s6.74 4.44 19.26 4.62l1.47 16.79s-14.08-1.07-24.55-10.7c0 0-2.83-7.49-2.08-10.71s7.48-6.41 7.48-6.41" style="fill:none;stroke:#263238;stroke-linecap:round;stroke-linejoin:round"/><path d="m209.74 208.4.4 6a24.8 24.8 0 0 1-9.46 6.15l7.84 14.93s9.35-7.28 10.28-14.93c0 0 .08-7.83-1.55-10.07s-7.57-3.29-7.57-3.29" style="fill:none;stroke:#263238;stroke-linecap:round;stroke-linejoin:round"/><path d="M171.8 162c1-2.51 3.74-4 6.41-4.4s5.41-.12 8.11-.19a20.8 20.8 0 0 0 10.6-3 14.17 14.17 0 0 0 6.4-8.76" style="fill:none;stroke:#fff;stroke-linecap:round;stroke-linejoin:round;opacity:.8"/><path d="M165.35 161.51c1.69-5.13 7.17-8.3 12.56-8.75 2.67-.23 5.37.08 8-.23s5.43-1.41 6.82-3.7" style="fill:none;stroke:#fff;stroke-linecap:round;stroke-linejoin:round;opacity:.8"/><path d="M162.51 324.52c-13 6.74-17.62-.2-24.86-5.94s-2.49-16-4-32.45 2.25-44.43 2.25-44.43 3.24-.74 12.23-6.24 27.91-13.88 27.91-13.88" style="fill:none;stroke:#263238;stroke-linecap:round;stroke-linejoin:round"/><path d="M175.39 299.62s-2.06-6.53-7.88-6.7-15 2.45-21.54 14.82" style="fill:none;stroke:#263238;stroke-linecap:round;stroke-linejoin:round"/><path d="M166.18 292.53a3.2 3.2 0 0 1-1.05-.25 25.3 25.3 0 0 0-14.94-.68" style="fill:none;stroke:#263238;stroke-linecap:round;stroke-linejoin:round"/><path d="M146.84 250.63c10.59 11.7 15.75 27.18 20.64 42.18M218.8 219s19.2 4.58 28.58 5.67 10.9 2.4 10.9 2.4l1.75 6.54" style="fill:none;stroke:#263238;stroke-linecap:round;stroke-linejoin:round"/><path d="m308.27 230.38-65.39 2.51-5.34 67.25h11.2l56.78-12.71 7.14-55.44Z" style="fill:#fff"/><path d="m240.94 302.13 71.52-68.55-6.94 53.85Z" style="fill:#75a4e5"/><path d="m240.94 302.13 71.52-68.55-6.94 53.85Z" style="fill:#fff;opacity:.7"/><path d="m240.94 300.33 5.72-64.87 66-3.47-7.14 55.44Z" style="fill:none;stroke:#263238;stroke-linecap:round;stroke-linejoin:round"/><path d="M284.84 263.42c-.44 3.95-2.55 6.95-4.71 6.71s-3.54-3.65-3.1-7.6 2.56-6.95 4.72-6.71 3.54 3.65 3.09 7.6M305.52 287.43s30.22-.86 39.67 5.38 15 37.53 13.69 54.15-12.71 54.76-12.71 54.76L324.33 377s-10.76-39.12-4.89-54.44c0 0-29 1.63-40.42-1.95 0 0-10.23-16.75-27.77-22.29Z" style="fill:#263238"/><path d="M350.78 402.37a149.8 149.8 0 0 1-20.78-24c-10.57-16.33-25.18-32-40.21-44.23-12.11-9.82-14.85-25.82-29.79-33.85-24.75-13.27-46.15 13.1-54.15 18.44S184 330.12 184 330.12s5.06 19 19.92 21.25 29.89-8 37-3.05 12.37 27.05 35.85 40c19.19 10.58 45.34 20.9 58.83 27.86 3 1.56 5.24 3.2 6.94 4.13 4.66 2.54 9.64 5.53 14.34 8.49l16.19 9.86s16.25-9.61 22.49-18.47c.83-1.19 2.56-4.36 4.18-7.42 3.53-6.69 8-12.69 14.19-16 4.28-2.31 8.09-3 8-3.24-.41-.76-8.17-4.73-13.44-2.56-11.16 4.61-33.47 22.32-44 21a79 79 0 0 1-13.71-9.6Z" style="fill:none;stroke:#263238;stroke-miterlimit:10"/><path d="M350.78 402.37c-9.73 3.93-13.65 10-15.15 13.82-13.49-7-39.64-17.28-58.83-27.86-23.48-13-28.7-35.06-35.85-40s-22.19 5.34-37 3.05S184 330.11 184 330.11s13.86-6 21.86-11.34 26.45-31.72 54.14-18.44c15.29 7.33 17.68 24 29.79 33.85 15 12.19 29.64 27.9 40.21 44.23a147 147 0 0 0 20.78 23.96" style="fill:#263238"/><path d="M277.66 317.59s-7.49-15.22-19.5-18.17" style="fill:none;stroke:#fff;stroke-linecap:round;stroke-linejoin:round"/><path d="M238.4 287.29c-8.26-1.8-17.33 7.33-21.15 5.62-2.84-1.27-7.51 6.25-7.51 6.25a125 125 0 0 1-23.22 1.17c-11.13-.71-16.4 1.46-20.34 7.41l-5.5 14.57s14.51 13 30 5.43 36.07-30.41 50.25-30.33" style="fill:none;stroke:#263238;stroke-linecap:round;stroke-linejoin:round"/><path d="M353.71 426.82s13.56 1.11 10.38-15.09" style="fill:none;stroke:#263238;stroke-miterlimit:10"/><path d="M417.61 401.72c-1 2-13.43 12.58-24.14 21.83 0-.14 3-5.79 4.24-8.2 2.85-5.32 10.21-19.91 24.22-21.83 1.99 1.2-4.32 8.2-4.32 8.2" style="fill:#263238"/><path d="M412.28 390.33c-14.17 2.82-17.39 21-22.42 28.73s-19 18.24-19 18.24M363.22 432.66c2.31 4.22 1.22 9.12 0 12.19a25.5 25.5 0 0 1-2.22 4.37c-20.06-3.3-40.12-14.08-40.12-14.08l-5.17-16-.83-2.56 7.79-10.49" style="fill:none;stroke:#263238;stroke-miterlimit:10"/><path d="M363.22 444.85a25.5 25.5 0 0 1-2.22 4.37c-20.06-3.3-40.12-14.08-40.12-14.08l-5.17-16c2.59 3.38 7.39 8.33 14.59 10.36 9.77 2.77 27.8 6.01 32.92 15.35" style="fill:#263238"/><path d="m237.54 297.8 5.34-64.91 65.39-2.51 4.39 1.61" style="fill:none;stroke:#263238;stroke-linecap:round;stroke-linejoin:round"/><path d="M364 419.06s8.94 1.6 15.81-4 17.94-18.27 17.94-18.27" style="fill:none;stroke:#263238;stroke-miterlimit:10"/><path d="M373.1 411s-2.16 3.25 0 9.77M379.44 407.89a13.3 13.3 0 0 0 .81 9.77M387 403.51s-1.81 5.43 0 10.22" style="fill:none;stroke:#263238;stroke-linecap:round;stroke-linejoin:round"/><path d="m324.44 404.74-7.17 8.63s7.22 7.89 17.41 11.17 28.39 8.85 29.9 14.78" style="fill:none;stroke:#263238;stroke-miterlimit:10"/></g></svg>