<svg width="776" height="256" viewBox="0 0 194 64" fill="none" xmlns="http://www.w3.org/2000/svg"><path d="m96.576 20.069.854-5.88 2.306 5.88h1.034l2.411-5.88.734 5.88h2.591l-1.497-10.212h-2.591l-2.142 5.45-2.022-5.45h-2.562L94 20.07h2.576ZM107.93 13.225v6.844h2.396v-6.844h-2.396Zm-.15-2.847c0 .765.599 1.378 1.348 1.378.749 0 1.348-.613 1.348-1.378 0-.766-.599-1.378-1.348-1.378-.749 0-1.348.612-1.348 1.378ZM116.071 20.069h2.367v-2.97l1.992 2.97h2.935l-2.726-3.567 2.322-3.277h-2.726l-1.797 2.863v-2.863h-2.367v2.863l-1.797-2.863h-2.726l2.321 3.277-2.726 3.567h2.936l1.992-2.97v2.97ZM124.21 20.069h2.396v-2.603h2.232v2.603h2.396v-6.844h-2.396v2.312h-2.232v-2.312h-2.396v6.844ZM138.066 13.884a2.629 2.629 0 0 0-2.008-.888c-.958 0-1.842.383-2.411.964-.539.551-1.033 1.455-1.033 2.74 0 1.026.314 1.807.958 2.511.809.873 1.693 1.087 2.412 1.087.659 0 1.527-.199 2.082-.98v.75h2.396v-6.843h-2.396v.659Zm-1.468 1.194c.509 0 .853.23 1.078.444.375.367.464.796.464 1.118a1.5 1.5 0 0 1-.449 1.102 1.52 1.52 0 0 1-1.078.474c-.405 0-.824-.214-1.079-.459a1.598 1.598 0 0 1-.464-1.117c0-.353.15-.797.479-1.118a1.515 1.515 0 0 1 1.049-.444ZM144.509 19.41a2.817 2.817 0 0 0 2.082.888 3.18 3.18 0 0 0 2.292-.949c.644-.643 1.078-1.561 1.078-2.71 0-1.178-.464-2.082-1.018-2.648a3.295 3.295 0 0 0-2.382-.995c-.988 0-1.632.444-2.052.98v-.75h-2.396v10.349h2.396V19.41Zm1.468-4.332c.419 0 .794.168 1.063.46.3.305.465.75.465 1.132 0 .413-.21.827-.465 1.087a1.43 1.43 0 0 1-1.063.46c-.404 0-.794-.17-1.078-.46-.255-.26-.465-.689-.465-1.087 0-.383.165-.827.465-1.133.284-.29.674-.46 1.078-.46ZM155.102 15.078c.374 0 .793.184 1.063.444.3.306.464.75.464 1.118 0 .398-.164.796-.464 1.086-.285.291-.674.46-1.063.46-.405 0-.794-.169-1.079-.46-.269-.275-.464-.673-.464-1.086 0-.399.165-.827.464-1.118.27-.26.689-.444 1.079-.444Zm4.014 1.562c0-1.225-.54-2.021-1.034-2.511-.554-.536-1.513-1.133-2.995-1.133-1.453 0-2.427.582-2.981 1.133-.494.49-1.033 1.286-1.033 2.51 0 .919.299 1.792 1.033 2.527.929.933 2.007 1.132 2.981 1.132 1.078 0 2.111-.244 2.995-1.132.734-.735 1.034-1.608 1.034-2.526ZM161.247 13.225v2.756c0 .536-.03 1.393-.599 1.96a1.394 1.394 0 0 1-.913.413v3.705h2.097v-1.99h4.448v1.99h2.097v-3.705h-.974v-5.129h-6.156Zm3.82 5.13h-2.427c.315-.261.48-.537.629-.95.165-.46.195-.796.195-1.301V14.94h1.603v3.414ZM169.421 20.069h2.396v-2.603h2.232v2.603h2.396v-6.844h-2.396v2.312h-2.232v-2.312h-2.396v6.844ZM178.095 13.225v6.844h2.111l2.621-3.613v3.613h2.397v-6.844h-2.082l-2.651 3.522v-3.522h-2.396ZM186.871 13.225v6.844h2.111l2.622-3.613v3.613H194v-6.844h-2.082l-2.651 3.522v-3.522h-2.396Zm4.718-3.505c-.06.214-.18.474-.345.643-.255.275-.554.306-.809.306-.254 0-.554-.03-.809-.306-.164-.169-.284-.43-.344-.643l-1.603.581a2.315 2.315 0 0 0 1.019 1.409c.569.367 1.213.428 1.737.428.525 0 1.169-.06 1.738-.428a2.318 2.318 0 0 0 1.018-1.409l-1.602-.581ZM94.45 27.208V37.42h2.59V27.208h-2.59ZM98.92 37.42h2.396v-2.603h2.232v2.603h2.396v-6.844h-2.396v2.312h-2.232v-2.312H98.92v6.844ZM107.594 30.576v6.844h4.583c.674 0 1.288-.215 1.632-.567.285-.29.48-.78.48-1.317 0-.474-.12-.842-.48-1.178a1.941 1.941 0 0 0-.958-.475v-.03c.284-.123.569-.322.734-.567.179-.276.284-.689.284-1.026 0-.444-.165-.903-.464-1.194-.464-.444-1.228-.49-1.708-.49h-4.103Zm2.396 2.725v-1.24h.884c.194 0 .479.016.644.169.105.092.164.26.164.428 0 .153-.059.383-.179.49-.075.061-.225.153-.614.153h-.899Zm0 2.633v-1.362h1.063c.21 0 .405-.03.6.168.089.092.179.245.179.506a.676.676 0 0 1-.194.49c-.195.183-.435.199-.585.199h-1.063ZM122.621 34.19c0-.766-.12-1.96-1.064-2.879-.794-.765-1.797-.934-2.576-.934-1.318 0-2.187.444-2.741.995-.584.582-1.003 1.5-1.003 2.649 0 1.301.554 2.143.988 2.587.824.842 1.887 1.041 2.771 1.041 1.453 0 2.232-.46 2.726-.949.494-.49.704-1.026.809-1.409h-2.292a1.128 1.128 0 0 1-.419.46c-.3.168-.719.184-.779.184-.539 0-.839-.184-.989-.337-.284-.291-.419-.781-.419-1.148h4.988v-.26Zm-4.913-1.149c.045-.306.195-.551.359-.735.255-.26.57-.367.974-.367.24 0 .674.046.989.367.179.184.329.475.389.735h-2.711ZM129.067 35.215c-.434.383-.883.46-1.228.46a1.611 1.611 0 0 1-1.228-.521 1.778 1.778 0 0 1-.419-1.149c0-.398.134-.842.464-1.178.239-.245.599-.475 1.168-.475.509 0 .929.215 1.243.444v-2.051a3.372 3.372 0 0 0-1.557-.383c-1.139 0-2.067.429-2.696 1.04a3.77 3.77 0 0 0-1.079 2.65c0 1.01.405 1.928 1.034 2.556.479.475 1.333 1.041 2.636 1.041.494 0 1.018-.061 1.662-.383v-2.051ZM131.489 37.42h2.397v-4.838h1.737v-2.006h-5.871v2.006h1.737v4.838ZM136.598 30.576v6.844h2.112l2.621-3.614v3.614h2.397v-6.844h-2.082l-2.651 3.521v-3.52h-2.397ZM145.374 37.42h5.857v1.99h2.097v-3.92h-1.109v-4.914h-2.396v4.915h-2.052v-4.915h-2.397v6.844ZM154.297 30.576v6.844h2.396v-6.844h-2.396Zm-.15-2.847c0 .765.599 1.378 1.348 1.378.749 0 1.348-.613 1.348-1.378 0-.766-.599-1.378-1.348-1.378-.749 0-1.348.612-1.348 1.378ZM158.319 30.576v6.844h2.112l2.621-3.614v3.614h2.397v-6.844h-2.082l-2.651 3.521v-3.52h-2.397Zm4.718-3.506c-.06.215-.18.475-.344.643-.255.276-.555.306-.809.306-.255 0-.554-.03-.809-.306-.165-.168-.285-.428-.344-.643l-1.603.582a2.318 2.318 0 0 0 1.018 1.409c.57.367 1.214.428 1.738.428s1.168-.061 1.737-.428c.39-.245.824-.674 1.019-1.409l-1.603-.582ZM167.095 37.42h2.397v-2.603h2.231v2.603h2.397v-6.844h-2.397v2.312h-2.231v-2.312h-2.397v6.844ZM175.769 30.576v6.844h2.112l2.621-3.614v3.614h2.396v-6.844h-2.082l-2.651 3.521v-3.52h-2.396ZM184.545 30.576v6.844h2.112l2.621-3.614v3.614h2.396v-6.844h-2.082l-2.651 3.521v-3.52h-2.396Zm4.718-3.506c-.06.215-.18.475-.345.643-.254.276-.554.306-.808.306-.255 0-.555-.03-.809-.306-.165-.168-.285-.428-.345-.643l-1.602.582a2.314 2.314 0 0 0 1.018 1.409c.569.367 1.213.428 1.738.428.524 0 1.168-.061 1.737-.428a2.32 2.32 0 0 0 1.019-1.409l-1.603-.582ZM94.45 54.77h3.534c1.198 0 2.397-.122 3.19-.918.54-.551.824-1.347.824-2.174 0-.857-.299-1.608-.764-2.113-.749-.796-1.887-.995-3.16-.995h-1.019v-1.76h3.895v-2.251h-6.5V54.77Zm2.605-2.066V50.59h.9c.329 0 .808.015 1.108.275.164.154.3.414.3.766 0 .306-.106.551-.256.72-.314.336-.868.352-1.153.352h-.898ZM108.607 48.585a2.624 2.624 0 0 0-2.007-.888c-.958 0-1.842.383-2.411.965-.539.551-1.034 1.454-1.034 2.74 0 1.026.315 1.807.959 2.511.809.873 1.692 1.087 2.411 1.087.659 0 1.528-.199 2.082-.98v.75h2.397v-6.843h-2.397v.658Zm-1.468 1.194c.51 0 .854.23 1.079.444.374.368.464.797.464 1.118 0 .551-.24.888-.449 1.102-.3.306-.689.475-1.079.475-.404 0-.823-.214-1.078-.46-.3-.29-.464-.719-.464-1.117 0-.352.149-.796.479-1.118a1.513 1.513 0 0 1 1.048-.444ZM112.654 54.77h2.397v-2.602h2.232v2.602h2.396v-6.843h-2.396v2.312h-2.232v-2.312h-2.397v6.843ZM121.328 54.77h2.397v-3.03l2.186 3.03h3.101l-3.026-3.628 2.771-3.215h-3.01l-2.022 2.802v-2.802h-2.397v6.843Z" fill="#3E3E59"/><path d="m25.707 52.393 33.238-19.424h14.917l-17.804 31.03h-36.09l5.739-11.606Z" fill="#8B766C"/><path d="M25.826 11.595 59.077 31H74L56.189 0H20.086l5.74 11.595Z" fill="#E0D6D2"/><path d="M56.54 32 26.704 49.214V15.031l29.834 16.97Z" fill="#108064"/><path d="M24.46 13.594 17.972 1 0 32l17.971 31 6.49-12.594V13.594Z" fill="#E0D6D2"/></svg>