<svg xmlns="http://www.w3.org/2000/svg" version="1.1" width="956.693" height="945.354" id="svg2"><path d="M308.47 824.974c11.284 1.35 23.543-2.39 31.86-9.282 9.52-8.068 18.077-24.718 18.077-42.793 0-19.965-12.834-22.341-17.6-22.341-6.893 0-12.122 3.565-17.113 6.892l-15.223 67.524zm19.265-91.053c6.18-4.278 16.399-11.421 31.86-11.421 23.767 0 39.703 17.825 39.703 48.022 0 17.125-5.941 37.327-18.313 52.312-23.529 28.759-53.25 28.52-78.456 28.52l-13.535 56.83-1.651 1.188c-5.48 0-10.708-.25-16.174-.25-8.08 0-15.21.488-24.005.725l-1.2-1.664s8.38-25.205 18.8-68.524c10.945-45.458 21.178-98.708 22.078-109.554l1.665-1.663 40.654-6.642 1.438 1.65-2.864 10.47zM241.71 848.74l-1.901 1.9c-7.619 1.44-16.55 2.615-21.404 2.615-17.95 0-44.293-2.714-33.135-47.997 7.517-30.622 12.934-53.513 12.934-53.513l-16.65.475-1.426-1.901 6.905-24.017 1.664-1.176h15.686l6.892-30.685 1.664-1.65c17.838-4.041 22.579-5.242 38.99-9.995l1.426 1.426-10.457 41.38 24.242-.476.961 1.651c-3.34 9.982-4.291 12.61-7.38 23.78l-1.902 1.663-21.865-.475s-4.442 18.45-10.658 44.132c-6.718 27.782-3.19 26.356 3.54 29.008 5.754 2.277 13.297-.625 17.575-2.052l1.426 1.189-7.13 24.718zM108.828 747.468c-11.183 0-23.83 5.692-31.136 40.316-8.117 38.528 8.07 40.992 15.925 40.992 7.13 0 22.316-3.89 29.858-40.779 5.292-25.793 1.101-40.53-14.647-40.53m55.515 40.53c-10.22 58.304-46.497 65.735-77.206 65.735-30.31 0-58.255-20.878-50.348-66.023 6.179-35.288 27.132-67.936 78.068-65.447 35.526 1.74 56.428 26.094 49.486 65.735" id="path13592" style="fill:#00674c;fill-opacity:1;fill-rule:nonzero;stroke:none"/><path d="m866.583 778.553 36.839 70.138-1.426 1.9-26.381.714-1.902-1.438c-6.167-16.7-33.048-69.175-33.048-69.175-6.893 30.197-8.32 37.327-14.273 68.7l-1.65 1.438-24.02.475-.95-1.438s12.685-52.713 23.655-101.51c5.14-22.817 13.122-58.943 16.287-80.833l1.651-1.426 25.919-4.278 1.438 1.663c-4.79 16.424-27.357 113.882-27.357 113.882 17.05-14.936 45.42-44.695 49.223-48.735l2.614-1.426h27.345l.71 2.139c-6.754 5.329-19.263 16.637-23.779 20.677l-30.897 28.533zm-90.852 70.9-1.89 1.427-24.254.712-.95-1.651c3.49-16.012 18.125-69.638 18.313-86.312.15-14.26-8.795-19.014-19.978-19.014-14.734 0-24.492 7.368-31.621 12.61-8.795 39.928-11.647 52.525-19.252 92.228l-1.676 1.426-24.23.713-1.202-1.652s7.219-29.108 13.735-59.367c5.105-23.692 9.295-43.206 11.221-59.505l1.677-1.664c11.17-1.426 13.784-1.901 25.205-4.278l1.188 1.651-3.327 12.121c9.269-6.167 21.152-14.498 40.88-14.498 7.842 0 33.523 2.152 33.523 30.91 0 17.2-15.035 77.356-17.362 94.143M640.421 745.09c-3.578 0-7.13-.237-10.708-.237-7.842 0-23.291.475-37.326 9.995-24.955 17.1-25.432 47.771-25.432 48.972 0 11.409 6.18 29.71 27.808 29.71 6.43 0 17.037-1.502 28.533-11.66l17.125-76.78zm17.588 30.197c-8.318 36.614-9.983 45.645-14.736 73.94l-1.676 1.652-22.341.475-1.189-1.664 1.664-9.494c-4.04 3.315-14.497 12.109-34.712 12.109-24.255 0-43.981-17.113-43.981-46.834 0-18.776 9.03-39.228 19.025-51.112 22.104-25.918 52.775-27.344 74.654-27.344l32.798.25 1.19 1.889-10.696 46.133zm-227.55 57.053c13.447.626 33.286.238 48.734-10.22 17.588-12.133 25.919-33.286 25.919-48.51 0-21.627-13.084-29.946-28.295-29.946-12.134 0-20.69 5.229-28.296 9.982 0 0-16.587 72.865-18.063 78.694m-29.008 17.35c1.589-7.205 11.833-49.448 22.317-96.957 8.955-40.742 15.198-66.16 17.387-85.148l1.901-1.677 25.919-4.503 1.188 1.664-6.655 26.394-10.946 45.645c9.995-5.466 19.49-10.708 34.713-10.708 23.53 0 43.27 15.924 43.27 45.896 0 12.121-3.804 34.937-19.74 53.25-21.391 24.493-47.772 26.144-78.444 27.333h-13.072l-16.65.237-1.188-1.426z" id="path13608" style="fill:#6ec72d;fill-opacity:1;fill-rule:nonzero;stroke:none"/><path d="M355.43 313.882c0-68.199 55.276-123.489 123.475-123.489 68.2 0 123.465 55.29 123.465 123.489 0 68.186-55.265 123.476-123.465 123.476-68.199 0-123.475-55.29-123.475-123.476" id="path13616" style="fill:#6ec72d;fill-opacity:1;fill-rule:nonzero;stroke:none"/><path d="M564.53 157.47c0-39.078 31.685-70.763 70.763-70.763 39.09 0 70.788 31.685 70.788 70.763 0 39.09-31.698 70.776-70.788 70.776-39.078 0-70.763-31.686-70.763-70.776M199.868 313.882c0-153.635 124.451-278.187 278.024-278.375v100.598c-98.033.175-177.439 79.694-177.439 177.777 0 98.183 79.594 177.765 177.765 177.765 97.595 0 177.777-78.832 177.777-178.44l100.584.06c0 154.348-124.614 278.962-278.361 278.962-153.736 0-278.35-124.614-278.35-278.35" id="path13620" style="fill:#00674c;fill-opacity:1;fill-rule:nonzero;stroke:none"/></svg>