<svg xmlns="http://www.w3.org/2000/svg" fill="none" viewBox="0 0 133 22"><path fill-rule="evenodd" clip-rule="evenodd" d="m25.22 18.747-3.277-.004.012-11.234 11.794.012-.012 11.234-3.276-.003.01-9.052-5.242-.005-.01 9.052ZM38.208 14.667c.002-2.278 1.451-2.727 2.365-2.726.893 0 2.342.453 2.34 2.73-.002 1.413-.618 2.76-2.346 2.759-1.767-.002-2.361-1.351-2.36-2.763Zm-2.876-4.064-.012 11.121 3.019.003.004-3.804c1.01 1.063 2.659 1.144 3.056 1.144 2.879.003 4.648-1.776 4.65-4.361.003-2.696-1.742-4.398-4.58-4.401-.716-.001-2.106.11-3.258 1.281h-.06l.022-.98-2.84-.003ZM53.532 17.795c-1.113 1.01-2.186 1.282-3.377 1.281-3.256-.003-3.373-2.378-3.372-3.357l.006-5.103 3.018.002-.005 4.719c-.002 1.62.573 2.102 1.685 2.103 1.905.002 2.047-1.651 2.047-2.244l.005-4.574 3.018.003-.009 8.153-3.017-.003v-.98ZM60.883 12.267l1.629.001c.853.001 1.587.13 1.587.803-.001.738-1.152.754-1.648.754l-1.57-.002.002-1.556Zm-3.015-1.641-.009 8.154 5.996.006c2.185.002 3.694-.416 3.695-2.083.002-1.284-.732-1.846-2.4-2.137v-.049c1.092-.143 2.045-.8 2.046-1.907.002-1.975-2.38-1.977-3.313-1.978l-6.015-.006Zm3.012 4.722 1.847.002c1.43.001 1.727.418 1.726.963 0 .353-.2.835-1.688.833l-1.886-.002.002-1.796ZM74.86 15.426c-.003 1.637-1.472 2.036-2.207 2.036-.555 0-1.549-.177-1.548-.95.001-.915 1.133-1.088 1.77-1.168 1.17-.16 1.071-.112 1.985-.432v.514Zm-3.494-2.154c.002-1.204 1.312-1.299 1.849-1.298.338 0 1.588.018 1.627 1.076v.226c-.06.802-.855.64-3.08.911-1.826.238-3.752.687-3.754 2.547 0 .675.295 2.36 3.511 2.364 1.232 0 2.582-.303 3.377-1.105h.06l.258.803 3.175.004v-.144c-.574-.114-.615-.66-.593-1.542l.064-3.724c.02-.945-.078-3.049-4.623-3.053-1.093-.001-4.606.091-4.748 2.932l2.877.003ZM78.197 12.284l.002-1.638 9.688.01-.002 1.638-3.336-.004-.006 6.516-3.018-.003.007-6.516-3.335-.003ZM91.737 13.933l2.72.003c.792.001 2.38.084 2.38 1.432-.002 1.06-1.154 1.265-2.444 1.264l-2.66-.003.004-2.696Zm.005-4.172 7.523.008.002-2.183-10.8-.01-.012 11.233 6.631.007c3.218.004 5.283-1.086 5.285-3.38.004-3.595-4.126-3.68-5.277-3.68l-3.355-.004.003-1.99ZM107.795 15.46c-.002 1.636-1.471 2.035-2.206 2.035-.556-.001-1.547-.178-1.547-.95.002-.915 1.133-1.088 1.768-1.168 1.171-.16 1.072-.112 1.985-.432v.514Zm-3.491-2.155c.001-1.204 1.311-1.299 1.846-1.298.339 0 1.59.018 1.628 1.076v.226c-.061.802-.855.64-3.079.911-1.827.238-3.752.687-3.754 2.547-.001.675.295 2.36 3.511 2.364 1.231 0 2.582-.303 3.376-1.106h.061l.257.805 3.176.002v-.143c-.576-.114-.616-.66-.595-1.542l.065-3.724c.02-.946-.078-3.049-4.625-3.053-1.091-.001-4.605.091-4.747 2.932l2.88.003ZM115.099 18.836l-3.017-.003.008-8.153 3.018.003-.004 3.066 3.633.004.004-3.066 3.019.003-.01 8.153-3.018-.003.004-3.45-3.633-.004-.004 3.45ZM129.383 10.697l3.356.004-4.154 3.815 4.342 4.339-3.533-.003-3.252-3.568h-.059l-.003 3.564-3.019-.003.009-8.154 3.018.003-.004 3.274h.059l3.24-3.27Z" fill="#75AF26"/><path fill-rule="evenodd" clip-rule="evenodd" d="m0 18.749 7.56.007.008-7.33-7.56-.008L0 18.748Z" fill="#000"/><path fill-rule="evenodd" clip-rule="evenodd" d="M.03 0 .02 9.125l1.998.002c5.26.005 7.924 2.595 7.919 7.696l-.002 1.938 9.408.009.02-18.75L.03 0Zm15.332 3.892L15.35 14.89l-1.543-.001c-.66-5.44-4.18-8.861-9.787-9.511L4.02 3.88l11.34.01Z" fill="#75AF26"/></svg>