<svg version="1.0" xmlns="http://www.w3.org/2000/svg" width="933.333" height="933.333" viewBox="0 0 700 700"><path d="M327 3.1c-17 1.5-22.1 2.1-35.5 4.4-23.8 4.2-41.3 8.9-63.5 17.2-39.9 14.8-81.2 40.3-112 69C75.8 131.1 47 173 27.7 222c-5.4 13.8-11.1 30.8-13.2 39.5-1.9 7.8-7.4 36-7.9 40.6-.4 3.1-.8 6.6-1.1 7.7-2.4 12.9-2.5 61.5-.1 79.2.2 1.4.7 5.2 1.1 8.5 1.9 15.9 8.4 44 14.5 62.3 28.5 85.9 91 158.7 171.5 199.6 13.3 6.8 21.2 10.4 29.5 13.6 3 1.1 6.4 2.5 7.5 3 1.1.5 7.2 2.6 13.5 4.6 28.7 9 54.1 14 82 16.1 16.6 1.3 56.9.6 65.6-1.1 1.2-.2 4.5-.7 7.5-1.1 3-.3 6.1-.8 6.9-1 .8-.2 3.5-.7 6-1 2.5-.4 9.7-1.8 16-3.2C545.8 663 643.7 574.2 681.3 458.5c4.6-14.2 6.6-21 7.4-25.5.2-1.4.8-4.1 1.3-6 1.1-4 3.6-17.3 4.5-23.5.4-2.2.8-5.1 1-6.5 2.1-13.8 3.1-31.7 2.9-51-.2-19.2-.5-23.3-2.9-43.5-1.1-8.4-5.4-30.5-8.1-40.5-9.7-37-24.9-71.2-45.9-103-39.3-59.6-93.7-104.1-160.9-131.7-14.7-6-42.1-14.6-53.9-16.8-1.2-.3-5.6-1.1-9.7-1.9-11.2-2.2-20.1-3.4-37-5.2-8.1-.8-44.4-1.1-53-.3zm54.5 48.2c1.1.2 4.7.7 8 1.1 3.3.4 8.3 1.1 11 1.6 2.8.5 6.6 1.2 8.5 1.5 12.7 2.1 36.3 9 52 15.2 37.2 14.8 71.8 37.4 99.8 65.2 13 12.8 15.7 15.8 22.7 24.6 2.2 2.7 4.2 5.2 4.5 5.5 1.1 1 12.7 17.5 16.2 23 8.4 13.4 19 33.8 23.7 46 1.8 4.7 3.9 9.8 4.6 11.5 2.8 6.6 9.4 29.3 11.1 38 .4 2.2.8 4.4.9 5 1.4 6.4 2.6 12.7 3 16 .3 2.2.7 5.6 1 7.5 3.3 23.6 2.3 65.1-2.1 88-.2 1.4-.6 3.4-.8 4.5C633.9 466.2 606 519.2 563 562c-28.9 28.8-59.1 49.2-96.1 64.9-16.4 6.9-47.2 16.2-58.4 17.7-1.6.2-5.2.8-8 1.3-13.5 2.7-26.8 3.6-50 3.6-18.2 0-37.8-1-39.5-2-.3-.1-2.7-.6-5.5-.9-4.1-.6-10.3-1.6-12.5-2.1-.3-.1-2.3-.5-4.5-.9-34.4-6.8-74.2-23.7-106.2-45.3-26.7-18-54.4-44.9-74.5-72.3-16.9-23.1-31.3-51-41.1-79.6-4-11.5-10-34.8-11.2-43.4-.1-.8-.5-3.3-.9-5.5-2.4-13.7-3.1-24.3-3.1-47 0-27.9 1.5-43.3 6.1-63.8.9-3.8 1.7-7.4 1.8-8.1 1.8-8.2 7.6-26.7 12.3-38.6 24.7-62.7 70-115.4 129-149.8 16.2-9.5 39.2-19.8 56.8-25.5 7.9-2.5 29.1-8.1 35-9.2 11.6-2 22.9-3.6 29.8-4.1 4.5-.4 8.4-.8 8.6-1.1.6-.5 48 .4 50.6 1z"/><path d="M338.8 81.5c-.2.1-4.3.5-9.3.8-9.7.7-21 2.1-29 3.7-2.7.6-5.9 1.2-7 1.4-19.3 3.8-47.5 14.2-68.5 25.3-9.7 5.1-34 20.5-37.1 23.5-.8.7-3.6 3.1-6.4 5.3-24.7 19.7-48.9 48.4-64.9 77.1-13 23.3-25.1 55.4-28.2 74.9-.3 2.1-1 4.9-1.5 6.2-.5 1.3-.8 2.7-.7 3.1.1.4-.2 2.7-.6 5.2-4 24.4-4.1 57-.2 82.5.9 5.5 1.8 11.1 2.2 12.5.3 1.4.8 3.6 1 5 .3 1.4 1 4.3 1.6 6.5.5 2.2 1.2 4.9 1.4 6 .2 1.1 1.8 6.3 3.5 11.5 13.3 41.1 36.1 78.3 66.4 108.4 33.6 33.3 76.3 57.8 121.5 69.6 4.6 1.2 5.3 1.4 13 3 2.5.5 5.6 1.2 7 1.5 1.4.3 4.7.7 7.5 1.1 2.7.3 5.2.7 5.5.9 1.2.7 22.8 1.9 35 1.9 11.6 0 33.9-1.2 35-1.9.3-.2 2.9-.6 5.9-1 3-.4 6.1-.8 7-1 30.9-6.4 52.1-13.8 77.1-26.8 61.3-31.9 109.1-88.5 130.4-154.5 4.1-12.6 7.8-27.4 9.1-36.2.3-2 .7-4.7 1-6 .5-2.4 1-7.2 2.1-17.5 2.4-23.4.1-59.3-5.1-80.5-.8-3-1.6-6.6-1.9-8-3-16-16-48.3-27.6-69-3.2-5.5-15.5-24.2-18.4-27.6-.8-1.1-3.6-4.6-6.3-7.9-19.3-24.2-43.4-44.8-73.8-63.2-16.9-10.1-44.1-21.4-65.5-27-10.3-2.7-10.9-2.9-16.5-3.7-2-.4-4-.8-4.4-1-.3-.2-3.3-.7-6.6-1.1-3.2-.3-6.2-.8-6.5-1-1.7-1-46.1-2.9-47.2-2zm37.2 130c13.5 1.6 30.2 6.4 40.2 11.7 6.2 3.3 7.8 3.2 10.2-.5 1.2-1.7 1.3-3.1.7-5.4l-.9-3.1 16.1.2 16.1.1 2.7 10.5c1.5 5.8 5.3 20.2 8.4 32 3.1 11.8 6 23.1 6.4 25 .8 3.4 6.7 25.8 7.7 29.1.3 1.2-.4 1.8-2.8 2.4-4.6 1-3.8.8-19 5.4-7.5 2.3-14 4.1-14.5 4.1-.4 0-2.6-3.5-4.8-7.8-10.1-19.7-25.3-38.2-40-48.7-12.4-8.8-24.7-12.8-39-12.8-25 .1-44.1 12.6-56.2 36.8-3.4 6.7-6.8 16.4-6 17.1.2.3 6.3.5 13.6.6l13.1.1v29.4l-15.6-.1c-9.3-.1-15.9.3-16.3.9-1.3 1.7-1.1 20.4.2 21.2.7.4 8 .7 16.2.8h15l.3 14.7.3 14.7h-23.4c-1.5.1-1.2 1.1 1.9 7.3 20.1 40.1 60.4 55.7 100.4 39 18-7.6 36.6-22 51.9-40.2 3-3.6 5.8-6.9 6.2-7.4.5-.5 3.7 1.5 7.2 4.5s8.6 7.2 11.2 9.4c2.7 2.2 6 5 7.4 6.1l2.5 2.1-6 8.4c-8.1 11.4-29.7 32.9-41.4 41.1-13.8 9.7-34.7 20.1-47 23.4-17 4.5-24.9 5.6-40.8 5.8-39.5.6-71.9-12-98.3-38.4-14.5-14.5-26.8-34.5-33-53.8l-2.3-7.2H195.3l-2.8-6.8c-1.5-3.7-3.6-8.5-4.6-10.7-2.1-4.9-4.9-11.7-4.9-11.9 0-.1 8-.2 17.7-.2l17.8.1.5-2.9c.3-1.5.4-6.6.2-11.2l-.3-8.4h-45.4l-4.4-11.3c-2.5-6.1-4.8-11.7-5.1-12.2-.4-.6-1-2.2-1.4-3.7l-.6-2.7 31 .2 31 .2 2.6-8c4.7-14.3 13-30.2 21-40.6 5.3-6.9 22.3-22.6 29.7-27.4 23.5-15.3 50.5-22.5 81.7-21.9 6.3.1 14 .5 17 .9z"/></svg>