<svg viewBox="0 0 173 24" fill="#2722FF" xmlns="http://www.w3.org/2000/svg"><path d="M25.773 20.962c-3.157 0-5.503-2.184-5.805-5.275h12.421c1.373-5.47-1.675-9.568-7.157-9.568-4.637 0-8.432 4-8.432 8.897 0 5.07 3.86 8.897 8.962 8.897 3.86 0 6.822-1.978 8.162-5.005l-2.573-1.61c-.81 2.183-2.756 3.664-5.578 3.664Zm-.54-11.989c2.854 0 4.53 1.676 4.464 4.162H20.13c.573-2.616 2.454-4.162 5.103-4.162ZM44.81 6.119c-2.248 0-4.129 1.038-5.47 2.486V6.616h-3.027v16.79h3.027v-8.833c0-2.951 2.011-5.503 5.309-5.503 2.756 0 4.4 1.752 4.4 4.27v10.076h3.027V13.07c-.011-4.475-2.8-6.951-7.265-6.951ZM80.27 23.913c3.86 0 6.822-1.978 8.163-5.005l-2.584-1.61c-.811 2.183-2.757 3.664-5.579 3.664-3.156 0-5.502-2.184-5.805-5.275h12.422c1.373-5.47-1.676-9.568-7.157-9.568-4.638 0-8.433 4-8.433 8.897.011 5.07 3.87 8.897 8.973 8.897Zm-.54-14.94c2.854 0 4.53 1.676 4.465 4.162h-9.568c.573-2.616 2.454-4.162 5.103-4.162ZM61.849 8.995c1.946 0 3.621.508 5.546 2.01l.086-.292 1.611-4.4-2.486-.81-.455 1.794c-1.221-.638-2.68-1.156-4.27-1.156-4.065 0-6.313 1.88-6.313 4.702 0 2.79 2.454 4.162 6.248 5.373 3.092.94 3.968 1.849 3.968 2.724 0 1.406-1.373 2.217-3.33 2.217-2.519 0-4.67-1.276-5.805-3.222l-2.314 1.914c1.406 2.28 4.227 4.097 7.99 4.097 4.432 0 6.583-2.346 6.583-5.308 0-1.946-1.308-3.557-6.313-5.211-2.249-.768-3.892-1.21-3.892-2.649-.011-1.037.692-1.783 3.146-1.783ZM7.524 8.984c1.946 0 3.622.508 5.546 2.01l.087-.291 1.61-4.4-2.486-.811-.454 1.795c-1.222-.638-2.681-1.157-4.27-1.157-4.065 0-6.314 1.88-6.314 4.702 0 2.79 2.454 4.163 6.249 5.373 3.092.941 3.968 1.85 3.968 2.725 0 1.405-1.374 2.216-3.33 2.216-2.52 0-4.67-1.276-5.806-3.222L0 19.838c1.405 2.281 4.227 4.097 7.99 4.097 4.432 0 6.583-2.346 6.583-5.308 0-1.946-1.308-3.557-6.314-5.21-2.248-.768-3.891-1.211-3.891-2.65 0-1.037.702-1.783 3.156-1.783ZM114.962 15.038c0 5.081-3.632 8.93-8.486 8.93-2.152 0-4.044-.94-5.492-2.39v1.881h-3.027V.011h3.027v8.486c1.448-1.448 3.33-2.389 5.492-2.389 4.854 0 8.486 3.838 8.486 8.93Zm-3.157 0c0-3.47-2.291-5.957-5.459-5.957-3.168 0-5.459 2.497-5.459 5.957 0 3.47 2.291 5.957 5.459 5.957 3.168 0 5.459-2.487 5.459-5.957ZM133.968 20.41a1.16 1.16 0 0 1-.346-.053c-.335-.12-.53-.411-.53-.843l.368-4.444.151-1.556.67-6.909h-3.005l-.227 2.584s0-.01-.011-.01c-.011-.022-.033-.055-.043-.076a4.792 4.792 0 0 0-.757-.854c-1.384-1.233-3.114-2.022-5.07-2.022-4.811 0-8.411 3.806-8.411 8.843 0 5.038 3.611 8.843 8.411 8.843 2.097 0 3.935-.897 5.362-2.291.021.205.043.291.108.454a.082.082 0 0 1 .011.032c.162.314.367.584.638.79.335.248.746.41 1.232.486.184.032.389.043.595.043H134.724v-3.005h-.756v-.011Zm-8.649.574c-3.135 0-5.405-2.476-5.405-5.914 0-3.438 2.27-5.913 5.405-5.913 3.135 0 5.405 2.476 5.405 5.913 0 3.438-2.27 5.914-5.405 5.914ZM146.422 6.119c-2.249 0-4.13 1.038-5.471 2.486V6.616h-3.027v16.79h3.027v-8.833c0-2.951 2.011-5.503 5.308-5.503 2.757 0 4.4 1.752 4.4 4.27v10.076h3.027V13.07c-.01-4.475-2.8-6.951-7.264-6.951ZM163.189 14.735l8.692-8.119h-3.967l-7.719 7.254V0h-3.017v23.405h3.017v-7.394l8.194 7.394h4.4l-9.6-8.67Z"/></svg>