<svg xmlns="http://www.w3.org/2000/svg" width="810" height="560" fill="none"><path d="m208.832 160.158 2.77-.756c3.473 5.925 5.969 11.886 8.15 18.336l.914 2.643c.733 2.124 1.459 4.249 2.179 6.376l3.959-.129c2.185 3.596 3.24 7.181 4.365 11.168l2.771-.756c1.866 1.933 2.49 3.852 3.461 6.305l1.04 2.606.788 2.005 1.771-.338c2.187.209 2.187.209 3.873 2.07l1.634 2.522c2.054 3.057 3.999 5.738 6.738 8.263 3.21 3.127 4.129 6.604 5.008 10.814l3.694-1.008-1.191-3.121c-1.925-6.273-2.071-13.676-.811-20.099 1.764-.363 1.764-.363 3.958-.129a84.09 84.09 0 0 1 3.436 4.767l-.613-3.135-.772-4.153-.407-2.055c-.841-4.62-.772-8.376.054-13 .18-1.631.357-3.263.523-4.896l3.693-1.007 3.042 6.775 3.959-.129.529 1.757 1.847-.504-.53-1.756c1.765-.363 1.765-.363 3.959-.13 1.965 2.376 1.965 2.376 3.436 4.767l3.428-1.886-.135-3.765c4.584-.538 4.584-.538 7.258.872 3.422 7.208 5.652 14.963 7.808 22.588l2.35-.285 2.532-.096c2.335 2.418 2.68 5.387 3.571 8.532 3.041.666 3.041.666 6.07.246l2.506-1.634a88.36 88.36 0 0 0 .258-5.775l1.052-3.139c1.872-.214 1.872-.214 3.959-.129l1.718 2.383 4.881-.381 1.182-6.026 4.882-.381 1.217 2.936 1.651 3.887.794 1.926c1.435 3.345 2.962 6.2 5.282 9.073 2.293 2.88 2.293 2.88 3.352 6.393l3.958-.129 6.213 10.665.394-2.009c1.797-.253 1.797-.253 3.958-.129 2.405 2.077 3.67 4.245 4.975 7.05l1.096 2.341 1.116 2.433 1.137 2.427c1.544 3.321 2.917 6.464 3.972 9.964l2.77-.755 2.642 2.131-.386-2.498-.478-3.268-.486-3.243c-.246-2.915-.246-2.915.807-6.054l2.584-1.358 2.427-1.91c.175-2.719.125-4.886-.214-7.547-.317-2.595-.408-4.878-.329-7.516 2.023-1.978 2.023-1.978 4.087-3.016 3.131 1.112 3.628 2 5.176 4.946l1.166 2.831 1.847-.504-.53-1.757c4.453-.485 4.453-.485 6.837.096 3.487.419 6.309-.773 9.656-1.743 2.338 1.234 2.951 4.28 3.965 6.524l-.396-2.529-.484-3.291-.495-3.274c-.221-2.829-.221-2.829 1.097-5.09l3.693-1.008-.536-8.409 3.694-1.008-.482-2.089-.595-2.727-.606-2.709c-.306-2.39-.306-2.39 1.011-4.651l3.694-1.007.171-2.126c.348-2.746.99-5.265 1.798-7.918 2.799-.219 3.794-.216 6.335 1.124 1.862-.811 1.862-.811 3.429-1.886l-.141-1.8-.169-2.334-.174-2.326c-.053-1.95-.053-1.95.606-3.08a98.934 98.934 0 0 1 4.617-1.26l-.4-4.644 4.881-.381 1.053-3.139c2.374-.826 2.374-.826 4.617-1.259l-.53-1.757c3.092-.179 6.031.029 9.106.368l.529 1.757c2.856-2.553 2.856-2.553 4.217-5.904l9.234-2.519 1.053-3.139c2.836-.952 2.836-.952 5.54-1.511l-.4-4.644 3.428-1.886 1.742 1.426 2.088 1.332 2.77-.756-.334-3.169-.424-4.111-.222-2.089c-.531-5.214-.531-5.214-.092-7.45 2.276-.324 2.276-.324 4.882-.381 2.568 2.073 3.489 3.445 4.888 6.271l3.035.123c1.968 2.039 2.31 4.132 3.042 6.776 3.237-1.836 5.722-3.282 8.175-6.033 3.178-.886 6.49-1.343 9.764-.762l-.572-1.548c-1.118-3.279-1.857-5.809-1.567-9.277 1.581-2.932 3.282-3.523 6.478-4.619l-1.142-3.372c-.642-1.897-.642-1.897-.977-3.655l1.318-2.261c2.341-.52 2.341-.52 4.882-.381 2.335 1.8 2.861 2.862 3.7 5.646l3.035.122 2.641 2.132.741-1.688 1.235-1.703 3.959-.129 3.306 7.654 3.925-1.071 10.85-2.959 1.453 1.505 2.012.201c2.211.548 2.211.548 3.83 2.446l1.42 2.383 1.446 2.361c1.198 2.265 1.198 2.265 2.257 5.779l3.035.123c1.181 1.638 1.181 1.638 1.983 3.262l3.471-1.125c3.619-.988 3.619-.988 5.995-.21l4.127 3.331-.785-2.98c-.327-1.302-.653-2.604-.978-3.907l-.523-1.959c-.928-3.783-1.296-6.257.684-9.731l4.882-.381 1.059 3.514 3.959-.129 1.982 3.262 3.694-1.008-.367-2.343c-.319-3.394-.108-6.477.247-9.864l.349-3.415.28-2.58c4.84-1.653 4.84-1.653 7.388-2.015 1.997 1.238 1.997 1.238 3.829 2.758 2.022.106 4.046.189 6.07.246l2.642 2.132 3.035.122.129-2.887c2.044-.743 4.092-1.478 6.142-2.21l3.454-1.243c3.067-.952 3.067-.952 6.102-.829 2.963-.382 5.646-.953 8.311-2.267 1.404-3.144 1.404-3.144 2.105-6.278 3.109-.849 5.617-1.234 8.806-1.452l2.645-.187 2.006-.13-.878-2.68-1.124-3.548-.581-1.758c-1.192-3.815-1.537-7.01-1.131-10.966l3.959-.13c.95 2.038 1.898 4.078 2.843 6.118l.814 1.742c1.279 2.767 2.343 5.414 3.221 8.328l2.24-2.513c3.116-.688 4.589-.505 7.531.738 2.104 1.387 2.104 1.387 2.634 3.144l3.141-.56c3.877-.351 4.043-.084 7.152 1.555 2.672.096 5.243-.082 7.917-.258l-.473-2.605c-.192-2.918-.192-2.918 2.048-5.43 2.314-.576 2.314-.576 5.022-.954 3.206-.5 5.419-.948 8.352-2.338 3.106-1.324 4.511-.48 7.736.385 2.616-.195 5.071-.652 7.652-1.136l.53 1.757c1.828-.5 3.657-.998 5.54-1.512l1.718 2.384c1.24-.81 1.24-.81 2.506-1.634 4.818-2.857 10.015-4.097 15.698-4.283l1.052-3.139 3.694-1.007 1.728.954c1.829 1.158 1.829 1.158 4.047.5l4.691-1.635c2.883-.567 4.12.168 6.821 1.17 8.578-.607 16.485-3.851 24.297-7.045 2.482-.26 2.482-.26 5.278 1.855l2.487 2.147c2.146-.829 4.285-1.672 6.422-2.524.603-.231 1.206-.463 1.828-.7 3.86-1.556 6.148-3.246 8.894-6.206 3.471-1.125 3.471-1.125 6.464-1.763l1.718 2.384.988-1.696c2.669-2.72 5.482-3.41 9.299-3.962l2.185.413c3.269.539 5.406-.842 8.237-2.306l1.317-2.26c2.433-.426 2.433-.426 5.806-.633l2.348-.147c2.164-.132 4.327-.252 6.492-.364l1.983 3.262 14.51-4.908.529 1.757c2.828-1.486 2.828-1.486 3.558-4.774 3.271-1.352 5.428-1.204 8.84-.51l2.771-.755-1.324-4.393c2.16-1.474 3.059-1.927 5.755-1.629l1.897.493.659-1.13c3.784-1.171 7.402-2.063 11.345-2.56 3.531-.567 5.805-1.474 8.97-2.982 2.45-.796 4.87-1.416 7.387-2.015l1.188.626c1.583-.15 3.161-.35 4.734-.575l2.875-.403 3.021-.436 3.034-.428c2.483-.352 4.965-.706 7.446-1.064l-.529-1.757c2.179-.78 4.361-1.553 6.545-2.32l1.864-.67c3.138-1.097 5.795-1.838 9.136-1.796 2.534-.53 4.91-1.255 7.384-2.015.22-.373.44-.746.66-1.13 2.27-.716 4.53-1.37 6.83-1.99.7-.191 1.4-.382 2.11-.579 1.48-.404 2.97-.807 4.45-1.207 2.24-.607 4.48-1.223 6.72-1.84 6.89-1.883 13.66-3.673 20.79-4.59.09-1.045.19-2.091.29-3.17.48-3.297.92-5.662 3.26-8.255 4.18-1.984 7.38-2.453 11.96-1.541 3.97 1.719 5.32 2.778 7 6.646 1.19 4.27-.07 6.56-2.32 10.32-2.92 2.549-6.97 3.314-10.82 3.9-2.92-.985-2.92-.985-4.75-2.506-.17-.58-.35-1.16-.53-1.757-5.97 1.605-11.94 3.217-17.91 4.833-2.03.55-4.06 1.097-6.09 1.643-2.92.785-5.84 1.576-8.76 2.368l-2.75.734-2.57.703c-.75.201-1.49.402-2.26.61-2.21.659-2.21.659-4.4 1.855-2.09.98-2.09.98-5.124.856-7.551 1.657-14.54 3.871-21.406 7.31-4.157 1.998-7.251 3.15-11.837 1.758a104 104 0 0 0-6.992 1.254l-3.727.768c-2.93.758-5.098 1.68-7.749 3.016-2.462.59-2.462.59-4.948.993l-2.51.425c-2.041.223-2.041.223-3.23-.404-2.336.4-2.336.4-4.617 1.26l-1.317 2.26c-2.853.897-2.853.897-5.54 1.512l.794 2.635a547.732 547.732 0 0 1-4.295 1.706l-2.416.96c-2.258.731-2.259.731-5.294.609l-1.317 2.26c-2.053.505-2.053.505-4.56.828-3.58.533-6.096 1.321-9.291 2.95-3.472.71-3.471.71-6.729.886l-2.641-2.132c-3.404-.206-3.403-.206-6.994.006l-2.795.05-2.087.331-1.317 2.261c-2.511.904-2.511.904-5.549 1.692l-3.038.81c-2.494.52-2.494.52-3.682-.106-2.781.442-2.781.442-5.541 1.511l-1.029 1.767-.947 1.624c-2.564.403-2.564.403-4.882.382l-.794-2.636c-1.241.79-2.479 1.585-3.717 2.38l-2.091 1.34c-1.721 1.016-1.721 1.016-2.367 2.313-2.469.906-4.965 1.72-7.469 2.535-2.674 1.229-3.751 2.398-5.323 4.757-1.897-.077-1.897-.077-4.223-.75-1.982-2.43-1.982-2.43-3.436-4.766l-1.675.917c-7.978 3.637-17.674 6.523-26.535 5.578-5.146-.528-9.405.786-13.874 3.083l-1.453-1.505c-2.45.643-4.898 1.292-7.346 1.945l-2.118.553a181.473 181.473 0 0 0-5.31 1.532l-.659 1.13c-5.198 1.77-5.198 1.77-7.387 2.016l-1.631-.94c-3.611-1.754-7.724-.201-11.568.474-2.9.104-2.9.104-4.742-1.358l-1.064-1.548-1.854 1.516c-4.328 2.402-8.67 2.946-13.579 3.644l.86 2.44c.728 2.831.728 2.831-.324 5.97l-3.554.435c-3.2.466-5.666 1.203-8.451 2.84-2.641-2.132-2.641-2.132-3.435-4.767l-4.882.381-.53-1.757-4.882.38-1.982-3.261-2.241 2.513c-1.835.686-1.835.686-3.834 1.164l-3.553.851-.394 2.009c-3.81.207-3.81.207-5.147-.498-2.139.515-4.224 1.156-6.328 1.786-1.983.481-1.983.481-4.094.106l.665 5.523c-3.55 2.315-6.153 1.862-10.422 1.892l.529 1.757c-4.733.46-4.733.46-6.07-.245a90.69 90.69 0 0 0-4.691 1.22l-2.565.726-1.978.573-1.182 6.026-2.77.756c-6.033-3.44-6.033-3.44-6.735-5.768l-2.622.834c-2.919.677-2.919.677-5.295-.576-2.546.078-2.546.078-4.882.381l.522 2.769c.347 3.085.203 5.445-.299 8.474-.451 4.435-.044 8.918.197 13.36l-3.958.129-2.248-4.141-3.035-.122c-2.039-2.831-2.039-2.831-3.7-5.646l-1.847.504.444 2.69.552 3.515.56 3.49c.304 3.107.304 3.107-.748 6.246-3.39.311-6.165-.147-9.37-1.246l-.794-2.636-8.046 3.146c-2.906-3.01-2.906-3.01-3.966-6.524l-2.77.756c-5.398-6.541-5.398-6.541-6.212-10.665l-7.123 2.894-1.742-1.842c-2.2-2.055-2.2-2.055-5.049-1.831l-2.185.417-.523 4.896-2.77.756c-2.336-2.419-2.681-5.387-3.572-8.533l-1.846.504.529 1.757-3.694 1.008-1.447-1.41-1.904-1.835-1.885-1.826c-1.741-1.685-1.741-1.685-4.14-2.829l-.258 5.775-5.541 1.511.396 2.529.484 3.291.495 3.274c.221 2.829.221 2.829-1.097 5.09-1.888.56-1.888.56-4.164.898l-2.259.364c-2.152.127-2.152.127-5.452-.874l.085 2.769c-.343 3.005-.343 3.005-1.884 4.317-1.888.574-1.888.574-4.923.451l-3.694 1.008-.744-1.602c-1.046-2.062-2.07-3.946-3.486-5.8-2.725-.851-2.725-.851-5.147-.498l.548 3.059c.383 3.342.383 3.342-.935 5.603-3.299 1.465-6.399 2.696-9.893 3.649l-.393 2.009-5.541 1.511.136 3.766a87.224 87.224 0 0 1-4.352 2.138l-1.189-.627c-2.302.231-2.302.231-4.617 1.26-1.577 2.208-2.514 3.907-3.028 6.53-1.798.253-1.798.253-3.959.129l-2.906-3.01c-2.106-.191-2.106-.191-3.958.129l.381 1.679c-.245 2.087-.245 2.087-2.38 3.917-3.042 1.521-5.274 1.923-8.682 2.071l-.787 4.017-2.771.756.415 2.62c.251 2.903.251 2.903-1.067 5.163l-2.77.756.665 5.523-4.882.381-1.982-3.262-1.582 1.382c.396 2.504 1.038 4.918 1.665 7.378.365 2.857.08 4.303-1.387 6.806l-2.77.756-.652 7.783-3.694 1.008.136 3.765-3.694 1.008.344 2.242c2.184 15.064 2.184 15.064 1.394 20.1-1.596 1.672-1.596 1.672-3.164 2.765-2.377-1.253-2.377-1.253-3.13-3.105l-.587-2.18-.605-2.189-.438-1.685-3.693 1.007.529 1.757-3.694 1.008c-2.604-2.394-3.965-4.89-5.418-8.029l-3.035-.123-.129 2.887-4.882.381-3.435-4.767.188 2.103c.493 8.467.493 8.467-2.162 11.448-2.365 1.893-2.365 1.893-4.212 2.397l.58 2.753c.662 3.971.779 7.935.853 11.948l.036 1.91c.059 4.571.059 4.571-.39 6.861-2.35.285-2.35.285-4.882.382-2.335-2.419-2.681-5.388-3.571-8.533l-2.77.756c-4.695-6.709-8.609-13.965-10.579-21.833l-5.275 2.39c-2.866-4.152-5.063-8.364-7.137-12.926-1.148-2.076-1.148-2.076-3.488-2.428l-2.059-.2c-3.093-2.906-4.781-6.758-6.677-10.433-.793-1.766-.793-1.766-2.176-2.362a87.966 87.966 0 0 1-1.324-4.393l-1.547 1.046-2.038 1.358-2.017 1.353c-1.915 1.146-1.915 1.146-4.685 1.901l-2.641-2.131c-2.245 2.224-2.908 3.194-2.845 6.335l.512 2.917c.891 5.218.891 5.218-.553 7.697l-2.77.755c-2.834-2.461-3.616-4.768-4.495-8.28l-4.223-.75-3.178-10.541-4.352 2.138c-2.594-2.351-3.628-4.443-4.724-7.669l-.931-2.698-.939-2.808-.974-2.842c-.792-2.313-1.575-4.628-2.352-6.946l-2.77.756.616 1.811.774 2.385.782 2.36c.476 2.229.476 2.229-.576 5.368-1.798.252-1.798.252-3.959.129-2.553-2.131-3.449-4.056-4.279-7.151l-.591-2.142-.419-1.623-1.847.504.136 3.765-3.959.129-3.306-7.654-5.147-.497.966 2.804c1.538 5.106 2.047 10.315 2.64 15.582l.366 3.046c.863 7.403.863 7.403.414 9.694l-3.694 1.008-4.888-6.272.233 1.636c.349 2.449.693 4.897 1.037 7.346l.369 2.575.346 2.477.323 2.281c.217 2.01.217 2.01.088 4.897l-2.77.756.86 2.439c.728 2.831.728 2.831-.324 5.97l-2.77.756c-1.878-1.945-2.404-3.791-3.324-6.286l-1.109-2.942c-.761-2.037-1.516-4.077-2.266-6.118-2.464-6.499-5.133-12.158-10.194-17.191-1.689-1.83-2.113-3.508-2.675-5.856l-4.352 2.138c-3.025-2.441-3.332-3.831-4.23-7.403l-2.77.756c-1.851-3.143-2.974-6.2-3.977-9.67l-.832-2.851-.616-2.161-1.921-.092c-3.236-.923-3.77-2.387-5.35-5.173l-1.522-2.667a108.953 108.953 0 0 1-4.42-9.379l-3.694 1.008-1.188-.627.272 7.532-2.202.363c-2.532.66-2.532.66-3.456 2.651-.87 3.262-.533 6.201-.128 9.497.864 7.374.864 7.374-.129 10.968l-2.325.159c-2.464.137-2.464.137-4.404.726l-3.693 1.007c-2.174-2.848-3.461-4.851-4.495-8.281-3.213 1.912-3.213 1.912-4.638 5.128-.029 2.667-.029 2.667.295 4.825.261 2.183.467 4.178.269 6.37a382.416 382.416 0 0 1-4.746 4.146c-.412 2.31-.45 4.463-.405 6.803.017 1.859.017 1.859-.641 2.989a197.043 197.043 0 0 1-6.464 1.764l.123 3.193.156 4.158.082 2.103c.106 2.844.18 5.651.053 8.496l-4.882.381-1.589-5.271-1.847.504.27 1.879c1.177 9.288 1.294 16.867-4.202 24.862-1.987-.171-1.987-.171-4.223-.75-1.255-1.678-1.255-1.678-1.982-3.262l-.493 2.511-.954 2.637-3.693 1.008-1.06-3.514-1.846.504-.009 1.915c-.066 8.355-.066 8.355-.637 12.521l-3.958.129-1.983-3.262-1.83.143c-2.128-.014-2.128-.014-4.505-1.267l-1.711 4.27-4.882.381c-2.786-4.321-4.879-8.518-6.662-13.297-.769-1.992-.769-1.992-3.251-3.013l-.794-2.635-1.847.504-.129 2.887-3.693 1.007.43 1.803c1.388 6.257 1.799 12.149 1.701 18.531l.029 3.617-.022 3.036.028 3.201-.286 2.573-2.506 1.634 1.331 11.045-3.694 1.008-.794-2.635-1.847.504.4 4.644-7.122 2.893c-3.154-2.478-4.625-4.182-5.418-8.029l-2.77.756-.53-1.757-1.847.504 1.001 3.114c2.613 8.785 2.613 8.785 1.29 12.363-1.219 1.343-1.219 1.343-3.989 2.098l.537 3.114.683 4.04.355 2.053c.86 5.125.86 5.125.421 7.361l-3.694 1.008.786 1.984c.538 2.408.538 2.408-.153 4.26-1.284 1.539-1.284 1.539-3.106 2.333l-1.607 1.092c-.382 2.877-.382 2.877-.259 5.774l-.393 2.009-1.847.504.522 2.769c.433 3.86.512 6.771-.509 10.537-3.024 2.191-3.024 2.191-5.934 3.52-3.002-1.664-4.158-3.196-5.367-6.201-1.587-3.517-1.795-3.659-5.07-5.213-1.478-2.626-1.478-2.626-2.511-5.018l-.371 2.459c-1.076 2.689-1.076 2.689-3.64 3.852l-3.067.67-3.077.709-2.373.48-.393 2.009-2.77.756.679 3.498c.68 3.499.68 3.499-.802 6.042-2.218.724-2.218.724-4.882.381-2.79-2.603-4.608-5.342-5.683-8.907l-2.77.755c-4.819-7.626-8.184-15.176-11.108-23.589l-4.352 2.138.194 1.979c.211 2.728.277 5.429.303 8.165l.028 2.803.018 2.116-4.353 2.138.795 2.635-3.694 1.008c-6.115-6.335-7.941-19.351-10.32-27.607l-1.847.504.241 2.251c.16 2.393.16 2.393-.5 3.523a98.92 98.92 0 0 1-4.616 1.26 618.374 618.374 0 0 1-2.873-2.9l-1.616-1.632c-1.323-1.488-1.323-1.488-1.853-3.245l-4.617 1.259c-4.751-4.921-6.162-13.409-7.937-19.7l-1.847.504.749 2.38a322.739 322.739 0 0 1 6.237 23.264c.415 1.807.839 3.612 1.264 5.416.832 3.568 1.61 7.144 2.349 10.731l.395 1.914c.378 1.88.726 3.763 1.065 5.649l.621 3.359c.044 2.758.044 2.758-1.512 4.346l-1.609 1.177c.171 2.909.171 2.909 1.062 6.008l.795 3.207.662 2.456-4.352 2.138c-3.274-4.554-6.035-8.958-8.05-14.144-.615-1.648-.615-1.648-2.128-3.044l-1.446 5.148-3.959.129 2.254 10.794-4.882.381c-3.246-2.648-4.87-4.912-5.682-8.908l-2.77.756.135 3.766-2.77.755.136 3.766c-2.137.102-3.959.129-6.07-.246l.917 2.008c.961 4.673-.188 8.718-1.298 13.307l-2.77.756.704 3.373c1.118 6.248 2.155 13.122.11 19.221-1.829.228-1.829.228-3.959.129-4.815-5.214-8.43-11.394-10.442-18.066l-1.74.236c-2.93-.142-3.986-.908-6.048-2.865-.901-2.369-.901-2.369-1.324-4.393l-2.234.669c-2.383.591-2.383.591-3.571-.036-1.797 11.187.599 21.356 3.342 32.197l.856 3.423.803 3.081c.45 2.593.45 2.593-.602 5.732-1.719.747-1.719.747-3.76 1.204l-3.627.811c-1.93-2.236-3.117-3.709-3.966-6.524l-1.846.504.93 6.401c-2.062.622-2.062.622-4.882.381-1.605-1.533-1.605-1.533-3.215-3.464l-1.632-1.934-1.23-1.501.219 1.535c3.528 24.824 3.528 24.824 2.055 29.217l-2.77.756.135 3.766-3.693 1.007-2.641-2.131-2.391 1.603c-2.62 1.665-2.62 1.665-4.467 2.169l.872 2.777c5.705 18.407 10.755 36.978 13.833 55.956l-1.846.504a8472.682 8472.682 0 0 1-5.417-17.787c-.61-2.009-1.222-4.017-1.836-6.025-3.076-10.061-6.109-20.131-8.744-30.306l-.608-2.242c-.512-2.051-.512-2.051-1.007-5.383l2.241-2.513c-.318-2.749-.318-2.749-1.169-5.742-.942-3.628-1.626-6.305-.563-9.947 1.889-.159 1.889-.159 3.959-.129 1.921 1.99 2.251 3.832 3 6.43l.78 2.677.586 2.061 4.617-1.26-.136-3.766 2.77-.755-.724-3.386c-4.15-20.238-4.15-20.238-.362-26.74 2.433-.426 2.433-.426 4.882-.381l1.453 1.505 1.447-5.148c1.723-.291 1.723-.291 3.958-.129 3.069 2.21 4.776 4.453 6.342 7.777l3.035.123-1.059-3.098c-2.791-9.482-3.654-18.818-3.567-28.617l.016-2.486c.084-3.89.18-7.186 2.058-10.735l3.958-.13.794 2.636 5.276-2.39.93 1.377 1.267 1.767 1.236 1.769c1.372 1.577 1.372 1.577 3.603 1.49l1.811-.26c1.305 2.099 2.604 4.2 3.9 6.304l1.119 1.797c1.741 2.837 3.013 5.281 3.97 8.46l1.848-.504-.704-2.827-.886-3.691-.468-1.861c-.774-3.273-1.033-4.923.062-8.188l2.77-.756c.56-7.069-.072-13.672-1.052-20.687l-.428-3.202c-.346-2.581-.7-5.162-1.059-7.741l3.429-1.886c3.198 2.58 3.466 4.172 4.527 7.974l.896 3.154.66 2.423 2.77-.756-.135-3.765c3.727-.472 6.275.652 9.635 2.125l1.052-3.139c2.374-.826 2.374-.826 4.617-1.26l-.68-3.498c-.68-3.499-.68-3.499.803-6.042l4.882-.381 7.4 11.291.394-2.009 2.77-.756-.775-3.076c-8.551-33.97-8.551-33.97-11.547-47.751l-.614-2.746-.521-2.47-.448-2.095c-.142-1.725-.142-1.725 1.176-3.986 2.852-.897 2.852-.897 5.54-1.511 5.239 5.426 7.591 14.172 9.39 21.205l1.814-.25c2.145.121 2.145.121 3.573 1.388l1.214 1.696 1.238 1.675c1.008 1.634 1.008 1.634 1.803 4.269l1.846-.503-.4-4.645c3.083-.96 3.083-.96 6.464-1.763 5.761 3.038 7.143 13.567 8.868 19.268.532 1.816 1.06 3.633 1.58 5.451l1.848-.503-.614-3.279c-.552-3.343-.474-6.39-.323-9.775-.28-3.397-.66-6.781-1.066-10.167l3.43-1.886c2.446 2.268 2.967 3.215 3.964 6.524l2.367-.23c2.515-.151 2.515-.151 3.703.475a259.354 259.354 0 0 1 3.224 7.38c.858 2.034 1.72 4.066 2.598 6.092a255.661 255.661 0 0 1 1.995 4.795l1.308 2.06c2.108.478 2.108.478 4.224.75 1.338 1.692 1.338 1.692 2.379 3.748l1.074 2.061.777 1.593.258-5.774 2.77-.756.788-4.018 2.77-.755.13-2.888c2.046-.92 4.114-1.8 6.198-2.641l1.188.626.187-3.319c.73-3.586.73-3.586 2.964-5.086l2.119-.637c3.799 3.066 4.778 6.924 6.544 11.286 1.402 2.856 1.402 2.856 4.409 3.67l2.653.346 2.112.374-.993-2.878c-.86-3.271-.86-3.271.192-6.41l2.77-.756-.283-2.181c-.117-2.463-.117-2.463 1.2-4.724l3.694-1.007-.219-3.625c-.166-2.758-.183-3.683 1.264-6.167.038-1.902.038-1.902-.21-4.013l-.214-2.367-.244-2.469a560.79 560.79 0 0 1-.459-4.837l-.216-2.167c.006-1.845.006-1.845 1.323-4.106l3.694-1.008-.511-2.913a6225.07 6225.07 0 0 1-.634-3.786l-.34-1.919c-.79-4.806-.79-4.806.677-7.323l3.694-1.007 1.453 1.505 2.648.288c2.763 1.088 2.763 1.088 3.648 2.933a67.542 67.542 0 0 1 1.498 6.061l3.694-1.008-.549-1.588-.692-2.114-.697-2.082c-.484-2.308-.26-3.876.343-6.14l2.613-.653c2.99-.725 2.99-.725 5.433-2.492l-.184-1.829c-.424-4.469-.621-8.747-.359-13.234-.033-5.636-.717-11.057-1.579-16.633-.275-2.695-.16-5.045.235-7.718 3.864-1.283 7.059-1.981 10.938-.466 6.203 3.899 8.919 8.752 11.509 15.258l.815-1.648c1.161-1.743 1.161-1.743 3.931-2.499 2.641 2.132 2.641 2.132 3.7 5.646l5.541-1.512-.066-1.928c-.123-8.389-.123-8.389 2.823-12.133l2.301.382c3.199.13 4.444-.618 7.198-2.023 2.376 1.253 2.376 1.253 3.171 3.889l2.77-.756-.243-3.499c-.1-1.637-.198-3.274-.293-4.911l-.177-2.893-.151-2.959-.15-2.766c.075-2.83.664-5.124 1.517-7.827.41-2.006.807-4.014 1.181-6.026l3.959-.129c1.813-3.791 2.871-7.313 3.551-11.426l4.882-.381.855-2.967c1.25-3.312 1.25-3.312 2.933-4.565 1.776-1.47 1.776-1.47 1.497-3.996l-.384-2.881c-.364-5.332.555-7.924 4.09-12.008 1.67-1.209 1.67-1.209 3.712-1.621 1.916.283 1.916.283 4.08 2.901 2.232 3.05 2.231 3.05 5.916 3.675l2.879.224-.354-1.782c-2.484-12.719-2.484-12.719-.06-16.168l.748-2.283.963-1.986 3.694-1.008-.531-3.004c-.399-3.397-.399-3.397.653-6.536 2.242-1.265 2.242-1.265 4.353-2.138l-.045-3.255c.038-3.398.038-3.398.697-4.528Z" fill="#3757BE"/></svg>