<svg aria-hidden="true" style="width:0;height:0;position:absolute;overflow:hidden" xmlns="http://www.w3.org/2000/svg"><defs><symbol id="icon-done-check" viewBox="0 0 24 24"><path id="Path" d="m19.546 7-10 10L5 12.454" stroke-width="2" stroke-linecap="round" stroke-linejoin="round"/></symbol><symbol id="icon-circle" viewBox="0 0 24 24"><circle cx="12" cy="12" r="4"/></symbol><symbol id="icon-close" viewBox="0 0 24 24"><rect width="16" height="2" x="4" y="11" rx="1" transform-origin="center" transform="rotate(45)"/><rect width="16" height="2" x="4" y="11" rx="1" transform-origin="center" transform="rotate(-45)"/></symbol><symbol id="icon-warning" viewBox="0 0 24 24"><path d="M12 13.12V9.38M11.999 16.125a.25.25 0 1 0 .002.5.25.25 0 0 0-.002-.5" stroke="#323232" stroke-width="2" stroke-linecap="round" stroke-linejoin="round"/><path fill-rule="evenodd" clip-rule="evenodd" d="m14.029 4.139 7.659 13.404c.89 1.558-.235 3.497-2.029 3.497H4.341c-1.795 0-2.92-1.939-2.029-3.497L9.971 4.139c.897-1.571 3.161-1.571 4.058 0Z" stroke="#323232" stroke-width="2" stroke-linecap="round" stroke-linejoin="round"/></symbol><symbol id="icon-world" viewBox="0 0 24 24"><path d="M12 3c4.982 0 9 4.018 9 9s-4.018 9-9 9M12 21c-4.982 0-9-4.018-9-9s4.018-9 9-9" stroke="#282828" stroke-width="2" stroke-linecap="round" stroke-linejoin="round"/><path fill-rule="evenodd" clip-rule="evenodd" d="M10.168 4.06c-2.89 4.825-2.89 11.056 0 15.881a2.114 2.114 0 0 0 3.665 0c2.89-4.825 2.89-11.056 0-15.881a2.114 2.114 0 0 0-3.665 0Z" stroke="#282828" stroke-width="2" stroke-linecap="round" stroke-linejoin="round"/><path d="M3 12h18" stroke="#282828" stroke-width="2" stroke-linecap="round" stroke-linejoin="round"/></symbol><symbol id="icon-arrow-right" viewBox="0 0 24 24"><path d="m10.266 16 3.467-4.048L10.266 8" stroke-width="2" stroke-linecap="round"/></symbol><symbol id="icon-arrow-down" viewBox="0 0 24 24"><path d="m8 10.266 4.048 3.468L16 10.266" stroke-width="2" stroke-linecap="round"/></symbol><symbol id="icon-arrow-up" viewBox="0 0 24 24"><path d="m10.266 16 3.468-4.048L10.266 8" stroke-width="2" stroke-linecap="round"/></symbol><symbol id="icon-arrow-left" viewBox="0 0 24 24"><path id="Vector 1" d="m13.734 16-3.468-4.048L13.734 8" stroke-width="2" stroke-linecap="round"/></symbol><symbol id="icon-flag-ukraine" viewBox="0 0 24 24"><path d="M21.333 3.333H2.667A2.667 2.667 0 0 0 0 6v6h24V6a2.667 2.667 0 0 0-2.667-2.667Z" fill="#0057B8"/><path d="M24 18a2.667 2.667 0 0 1-2.667 2.667H2.667A2.667 2.667 0 0 1 0 18v-6h24v6Z" fill="gold"/></symbol><symbol id="icon-flag-united-kingdom" viewBox="0 0 50 30"><clipPath id="t"><path d="M25 15h25v15zv15H0zH0V0zV0h25z"/></clipPath><path d="M0 0v30h50V0z" fill="#012169"/><path d="m0 0 50 30m0-30L0 30" stroke="#fff" stroke-width="6"/><path d="m0 0 50 30m0-30L0 30" clip-path="url('#t')" stroke="#C8102E" stroke-width="4"/><path d="M-1 11h22V-1h8v12h22v8H29v12h-8V19H-1z" fill="#C8102E" stroke="#FFF" stroke-width="2"/></symbol><symbol id="icon-secondary-button-arrow" viewBox="0 0 24 24"><path id="Path" d="M19 12H5" stroke="currentColor" stroke-width="2" stroke-linecap="round" stroke-linejoin="round"/><path id="Path_2" d="m14 17 5-5" stroke="currentColor" stroke-width="2" stroke-linecap="round" stroke-linejoin="round"/><path id="Path_3" d="m14 7 5 5" stroke="currentColor" stroke-width="2" stroke-linecap="round" stroke-linejoin="round"/></symbol><symbol id="icon-location-tag" viewBox="0 0 24 24"><path id="Path" fill-rule="evenodd" clip-rule="evenodd" d="M12 13v0a3 3 0 0 1-3-3v0a3 3 0 0 1 3-3v0a3 3 0 0 1 3 3v0a3 3 0 0 1-3 3Z" stroke="#E0EAF9" stroke-width="2" stroke-linecap="round" stroke-linejoin="round"/><path id="Path_2" fill-rule="evenodd" clip-rule="evenodd" d="M12 21s-7-5.75-7-11a7 7 0 1 1 14 0c0 5.25-7 11-7 11Z" stroke="#E0EAF9" stroke-width="2" stroke-linecap="round" stroke-linejoin="round"/></symbol><symbol id="icon-phone" viewBox="0 0 24 24"><path id="Path" d="M9.75 3v1.688c0 .31.252.562.563.562h3.374c.311 0 .563-.252.563-.563V3" stroke="#E0EAF9" stroke-linecap="round" stroke-linejoin="round"/><path id="Path_2" d="M10.313 17.625h3.374" stroke="#E0EAF9" stroke-width="2" stroke-linecap="round" stroke-linejoin="round"/><path id="Path_3" fill-rule="evenodd" clip-rule="evenodd" d="M8.625 3h6.75a2.25 2.25 0 0 1 2.25 2.25v13.5a2.25 2.25 0 0 1-2.25 2.25h-6.75a2.25 2.25 0 0 1-2.25-2.25V5.25A2.25 2.25 0 0 1 8.625 3Z" stroke="#E0EAF9" stroke-width="2" stroke-linecap="round" stroke-linejoin="round"/></symbol><symbol id="icon-twitter-new" viewBox="0 0 24 24"><path d="M17.114 17.734h-1.353L6.931 6.19h1.452l8.731 11.544Z"/><path fill-rule="evenodd" clip-rule="evenodd" d="M12 24c6.627 0 12-5.373 12-12S18.627 0 12 0 0 5.373 0 12s5.373 12 12 12Zm7.06-19.195h-2.442l-4.022 4.598-3.478-4.598H4.08l6.018 7.87-5.704 6.52h2.443l4.402-5.03 3.848 5.03H20L13.726 10.9l5.333-6.095Z"/></symbol><symbol id="icon-facebook" viewBox="0 0 24 24"><path fill-rule="evenodd" clip-rule="evenodd" d="M12 24c6.627 0 12-5.373 12-12S18.627 0 12 0 0 5.373 0 12s5.373 12 12 12Zm1.435-16.052c0-.966.24-1.404 1.068-1.404l1.173.003V4.11A10.538 10.538 0 0 0 14.132 4c-2.463 0-3.346 1.38-3.346 3.992v1.559H9v2.59h1.786V20h2.65v-7.86h1.986l.222-2.589h-2.209V7.948Z"/></symbol><symbol id="icon-telegram" viewBox="0 0 24 24"><path d="M12 0C5.373 0 0 5.373 0 12s5.373 12 12 12 12-5.373 12-12S18.627 0 12 0Zm5.894 8.221-1.97 9.28c-.145.658-.537.818-1.084.508l-3-2.21-1.446 1.394a.759.759 0 0 1-.6.295h-.005l.213-3.054 5.56-5.022c.24-.213-.054-.334-.373-.121L8.32 13.617l-2.96-.924c-.64-.203-.658-.64.135-.954l11.566-4.458c.538-.196 1.006.128.832.941l.001-.001Z"/></symbol><symbol id="icon-linkedin" viewBox="0 0 24 24"><path d="M12 0C5.372 0 0 5.372 0 12s5.372 12 12 12 12-5.372 12-12S18.628 0 12 0ZM8.644 17.02h-2.34V9.534h2.34v7.486ZM7.41 8.597h-.019c-.848 0-1.397-.572-1.397-1.299 0-.74.567-1.298 1.43-1.298.862 0 1.392.558 1.41 1.298.006.722-.543 1.299-1.424 1.299ZM18 17.02h-2.653v-3.872c0-1.012-.413-1.706-1.327-1.706-.698 0-1.087.469-1.265.919-.066.16-.057.384-.057.614v4.045h-2.63s.034-6.862 0-7.486h2.63v1.177c.155-.516.994-1.247 2.335-1.247 1.664 0 2.967 1.078 2.967 3.394v4.162Z"/></symbol><symbol id="icon-search" viewBox="0 0 24 24"><path id="Path" fill-rule="evenodd" clip-rule="evenodd" d="M18.934 11.467a7.467 7.467 0 1 1-14.934 0 7.467 7.467 0 1 1 14.934 0Z" stroke-width="2" stroke-linecap="round" stroke-linejoin="round"/><path id="Path_2" d="m20 20-3-3" stroke-width="2" stroke-linecap="round" stroke-linejoin="round"/></symbol><symbol id="icon-file-pdf" viewBox="0 0 32 32"><path d="M26.313 18.421c-.427-.42-1.372-.643-2.812-.662-.974-.011-2.147.075-3.38.248-.552-.319-1.122-.665-1.568-1.083-1.202-1.122-2.205-2.68-2.831-4.394.041-.16.075-.301.108-.444 0 0 .677-3.846.498-5.146a1.526 1.526 0 0 0-.088-.369l-.059-.151c-.184-.425-.545-.875-1.111-.85l-.341-.011c-.631 0-1.146.323-1.281.805-.411 1.514.013 3.778.781 6.711l-.197.478c-.55 1.34-1.238 2.689-1.846 3.88l-.079.155a65.82 65.82 0 0 1-1.745 3.213l-.543.287c-.04.021-.97.513-1.188.645-1.852 1.106-3.079 2.361-3.282 3.357-.065.318-.017.725.313.913l.525.264c.228.114.468.172.714.172 1.319 0 2.85-1.643 4.959-5.324a49.318 49.318 0 0 1 7.638-1.815c1.852 1.043 4.129 1.767 5.567 1.767.255 0 .475-.024.654-.072a1.11 1.11 0 0 0 .65-.444c.279-.42.335-.998.26-1.59-.023-.176-.163-.393-.315-.541zM6.614 25.439c.241-.658 1.192-1.958 2.6-3.111.088-.072.306-.276.506-.466-1.472 2.348-2.458 3.283-3.106 3.577zM14.951 6.24c.424 0 .665 1.069.685 2.07s-.214 1.705-.505 2.225c-.241-.77-.357-1.984-.357-2.778 0 0-.018-1.517.177-1.517zm-2.487 13.682c.295-.529.603-1.086.917-1.677a31.984 31.984 0 0 0 1.609-3.511c.716 1.303 1.608 2.41 2.656 3.297.131.111.269.222.415.333-2.132.422-3.974.935-5.596 1.558zm13.439-.12c-.13.081-.502.128-.741.128-.772 0-1.727-.353-3.066-.927.515-.038.986-.057 1.409-.057.774 0 1.004-.003 1.761.19s.767.585.637.667z"/><path d="M28.681 7.159c-.694-.947-1.662-2.053-2.724-3.116s-2.169-2.03-3.116-2.724C21.229.137 20.448 0 20 0H4.5A2.503 2.503 0 0 0 2 2.5v27C2 30.878 3.121 32 4.5 32h23c1.378 0 2.5-1.122 2.5-2.5V10c0-.448-.137-1.23-1.319-2.841zm-4.138-1.702A27.334 27.334 0 0 1 26.811 8H22V3.189a27.334 27.334 0 0 1 2.543 2.268zM28 29.5c0 .271-.229.5-.5.5h-23a.507.507 0 0 1-.5-.5v-27c0-.271.229-.5.5-.5H20v7a1 1 0 0 0 1 1h7v19.5z"/></symbol><symbol id="icon-file-text2" viewBox="0 0 32 32"><path d="M28.681 7.159c-.694-.947-1.662-2.053-2.724-3.116s-2.169-2.03-3.116-2.724C21.229.137 20.448 0 20 0H4.5A2.503 2.503 0 0 0 2 2.5v27C2 30.878 3.122 32 4.5 32h23c1.378 0 2.5-1.122 2.5-2.5V10c0-.448-.137-1.23-1.319-2.841zm-4.138-1.702A27.334 27.334 0 0 1 26.811 8H22V3.189a27.334 27.334 0 0 1 2.543 2.268zM28 29.5c0 .271-.229.5-.5.5h-23a.507.507 0 0 1-.5-.5v-27c0-.271.229-.5.5-.5H20v7a1 1 0 0 0 1 1h7v19.5z"/><path d="M23 26H9a1 1 0 0 1 0-2h14a1 1 0 0 1 0 2zM23 22H9a1 1 0 0 1 0-2h14a1 1 0 0 1 0 2zM23 18H9a1 1 0 0 1 0-2h14a1 1 0 0 1 0 2z"/></symbol></defs></svg>