<svg xmlns="http://www.w3.org/2000/svg" fill="none" viewBox="33 26 197 66"><path fill="#fff" d="M62.91 25.604 32.55 42.058v33.1l30.565 16.589L93.41 75.32V41.768Z"/><path fill="#6db33f" d="m34.962 42.378 12.685-6.887v13.854Zm29.53.169 12.22-6.712v13.424Zm-16.839 22.84-12.383-6.8 12.383-6.798Zm29.064 2.536v13.418l-12.22-6.712ZM34.043 57.471V43.657l12.575 6.91Zm0 16.042V59.699l12.575 6.904Zm13.593 8.584-13.058-7.084 13.075-7.177v14.256l-.017.011Zm14.552 7.905-12.912-7.015 12.912-7.084Zm14.436-6.921L63.76 90V76.014Zm14.762-7.946-13.098 7.05V67.947Zm.774-15.617v14.256l-13.052-7.171 12.976-7.125.076.046Zm0-16.128v14.25L79.102 50.56Zm-13.872-7.986 12.708 6.834-12.708 6.986Zm-14.53-7.817 12.477 6.712-12.476 6.852Zm-14.092 6.805 12.528-6.805v13.68Z"/><path fill="#c41230" d="M49.218 81.23V68.045l12.005 6.591Zm.651-30.657 12.307-6.759v13.511Zm-.651-14.617 12.005 6.596-12.005 6.596V35.956m14.529 21.248V43.937l12.086 6.636Zm-14.53 7.98V51.998l12.006 6.596Zm12.96-5.328v13.511L49.869 66.61Zm14.529-7.98V65.3l-12.22-6.706 12.22-6.712Zm1.564 13.389V51.911l12.168 6.677Zm-14.529 7.98V59.972l12.087 6.637Z"/><path fill="#000" d="m101.984 55.89 1.657-3.02-5.833-10.626h2.85l4.304 8.265 4.158-8.265h2.804l-7.16 13.645h-2.786ZM112.704 42.244h2.577V55.89h-2.577Zm9.812 13.645-5.618-5.24c-.803-.745-.943-1.402-.943-1.757 0-.273.082-.878.745-1.541l5.159-5.107h3.182l-5.892 5.595c-.448.425-.722.762-.722 1.053 0 .425.483.902.873 1.25l6.456 5.747h-3.251ZM125.965 55.89V44.285c0-.506 0-1.047.471-1.518.448-.448 1.07-.524 1.535-.524h6.491c.728 0 1.873 0 2.711.814.936.896 1.035 2.438 1.035 3.59 0 1.15-.116 2.867-1.192 3.745-.506.413-1.28.663-2.082.663h-6.398v4.833Zm7.468-6.887c.558 0 1.227 0 1.675-.506.413-.466.448-1.344.448-1.873 0-.605-.058-1.425-.494-1.873-.442-.448-1.17-.471-1.6-.471h-4.153c-.174 0-.407-.012-.599.18-.18.175-.18.407-.18.646v3.891h4.897ZM142.384 43.623c.483-1.152 1.012-1.541 2.233-1.541s1.757.39 2.245 1.54l5.148 12.262h-2.705l-1.413-3.45h-6.567l-1.384 3.45h-2.705Zm-.396 6.98h5.252l-2.227-5.555c-.076-.198-.215-.57-.39-.57-.174 0-.308.372-.384.57l-2.245 5.554ZM152.208 41.07v-2.146h2.263v2.146Zm1.873 14.814V42.239h2.571v13.645Zm2.181-14.814v-2.146h2.263v2.146ZM172.326 55.89h-2.57v-6.002h-7.096v6.002h-2.577V42.244h2.577v5.595h7.096v-5.595h2.57ZM179.998 55.89c-1.303 0-3.077-.175-4.339-1.594-1.286-1.449-1.385-3.525-1.385-5.032 0-1.948.175-3.955 1.327-5.304 1.361-1.6 3.489-1.716 4.461-1.716h5.479v2.042h-4.27c-1.523 0-2.803.099-3.588 1.273-.407.605-.762 1.64-.762 3.665 0 2.024.372 2.885.645 3.315.698 1.07 1.949 1.303 3.566 1.303h4.624v2.047ZM190.077 42.244v5.595h6.479c.651 0 1.995.076 2.676 1.31.36.662.506 1.75.506 2.71 0 1.907-.524 2.704-.623 2.85-.256.348-1.035 1.186-2.687 1.186h-7.259c-.698 0-1.07-.366-1.233-.54-.372-.449-.43-1.019-.43-1.53V42.25h2.571Zm0 10.76c0 .117 0 .466.122.623.157.215.465.215.744.215h4.147c.198 0 1.071 0 1.507-.372.483-.407.483-1.129.483-1.693 0-.61-.018-1.25-.541-1.64-.373-.273-.838-.25-1.309-.25h-5.153ZM201.682 42.244h2.576V55.89h-2.576Zm9.812 13.645-5.619-5.24c-.797-.745-.936-1.402-.936-1.757 0-.273.075-.878.738-1.541l5.171-5.107h3.176l-5.898 5.595c-.448.425-.715.762-.715 1.053 0 .425.482.902.872 1.25l6.462 5.747h-3.257ZM219.898 43.623c.489-1.152 1.007-1.541 2.246-1.541 1.163 0 1.75.39 2.239 1.54l5.147 12.262h-2.71l-1.402-3.45h-6.572l-1.39 3.45h-2.705Zm-.389 6.98h5.24l-2.222-5.555c-.075-.198-.209-.57-.383-.57-.175 0-.32.372-.39.57ZM109.551 61.119h-8.254c-.349 0-.622.04-.756.157-.157.133-.238.412-.238.697v4.525h6.939c.744 0 1.675.105 2.32.954.216.297.623 1.018.623 2.728 0 .745-.099 2.071-.762 2.827-.64.745-1.542.814-2.147.814h-6.432c-.803 0-1.17-.267-1.344-.5-.238-.314-.256-.82-.256-1.21v-10.12c0-.425.035-.971.384-1.367.355-.39.843-.448 1.233-.448h8.678v.936Zm-9.242 10.643c0 .588.058.745.122.838.209.314.68.297 1.07.297h5.403c.466 0 1.105 0 1.6-.506.424-.454.564-1.251.564-2.286 0-.722-.087-1.658-.564-2.181-.495-.512-1.111-.489-1.6-.489h-6.595ZM112.528 73.827V60.182h1.059v13.645ZM116.309 73.827V61.799c0-.373 0-.896.366-1.245.372-.355 1.111-.372 1.309-.372h5.642c.872 0 1.808.035 2.588.72.773.67 1.035 1.7 1.035 3.473 0 1.111-.134 2.536-1.128 3.298-.466.372-1.152.582-1.832.582h-6.922v5.578h-1.053Zm7.375-6.509c1.128 0 1.675-.355 1.907-.628.506-.599.53-2.088.53-2.594s-.024-1.75-.564-2.356c-.274-.314-.844-.622-1.833-.622h-5.572c-.785 0-.785.366-.785.838v5.363h6.323Z"/><path fill="#000" d="M132.735 68.022c.518-.494.925-.838.925-1.152 0-.215-.209-.482-.773-1.035l-5.886-5.653h1.518l5.287 5.141c.331.332.919.96.919 1.507 0 .587-.727 1.343-1.129 1.716l-5.735 5.28h-1.582Zm2.752-7.84h1.052v13.645h-1.052Zm8.677 13.645-5.729-5.281c-1.093-1.018-1.134-1.565-1.134-1.716 0-.547.588-1.17.919-1.507l5.281-5.141h1.53l-5.892 5.653c-.564.547-.779.82-.779 1.035 0 .314.413.658.942 1.152l6.445 5.805h-1.583M151.156 61.467c.314-.744.698-1.442 1.524-1.442.825 0 1.209.715 1.512 1.442l5.235 12.36h-1.135l-1.657-3.978h-7.916l-1.652 3.978h-1.134l5.229-12.36Zm-2.024 7.451h7.096l-2.978-7.142c-.123-.268-.297-.774-.57-.774-.274 0-.448.512-.565.774Z"/></svg>