<svg xmlns="http://www.w3.org/2000/svg" viewBox="0 0 784 500"><g id="freepik--Device--inject-2"><rect x="391.04" y="337.85" width="30.22" height="121.93" style="fill:#263238;stroke:#263238;stroke-linecap:round;stroke-linejoin:round"></rect><rect x="223.12" y="136.72" width="381.42" height="231.35" style="fill:#263238;stroke:#263238;stroke-linecap:round;stroke-linejoin:round"></rect><rect x="215.44" y="136.72" width="381.42" height="231.35" style="fill:#75A4E5;stroke:#263238;stroke-linecap:round;stroke-linejoin:round"></rect><rect x="229.18" y="145.05" width="353.93" height="214.68" style="fill:#fff;stroke:#263238;stroke-linecap:round;stroke-linejoin:round"></rect><rect x="229.18" y="346.81" width="353.93" height="12.93" style="fill:#fff;stroke:#263238;stroke-linecap:round;stroke-linejoin:round"></rect><polygon points="407.8 446.1 295.75 453.34 295.75 460.64 516.55 460.64 516.55 453.34 407.8 446.1" style="fill:#263238;stroke:#263238;stroke-linecap:round;stroke-linejoin:round"></polygon><rect x="229.18" y="145.05" width="353.93" height="214.68" style="fill:#fff;stroke:#263238;stroke-linecap:round;stroke-linejoin:round"></rect><rect x="405.08" y="156.71" width="170.66" height="48.35" style="fill:#fff;stroke:#263238;stroke-linecap:round;stroke-linejoin:round"></rect><rect x="467.45" y="216.64" width="107.61" height="64.02" style="fill:#fff;stroke:#263238;stroke-linecap:round;stroke-linejoin:round"></rect><polygon points="467.45 280.66 504.91 250.69 520.57 262.27 553.26 237.07 574.37 257.5 574.37 280.66 467.45 280.66" style="fill:#263238;stroke:#263238;stroke-linecap:round;stroke-linejoin:round"></polygon><path d="M493.33,233a7.49,7.49,0,1,1-7.49-7.5A7.5,7.5,0,0,1,493.33,233Z" style="fill:#263238;stroke:#263238;stroke-linecap:round;stroke-linejoin:round"></path><rect x="467.45" y="289.51" width="107.61" height="64.02" style="fill:#fff;stroke:#263238;stroke-linecap:round;stroke-linejoin:round"></rect><polygon points="467.45 353.53 504.91 323.56 520.57 335.14 553.26 309.94 574.37 330.38 574.37 353.53 467.45 353.53" style="fill:#263238;stroke:#263238;stroke-linecap:round;stroke-linejoin:round"></polygon><path d="M493.33,305.86a7.49,7.49,0,1,1-7.49-7.49A7.5,7.5,0,0,1,493.33,305.86Z" style="fill:#263238;stroke:#263238;stroke-linecap:round;stroke-linejoin:round"></path><path d="M413.91,320.57l-4.19-25.72h3l2.76,18.48L418.93,295h2.54L425,313.43l2.7-18.58h2.93l-4.13,25.72h-2.61l-3.59-19.05-3.62,19.05Z" style="fill:#263238"></path><line x1="434.49" y1="296.41" x2="459.65" y2="296.41" style="fill:none;stroke:#263238;stroke-miterlimit:10"></line><line x1="434.49" y1="303.35" x2="459.65" y2="303.35" style="fill:none;stroke:#263238;stroke-miterlimit:10"></line><line x1="434.49" y1="310.29" x2="459.65" y2="310.29" style="fill:none;stroke:#263238;stroke-miterlimit:10"></line><line x1="434.49" y1="317.23" x2="459.65" y2="317.23" style="fill:none;stroke:#263238;stroke-miterlimit:10"></line><line x1="434.49" y1="324.17" x2="459.65" y2="324.17" style="fill:none;stroke:#263238;stroke-miterlimit:10"></line><line x1="434.49" y1="331.11" x2="459.65" y2="331.11" style="fill:none;stroke:#263238;stroke-miterlimit:10"></line><line x1="434.49" y1="338.05" x2="459.65" y2="338.05" style="fill:none;stroke:#263238;stroke-miterlimit:10"></line><line x1="434.49" y1="344.99" x2="459.65" y2="344.99" style="fill:none;stroke:#263238;stroke-miterlimit:10"></line><line x1="434.49" y1="351.93" x2="459.65" y2="351.93" style="fill:none;stroke:#263238;stroke-miterlimit:10"></line><path d="M419.47,217.66a34.55,34.55,0,0,0-19.3,5.86V145.05h-171V359.73h171V281.27a34.73,34.73,0,1,0,19.3-63.61Z" style="fill:#263238;stroke:#263238;stroke-linecap:round;stroke-linejoin:round"></path><line x1="246.97" y1="177.82" x2="323.93" y2="177.82" style="fill:none;stroke:#fff;stroke-linecap:round;stroke-linejoin:round;stroke-width:2px"></line><line x1="246.97" y1="200.85" x2="287.15" y2="200.85" style="fill:none;stroke:#fff;stroke-linecap:round;stroke-linejoin:round;stroke-width:2px"></line><line x1="246.97" y1="188.18" x2="284.43" y2="188.18" style="fill:none;stroke:#75A4E5;stroke-linecap:round;stroke-linejoin:round;stroke-width:2px"></line><line x1="292.6" y1="188.18" x2="312.35" y2="188.18" style="fill:none;stroke:#75A4E5;stroke-linecap:round;stroke-linejoin:round;stroke-width:2px"></line><line x1="323.93" y1="188.18" x2="343.68" y2="188.18" style="fill:none;stroke:#75A4E5;stroke-linecap:round;stroke-linejoin:round;stroke-width:2px"></line><line x1="246.97" y1="210.64" x2="284.43" y2="210.64" style="fill:none;stroke:#fff;stroke-linecap:round;stroke-linejoin:round;stroke-width:2px"></line><line x1="292.6" y1="210.64" x2="312.35" y2="210.64" style="fill:none;stroke:#fff;stroke-linecap:round;stroke-linejoin:round;stroke-width:2px"></line><line x1="323.93" y1="210.64" x2="343.68" y2="210.64" style="fill:none;stroke:#75A4E5;stroke-linecap:round;stroke-linejoin:round;stroke-width:2px"></line><line x1="246.97" y1="233.09" x2="284.43" y2="233.09" style="fill:none;stroke:#fff;stroke-linecap:round;stroke-linejoin:round;stroke-width:2px"></line><line x1="292.6" y1="233.09" x2="312.35" y2="233.09" style="fill:none;stroke:#75A4E5;stroke-linecap:round;stroke-linejoin:round;stroke-width:2px"></line><line x1="323.93" y1="233.09" x2="343.68" y2="233.09" style="fill:none;stroke:#fff;stroke-linecap:round;stroke-linejoin:round;stroke-width:2px"></line><line x1="270.12" y1="242.88" x2="298.61" y2="242.88" style="fill:none;stroke:#fff;stroke-linecap:round;stroke-linejoin:round;stroke-width:2px"></line><line x1="304.83" y1="242.88" x2="319.85" y2="242.88" style="fill:none;stroke:#fff;stroke-linecap:round;stroke-linejoin:round;stroke-width:2px"></line><line x1="328.65" y1="242.88" x2="343.68" y2="242.88" style="fill:none;stroke:#fff;stroke-linecap:round;stroke-linejoin:round;stroke-width:2px"></line><line x1="270.12" y1="254.97" x2="298.61" y2="254.97" style="fill:none;stroke:#fff;stroke-linecap:round;stroke-linejoin:round;stroke-width:2px"></line><line x1="304.83" y1="254.97" x2="319.85" y2="254.97" style="fill:none;stroke:#fff;stroke-linecap:round;stroke-linejoin:round;stroke-width:2px"></line><line x1="328.65" y1="254.97" x2="343.68" y2="254.97" style="fill:none;stroke:#fff;stroke-linecap:round;stroke-linejoin:round;stroke-width:2px"></line><line x1="246.97" y1="268.21" x2="323.93" y2="268.21" style="fill:none;stroke:#75A4E5;stroke-linecap:round;stroke-linejoin:round;stroke-width:2px"></line><line x1="246.97" y1="291.24" x2="287.15" y2="291.24" style="fill:none;stroke:#fff;stroke-linecap:round;stroke-linejoin:round;stroke-width:2px"></line><line x1="246.97" y1="278.57" x2="284.43" y2="278.57" style="fill:none;stroke:#75A4E5;stroke-linecap:round;stroke-linejoin:round;stroke-width:2px"></line><line x1="292.6" y1="278.57" x2="312.35" y2="278.57" style="fill:none;stroke:#fff;stroke-linecap:round;stroke-linejoin:round;stroke-width:2px"></line><line x1="323.93" y1="278.57" x2="343.68" y2="278.57" style="fill:none;stroke:#75A4E5;stroke-linecap:round;stroke-linejoin:round;stroke-width:2px"></line><line x1="246.97" y1="301.03" x2="284.43" y2="301.03" style="fill:none;stroke:#75A4E5;stroke-linecap:round;stroke-linejoin:round;stroke-width:2px"></line><line x1="292.6" y1="301.03" x2="312.35" y2="301.03" style="fill:none;stroke:#75A4E5;stroke-linecap:round;stroke-linejoin:round;stroke-width:2px"></line><line x1="323.93" y1="301.03" x2="343.68" y2="301.03" style="fill:none;stroke:#fff;stroke-linecap:round;stroke-linejoin:round;stroke-width:2px"></line><line x1="246.97" y1="323.48" x2="284.43" y2="323.48" style="fill:none;stroke:#fff;stroke-linecap:round;stroke-linejoin:round;stroke-width:2px"></line><line x1="292.6" y1="323.48" x2="312.35" y2="323.48" style="fill:none;stroke:#75A4E5;stroke-linecap:round;stroke-linejoin:round;stroke-width:2px"></line><line x1="323.93" y1="323.48" x2="343.68" y2="323.48" style="fill:none;stroke:#75A4E5;stroke-linecap:round;stroke-linejoin:round;stroke-width:2px"></line><line x1="270.12" y1="333.27" x2="298.61" y2="333.27" style="fill:none;stroke:#fff;stroke-linecap:round;stroke-linejoin:round;stroke-width:2px"></line><line x1="304.83" y1="333.27" x2="319.85" y2="333.27" style="fill:none;stroke:#fff;stroke-linecap:round;stroke-linejoin:round;stroke-width:2px"></line><line x1="328.65" y1="333.27" x2="343.68" y2="333.27" style="fill:none;stroke:#fff;stroke-linecap:round;stroke-linejoin:round;stroke-width:2px"></line><line x1="270.12" y1="345.36" x2="298.61" y2="345.36" style="fill:none;stroke:#fff;stroke-linecap:round;stroke-linejoin:round;stroke-width:2px"></line><line x1="304.83" y1="345.36" x2="319.85" y2="345.36" style="fill:none;stroke:#fff;stroke-linecap:round;stroke-linejoin:round;stroke-width:2px"></line><line x1="328.65" y1="345.36" x2="343.68" y2="345.36" style="fill:none;stroke:#fff;stroke-linecap:round;stroke-linejoin:round;stroke-width:2px"></line><path d="M249.07,164l7.23-3.73v1.08l-6.09,3.06v0l6.09,3.05v1.08l-7.23-3.73Z" style="fill:#fff;stroke:#fff;stroke-miterlimit:10"></path><path d="M260.63,169.2,265,157.9H266l-4.36,11.3Z" style="fill:#fff;stroke:#fff;stroke-miterlimit:10"></path><path d="M277.57,164.87l-7.23,3.71V167.5l6.14-3.05v0l-6.14-3.06v-1.08l7.23,3.71Z" style="fill:#fff;stroke:#fff;stroke-miterlimit:10"></path></g><g id="freepik--Table--inject-2"><line x1="85.96" y1="460.64" x2="720.99" y2="460.64" style="fill:none;stroke:#263238;stroke-miterlimit:10"></line><line x1="52.99" y1="460.64" x2="70.08" y2="460.64" style="fill:none;stroke:#263238;stroke-miterlimit:10"></line></g></svg>
