<svg width="298" height="244" viewBox="0 0 298 244" fill="none" xmlns="http://www.w3.org/2000/svg">
<path d="M210.079 31.105H208.063" stroke="#1F294C" stroke-linejoin="round"/>
<path d="M204.036 31.105H77.1865" stroke="#1F294C" stroke-linejoin="round" stroke-dasharray="6.99 6.99"/>
<path d="M75.1701 31.105H73.1538" stroke="#1F294C" stroke-linejoin="round"/>
<path d="M211.474 195.228V193.212" stroke="#1F294C" stroke-linejoin="round"/>
<path d="M211.474 189.144V36.5491" stroke="#1F294C" stroke-linejoin="round" stroke-dasharray="7.06 7.06"/>
<path d="M211.474 34.5156V32.4993" stroke="#1F294C" stroke-linejoin="round"/>
<path d="M212.868 29.7109H210.08V32.505H212.868V29.7109Z" stroke="#1F294C" stroke-linejoin="round"/>
<path d="M234.805 39.4525L214.527 30.9321L223.047 51.2163L225.398 44.3551L229.926 48.8832L232.472 46.3368L227.944 41.8087L234.805 39.4525Z" stroke="#1F294C" stroke-linecap="round" stroke-linejoin="round"/>
<path d="M169.085 62.2659L174.511 55.566C175.122 54.8107 175.557 53.9281 175.782 52.983C176.007 52.0379 176.018 51.0544 175.813 50.1046L170.669 26.2371C170.476 25.3474 169.985 24.5505 169.276 23.9791C168.568 23.4078 167.685 23.0966 166.774 23.0974H156.802C156.093 23.0969 155.388 23.2137 154.717 23.4431L58.2329 62.9342L82.6823 189.899C86.1388 195.084 182.577 161.722 182.577 161.722C184.114 161.208 185.403 160.137 186.191 158.721C186.979 157.304 187.208 155.643 186.834 154.066L167.114 70.9707C166.756 69.4656 166.747 67.8985 167.089 66.3896C167.43 64.8806 168.113 63.47 169.085 62.2659Z" fill="#75A4E5" stroke="#1F294C" stroke-linecap="round" stroke-linejoin="round"/>
<path opacity="0.3" d="M154.976 25.9031L185.509 156.78C185.509 156.78 82.256 195.24 87.1182 183.338C87.1182 183.338 62.5479 66.4196 64.6218 65.9876C66.6958 65.5555 154.976 25.9031 154.976 25.9031Z" fill="black" fill-opacity="0.7"/>
<path d="M180.468 154.446L91.4212 182.715L69.6219 69.1213L68.3833 62.6576L147.711 24.2726C148.104 24.1047 148.529 24.024 148.956 24.0358C149.383 24.0477 149.803 24.1519 150.186 24.3412C150.569 24.5306 150.907 24.8007 151.176 25.1329C151.445 25.4652 151.638 25.8516 151.744 26.2659L153.386 32.6835L183.187 149.394C183.477 150.424 183.355 151.527 182.848 152.469C182.341 153.412 181.487 154.121 180.468 154.446Z" fill="white"/>
<mask id="mask0_326_1934" style="mask-type:luminance" maskUnits="userSpaceOnUse" x="68" y="24" width="116" height="159">
<path d="M180.468 154.446L91.4212 182.715L69.6219 69.1213L68.3833 62.6576L147.711 24.2726C148.104 24.1047 148.529 24.024 148.956 24.0358C149.383 24.0477 149.803 24.1519 150.186 24.3412C150.569 24.5306 150.907 24.8007 151.176 25.1329C151.445 25.4652 151.638 25.8516 151.744 26.2659L153.386 32.6835L183.187 149.394C183.477 150.424 183.355 151.527 182.848 152.469C182.341 153.412 181.487 154.121 180.468 154.446Z" fill="white"/>
</mask>
<g mask="url(#mask0_326_1934)">
<path d="M153.409 32.6836L70.2614 70.7402L68.3833 62.6749L147.711 24.2899C148.104 24.1221 148.529 24.0413 148.956 24.0531C149.383 24.065 149.803 24.1692 150.186 24.3586C150.569 24.548 150.907 24.818 151.176 25.1503C151.445 25.4825 151.638 25.869 151.744 26.2832L153.409 32.6836Z" fill="#1F294C"/>
<path d="M149.255 29.8665C149.275 30.1194 149.242 30.3737 149.159 30.6132C149.076 30.8528 148.943 31.0724 148.77 31.2582C148.598 31.4439 148.388 31.5918 148.155 31.6924C147.922 31.793 147.671 31.8441 147.418 31.8425C146.888 31.7633 146.407 31.4912 146.067 31.0785C145.727 30.6658 145.551 30.1417 145.574 29.6072C145.553 29.3537 145.585 29.0985 145.669 28.8582C145.752 28.6178 145.885 28.3976 146.059 28.2115C146.232 28.0255 146.443 27.8778 146.677 27.7778C146.911 27.6779 147.163 27.628 147.418 27.6313C147.946 27.7117 148.425 27.9844 148.764 28.397C149.104 28.8096 149.278 29.3329 149.255 29.8665Z" fill="#75A4E5" stroke="#1F294C" stroke-linecap="round" stroke-linejoin="round"/>
<path d="M144.491 32.217C144.505 32.4525 144.471 32.6885 144.39 32.9103C144.31 33.1321 144.185 33.335 144.023 33.5067C143.861 33.6783 143.666 33.815 143.449 33.9082C143.232 34.0015 142.999 34.0494 142.763 34.049C142.268 33.9806 141.817 33.7301 141.497 33.3465C141.177 32.9629 141.012 32.4739 141.034 31.975C141.02 31.7395 141.054 31.5036 141.135 31.2818C141.215 31.06 141.34 30.857 141.502 30.6854C141.664 30.5137 141.86 30.3771 142.076 30.2838C142.293 30.1905 142.527 30.1426 142.763 30.1431C143.257 30.2127 143.707 30.4635 144.027 30.8468C144.346 31.2301 144.512 31.7185 144.491 32.217Z" fill="#75A4E5" stroke="#1F294C" stroke-linecap="round" stroke-linejoin="round"/>
<path d="M140.003 34.2504C140.023 34.4717 139.997 34.6948 139.925 34.9051C139.854 35.1155 139.739 35.3084 139.587 35.4714C139.436 35.6344 139.253 35.7638 139.049 35.8512C138.844 35.9386 138.624 35.982 138.402 35.9787C137.943 35.9107 137.526 35.6752 137.232 35.3176C136.937 34.9601 136.785 34.5059 136.806 34.043C136.787 33.8224 136.814 33.6002 136.885 33.3906C136.957 33.1811 137.071 32.9888 137.222 32.8261C137.372 32.6634 137.554 32.5338 137.758 32.4458C137.961 32.3577 138.18 32.3131 138.402 32.3147C138.86 32.3826 139.278 32.618 139.574 32.9754C139.869 33.3328 140.022 33.7869 140.003 34.2504Z" fill="#75A4E5" stroke="#1F294C" stroke-linecap="round" stroke-linejoin="round"/>
<path opacity="0.3" d="M180.468 154.446L91.4212 182.715L69.6219 69.1213L68.3833 62.6576L147.711 24.2726C148.104 24.1047 148.529 24.024 148.956 24.0358C149.383 24.0477 149.803 24.1519 150.186 24.3412C150.569 24.5306 150.907 24.8007 151.176 25.1329C151.445 25.4652 151.638 25.8516 151.744 26.2659L153.386 32.6835L183.187 149.394C183.477 150.424 183.355 151.527 182.848 152.469C182.341 153.412 181.487 154.121 180.468 154.446Z" fill="black" fill-opacity="0.7"/>
</g>
<path d="M180.468 154.446L91.4212 182.715L69.6219 69.1213L68.3833 62.6576L147.711 24.2726C148.104 24.1047 148.529 24.024 148.956 24.0358C149.383 24.0477 149.803 24.1519 150.186 24.3412C150.569 24.5306 150.907 24.8007 151.176 25.1329C151.445 25.4652 151.638 25.8516 151.744 26.2659L153.386 32.6835L183.187 149.394C183.477 150.424 183.355 151.527 182.848 152.469C182.341 153.412 181.487 154.121 180.468 154.446Z" stroke="#1F294C" stroke-linecap="round" stroke-linejoin="round"/>
<path d="M175.18 148.847L87.3543 183.337L65.8488 71.2644L64.6274 64.8929L142.884 20.9658C143.252 20.7592 143.662 20.6402 144.084 20.6182C144.505 20.5962 144.926 20.6718 145.313 20.839C145.701 21.0063 146.045 21.2607 146.318 21.5824C146.591 21.9042 146.786 22.2846 146.888 22.6941L148.501 28.9966L177.881 143.639C178.139 144.687 178.006 145.793 177.509 146.751C177.012 147.709 176.184 148.453 175.18 148.847Z" fill="white" stroke="#1F294C" stroke-linecap="round" stroke-linejoin="round"/>
<path d="M148.501 28.9735L66.4767 72.8429L64.6274 64.8929L142.884 20.9658C143.252 20.7592 143.662 20.6402 144.084 20.6182C144.505 20.5962 144.926 20.6718 145.313 20.839C145.701 21.0063 146.045 21.2607 146.318 21.5824C146.591 21.9042 146.786 22.2846 146.888 22.6941L148.501 28.9735Z" fill="#1F294C"/>
<path d="M144.393 26.4504C144.342 26.799 144.192 27.1257 143.961 27.3915C143.73 27.6573 143.427 27.8511 143.089 27.9497C142.751 28.0483 142.391 28.0476 142.053 27.9477C141.715 27.8477 141.413 27.6528 141.183 27.3861C140.953 27.1193 140.804 26.7921 140.755 26.4433C140.706 26.0944 140.757 25.7387 140.904 25.4186C141.051 25.0984 141.287 24.8272 141.584 24.6373C141.881 24.4475 142.226 24.3469 142.578 24.3477C143.097 24.3889 143.578 24.6328 143.918 25.0264C144.257 25.42 144.428 25.9317 144.393 26.4504Z" fill="#75A4E5" stroke="#1F294C" stroke-linecap="round" stroke-linejoin="round"/>
<path d="M139.704 29.1177C139.661 29.4488 139.524 29.7606 139.308 30.0153C139.093 30.2701 138.808 30.4569 138.488 30.5532C138.168 30.6495 137.828 30.6512 137.507 30.5581C137.187 30.4649 136.9 30.2809 136.682 30.0283C136.463 29.7757 136.323 29.4652 136.277 29.1345C136.232 28.8038 136.283 28.467 136.425 28.1647C136.566 27.8625 136.793 27.6077 137.076 27.4313C137.359 27.2549 137.688 27.1643 138.022 27.1705C138.502 27.2088 138.947 27.4346 139.262 27.799C139.577 28.1634 139.736 28.6371 139.704 29.1177Z" fill="#75A4E5" stroke="#1F294C" stroke-linecap="round" stroke-linejoin="round"/>
<path d="M135.279 31.4795C135.235 31.7821 135.105 32.0657 134.904 32.2964C134.704 32.5271 134.441 32.6953 134.147 32.781C133.854 32.8666 133.542 32.8662 133.248 32.7796C132.955 32.693 132.693 32.524 132.493 32.2926C132.293 32.0613 132.164 31.7773 132.121 31.4746C132.077 31.1719 132.122 30.8631 132.249 30.585C132.376 30.307 132.581 30.0713 132.838 29.9062C133.096 29.741 133.395 29.6532 133.701 29.6533C134.15 29.6916 134.567 29.904 134.862 30.2452C135.157 30.5864 135.307 31.0294 135.279 31.4795Z" fill="#75A4E5" stroke="#1F294C" stroke-linecap="round" stroke-linejoin="round"/>
<path opacity="0.3" d="M147.573 31.8079L173.451 133.091C173.502 133.292 173.48 133.504 173.389 133.691C173.299 133.877 173.145 134.026 172.956 134.11L170.594 135.153C170.479 135.204 170.355 135.229 170.229 135.227C170.104 135.225 169.98 135.195 169.867 135.14C169.754 135.085 169.654 135.007 169.575 134.909C169.496 134.812 169.438 134.699 169.407 134.577L144.232 33.8761C144.169 33.6226 144.191 33.3554 144.295 33.1158C144.399 32.8762 144.58 32.6777 144.808 32.5511L146.755 31.4565C146.831 31.4174 146.914 31.3955 146.999 31.3925C147.084 31.3894 147.169 31.4053 147.247 31.4389C147.326 31.4725 147.395 31.523 147.452 31.5868C147.508 31.6506 147.55 31.7261 147.573 31.8079Z" fill="black" fill-opacity="0.7"/>
<path d="M145.355 34.7344L146.784 33.9451C146.921 33.8699 147.073 33.8271 147.229 33.8199C147.384 33.8128 147.54 33.8414 147.683 33.9038C147.826 33.9661 147.953 34.0604 148.053 34.1794C148.154 34.2985 148.226 34.439 148.264 34.5904L150.909 45.202C150.974 45.4579 150.953 45.7283 150.849 45.9711C150.745 46.2138 150.563 46.4153 150.333 46.5443L148.604 47.466C148.504 47.5216 148.391 47.5529 148.277 47.5574C148.162 47.5619 148.047 47.5394 147.943 47.4919C147.838 47.4443 147.746 47.3729 147.674 47.2834C147.602 47.1939 147.551 47.0887 147.527 46.9763L144.796 36.0306C144.738 35.7832 144.762 35.5237 144.862 35.2904C144.963 35.057 145.136 34.8622 145.355 34.7344Z" fill="#BFBFBF" stroke="#1F294C" stroke-linecap="round" stroke-linejoin="round"/>
<path opacity="0.4" d="M158.271 148.133L101.688 171.436" stroke="black" stroke-width="2" stroke-linecap="round" stroke-linejoin="round"/>
<path opacity="0.4" d="M165.921 141.029L94.0425 171.435" stroke="black" stroke-width="2" stroke-linecap="round" stroke-linejoin="round"/>
<path opacity="0.3" d="M158.859 110.456L153.058 85.7878L137.342 93.3001L143.085 117.882L158.859 110.456Z" fill="black" fill-opacity="0.7"/>
<path opacity="0.3" d="M130.93 65.8952L136.391 89.25L152.09 81.6513L146.461 57.7205L130.93 65.8952Z" fill="black" fill-opacity="0.7"/>
<path opacity="0.3" d="M145.966 55.6064L141.369 36.0481L125.854 44.1768L130.452 63.8388L145.966 55.6064Z" fill="black" fill-opacity="0.7"/>
<path opacity="0.3" d="M143.656 120.319L148.944 142.936L164.856 135.965L159.51 113.227L143.656 120.319Z" fill="black" fill-opacity="0.7"/>
<path d="M58.2329 62.9342L82.6823 189.899C90.5114 180.964 146.41 140.021 146.41 140.021C148.535 138.479 150.162 136.347 151.089 133.89C152.016 131.432 152.201 128.757 151.623 126.195L125.739 15.205C125.519 14.2425 125.052 13.3539 124.385 12.6263C123.717 11.8986 122.872 11.3569 121.932 11.0543C120.992 10.7516 119.99 10.6984 119.023 10.8999C118.057 11.1014 117.159 11.5506 116.418 12.2035C116.418 12.2035 64.4201 44.8622 58.2329 62.9342Z" fill="#75A4E5" stroke="#1F294C" stroke-linecap="round" stroke-linejoin="round"/>
<g opacity="0.7">
<path d="M147.193 130.147C146.825 130.147 146.468 130.023 146.18 129.795C145.891 129.567 145.688 129.249 145.603 128.891C145.157 127.078 144.723 125.262 144.301 123.441C144.237 123.227 144.218 123.002 144.244 122.78C144.271 122.558 144.343 122.343 144.455 122.15C144.567 121.957 144.718 121.788 144.897 121.655C145.077 121.522 145.282 121.427 145.5 121.376C145.717 121.325 145.943 121.319 146.163 121.358C146.383 121.397 146.593 121.481 146.78 121.604C146.966 121.728 147.126 121.888 147.248 122.075C147.371 122.262 147.454 122.472 147.492 122.692C147.919 124.507 148.345 126.316 148.783 128.119C148.834 128.328 148.844 128.546 148.811 128.759C148.779 128.972 148.704 129.176 148.592 129.36C148.48 129.544 148.333 129.704 148.159 129.832C147.985 129.959 147.788 130.05 147.579 130.101C147.452 130.13 147.323 130.146 147.193 130.147Z" fill="white"/>
</g>
<g opacity="0.7">
<path d="M143.846 115.56C143.475 115.56 143.115 115.434 142.825 115.203C142.535 114.972 142.332 114.649 142.25 114.287L119.823 15.833C119.818 15.8003 119.803 15.7697 119.782 15.7444C119.761 15.7191 119.733 15.6999 119.702 15.689C119.674 15.6733 119.642 15.6651 119.61 15.6651C119.578 15.6651 119.546 15.6733 119.518 15.689C113.757 19.5258 94.279 32.5915 85.2459 39.8157C79.4849 44.603 74.2252 50.1105 68.1763 57.6342C67.9043 57.9727 67.509 58.1892 67.0774 58.2362C66.6458 58.2832 66.2132 58.1568 65.8748 57.8848C65.5363 57.6129 65.3198 57.2176 65.2728 56.786C65.2258 56.3544 65.3522 55.9218 65.6242 55.5834C71.8114 47.8752 77.2267 42.2295 83.1777 37.2752C92.0841 30.1489 110.289 17.9012 117.703 12.9641C118.171 12.6469 118.709 12.4492 119.271 12.3885C119.833 12.3277 120.401 12.4056 120.926 12.6154C121.451 12.8252 121.916 13.1605 122.281 13.5919C122.646 14.0233 122.9 14.5376 123.02 15.0898L145.447 113.538C145.495 113.749 145.501 113.966 145.465 114.179C145.428 114.391 145.35 114.595 145.235 114.777C145.12 114.959 144.97 115.117 144.794 115.242C144.618 115.366 144.419 115.455 144.209 115.503C144.091 115.536 143.969 115.556 143.846 115.56Z" fill="white"/>
</g>
<g filter="url(#filter0_f_326_1934)">
<path d="M78.4727 232.909C77.7086 226.228 76.6764 216.947 75.7811 208.102C74.4809 195.187 67.7689 183.338 68.3163 181.85C69.0593 179.965 71.6077 171.089 71.5269 169.072C74.2414 168.785 70.2063 162.683 70.2063 162.683L68.3163 155.762C68.3163 155.762 70.2205 157.296 69.1085 150.438C67.9965 143.579 64.8083 148.52 64.717 146.711C64.6258 144.902 63.6191 140.854 63.6191 140.854L59.7766 151.503L56.483 158.424L52.0915 157.359C51.7894 163.086 60.8745 182.383 60.8745 182.383L59.4317 188.772C59.4317 188.772 59.4317 168.008 52.0915 169.072C46.0533 169.948 44.8776 158.769 38.3682 188.772C37.7731 202.836 36.0291 219.143 33 232.909H78.4727Z" fill="white"/>
</g>
<path d="M74.0002 199.082C71.8181 191.873 74.9047 208.293 74.0002 199.082C74.0002 199.082 73.4472 184.973 74.0002 183.424C74.7508 181.461 75.0957 179.366 75.0142 177.265C77.7564 176.966 78.9834 173.233 78.9834 173.233L77.5086 160.092C77.5086 160.092 78.4246 134.923 77.3012 127.779C76.1779 120.636 71.5806 115.837 71.4885 113.953C71.3963 112.069 75.066 103.687 76.27 101.279C77.4741 98.8707 76.7828 85.4132 74.8356 81.202C74.4175 80.1847 73.6319 79.3621 72.6349 78.8976C70.584 77.9816 68.2451 79.0071 68.2451 79.0071C67.9398 84.9717 66.2178 90.7777 63.2216 95.9442C61.332 99.2279 59.5864 101.348 59.2696 103.082C58.5955 106.792 50.4093 116.367 48.8596 121.321C47.3099 126.275 46.8144 143.109 44.4064 149.745C38.5778 165.809 37.4363 202.964 34.6636 226.254C53.5181 159.154 52.4889 189.611 59.0636 190.764C66.5431 192.075 74.0002 199.082 74.0002 199.082Z" fill="white"/>
<path opacity="0.4" d="M76.2701 101.262C75.0661 103.652 71.3964 112.017 71.4886 113.936C71.5807 115.854 76.1664 120.63 77.3013 127.762C78.4362 134.894 77.5087 160.075 77.5087 160.075L78.972 173.221C78.972 173.221 77.7449 176.966 75.0027 177.254C75.0843 179.354 74.7394 181.449 73.9888 183.412C73.4127 184.985 74.4612 197.434 75.7747 210.886C74.4036 205.079 73.2744 200.597 73.2744 200.597C73.2744 200.597 72.6984 207.741 71.8976 213.381C71.0968 219.021 69.2591 227.04 69.2591 227.04C69.2591 227.04 65.14 188.217 66.0963 181.73C67.0527 175.243 69.4146 176.309 67.5884 173.204C65.7622 170.099 54.6955 167.426 55.7785 165.075C56.8616 162.725 65.5202 166.89 65.8832 167.057C65.5894 166.821 60.7732 162.967 60.8136 161.181C60.8539 159.395 68.539 164.061 68.539 164.061C70.5933 162.788 72.4621 161.237 74.0925 159.453C76.4372 156.756 72.9403 130.965 72.2951 129.104C71.6499 127.243 67.5193 127.508 66.3153 125.959C65.1112 124.409 68.3834 123.718 67.7555 121.35C67.1275 118.982 65.4511 119.195 65.4511 119.195C65.4511 119.195 68.153 115.238 67.911 111.787C67.6691 108.336 72.1511 104.177 71.8285 101.688C70.5726 91.998 64.8001 98.6749 63.2332 95.9269C66.2268 90.7656 67.9487 84.9658 68.2567 79.0071C68.2567 79.0071 70.5956 77.9816 72.6465 78.8976C73.6435 79.3621 74.4291 80.1847 74.8472 81.202C76.7828 85.396 77.4799 98.865 76.2701 101.262Z" fill="#75A4E5"/>
<path d="M34.4111 227.051C36.3809 215.854 37.5935 204.537 38.0405 193.177C39.1293 162.823 43.2253 152.851 44.3775 149.746C46.8029 143.115 47.3098 126.264 48.8538 121.31C50.3977 116.355 58.5897 106.781 59.258 103.071C59.9263 99.3606 67.2311 93.8128 68.2335 79.0072C68.2335 79.0072 72.871 76.9736 74.824 81.1849C76.7769 85.3961 77.4683 98.8651 76.2585 101.262C75.0487 103.658 71.379 112.017 71.4769 113.936C71.5748 115.854 76.1548 120.63 77.2839 127.762C78.4131 134.894 77.4971 160.081 77.4971 160.081L78.9719 173.221C78.9719 173.221 77.7505 176.966 75.0083 177.254C75.091 179.352 74.748 181.445 74.0002 183.407C73.1303 185.849 76.0626 214.406 78.0328 232.3" stroke="#1F294C" stroke-linecap="round" stroke-linejoin="round"/>
<path d="M71.483 113.918C71.483 113.918 70.037 117.951 67.2314 117.951" stroke="#1F294C" stroke-linecap="round" stroke-linejoin="round"/>
<path d="M70.5552 115.721C70.5552 115.721 71.4078 120.618 68.3833 123.735" stroke="#1F294C" stroke-linecap="round" stroke-linejoin="round"/>
<path d="M60.3008 100.663C60.3008 100.663 63.6997 99.9942 65.8313 101.279" stroke="#1F294C" stroke-linecap="round" stroke-linejoin="round"/>
<path d="M57.939 165.928C57.939 165.928 68.9827 169.385 70.7282 171.153C72.4738 172.922 75.0143 177.265 75.0143 177.265" stroke="#1F294C" stroke-linecap="round" stroke-linejoin="round"/>
<path d="M66.563 164.229C68.1876 166.055 71.8169 168.14 73.5337 169.759C75.2505 171.378 76.1088 174.996 76.1088 174.996" stroke="#1F294C" stroke-linecap="round" stroke-linejoin="round"/>
<path d="M73.8159 163.376C73.8159 163.376 76.368 162.114 77.6815 158.116" stroke="#1F294C" stroke-linecap="round" stroke-linejoin="round"/>
<path d="M70.8377 178.089C68.4181 179.311 68.3547 193.183 69.6279 208.893" stroke="#1F294C" stroke-linecap="round" stroke-linejoin="round"/>
<path d="M72.105 180.964C72.105 182.496 74.1847 194.214 75.1352 204.042" stroke="#1F294C" stroke-linecap="round" stroke-linejoin="round"/>
<path d="M169.943 86.5366C169.943 86.5366 165.426 94.7863 165.473 96.6528C165.519 98.5193 174.114 111.47 174.344 112.939C174.575 114.408 180.791 117.242 183.061 118.746C185.33 120.25 188.199 109.35 187.825 101.503C187.45 93.6571 169.943 86.5366 169.943 86.5366Z" fill="white"/>
<mask id="mask1_326_1934" style="mask-type:luminance" maskUnits="userSpaceOnUse" x="165" y="86" width="23" height="33">
<path d="M169.943 86.5366C169.943 86.5366 165.426 94.7863 165.473 96.6528C165.519 98.5193 174.114 111.47 174.344 112.939C174.575 114.408 180.791 117.242 183.061 118.746C185.33 120.25 188.199 109.35 187.825 101.503C187.45 93.6571 169.943 86.5366 169.943 86.5366Z" fill="white"/>
</mask>
<g mask="url(#mask1_326_1934)">
<path opacity="0.5" d="M169.943 86.5366C169.943 86.5366 165.426 94.7863 165.473 96.6528C165.519 98.5193 174.114 111.47 174.344 112.939C174.575 114.408 180.791 117.242 183.061 118.746C185.33 120.25 188.199 109.35 187.825 101.503C187.45 93.6571 169.943 86.5366 169.943 86.5366Z" fill="#75A4E5"/>
</g>
<path d="M169.943 86.5366C169.943 86.5366 165.426 94.7863 165.473 96.6528C165.519 98.5193 174.114 111.47 174.344 112.939C174.575 114.408 180.791 117.242 183.061 118.746C185.33 120.25 188.199 109.35 187.825 101.503C187.45 93.6571 169.943 86.5366 169.943 86.5366Z" stroke="#1F294C" stroke-linecap="round" stroke-linejoin="round"/>
<path d="M173.031 101.866C173.031 101.866 177.467 99.85 182.294 105.225" stroke="#1F294C" stroke-linecap="round" stroke-linejoin="round"/>
<g filter="url(#filter1_f_326_1934)">
<path d="M264.56 178.585L237.484 209.164C237.484 209.164 233.031 203.616 227.46 196.835C219.539 187.209 209.365 175.094 206.485 172.887C202.97 170.185 180.128 154.567 173.814 146.83C189.382 146.83 180.652 139.535 179.955 138.637C175.79 133.267 201.162 147.789 199.093 140.3C196.68 131.544 203.8 142.66 203.8 142.66L200.915 138.637H206.485L200.915 142.66C200.915 142.66 195.857 130.359 195.482 136.973L189.937 130.873C189.937 130.873 192.693 110.508 191.046 107.582C190.282 106.244 187.787 106.349 187.718 104.809C195.155 97.4703 203.439 106.378 188.828 102.591C188.828 102.591 197.729 106.475 195.482 100.927C193.235 95.3796 185.232 103.135 184.391 94.8274C184.391 94.8274 182.431 103.081 186.055 100.373C187.432 99.3418 188.097 99.6961 189.382 101.482C190.068 102.527 189.556 96.409 189.937 97.6001C195.358 112.901 201.582 103.146 201.582 103.146L187.718 104.809L191.046 111.464C192.469 112.42 197.7 120.336 197.7 120.336H203.8L209.346 121.446L212.673 128.655L216 130.873C216 130.873 220.689 117.237 222.1 120.336C224.589 125.775 224.278 138.495 230.973 144.182C233.98 153.762 245.734 162.523 255.965 171.533C258.794 173.999 261.674 176.355 264.56 178.585Z" fill="white"/>
</g>
<path d="M264.56 178.585L210.455 141.409C210.455 141.409 229.021 196.435 223.45 189.655C215.529 180.028 209.365 175.093 206.485 172.887C202.97 170.185 180.128 154.567 173.814 146.83C172.91 145.718 172.121 144.739 171.424 143.84C167.258 138.471 166.429 136.167 164.361 128.678C161.947 119.921 159.285 115.088 158.6 111.85C158.6 111.752 158.559 111.654 158.542 111.545C157.845 107.956 156.624 97.1424 155.034 94.3945C153.398 91.5601 159.896 90.189 162.373 91.7675C164.85 93.346 171.015 100.985 170.64 107.598C170.64 107.598 175.497 119.564 177.974 119.241C177.974 119.241 177.651 107.253 176.004 104.326C175.24 102.988 174.805 101.487 174.736 99.948C174.712 99.5771 174.723 99.2048 174.771 98.8361C174.771 98.8361 167.137 90.598 164.891 85.0502C162.644 79.5025 158.243 70.9648 157.402 62.6575C157.402 62.6575 156.411 56.6835 160.034 53.9758C161.411 52.9446 162.684 52.6508 163.969 54.4367C164.655 55.4819 165.196 56.6157 165.576 57.8068C170.997 73.1079 177.674 78.9725 177.674 78.9725C180.292 79.6542 182.852 80.5402 185.33 81.6225C185.874 81.8936 186.398 82.2035 186.897 82.55C188.32 83.5063 190.049 84.8889 191.835 86.2485C194.404 88.2015 197.083 90.091 199.093 90.5346C206.104 92.0555 209.463 95.6158 209.463 95.6158C209.463 95.6158 214.118 94.6249 216.578 98.9571C218.968 103.151 220.282 103.986 220.282 103.986C220.282 103.986 222.039 103.986 223.45 107.086C225.939 112.524 233.417 141.49 233.786 142.659C236.793 152.24 245.734 162.523 255.965 171.533C258.794 173.999 261.674 176.355 264.56 178.585Z" fill="white"/>
<path opacity="0.4" d="M194.461 94.2966C194.461 94.2966 186.362 92.8391 184.766 89.1636C183.17 85.4881 176.389 77.6418 174.765 77.1348C174.312 76.9821 173.825 76.9594 173.36 77.0693C172.894 77.1793 172.469 77.4175 172.132 77.757C172.132 77.757 169.321 73.3211 167.207 69.4901C165.202 65.8492 155.281 54.9322 163.963 54.4368C164.649 55.482 165.19 56.6158 165.57 57.8069C170.991 73.1079 177.668 78.9725 177.668 78.9725C180.286 79.6542 182.846 80.5403 185.325 81.6226C185.869 81.8936 186.392 82.2036 186.892 82.5501C186.684 82.4982 183.435 81.6917 184.086 83.3508C184.737 85.01 190.02 89.8492 192.797 91.9461C195.573 94.0431 194.461 94.2966 194.461 94.2966Z" fill="#75A4E5"/>
<path opacity="0.4" d="M256.005 171.539C251.425 169.033 244.484 164.891 242.179 161.636C238.619 156.624 235.975 154.112 233.601 151.209C231.228 148.305 226.734 145.932 227.788 146.323C228.843 146.715 233.613 148.369 233.613 148.369C230.936 144.764 228.801 140.787 227.276 136.564C224.505 129.173 219.458 103.151 215.708 100.271C211.957 97.3902 215.708 125.78 215.708 125.78C213.316 120.227 211.53 114.433 210.379 108.497C208.651 99.1646 207.095 94.5846 205.067 93.323C203.039 92.0614 199.157 94.7171 198.097 93.323C197.037 91.9289 198.235 91.4161 191.863 86.2659C194.433 88.2188 197.111 90.1084 199.122 90.552C206.133 92.0729 209.492 95.6331 209.492 95.6331C209.492 95.6331 214.147 94.6422 216.606 98.9745C218.997 103.168 220.311 104.004 220.311 104.004C220.311 104.004 222.068 104.004 223.479 107.103C225.968 112.541 233.446 141.507 233.814 142.677C236.822 152.246 245.774 162.529 256.005 171.539Z" fill="#75A4E5"/>
<path opacity="0.4" d="M180.641 124.749C180.341 126.477 178.164 121.373 177.968 122.162C177.772 122.951 177.179 125.555 177.144 124.749C177.11 123.942 172.489 121.373 171.694 117.542C170.899 113.711 170.375 112.08 169.966 111.118C169.557 110.156 168.866 111.758 168.814 109.436C168.774 107.356 162.079 105.167 158.513 111.545C157.816 107.956 156.595 97.1424 155.005 94.3944C153.369 91.56 159.867 90.1889 162.344 91.7674C164.822 93.3459 170.986 100.985 170.611 107.598C170.611 107.598 175.468 119.564 177.945 119.241C177.945 119.241 177.622 107.253 175.975 104.326C175.211 102.988 174.776 101.487 174.707 99.9479L177.121 100.276C177.772 101.705 176.499 103.733 177.121 104.77C177.743 105.807 181.649 113.308 180.353 117.196C179.057 121.085 180.941 123.02 180.641 124.749Z" fill="#75A4E5"/>
<path opacity="0.4" d="M227.443 196.835C219.521 187.209 209.348 175.093 206.467 172.887C202.953 170.185 180.111 154.567 173.797 146.83C172.893 145.718 172.103 144.739 171.406 143.84C174.771 147.948 178.895 150.108 180.67 151.076C183.838 152.804 193.015 154.268 199.422 161.215C202.532 164.591 204.307 167.051 208.132 171.274C211.957 175.497 217.505 175.762 220.806 181.574C222.46 184.489 225.207 191.051 227.443 196.835Z" fill="#75A4E5"/>
<path d="M237.467 209.164C237.467 209.164 211.37 176.649 206.467 172.87C202.953 170.174 180.111 154.55 173.797 146.813C167.483 139.076 166.757 137.423 164.344 128.672C161.93 119.921 159.274 115.088 158.583 111.844C157.891 108.601 156.653 97.2232 155.017 94.3945C153.381 91.5659 159.879 90.1891 162.356 91.7618C164.833 93.3345 170.997 100.979 170.623 107.599C170.623 107.599 175.479 119.564 177.957 119.241C177.957 119.241 177.634 107.253 175.986 104.326C175.011 102.673 174.582 100.754 174.759 98.842C174.759 98.842 167.115 90.5981 164.885 85.0503C162.656 79.5026 158.237 70.9649 157.396 62.6576C157.396 62.6576 156.411 56.6893 160.034 53.9759C161.982 52.5184 163.71 52.5357 165.576 57.8069C171.003 73.1079 177.674 78.9726 177.674 78.9726C180.292 79.6543 182.852 80.5403 185.331 81.6226C188.557 83.1377 195.124 89.6879 199.111 90.5347C206.116 92.0614 209.48 95.6216 209.48 95.6216C209.48 95.6216 214.135 94.6308 216.595 98.963C218.98 103.157 220.299 103.998 220.299 103.998C220.299 103.998 222.028 103.998 223.468 107.092C225.957 112.53 233.434 141.496 233.803 142.665C237.634 154.861 251.086 168.192 264.538 178.585" stroke="#1F294C" stroke-linecap="round" stroke-linejoin="round"/>
<path d="M177.691 78.9724C177.691 78.9724 184.322 88.1553 188.966 89.9182" stroke="#1F294C" stroke-linecap="round" stroke-linejoin="round"/>
<path d="M188.603 91.946C193.073 93.3805 195.959 94.2504 196.783 97.6033C197.607 100.956 199.998 108.595 201.15 111.591C202.302 114.586 205.067 122.162 205.067 122.162" stroke="#1F294C" stroke-linecap="round" stroke-linejoin="round"/>
<path d="M177.968 119.241C177.968 119.241 181.01 123.199 180.272 127.076" stroke="#1F294C" stroke-linecap="round" stroke-linejoin="round"/>
<path d="M176.678 118.602C176.678 118.602 176.545 122.905 177.622 125.786" stroke="#1F294C" stroke-linecap="round" stroke-linejoin="round"/>
<path d="M174.771 98.8247C174.771 98.8247 177.213 100.138 177.795 101.705" stroke="#1F294C" stroke-linecap="round" stroke-linejoin="round"/>
<path d="M176.545 105.772C177.149 107.082 177.911 108.312 178.815 109.436C179.996 110.732 180.543 114.944 180.543 114.944" stroke="#1F294C" stroke-linecap="round" stroke-linejoin="round"/>
<path d="M158.594 111.844C158.594 111.844 161.227 108.883 163.946 108.48" stroke="#1F294C" stroke-linecap="round" stroke-linejoin="round"/>
<path d="M171.055 78.3906C171.055 78.3906 174.12 76.0862 176.441 77.682" stroke="#1F294C" stroke-linecap="round" stroke-linejoin="round"/>
<path d="M222.039 111.458C222.65 113.135 225.784 128.274 226.567 130.423" stroke="#1F294C" stroke-linecap="round" stroke-linejoin="round"/>
<path d="M200.608 94.1063C200.608 94.1063 203.489 92.0439 207.095 94.5729C210.702 97.102 210.707 98.3233 212.931 97.7299C213.6 97.5782 214.297 97.613 214.947 97.8304C215.597 98.0478 216.175 98.4395 216.618 98.9628" stroke="#1F294C" stroke-linecap="round" stroke-linejoin="round"/>
<path d="M212.223 104.77C212.799 108.163 215.241 124.772 216.422 128.966" stroke="#1F294C" stroke-linecap="round" stroke-linejoin="round"/>
<defs>
<filter id="filter0_f_326_1934" x="28" y="135.854" width="55.4727" height="102.054" filterUnits="userSpaceOnUse" color-interpolation-filters="sRGB">
<feFlood flood-opacity="0" result="BackgroundImageFix"/>
<feBlend mode="normal" in="SourceGraphic" in2="BackgroundImageFix" result="shape"/>
<feGaussianBlur stdDeviation="2.5" result="effect1_foregroundBlur_326_1934"/>
</filter>
<filter id="filter1_f_326_1934" x="163.814" y="84.8274" width="110.746" height="134.336" filterUnits="userSpaceOnUse" color-interpolation-filters="sRGB">
<feFlood flood-opacity="0" result="BackgroundImageFix"/>
<feBlend mode="normal" in="SourceGraphic" in2="BackgroundImageFix" result="shape"/>
<feGaussianBlur stdDeviation="5" result="effect1_foregroundBlur_326_1934"/>
</filter>
</defs>
</svg>
