<svg xmlns="http://www.w3.org/2000/svg" width="810" height="560" viewBox="0 0 810 560" fill="none">
  <path d="M208.832 160.158C209.746 159.909 210.66 159.659 211.602 159.402C215.075 165.327 217.571 171.288 219.752 177.738C220.053 178.61 220.355 179.482 220.666 180.381C221.399 182.505 222.125 184.63 222.845 186.757C224.152 186.714 225.458 186.672 226.804 186.628C228.989 190.224 230.044 193.809 231.169 197.796C232.084 197.547 232.998 197.297 233.94 197.04C235.806 198.973 236.43 200.892 237.401 203.345C237.916 204.635 237.916 204.635 238.441 205.951C238.701 206.612 238.961 207.274 239.229 207.956C239.813 207.845 240.398 207.733 241 207.618C243.187 207.827 243.187 207.827 244.873 209.688C245.682 210.936 245.682 210.936 246.507 212.21C248.561 215.267 250.506 217.948 253.245 220.473C256.455 223.6 257.374 227.077 258.253 231.287C259.472 230.955 260.691 230.622 261.947 230.279C261.554 229.249 261.161 228.219 260.756 227.158C258.831 220.885 258.685 213.482 259.945 207.059C261.709 206.696 261.709 206.696 263.903 206.93C265.103 208.481 266.253 210.07 267.339 211.697C267.136 210.662 266.934 209.628 266.726 208.562C266.468 207.178 266.211 205.794 265.954 204.409C265.753 203.392 265.753 203.392 265.547 202.354C264.706 197.734 264.775 193.978 265.601 189.354C265.781 187.723 265.958 186.091 266.124 184.458C267.343 184.126 268.562 183.793 269.817 183.451C270.821 185.687 271.825 187.923 272.859 190.226C274.165 190.184 275.472 190.141 276.818 190.097C276.992 190.677 277.167 191.257 277.347 191.854C277.957 191.688 278.566 191.522 279.194 191.35C279.019 190.771 278.844 190.191 278.664 189.594C280.429 189.231 280.429 189.231 282.623 189.464C284.588 191.84 284.588 191.84 286.059 194.231C287.19 193.609 288.322 192.987 289.487 192.345C289.443 191.103 289.398 189.86 289.352 188.58C293.936 188.042 293.936 188.042 296.61 189.452C300.032 196.66 302.262 204.415 304.418 212.04C305.193 211.946 305.969 211.852 306.768 211.755C307.603 211.723 308.439 211.691 309.3 211.659C311.635 214.077 311.98 217.046 312.871 220.191C315.912 220.857 315.912 220.857 318.941 220.437C320.181 219.628 320.181 219.628 321.447 218.803C321.598 216.881 321.68 214.955 321.705 213.028C322.052 211.992 322.399 210.956 322.757 209.889C324.629 209.675 324.629 209.675 326.716 209.76C327.283 210.546 327.849 211.333 328.434 212.143C330.85 211.955 330.85 211.955 333.315 211.762C333.9 208.779 333.9 208.779 334.497 205.736C336.914 205.547 336.913 205.547 339.379 205.355C339.78 206.324 340.182 207.293 340.596 208.291C341.146 209.587 341.696 210.882 342.247 212.178C342.509 212.814 342.771 213.449 343.041 214.104C344.476 217.449 346.003 220.304 348.323 223.177C350.616 226.057 350.616 226.057 351.675 229.57C352.981 229.528 354.287 229.485 355.633 229.441C357.683 232.961 359.734 236.48 361.846 240.106C361.976 239.443 362.106 238.78 362.24 238.097C364.037 237.844 364.037 237.844 366.198 237.968C368.603 240.045 369.868 242.213 371.173 245.018C371.535 245.791 371.896 246.563 372.269 247.359C372.821 248.564 372.821 248.564 373.385 249.792C373.76 250.593 374.136 251.394 374.522 252.219C376.066 255.54 377.439 258.683 378.494 262.183C379.408 261.934 380.322 261.684 381.264 261.428C382.136 262.131 383.008 262.834 383.906 263.559C383.778 262.735 383.651 261.91 383.52 261.061C383.283 259.444 383.283 259.444 383.042 257.793C382.882 256.723 382.722 255.653 382.556 254.55C382.31 251.635 382.31 251.635 383.363 248.496C384.216 248.048 385.069 247.6 385.947 247.138C386.748 246.508 387.549 245.877 388.374 245.228C388.549 242.509 388.499 240.342 388.16 237.681C387.843 235.086 387.752 232.803 387.831 230.165C389.854 228.187 389.854 228.187 391.918 227.149C395.049 228.261 395.546 229.149 397.094 232.095C397.671 233.496 397.671 233.496 398.26 234.926C398.869 234.76 399.479 234.593 400.107 234.422C399.932 233.842 399.757 233.263 399.577 232.665C404.03 232.18 404.03 232.18 406.414 232.761C409.901 233.18 412.723 231.988 416.07 231.018C418.408 232.252 419.021 235.298 420.035 237.542C419.904 236.708 419.774 235.873 419.639 235.013C419.479 233.927 419.32 232.841 419.155 231.722C418.991 230.641 418.828 229.561 418.66 228.448C418.439 225.619 418.439 225.619 419.757 223.358C420.976 223.025 422.194 222.693 423.45 222.35C423.273 219.575 423.096 216.8 422.914 213.941C424.133 213.608 425.352 213.276 426.608 212.933C426.449 212.243 426.29 211.554 426.126 210.844C425.93 209.944 425.733 209.044 425.531 208.117C425.331 207.223 425.131 206.329 424.925 205.408C424.619 203.018 424.619 203.018 425.936 200.757C427.155 200.425 428.374 200.092 429.63 199.75C429.686 199.048 429.742 198.347 429.801 197.624C430.149 194.878 430.791 192.359 431.599 189.706C434.398 189.487 435.393 189.49 437.934 190.83C439.796 190.019 439.796 190.019 441.363 188.944C441.316 188.35 441.27 187.756 441.222 187.144C441.166 186.374 441.111 185.603 441.053 184.81C440.996 184.042 440.938 183.275 440.879 182.484C440.826 180.534 440.826 180.534 441.485 179.404C443.013 178.948 444.552 178.526 446.102 178.144C445.97 176.612 445.838 175.079 445.702 173.5C448.118 173.312 448.118 173.312 450.583 173.119C450.931 172.083 451.278 171.047 451.636 169.98C454.01 169.154 454.01 169.154 456.253 168.721C456.078 168.141 455.904 167.561 455.723 166.964C458.815 166.785 461.754 166.993 464.829 167.332C465.003 167.912 465.178 168.492 465.358 169.089C468.214 166.536 468.214 166.536 469.575 163.185C472.653 162.346 475.731 161.506 478.809 160.666C479.156 159.63 479.504 158.595 479.862 157.527C482.698 156.575 482.698 156.575 485.402 156.016C485.27 154.483 485.138 152.951 485.002 151.372C486.133 150.749 487.265 150.127 488.43 149.486C489.005 149.956 489.58 150.427 490.172 150.912C491.206 151.571 491.206 151.571 492.26 152.244C493.174 151.995 494.088 151.745 495.03 151.488C494.865 149.919 494.865 149.919 494.696 148.319C494.554 146.949 494.413 145.579 494.272 144.208C494.199 143.519 494.126 142.829 494.05 142.119C493.519 136.905 493.519 136.905 493.958 134.669C496.234 134.345 496.234 134.345 498.84 134.288C501.408 136.361 502.329 137.733 503.728 140.559C504.73 140.6 505.731 140.641 506.763 140.682C508.731 142.721 509.073 144.814 509.805 147.458C513.042 145.622 515.527 144.176 517.98 141.425C521.158 140.539 524.47 140.082 527.744 140.663C527.461 139.897 527.461 139.897 527.172 139.115C526.054 135.836 525.315 133.306 525.605 129.838C527.186 126.906 528.887 126.315 532.083 125.219C531.518 123.55 531.518 123.55 530.941 121.847C530.299 119.95 530.299 119.95 529.964 118.192C530.399 117.446 530.834 116.7 531.282 115.931C533.623 115.411 533.623 115.411 536.164 115.55C538.499 117.35 539.025 118.412 539.864 121.196C540.866 121.236 541.867 121.277 542.899 121.318C543.771 122.022 544.642 122.725 545.54 123.45C545.907 122.615 545.907 122.615 546.281 121.762C546.688 121.2 547.096 120.638 547.516 120.059C548.822 120.016 550.129 119.974 551.475 119.93C552.566 122.456 553.657 124.982 554.781 127.584C556.076 127.231 557.371 126.877 558.706 126.513C562.322 125.527 565.939 124.54 569.556 123.554C570.035 124.05 570.515 124.547 571.009 125.059C571.673 125.125 572.337 125.191 573.021 125.26C575.232 125.808 575.232 125.808 576.851 127.706C577.554 128.886 577.554 128.886 578.271 130.089C578.748 130.868 579.225 131.647 579.717 132.45C580.915 134.715 580.915 134.715 581.974 138.229C582.976 138.27 583.977 138.31 585.009 138.352C586.19 139.99 586.19 139.99 586.992 141.614C588.137 141.242 589.283 140.871 590.463 140.489C594.082 139.501 594.082 139.501 596.458 140.279C597.834 141.389 599.209 142.5 600.585 143.61C600.197 142.135 600.197 142.135 599.8 140.63C599.473 139.328 599.147 138.026 598.822 136.723C598.649 136.077 598.477 135.43 598.299 134.764C597.371 130.981 597.003 128.507 598.983 125.033C601.4 124.845 601.4 124.845 603.865 124.652C604.214 125.812 604.564 126.971 604.924 128.166C606.23 128.123 607.537 128.081 608.883 128.037C609.537 129.113 610.191 130.19 610.865 131.299C612.084 130.966 613.303 130.634 614.559 130.291C614.438 129.518 614.317 128.745 614.192 127.948C613.873 124.554 614.084 121.471 614.439 118.084C614.554 116.957 614.669 115.83 614.788 114.669C614.927 113.392 614.927 113.392 615.068 112.089C619.908 110.436 619.908 110.436 622.456 110.074C624.453 111.312 624.453 111.312 626.285 112.832C628.307 112.938 630.331 113.021 632.355 113.078C633.227 113.781 634.099 114.485 634.997 115.21C635.998 115.25 637 115.291 638.032 115.332C638.074 114.38 638.117 113.427 638.161 112.445C640.205 111.702 642.253 110.967 644.303 110.235C645.443 109.825 646.583 109.414 647.757 108.992C650.824 108.04 650.824 108.04 653.859 108.163C656.822 107.781 659.505 107.21 662.17 105.896C663.574 102.752 663.574 102.752 664.275 99.6176C667.384 98.7694 669.892 98.3842 673.081 98.1661C673.954 98.1045 674.827 98.0428 675.726 97.9793C676.388 97.936 677.05 97.8927 677.732 97.8481C677.442 96.9639 677.153 96.0797 676.854 95.1687C676.479 93.9861 676.104 92.8034 675.73 91.6206C675.538 91.0405 675.347 90.4604 675.149 89.8628C673.957 86.0483 673.612 82.8523 674.018 78.8969C675.325 78.8542 676.631 78.8116 677.977 78.7677C678.927 80.8055 679.875 82.8446 680.82 84.8846C681.089 85.4596 681.357 86.0346 681.634 86.627C682.913 89.3938 683.977 92.0414 684.855 94.9545C685.964 93.7108 685.964 93.7108 687.095 92.4419C690.211 91.7542 691.684 91.9369 694.626 93.1804C696.73 94.5671 696.73 94.5671 697.26 96.324C698.296 96.1393 699.333 95.9545 700.401 95.7642C704.278 95.413 704.444 95.6796 707.553 97.3189C710.225 97.4147 712.796 97.2372 715.47 97.0607C715.314 96.2013 715.158 95.3419 714.997 94.4564C714.805 91.5381 714.805 91.5381 717.045 89.0255C719.359 88.4502 719.359 88.4502 722.067 88.0717C725.273 87.5715 727.486 87.1244 730.419 85.734C733.525 84.4104 734.93 85.2535 738.155 86.1192C740.771 85.9241 743.226 85.4669 745.807 84.9826C745.982 85.5623 746.157 86.1421 746.337 86.7395C748.165 86.2407 749.994 85.742 751.877 85.2281C752.444 86.0147 753.011 86.8012 753.595 87.6116C754.835 86.8027 754.835 86.8027 756.101 85.9775C760.919 83.121 766.116 81.8807 771.799 81.6953C772.146 80.6594 772.493 79.6235 772.851 78.5562C774.07 78.2237 775.289 77.8912 776.545 77.5486C777.115 77.8636 777.686 78.1786 778.273 78.5032C780.102 79.6608 780.102 79.6608 782.32 79.0036C783.884 78.4584 785.447 77.913 787.011 77.3675C789.894 76.8013 791.131 77.536 793.832 78.5371C802.41 77.9309 810.317 74.6869 818.129 71.4934C820.611 71.2323 820.611 71.2323 823.407 73.3475C824.228 74.0563 825.048 74.7651 825.894 75.4954C828.04 74.6661 830.179 73.8231 832.316 72.9712C832.919 72.7398 833.522 72.5085 834.144 72.2701C838.004 70.715 840.292 69.0254 843.038 66.0654C846.509 64.9403 846.509 64.9403 849.502 64.3021C850.069 65.0886 850.636 65.8752 851.22 66.6856C851.546 66.1261 851.872 65.5665 852.208 64.9901C854.877 62.2703 857.69 61.5802 861.507 61.0275C862.589 61.2324 862.589 61.2324 863.692 61.4413C866.961 61.9797 869.098 60.5992 871.929 59.1352C872.364 58.3891 872.798 57.6431 873.246 56.8745C875.679 56.4486 875.679 56.4486 879.052 56.2416C879.827 56.1931 880.602 56.1447 881.4 56.0948C883.564 55.9634 885.727 55.8433 887.892 55.7315C888.546 56.8079 889.2 57.8843 889.875 58.9934C897.057 56.5636 897.057 56.5636 904.385 54.0847C904.559 54.6644 904.734 55.2442 904.914 55.8416C907.742 54.3558 907.742 54.3558 908.472 51.0683C911.743 49.7155 913.9 49.8638 917.312 50.5582C918.227 50.3088 919.141 50.0594 920.083 49.8025C919.646 48.3531 919.209 46.9036 918.759 45.4103C920.919 43.9363 921.818 43.4834 924.514 43.781C925.14 43.9436 925.766 44.1061 926.411 44.2736C926.628 43.9006 926.846 43.5275 927.07 43.1432C930.854 41.9727 934.472 41.081 938.415 40.5832C941.946 40.0175 944.22 39.1104 947.385 37.6016C949.835 36.8056 952.255 36.1861 954.772 35.5865C955.164 35.7933 955.557 36 955.96 36.2131C957.543 36.0636 959.121 35.8625 960.694 35.6385C961.643 35.5054 962.591 35.3722 963.569 35.235C964.566 35.0912 965.562 34.9473 966.59 34.7991C967.591 34.6576 968.593 34.5162 969.624 34.3705C972.107 34.0193 974.589 33.6646 977.07 33.3068C976.895 32.727 976.721 32.1472 976.541 31.5499C978.72 30.7697 980.902 29.9974 983.086 29.2296C984.009 28.898 984.009 28.898 984.95 28.5598C988.088 27.4633 990.745 26.722 994.086 26.764C996.62 26.2344 998.996 25.5089 1001.47 24.7488C1001.69 24.3758 1001.91 24.0028 1002.13 23.6185C1004.4 22.9028 1006.66 22.2493 1008.96 21.6284C1009.66 21.4376 1010.36 21.2468 1011.07 21.0502C1012.55 20.6456 1014.04 20.2432 1015.52 19.8428C1017.76 19.236 1020 18.6201 1022.24 18.003C1029.13 16.1201 1035.9 14.3302 1043.03 13.4137C1043.12 12.3677 1043.22 11.3216 1043.32 10.2439C1043.8 6.94575 1044.24 4.58135 1046.58 1.98753C1050.76 0.00369588 1053.96 -0.464705 1058.54 0.446824C1062.51 2.16581 1063.86 3.22516 1065.54 7.09341C1066.73 11.3631 1065.47 13.6535 1063.22 17.4123C1060.3 19.9619 1056.25 20.727 1052.4 21.3134C1049.48 20.3275 1049.48 20.3275 1047.65 18.8072C1047.48 18.2274 1047.3 17.6476 1047.12 17.0503C1041.15 18.6551 1035.18 20.2668 1029.21 21.8833C1027.18 22.4323 1025.15 22.9797 1023.12 23.5255C1020.2 24.3108 1017.28 25.1018 1014.36 25.8938C1013 26.2575 1013 26.2575 1011.61 26.6284C1010.34 26.9762 1010.34 26.9762 1009.04 27.3309C1008.29 27.532 1007.55 27.7331 1006.78 27.9403C1004.57 28.5996 1004.57 28.5996 1002.38 29.7955C1000.29 30.7752 1000.29 30.7752 997.256 30.6524C989.705 32.3087 982.716 34.5233 975.85 37.9622C971.693 39.9599 968.599 41.1118 964.013 39.7205C961.667 40.0528 959.336 40.4832 957.021 40.9743C955.176 41.3543 955.176 41.3543 953.294 41.7421C950.364 42.4996 948.196 43.4224 945.545 44.7583C943.083 45.348 943.083 45.348 940.597 45.7513C939.769 45.8916 938.94 46.0318 938.087 46.1763C936.046 46.3988 936.046 46.3988 934.857 45.7722C932.521 46.1717 932.521 46.1717 930.24 47.0317C929.806 47.7777 929.371 48.5237 928.923 49.2924C926.07 50.1893 926.07 50.1893 923.383 50.8037C923.645 51.6734 923.907 52.5431 924.177 53.4391C922.748 54.0147 921.316 54.5818 919.882 55.1454C918.686 55.6205 918.686 55.6205 917.466 56.1053C915.208 56.8364 915.207 56.8364 912.172 56.7137C911.738 57.4597 911.303 58.2057 910.855 58.9743C908.802 59.4788 908.802 59.4788 906.295 59.8022C902.715 60.3353 900.199 61.123 897.004 62.7527C893.532 63.462 893.533 63.462 890.275 63.6375C889.404 62.9341 888.532 62.2307 887.634 61.5059C884.23 61.2996 884.231 61.2996 880.64 61.5123C879.718 61.5287 878.795 61.545 877.845 61.5619C876.812 61.7259 876.812 61.7259 875.758 61.8933C875.324 62.6393 874.889 63.3853 874.441 64.154C871.93 65.058 871.93 65.058 868.892 65.8458C867.388 66.2469 867.388 66.2469 865.854 66.6561C863.36 67.1767 863.36 67.1767 862.172 66.5501C859.391 66.9916 859.391 66.9916 856.631 68.0615C856.292 68.6443 855.952 69.2271 855.602 69.8276C855.29 70.3638 854.977 70.9 854.655 71.4525C852.091 71.8549 852.091 71.8549 849.773 71.8335C849.511 70.9638 849.249 70.0942 848.979 69.1981C847.738 69.9887 846.5 70.7829 845.262 71.5787C844.572 72.0206 843.882 72.4624 843.171 72.9177C841.45 73.9342 841.45 73.9342 840.804 75.2309C838.335 76.1372 835.839 76.9502 833.335 77.7658C830.661 78.9949 829.584 80.1642 828.012 82.523C826.115 82.4463 826.115 82.4463 823.789 81.7737C821.807 79.3434 821.807 79.3434 820.353 77.0068C819.8 77.3095 819.247 77.6123 818.678 77.9242C810.7 81.561 801.004 84.4475 792.143 83.5024C786.997 82.9738 782.738 84.2883 778.269 86.585C777.79 86.0883 777.31 85.5917 776.816 85.08C774.366 85.7229 771.918 86.3718 769.47 87.0245C768.421 87.2986 768.421 87.2986 767.352 87.5783C765.571 88.0557 763.805 88.5796 762.042 89.1102C761.824 89.4833 761.607 89.8563 761.383 90.2406C756.185 92.0104 756.185 92.0104 753.996 92.2557C753.458 91.9454 752.92 91.635 752.365 91.3152C748.754 89.5619 744.641 91.1145 740.797 91.7896C737.897 91.8937 737.897 91.8937 736.055 90.4317C735.704 89.9209 735.353 89.41 734.991 88.8837C734.379 89.3839 733.767 89.8842 733.137 90.3996C728.809 92.8019 724.467 93.3464 719.558 94.0443C719.983 95.2517 719.983 95.2517 720.418 96.4835C721.146 99.315 721.146 99.315 720.094 102.454C718.921 102.598 717.748 102.741 716.54 102.889C713.34 103.355 710.874 104.092 708.089 105.729C705.448 103.597 705.448 103.597 704.654 100.962C702.237 101.15 702.237 101.15 699.772 101.343C699.597 100.763 699.422 100.183 699.242 99.5859C696.826 99.7745 696.826 99.7745 694.36 99.9669C693.706 98.8905 693.052 97.8141 692.378 96.705C691.269 97.9488 691.269 97.9488 690.137 99.2176C688.302 99.9038 688.302 99.9038 686.303 100.382C685.131 100.663 683.958 100.944 682.75 101.233C682.62 101.896 682.49 102.559 682.356 103.242C678.546 103.449 678.546 103.449 677.209 102.744C675.07 103.259 672.985 103.9 670.881 104.53C668.898 105.011 668.898 105.011 666.787 104.636C667.006 106.459 667.226 108.281 667.452 110.159C663.902 112.474 661.299 112.021 657.03 112.051C657.204 112.631 657.379 113.211 657.559 113.808C652.826 114.268 652.826 114.268 651.489 113.563C649.913 113.924 648.35 114.339 646.798 114.783C645.951 115.022 645.105 115.262 644.233 115.509C643.58 115.698 642.927 115.887 642.255 116.082C641.67 119.065 641.67 119.065 641.073 122.108C640.159 122.357 639.245 122.607 638.303 122.864C632.27 119.424 632.27 119.424 631.568 117.096C630.702 117.371 629.837 117.646 628.946 117.93C626.027 118.607 626.027 118.607 623.651 117.354C621.105 117.432 621.105 117.432 618.769 117.735C618.941 118.649 619.114 119.562 619.291 120.504C619.638 123.589 619.494 125.949 618.992 128.978C618.541 133.413 618.948 137.896 619.189 142.338C617.883 142.38 616.577 142.423 615.231 142.467C614.489 141.1 613.747 139.734 612.983 138.326C611.982 138.286 610.98 138.245 609.948 138.204C607.909 135.373 607.909 135.373 606.248 132.558C605.639 132.725 605.029 132.891 604.401 133.062C604.548 133.95 604.694 134.838 604.845 135.752C605.027 136.912 605.209 138.072 605.397 139.267C605.582 140.419 605.767 141.57 605.957 142.757C606.261 145.864 606.261 145.864 605.209 149.003C601.819 149.314 599.044 148.856 595.839 147.757C595.577 146.887 595.315 146.017 595.045 145.121C591.062 146.678 591.062 146.678 586.999 148.267C584.093 145.257 584.093 145.257 583.033 141.743C582.119 141.992 581.205 142.242 580.263 142.499C574.865 135.958 574.865 135.958 574.051 131.834C571.7 132.789 569.35 133.744 566.928 134.728C566.353 134.12 565.778 133.512 565.186 132.886C562.986 130.831 562.986 130.831 560.137 131.055C559.416 131.192 558.695 131.33 557.952 131.472C557.779 133.088 557.607 134.704 557.429 136.368C556.515 136.618 555.601 136.867 554.659 137.124C552.323 134.705 551.978 131.737 551.087 128.591C550.478 128.758 549.869 128.924 549.241 129.095C549.415 129.675 549.59 130.255 549.77 130.852C548.551 131.185 547.332 131.517 546.076 131.86C545.599 131.394 545.121 130.929 544.629 130.45C544 129.844 543.372 129.239 542.725 128.615C542.103 128.012 541.481 127.41 540.84 126.789C539.099 125.104 539.099 125.104 536.7 123.96C536.615 125.866 536.53 127.771 536.442 129.735C534.613 130.233 532.785 130.732 530.901 131.246C531.032 132.08 531.162 132.915 531.297 133.775C531.536 135.404 531.536 135.404 531.781 137.066C531.945 138.147 532.108 139.227 532.276 140.34C532.497 143.169 532.497 143.169 531.179 145.43C529.291 145.99 529.291 145.99 527.015 146.328C526.27 146.448 525.524 146.568 524.756 146.692C522.604 146.819 522.604 146.819 519.304 145.818C519.332 146.731 519.36 147.645 519.389 148.587C519.046 151.592 519.046 151.592 517.505 152.904C515.617 153.478 515.617 153.478 512.582 153.355C511.363 153.688 510.144 154.02 508.888 154.363C508.643 153.834 508.397 153.306 508.144 152.761C507.098 150.699 506.074 148.815 504.658 146.961C501.933 146.11 501.933 146.11 499.511 146.463C499.782 147.977 499.782 147.977 500.059 149.522C500.442 152.864 500.442 152.864 499.124 155.125C495.825 156.59 492.725 157.821 489.231 158.774C489.102 159.437 488.971 160.1 488.838 160.783C487.009 161.282 485.181 161.78 483.297 162.294C483.342 163.537 483.387 164.78 483.433 166.06C482.005 166.813 480.552 167.524 479.081 168.198C478.688 167.991 478.296 167.784 477.892 167.571C475.59 167.802 475.59 167.802 473.275 168.831C471.698 171.039 470.761 172.738 470.247 175.361C468.449 175.614 468.449 175.614 466.288 175.49C465.32 174.487 464.351 173.483 463.382 172.48C461.276 172.289 461.276 172.289 459.424 172.609C459.55 173.163 459.675 173.717 459.805 174.288C459.56 176.375 459.56 176.375 457.425 178.205C454.383 179.726 452.151 180.128 448.743 180.276C448.483 181.602 448.223 182.927 447.956 184.293C447.041 184.543 446.127 184.792 445.185 185.049C445.322 185.914 445.459 186.778 445.6 187.669C445.851 190.572 445.851 190.572 444.533 192.832C443.619 193.082 442.705 193.331 441.763 193.588C441.983 195.411 442.202 197.233 442.428 199.111C440.012 199.299 440.012 199.299 437.546 199.492C436.892 198.415 436.238 197.339 435.564 196.23C435.042 196.686 434.52 197.142 433.982 197.612C434.378 200.116 435.02 202.53 435.647 204.99C436.012 207.847 435.727 209.293 434.26 211.796C433.346 212.046 432.432 212.295 431.49 212.552C431.167 216.405 431.167 216.405 430.838 220.335C429.619 220.668 428.4 221 427.144 221.343C427.189 222.585 427.234 223.828 427.28 225.108C426.061 225.441 424.842 225.773 423.586 226.116C423.7 226.856 423.813 227.596 423.93 228.358C426.114 243.422 426.114 243.422 425.324 248.458C423.728 250.13 423.728 250.13 422.16 251.223C419.783 249.97 419.783 249.97 419.03 248.118C418.74 247.039 418.74 247.039 418.443 245.938C418.243 245.216 418.044 244.493 417.838 243.749C417.693 243.193 417.549 242.637 417.4 242.064C416.181 242.396 414.962 242.729 413.707 243.071C413.881 243.651 414.056 244.231 414.236 244.828C413.017 245.161 411.798 245.493 410.542 245.836C407.938 243.442 406.577 240.946 405.124 237.807C404.123 237.766 403.121 237.726 402.089 237.684C402.047 238.637 402.004 239.59 401.96 240.571C400.349 240.697 398.738 240.823 397.078 240.952C395.945 239.379 394.811 237.806 393.643 236.185C393.705 236.879 393.767 237.573 393.831 238.288C394.324 246.755 394.324 246.755 391.669 249.736C389.304 251.629 389.304 251.629 387.457 252.133C387.648 253.041 387.84 253.95 388.037 254.886C388.699 258.857 388.816 262.821 388.89 266.834C388.908 267.78 388.908 267.78 388.926 268.744C388.985 273.315 388.985 273.315 388.536 275.605C386.186 275.89 386.186 275.89 383.654 275.987C381.319 273.568 380.973 270.599 380.083 267.454C379.169 267.703 378.254 267.953 377.313 268.21C372.618 261.501 368.704 254.245 366.734 246.377C364.993 247.166 363.252 247.955 361.459 248.767C358.593 244.615 356.396 240.403 354.322 235.841C353.174 233.765 353.174 233.765 350.834 233.413C350.155 233.347 349.475 233.281 348.775 233.213C345.682 230.307 343.994 226.455 342.098 222.78C341.305 221.014 341.305 221.014 339.922 220.418C339.443 218.964 339 217.5 338.598 216.025C338.087 216.371 337.577 216.716 337.051 217.071C336.378 217.519 335.706 217.968 335.013 218.429C334.015 219.099 334.015 219.099 332.996 219.782C331.081 220.928 331.081 220.928 328.311 221.683C327.44 220.98 326.568 220.277 325.67 219.552C323.425 221.776 322.762 222.746 322.825 225.887C322.994 226.85 323.163 227.812 323.337 228.804C324.228 234.022 324.228 234.022 322.784 236.501C321.87 236.75 320.956 236.999 320.014 237.256C317.18 234.795 316.398 232.488 315.519 228.976C314.125 228.728 312.732 228.481 311.296 228.226C310.247 224.748 309.199 221.269 308.118 217.685C306.682 218.39 305.246 219.096 303.766 219.823C301.172 217.472 300.138 215.38 299.042 212.154C298.581 210.819 298.581 210.819 298.111 209.456C297.801 208.529 297.491 207.603 297.172 206.648C296.689 205.241 296.689 205.241 296.198 203.806C295.406 201.493 294.623 199.178 293.846 196.86C292.932 197.11 292.018 197.359 291.076 197.616C291.279 198.214 291.483 198.811 291.692 199.427C291.948 200.214 292.203 201.001 292.466 201.812C292.724 202.591 292.982 203.37 293.248 204.172C293.724 206.401 293.724 206.401 292.672 209.54C290.874 209.792 290.874 209.792 288.713 209.669C286.16 207.538 285.264 205.613 284.434 202.518C284.239 201.811 284.044 201.104 283.843 200.376C283.636 199.573 283.636 199.573 283.424 198.753C282.815 198.919 282.205 199.085 281.577 199.257C281.622 200.499 281.667 201.742 281.713 203.022C280.407 203.065 279.1 203.107 277.754 203.151C276.663 200.625 275.572 198.1 274.448 195.497C272.749 195.333 271.051 195.169 269.301 195C269.62 195.925 269.939 196.85 270.267 197.804C271.805 202.91 272.314 208.119 272.907 213.386C273.028 214.391 273.148 215.396 273.273 216.432C274.136 223.835 274.136 223.835 273.687 226.126C272.468 226.459 271.249 226.791 269.993 227.134C268.38 225.064 266.767 222.995 265.105 220.862C265.22 221.672 265.22 221.672 265.338 222.498C265.687 224.947 266.031 227.395 266.375 229.844C266.558 231.119 266.558 231.119 266.744 232.419C266.858 233.237 266.972 234.054 267.09 234.896C267.197 235.649 267.303 236.401 267.413 237.177C267.63 239.187 267.63 239.187 267.501 242.074C266.587 242.323 265.673 242.573 264.731 242.83C265.156 244.037 265.156 244.037 265.591 245.269C266.319 248.1 266.319 248.1 265.267 251.239C264.353 251.489 263.439 251.738 262.497 251.995C260.619 250.05 260.093 248.204 259.173 245.709C258.807 244.738 258.441 243.767 258.064 242.767C257.303 240.73 256.548 238.69 255.798 236.649C253.334 230.15 250.665 224.491 245.604 219.458C243.915 217.628 243.491 215.95 242.929 213.602C241.493 214.307 240.057 215.013 238.577 215.74C235.552 213.299 235.245 211.909 234.347 208.337C233.433 208.587 232.518 208.836 231.577 209.093C229.726 205.95 228.603 202.893 227.6 199.423C227.325 198.482 227.051 197.541 226.768 196.572C226.463 195.502 226.463 195.502 226.152 194.411C225.201 194.365 225.201 194.365 224.231 194.319C220.995 193.396 220.461 191.932 218.881 189.146C218.378 188.266 217.876 187.385 217.359 186.479C215.726 183.395 214.269 180.313 212.939 177.1C211.72 177.433 210.501 177.765 209.245 178.108C208.853 177.901 208.461 177.695 208.057 177.481C208.147 179.967 208.236 182.452 208.329 185.013C207.602 185.133 206.876 185.252 206.127 185.376C203.595 186.036 203.595 186.036 202.671 188.027C201.801 191.289 202.138 194.228 202.543 197.524C203.407 204.898 203.407 204.898 202.414 208.492C201.647 208.544 200.879 208.597 200.089 208.651C197.625 208.788 197.625 208.788 195.685 209.377C194.467 209.709 193.248 210.042 191.992 210.384C189.818 207.536 188.531 205.533 187.497 202.103C184.284 204.015 184.284 204.015 182.859 207.231C182.83 209.898 182.83 209.898 183.154 212.056C183.415 214.239 183.621 216.234 183.423 218.426C181.853 219.821 180.271 221.202 178.677 222.572C178.265 224.882 178.227 227.035 178.272 229.375C178.289 231.234 178.289 231.234 177.631 232.364C175.487 232.988 173.332 233.577 171.167 234.128C171.208 235.181 171.248 236.235 171.29 237.321C171.342 238.707 171.394 240.093 171.446 241.479C171.473 242.173 171.5 242.867 171.528 243.582C171.634 246.426 171.708 249.233 171.581 252.078C169.97 252.203 168.359 252.329 166.699 252.459C166.175 250.719 165.65 248.98 165.11 247.188C164.501 247.354 163.891 247.52 163.263 247.692C163.397 248.622 163.397 248.622 163.533 249.571C164.71 258.859 164.827 266.438 159.331 274.433C157.344 274.262 157.344 274.262 155.108 273.683C153.853 272.005 153.853 272.005 153.126 270.421C152.963 271.25 152.801 272.079 152.633 272.932C152.319 273.802 152.004 274.673 151.679 275.569C150.46 275.902 149.241 276.234 147.986 276.577C147.636 275.417 147.287 274.258 146.926 273.063C146.317 273.229 145.708 273.395 145.08 273.567C145.077 274.199 145.074 274.831 145.071 275.482C145.005 283.837 145.005 283.837 144.434 288.003C143.128 288.046 141.822 288.088 140.476 288.132C139.822 287.056 139.167 285.979 138.493 284.87C137.889 284.917 137.285 284.964 136.663 285.013C134.535 284.999 134.535 284.999 132.158 283.746C131.594 285.155 131.029 286.564 130.447 288.016C128.836 288.141 127.225 288.267 125.565 288.397C122.779 284.076 120.686 279.879 118.903 275.1C118.134 273.108 118.134 273.108 115.652 272.087C115.39 271.217 115.128 270.348 114.858 269.452C114.249 269.618 113.639 269.784 113.011 269.956C112.969 270.908 112.926 271.861 112.882 272.843C111.663 273.175 110.444 273.508 109.189 273.85C109.33 274.445 109.472 275.04 109.619 275.653C111.007 281.91 111.418 287.802 111.32 294.184C111.33 295.377 111.339 296.571 111.349 297.801C111.338 299.303 111.338 299.303 111.327 300.837C111.341 302.421 111.341 302.421 111.355 304.038C111.26 304.887 111.166 305.736 111.069 306.611C109.828 307.42 109.828 307.42 108.563 308.245C109.002 311.89 109.441 315.535 109.894 319.29C108.675 319.623 107.456 319.955 106.2 320.298C105.938 319.428 105.676 318.559 105.406 317.663C104.796 317.829 104.187 317.995 103.559 318.167C103.691 319.699 103.823 321.232 103.959 322.811C101.609 323.766 99.2585 324.72 96.8368 325.704C93.6832 323.226 92.212 321.522 91.4187 317.675C90.5045 317.925 89.5903 318.174 88.6484 318.431C88.4737 317.851 88.2989 317.272 88.1189 316.674C87.5094 316.84 86.8999 317.007 86.272 317.178C86.7675 318.719 86.7675 318.719 87.273 320.292C89.8856 329.077 89.8856 329.077 88.5637 332.655C87.3445 333.998 87.3445 333.998 84.5742 334.753C84.7513 335.781 84.9284 336.809 85.1108 337.867C85.3386 339.214 85.5663 340.561 85.7937 341.907C85.911 342.585 86.0283 343.262 86.1491 343.96C87.0086 349.085 87.0086 349.085 86.5701 351.321C85.3512 351.654 84.1323 351.986 82.8764 352.329C83.2652 353.311 83.2652 353.311 83.6619 354.313C84.2004 356.721 84.2004 356.721 83.5095 358.573C82.2245 360.112 82.2245 360.112 80.4026 360.906C79.8723 361.266 79.342 361.627 78.7956 361.998C78.4136 364.875 78.4136 364.875 78.5374 367.772C78.4075 368.435 78.2775 369.098 78.1436 369.781C77.5341 369.947 76.9247 370.114 76.2968 370.285C76.5553 371.656 76.5553 371.656 76.8191 373.054C77.2524 376.914 77.3314 379.825 76.3101 383.591C73.2856 385.782 73.2856 385.782 70.3757 387.111C67.3735 385.447 66.2182 383.915 65.0089 380.91C63.4216 377.393 63.2138 377.251 59.9399 375.697C58.4611 373.071 58.4611 373.071 57.4278 370.679C57.3053 371.49 57.1828 372.302 57.0565 373.138C55.9814 375.827 55.9815 375.827 53.4162 376.99C52.4045 377.211 51.3929 377.432 50.3505 377.66C49.3351 377.894 48.3197 378.128 47.2735 378.369C46.4904 378.527 45.7072 378.686 44.9004 378.849C44.7704 379.512 44.6404 380.175 44.5065 380.858C43.5923 381.107 42.6782 381.357 41.7363 381.614C42.0728 383.345 42.0728 383.345 42.416 385.112C43.0958 388.611 43.0958 388.611 41.6139 391.154C39.3961 391.878 39.3961 391.878 36.732 391.535C33.9421 388.932 32.1237 386.193 31.049 382.628C30.1349 382.877 29.2207 383.126 28.2788 383.383C23.4601 375.757 20.0951 368.207 17.171 359.794C15.7348 360.5 14.2985 361.205 12.8187 361.932C12.8828 362.585 12.9469 363.238 13.013 363.911C13.2241 366.639 13.2898 369.34 13.3155 372.076C13.3251 373.001 13.3347 373.926 13.3445 374.879C13.353 375.926 13.353 375.926 13.3616 376.995C11.9253 377.7 10.4891 378.406 9.00929 379.133C9.27142 380.003 9.53355 380.872 9.80363 381.768C8.58472 382.101 7.36581 382.433 6.10997 382.776C-0.00541687 376.441 -1.83111 363.425 -4.21009 355.169C-4.81955 355.335 -5.42901 355.502 -6.05693 355.673C-5.97726 356.416 -5.89759 357.159 -5.81551 357.924C-5.65642 360.317 -5.65641 360.317 -6.31505 361.447C-7.84287 361.903 -9.38232 362.325 -10.9322 362.707C-11.8936 361.744 -12.8504 360.776 -13.8051 359.807C-14.3383 359.268 -14.8716 358.73 -15.4211 358.175C-16.7442 356.687 -16.7442 356.687 -17.2737 354.93C-18.7974 355.346 -20.321 355.761 -21.8908 356.189C-26.6422 351.268 -28.0533 342.78 -29.8278 336.489C-30.4373 336.655 -31.0467 336.821 -31.6746 336.993C-31.4277 337.778 -31.1808 338.564 -30.9263 339.373C-28.5505 347.071 -26.4825 354.796 -24.6889 362.637C-24.2744 364.444 -23.85 366.249 -23.4248 368.053C-22.5933 371.621 -21.8146 375.197 -21.0765 378.784C-20.8805 379.731 -20.8805 379.731 -20.6806 380.698C-20.3034 382.578 -19.955 384.461 -19.6164 386.347C-19.4113 387.455 -19.2062 388.564 -18.9949 389.706C-18.9515 392.464 -18.9515 392.464 -20.5071 394.052C-21.0379 394.44 -21.5687 394.829 -22.1156 395.229C-21.9449 398.138 -21.9449 398.138 -21.054 401.237C-20.7917 402.296 -20.5293 403.354 -20.259 404.444C-20.0405 405.255 -19.822 406.065 -19.5968 406.9C-21.0331 407.606 -22.4694 408.311 -23.9491 409.038C-27.2229 404.484 -29.9837 400.08 -31.9991 394.894C-32.614 393.246 -32.614 393.246 -34.1268 391.85C-34.6041 393.549 -35.0814 395.248 -35.5731 396.998C-36.8794 397.041 -38.1857 397.083 -39.5316 397.127C-38.7878 400.689 -38.044 404.251 -37.2776 407.921C-38.8886 408.046 -40.4996 408.172 -42.1595 408.302C-45.4056 405.654 -47.0292 403.39 -47.8424 399.394C-48.7566 399.644 -49.6708 399.893 -50.6127 400.15C-50.5679 401.393 -50.5231 402.635 -50.4769 403.916C-51.3911 404.165 -52.3053 404.414 -53.2472 404.671C-53.2024 405.914 -53.1576 407.157 -53.1115 408.437C-55.2482 408.539 -57.0696 408.566 -59.1816 408.191C-58.8788 408.854 -58.5761 409.516 -58.2642 410.199C-57.3028 414.872 -58.4521 418.917 -59.5621 423.506C-60.4763 423.755 -61.3905 424.005 -62.3324 424.262C-62.0999 425.375 -61.8675 426.488 -61.628 427.635C-60.51 433.883 -59.4733 440.757 -61.518 446.856C-63.3466 447.084 -63.3466 447.084 -65.4765 446.985C-70.292 441.771 -73.9076 435.591 -75.9189 428.919C-76.4931 428.997 -77.0673 429.075 -77.6588 429.155C-80.5882 429.013 -81.6452 428.247 -83.7068 426.29C-84.6081 423.921 -84.6081 423.921 -85.0308 421.897C-86.1367 422.228 -86.1367 422.228 -87.2651 422.566C-89.6479 423.157 -89.6479 423.157 -90.8361 422.53C-92.6326 433.717 -90.2373 443.886 -87.4936 454.727C-87.2113 455.857 -86.929 456.986 -86.6382 458.15C-86.3732 459.166 -86.1081 460.183 -85.835 461.231C-85.3846 463.824 -85.3846 463.824 -86.4371 466.963C-88.1559 467.71 -88.1559 467.71 -90.1966 468.167C-91.3938 468.434 -92.591 468.702 -93.8245 468.978C-95.7544 466.742 -96.9413 465.269 -97.7896 462.454C-98.3991 462.62 -99.0086 462.787 -99.6365 462.958C-99.3295 465.07 -99.0226 467.183 -98.7064 469.359C-100.768 469.981 -100.768 469.981 -103.588 469.74C-105.193 468.207 -105.193 468.207 -106.803 466.276C-107.342 465.638 -107.88 464.999 -108.435 464.342C-108.841 463.847 -109.247 463.352 -109.665 462.841C-109.593 463.348 -109.52 463.854 -109.446 464.376C-105.918 489.2 -105.918 489.2 -107.391 493.593C-108.305 493.843 -109.219 494.092 -110.161 494.349C-110.117 495.592 -110.072 496.834 -110.026 498.115C-111.244 498.447 -112.463 498.78 -113.719 499.122C-115.027 498.067 -115.027 498.067 -116.36 496.991C-117.149 497.52 -117.938 498.049 -118.751 498.594C-121.371 500.259 -121.371 500.259 -123.218 500.763C-122.786 502.138 -122.786 502.138 -122.346 503.54C-116.641 521.947 -111.591 540.518 -108.513 559.496C-109.122 559.662 -109.732 559.829 -110.359 560C-112.172 554.073 -113.976 548.144 -115.776 542.213C-116.386 540.204 -116.998 538.196 -117.612 536.188C-120.688 526.127 -123.721 516.057 -126.356 505.882C-126.557 505.142 -126.757 504.402 -126.964 503.64C-127.476 501.589 -127.476 501.589 -127.971 498.257C-127.232 497.428 -126.492 496.598 -125.73 495.744C-126.048 492.995 -126.048 492.995 -126.899 490.002C-127.841 486.374 -128.525 483.697 -127.462 480.055C-125.573 479.896 -125.573 479.896 -123.503 479.926C-121.582 481.916 -121.252 483.758 -120.503 486.356C-120.246 487.239 -119.988 488.123 -119.723 489.033C-119.53 489.713 -119.337 490.393 -119.137 491.094C-117.614 490.678 -116.09 490.262 -114.52 489.834C-114.565 488.591 -114.61 487.349 -114.656 486.068C-113.742 485.819 -112.828 485.57 -111.886 485.313C-112.244 483.637 -112.244 483.637 -112.61 481.927C-116.76 461.689 -116.76 461.689 -112.972 455.187C-110.539 454.761 -110.539 454.761 -108.09 454.806C-107.61 455.303 -107.131 455.8 -106.637 456.311C-105.921 453.763 -105.921 453.763 -105.19 451.163C-103.467 450.872 -103.467 450.872 -101.232 451.034C-98.1634 453.244 -96.4558 455.487 -94.8903 458.811C-93.8887 458.852 -92.8872 458.892 -91.8553 458.934C-92.2046 457.912 -92.554 456.889 -92.914 455.836C-95.7053 446.354 -96.5677 437.018 -96.4807 427.219C-96.4753 426.399 -96.47 425.578 -96.4645 424.733C-96.3809 420.843 -96.2844 417.547 -94.4074 413.998C-93.1011 413.955 -91.7948 413.912 -90.4489 413.868C-90.1868 414.738 -89.9246 415.608 -89.6546 416.504C-87.9136 415.715 -86.1726 414.927 -84.3788 414.114C-84.0718 414.568 -83.7649 415.023 -83.4486 415.491C-83.0306 416.074 -82.6126 416.657 -82.1819 417.258C-81.7741 417.842 -81.3663 418.425 -80.9462 419.027C-79.5736 420.604 -79.5736 420.604 -77.3428 420.517C-76.4463 420.388 -76.4463 420.388 -75.5318 420.257C-74.2271 422.356 -72.9283 424.457 -71.6328 426.561C-71.2634 427.154 -70.8941 427.747 -70.5135 428.358C-68.7717 431.195 -67.5005 433.639 -66.5423 436.818C-65.9329 436.652 -65.3234 436.486 -64.6955 436.314C-65.0439 434.915 -65.0439 434.915 -65.3993 433.487C-65.6951 432.257 -65.9905 431.027 -66.2854 429.796C-66.4397 429.182 -66.5939 428.568 -66.7528 427.935C-67.5271 424.662 -67.7863 423.012 -66.6914 419.747C-65.7772 419.497 -64.863 419.248 -63.9211 418.991C-63.3612 411.922 -63.9934 405.319 -64.9727 398.304C-65.114 397.247 -65.2553 396.191 -65.4009 395.102C-65.7472 392.521 -66.1003 389.94 -66.4599 387.361C-65.3284 386.738 -64.1968 386.116 -63.031 385.475C-59.8334 388.055 -59.5646 389.647 -58.5036 393.449C-58.208 394.49 -57.9123 395.531 -57.6077 396.603C-57.3899 397.402 -57.172 398.202 -56.9476 399.026C-56.0334 398.777 -55.1192 398.527 -54.1773 398.27C-54.2221 397.028 -54.2669 395.785 -54.313 394.505C-50.5863 394.033 -48.0385 395.157 -44.6783 396.63C-44.331 395.594 -43.9837 394.558 -43.6258 393.491C-41.2515 392.665 -41.2515 392.665 -39.0087 392.231C-39.3452 390.499 -39.3452 390.499 -39.6885 388.733C-40.3682 385.234 -40.3682 385.234 -38.8863 382.691C-37.2753 382.565 -35.6642 382.44 -34.0044 382.31C-30.341 387.899 -30.341 387.899 -26.6037 393.601C-26.4737 392.938 -26.3438 392.275 -26.2098 391.592C-25.2956 391.343 -24.3815 391.093 -23.4396 390.836C-23.8235 389.313 -23.8235 389.313 -24.2152 387.76C-32.7663 353.79 -32.7663 353.79 -35.7622 340.009C-35.9646 339.103 -36.167 338.197 -36.3756 337.263C-36.5478 336.448 -36.7199 335.633 -36.8973 334.793C-37.0451 334.102 -37.1929 333.41 -37.3452 332.698C-37.4866 330.973 -37.4866 330.973 -36.1694 328.712C-33.3168 327.815 -33.3168 327.815 -30.6288 327.201C-25.3902 332.627 -23.0375 341.373 -21.2389 348.406C-20.6402 348.324 -20.0416 348.241 -19.4248 348.156C-17.2804 348.277 -17.2804 348.277 -15.8524 349.544C-15.4518 350.104 -15.0511 350.663 -14.6384 351.24C-14.2296 351.793 -13.8208 352.346 -13.3996 352.915C-12.3918 354.549 -12.3918 354.549 -11.5975 357.184C-10.988 357.018 -10.3786 356.852 -9.75063 356.681C-9.8828 355.148 -10.015 353.615 -10.1511 352.036C-7.06768 351.076 -7.06768 351.076 -3.68717 350.273C2.07436 353.311 3.45622 363.84 5.18127 369.541C5.71286 371.357 6.24153 373.174 6.76193 374.992C7.37138 374.826 7.98083 374.66 8.60876 374.489C8.4063 373.407 8.20383 372.325 7.99521 371.21C7.44261 367.867 7.52069 364.82 7.67201 361.435C7.39244 358.038 7.01198 354.654 6.6062 351.268C7.73773 350.646 8.86928 350.023 10.0351 349.382C12.4823 351.65 13.0028 352.597 14.0003 355.906C14.7813 355.83 15.5623 355.754 16.3669 355.676C18.8821 355.525 18.8821 355.525 20.0704 356.151C21.1871 358.601 22.2557 361.052 23.2941 363.531C24.152 365.565 25.0134 367.597 25.8918 369.623C26.5773 371.214 27.2349 372.815 27.8873 374.418C28.319 375.098 28.7507 375.778 29.1955 376.478C31.3029 376.956 31.3029 376.956 33.4188 377.228C34.7565 378.92 34.7565 378.92 35.7977 380.976C36.3294 381.996 36.3294 381.996 36.8719 383.037C37.1283 383.563 37.3846 384.088 37.6487 384.63C37.7765 381.772 37.7765 381.772 37.9068 378.856C38.821 378.606 39.7352 378.357 40.6771 378.1C40.937 376.774 41.197 375.448 41.4648 374.082C42.379 373.833 43.2932 373.584 44.2351 373.327C44.2777 372.374 44.3203 371.421 44.3641 370.439C46.4113 369.519 48.4791 368.639 50.5633 367.798C50.9554 368.004 51.3475 368.211 51.7515 368.424C51.813 367.329 51.8745 366.234 51.9379 365.105C52.6683 361.519 52.6683 361.519 54.9017 360.019C55.9506 359.703 55.9506 359.703 57.0206 359.382C60.8196 362.448 61.7993 366.306 63.5652 370.668C64.9673 373.524 64.9673 373.524 67.9738 374.338C68.8494 374.452 69.725 374.566 70.6272 374.684C71.324 374.807 72.0208 374.931 72.7388 375.058C72.4112 374.108 72.0837 373.158 71.7462 372.18C70.8853 368.909 70.8853 368.909 71.9378 365.77C72.8519 365.521 73.7661 365.271 74.708 365.014C74.5681 363.935 74.5681 363.935 74.4254 362.833C74.3075 360.37 74.3075 360.37 75.6248 358.109C76.8437 357.777 78.0626 357.444 79.3185 357.102C79.2465 355.906 79.1746 354.71 79.1004 353.477C78.9344 350.719 78.9166 349.794 80.3643 347.31C80.4019 345.408 80.4019 345.408 80.1541 343.297C80.0836 342.516 80.013 341.735 79.9404 340.93C79.8596 340.115 79.7789 339.3 79.6956 338.461C79.536 336.849 79.3828 335.237 79.2372 333.624C79.1659 332.909 79.0946 332.194 79.0211 331.457C79.027 329.612 79.027 329.612 80.3443 327.351C81.5632 327.019 82.7821 326.686 84.038 326.343C83.8693 325.382 83.7006 324.421 83.5268 323.43C83.3152 322.168 83.104 320.906 82.8932 319.644C82.7808 319.011 82.6684 318.377 82.5526 317.725C81.7638 312.919 81.7638 312.919 83.2303 310.402C84.4492 310.07 85.6681 309.737 86.924 309.395C87.4035 309.891 87.8829 310.388 88.377 310.9C89.2507 310.995 90.1244 311.09 91.0246 311.188C93.7885 312.276 93.7884 312.276 94.6727 314.121C95.2649 316.133 95.7672 318.128 96.1715 320.182C97.3905 319.849 98.6094 319.517 99.8652 319.174C99.5935 318.388 99.5935 318.388 99.3162 317.586C99.0879 316.888 98.8596 316.191 98.6245 315.472C98.3941 314.785 98.1638 314.098 97.9265 313.39C97.4431 311.082 97.6666 309.514 98.2698 307.25C99.1324 307.035 99.9949 306.819 100.883 306.597C103.873 305.872 103.873 305.872 106.316 304.105C106.255 303.501 106.194 302.898 106.132 302.276C105.708 297.807 105.511 293.529 105.773 289.042C105.74 283.406 105.056 277.985 104.194 272.409C103.919 269.714 104.034 267.364 104.429 264.691C108.293 263.408 111.488 262.71 115.367 264.225C121.57 268.124 124.286 272.977 126.876 279.483C127.145 278.939 127.414 278.395 127.691 277.835C128.852 276.092 128.852 276.092 131.622 275.336C134.263 277.468 134.263 277.468 135.322 280.982C137.151 280.483 138.979 279.984 140.863 279.47C140.83 278.516 140.83 278.516 140.797 277.542C140.674 269.153 140.674 269.153 143.62 265.409C144.379 265.535 145.139 265.661 145.921 265.791C149.12 265.921 150.365 265.173 153.119 263.768C155.495 265.021 155.495 265.021 156.29 267.657C157.204 267.407 158.118 267.158 159.06 266.901C158.98 265.747 158.9 264.592 158.817 263.402C158.717 261.765 158.619 260.128 158.524 258.491C158.465 257.537 158.407 256.582 158.347 255.598C158.297 254.622 158.247 253.645 158.196 252.639C158.122 251.27 158.122 251.27 158.046 249.873C158.121 247.043 158.71 244.749 159.563 242.046C159.973 240.04 160.37 238.032 160.744 236.02C162.051 235.977 163.357 235.935 164.703 235.891C166.516 232.1 167.574 228.578 168.254 224.465C169.865 224.339 171.476 224.213 173.136 224.084C173.559 222.615 173.559 222.615 173.991 221.117C175.241 217.805 175.241 217.805 176.924 216.552C178.7 215.082 178.7 215.082 178.421 212.556C178.294 211.605 178.168 210.655 178.037 209.675C177.673 204.343 178.592 201.751 182.127 197.667C183.797 196.458 183.797 196.458 185.839 196.046C187.755 196.329 187.755 196.329 189.919 198.947C192.151 201.997 192.15 201.997 195.835 202.622C196.785 202.696 197.735 202.77 198.714 202.846C198.597 202.258 198.48 201.67 198.36 201.064C195.876 188.345 195.876 188.345 198.3 184.896C198.67 183.766 198.67 183.766 199.048 182.613C199.366 181.957 199.684 181.302 200.011 180.627C201.23 180.294 202.449 179.962 203.705 179.619C203.53 178.628 203.354 177.637 203.174 176.615C202.775 173.218 202.775 173.218 203.827 170.079C206.069 168.814 206.069 168.814 208.18 167.941C208.165 166.867 208.15 165.792 208.135 164.686C208.173 161.288 208.173 161.288 208.832 160.158Z" fill="#3757BE"/>
</svg>