<svg width="82" height="92" viewBox="0 0 82 92" fill="none" xmlns="http://www.w3.org/2000/svg">
  <path d="M0 0V88.7639C0 90.2507 1.56462 91.2177 2.89442 90.5528L40.1046 71.9479C40.749 71.8208 41.6284 71.8208 42.2764 71.9479L79.0987 90.5355C80.429 91.207 82 90.2402 82 88.7501V0.0903868L0 0Z" fill="#3757BE"/>
  <path d="M11.6532 38.16V18H19.7172C21.1545 18 22.3165 18.2893 23.2032 18.868C24.0898 19.4373 24.7385 20.156 25.1492 21.024C25.5598 21.892 25.7652 22.7693 25.7652 23.656C25.7652 24.7853 25.5085 25.7233 24.9952 26.47C24.4912 27.2167 23.7958 27.716 22.9092 27.968V27.268C24.1692 27.5293 25.1118 28.1127 25.7372 29.018C26.3718 29.9233 26.6892 30.936 26.6892 32.056C26.6892 33.26 26.4652 34.3193 26.0172 35.234C25.5785 36.1487 24.9065 36.8673 24.0012 37.39C23.0958 37.9033 21.9572 38.16 20.5852 38.16H11.6532ZM15.5172 34.576H20.1932C20.7065 34.576 21.1638 34.4687 21.5652 34.254C21.9665 34.03 22.2792 33.722 22.5032 33.33C22.7365 32.9287 22.8532 32.4573 22.8532 31.916C22.8532 31.44 22.7552 31.0153 22.5592 30.642C22.3632 30.2687 22.0645 29.9747 21.6632 29.76C21.2712 29.536 20.7812 29.424 20.1932 29.424H15.5172V34.576ZM15.5172 25.868H19.6612C20.0905 25.868 20.4732 25.7933 20.8092 25.644C21.1452 25.4947 21.4112 25.266 21.6072 24.958C21.8032 24.6407 21.9012 24.2347 21.9012 23.74C21.9012 23.124 21.7098 22.606 21.3272 22.186C20.9445 21.766 20.3892 21.556 19.6612 21.556H15.5172V25.868Z" fill="white"/>
  <path d="M36.5093 38.58C34.96 38.58 33.5926 38.2487 32.4073 37.586C31.2313 36.914 30.3073 35.9947 29.6353 34.828C28.9726 33.652 28.6413 32.308 28.6413 30.796C28.6413 29.144 28.968 27.7067 29.6213 26.484C30.2746 25.2613 31.1753 24.314 32.3233 23.642C33.4713 22.9607 34.792 22.62 36.2853 22.62C37.872 22.62 39.2206 22.9933 40.3313 23.74C41.442 24.4867 42.2633 25.5367 42.7953 26.89C43.3273 28.2433 43.514 29.8347 43.3553 31.664H39.5893V30.264C39.5893 28.724 39.342 27.618 38.8473 26.946C38.362 26.2647 37.564 25.924 36.4533 25.924C35.156 25.924 34.1993 26.3207 33.5833 27.114C32.9766 27.898 32.6733 29.06 32.6733 30.6C32.6733 32.0093 32.9766 33.1013 33.5833 33.876C34.1993 34.6413 35.1 35.024 36.2853 35.024C37.032 35.024 37.6713 34.8607 38.2033 34.534C38.7353 34.2073 39.1413 33.736 39.4213 33.12L43.2293 34.212C42.66 35.5933 41.7593 36.6667 40.5273 37.432C39.3046 38.1973 37.9653 38.58 36.5093 38.58ZM31.4973 31.664V28.836H41.5213V31.664H31.4973Z" fill="white"/>
  <path d="M52.4244 38.58C50.5204 38.58 48.9804 38.1507 47.8044 37.292C46.6378 36.424 45.9284 35.2013 45.6764 33.624L49.5684 33.036C49.7271 33.7453 50.0771 34.3007 50.6184 34.702C51.1691 35.1033 51.8644 35.304 52.7044 35.304C53.3951 35.304 53.9271 35.1733 54.3004 34.912C54.6738 34.6413 54.8604 34.268 54.8604 33.792C54.8604 33.4933 54.7858 33.2553 54.6364 33.078C54.4871 32.8913 54.1511 32.7093 53.6284 32.532C53.1151 32.3547 52.3124 32.1213 51.2204 31.832C49.9884 31.5147 49.0038 31.16 48.2664 30.768C47.5291 30.376 46.9971 29.9093 46.6704 29.368C46.3438 28.8173 46.1804 28.1547 46.1804 27.38C46.1804 26.4093 46.4278 25.5693 46.9224 24.86C47.4171 24.1413 48.1124 23.5907 49.0084 23.208C49.9138 22.816 50.9778 22.62 52.2004 22.62C53.3858 22.62 54.4358 22.802 55.3504 23.166C56.2651 23.53 57.0024 24.048 57.5624 24.72C58.1318 25.392 58.4818 26.1853 58.6124 27.1L54.7204 27.8C54.6551 27.24 54.4124 26.7967 53.9924 26.47C53.5724 26.1433 53.0031 25.952 52.2844 25.896C51.5844 25.8493 51.0198 25.9427 50.5904 26.176C50.1704 26.4093 49.9604 26.7453 49.9604 27.184C49.9604 27.4453 50.0491 27.6647 50.2264 27.842C50.4131 28.0193 50.7911 28.2013 51.3604 28.388C51.9391 28.5747 52.8164 28.8173 53.9924 29.116C55.1404 29.4147 56.0598 29.7647 56.7504 30.166C57.4504 30.558 57.9591 31.034 58.2764 31.594C58.5938 32.1447 58.7524 32.812 58.7524 33.596C58.7524 35.1453 58.1924 36.3633 57.0724 37.25C55.9524 38.1367 54.4031 38.58 52.4244 38.58Z" fill="white"/>
  <path d="M70.9009 38.16C69.8556 38.356 68.8289 38.44 67.8209 38.412C66.8223 38.3933 65.9263 38.2207 65.1329 37.894C64.3489 37.558 63.7516 37.0213 63.3409 36.284C62.9676 35.5933 62.7716 34.8933 62.7529 34.184C62.7343 33.4653 62.7249 32.6533 62.7249 31.748V18.84H66.5329V31.524C66.5329 32.112 66.5376 32.644 66.5469 33.12C66.5656 33.5867 66.6636 33.96 66.8409 34.24C67.1769 34.772 67.7136 35.0613 68.4509 35.108C69.1883 35.1547 70.0049 35.1173 70.9009 34.996V38.16ZM60.1489 25.98V23.04H70.9009V25.98H60.1489Z" fill="white"/>
  <path d="M14.4746 59.46C13.3612 59.46 12.4112 59.2133 11.6246 58.72C10.8379 58.22 10.2346 57.54 9.81457 56.68C9.40124 55.82 9.19124 54.8467 9.18457 53.76C9.19124 52.6533 9.4079 51.6733 9.83457 50.82C10.2679 49.96 10.8812 49.2867 11.6746 48.8C12.4679 48.3067 13.4112 48.06 14.5046 48.06C15.7312 48.06 16.7679 48.37 17.6146 48.99C18.4679 49.6033 19.0246 50.4433 19.2846 51.51L16.8846 52.16C16.6979 51.58 16.3879 51.13 15.9546 50.81C15.5212 50.4833 15.0279 50.32 14.4746 50.32C13.8479 50.32 13.3312 50.47 12.9246 50.77C12.5179 51.0633 12.2179 51.47 12.0246 51.99C11.8312 52.51 11.7346 53.1 11.7346 53.76C11.7346 54.7867 11.9646 55.6167 12.4246 56.25C12.8846 56.8833 13.5679 57.2 14.4746 57.2C15.1146 57.2 15.6179 57.0533 15.9846 56.76C16.3579 56.4667 16.6379 56.0433 16.8246 55.49L19.2846 56.04C18.9512 57.14 18.3679 57.9867 17.5346 58.58C16.7012 59.1667 15.6812 59.46 14.4746 59.46Z" fill="white"/>
  <path d="M28.7585 59.16V53.96C28.7585 53.62 28.7351 53.2433 28.6885 52.83C28.6418 52.4167 28.5318 52.02 28.3585 51.64C28.1918 51.2533 27.9385 50.9367 27.5985 50.69C27.2651 50.4433 26.8118 50.32 26.2385 50.32C25.9318 50.32 25.6285 50.37 25.3285 50.47C25.0285 50.57 24.7551 50.7433 24.5085 50.99C24.2685 51.23 24.0751 51.5633 23.9285 51.99C23.7818 52.41 23.7085 52.95 23.7085 53.61L22.2785 53C22.2785 52.08 22.4551 51.2467 22.8085 50.5C23.1685 49.7533 23.6951 49.16 24.3885 48.72C25.0818 48.2733 25.9351 48.05 26.9485 48.05C27.7485 48.05 28.4085 48.1833 28.9285 48.45C29.4485 48.7167 29.8618 49.0567 30.1685 49.47C30.4751 49.8833 30.7018 50.3233 30.8485 50.79C30.9951 51.2567 31.0885 51.7 31.1285 52.12C31.1751 52.5333 31.1985 52.87 31.1985 53.13V59.16H28.7585ZM21.2685 59.16V44.76H23.4185V52.34H23.7085V59.16H21.2685Z" fill="white"/>
  <path d="M38.578 59.46C37.498 59.46 36.5547 59.2167 35.748 58.73C34.9413 58.2433 34.3147 57.5733 33.868 56.72C33.428 55.86 33.208 54.8733 33.208 53.76C33.208 52.6267 33.4347 51.6333 33.888 50.78C34.3413 49.9267 34.9713 49.26 35.778 48.78C36.5847 48.3 37.518 48.06 38.578 48.06C39.6647 48.06 40.6113 48.3033 41.418 48.79C42.2247 49.2767 42.8513 49.95 43.298 50.81C43.7447 51.6633 43.968 52.6467 43.968 53.76C43.968 54.88 43.7413 55.87 43.288 56.73C42.8413 57.5833 42.2147 58.2533 41.408 58.74C40.6013 59.22 39.658 59.46 38.578 59.46ZM38.578 57.2C39.538 57.2 40.2513 56.88 40.718 56.24C41.1847 55.6 41.418 54.7733 41.418 53.76C41.418 52.7133 41.1813 51.88 40.708 51.26C40.2347 50.6333 39.5247 50.32 38.578 50.32C37.9313 50.32 37.398 50.4667 36.978 50.76C36.5647 51.0467 36.258 51.45 36.058 51.97C35.858 52.4833 35.758 53.08 35.758 53.76C35.758 54.8067 35.9947 55.6433 36.468 56.27C36.948 56.89 37.6513 57.2 38.578 57.2Z" fill="white"/>
  <path d="M46.3713 46.72V44.51H48.7813V46.72H46.3713ZM46.3713 59.16V48.36H48.7813V59.16H46.3713Z" fill="white"/>
  <path d="M56.4668 59.46C55.3534 59.46 54.4034 59.2133 53.6168 58.72C52.8301 58.22 52.2268 57.54 51.8068 56.68C51.3934 55.82 51.1834 54.8467 51.1768 53.76C51.1834 52.6533 51.4001 51.6733 51.8268 50.82C52.2601 49.96 52.8734 49.2867 53.6668 48.8C54.4601 48.3067 55.4034 48.06 56.4968 48.06C57.7234 48.06 58.7601 48.37 59.6068 48.99C60.4601 49.6033 61.0168 50.4433 61.2768 51.51L58.8768 52.16C58.6901 51.58 58.3801 51.13 57.9468 50.81C57.5134 50.4833 57.0201 50.32 56.4668 50.32C55.8401 50.32 55.3234 50.47 54.9168 50.77C54.5101 51.0633 54.2101 51.47 54.0168 51.99C53.8234 52.51 53.7268 53.1 53.7268 53.76C53.7268 54.7867 53.9568 55.6167 54.4168 56.25C54.8768 56.8833 55.5601 57.2 56.4668 57.2C57.1068 57.2 57.6101 57.0533 57.9768 56.76C58.3501 56.4667 58.6301 56.0433 58.8168 55.49L61.2768 56.04C60.9434 57.14 60.3601 57.9867 59.5268 58.58C58.6934 59.1667 57.6734 59.46 56.4668 59.46Z" fill="white"/>
  <path d="M67.8977 59.46C66.8044 59.46 65.8444 59.2233 65.0177 58.75C64.191 58.2767 63.5444 57.62 63.0777 56.78C62.6177 55.94 62.3877 54.9733 62.3877 53.88C62.3877 52.7 62.6144 51.6767 63.0677 50.81C63.521 49.9367 64.151 49.26 64.9577 48.78C65.7644 48.3 66.6977 48.06 67.7577 48.06C68.8777 48.06 69.8277 48.3233 70.6077 48.85C71.3944 49.37 71.9777 50.1067 72.3577 51.06C72.7377 52.0133 72.881 53.1367 72.7877 54.43H70.3977V53.55C70.391 52.3767 70.1844 51.52 69.7777 50.98C69.371 50.44 68.731 50.17 67.8577 50.17C66.871 50.17 66.1377 50.4767 65.6577 51.09C65.1777 51.6967 64.9377 52.5867 64.9377 53.76C64.9377 54.8533 65.1777 55.7 65.6577 56.3C66.1377 56.9 66.8377 57.2 67.7577 57.2C68.351 57.2 68.861 57.07 69.2877 56.81C69.721 56.5433 70.0544 56.16 70.2877 55.66L72.6677 56.38C72.2544 57.3533 71.6144 58.11 70.7477 58.65C69.8877 59.19 68.9377 59.46 67.8977 59.46ZM64.1777 54.43V52.61H71.6077V54.43H64.1777Z" fill="white"/>
</svg>
