<svg xmlns="http://www.w3.org/2000/svg" width="1920" height="1920" viewBox="-800 -480 1920 1920" fill="none">
  <g filter="url(#filter0_f_326_2119)">
    <path fill-rule="evenodd" clip-rule="evenodd" d="M87.3513 499.355C44.0434 496.325 0.51062 493.284 -35.6543 476.99C-72.7963 460.256 -106.513 437.002 -116.167 407.662C-125.467 379.398 -96.9311 353.4 -85.5012 325.491C-73.312 295.727 -83.4561 257.757 -47.0606 238.919C-10.6571 220.077 42.2557 230.092 87.3513 236.024C125.181 241 156.715 255.019 188.291 269.876C220.498 285.029 252.044 300.156 272.02 322.911C296.296 350.566 321.225 380.929 313.603 412.626C305.488 446.366 274.669 478.672 230.488 495.608C187.974 511.905 136.034 502.76 87.3513 499.355Z" fill="#E0E5FF"/>
  </g>
  <defs>
    <filter id="filter0_f_326_2119" x="-800" y="-480" width="1920" height="1920" filterUnits="userSpaceOnUse" color-interpolation-filters="sRGB">
      <feFlood flood-opacity="0" result="BackgroundImageFix"/>
      <feBlend mode="normal" in="SourceGraphic" in2="BackgroundImageFix" result="shape"/>
      <feGaussianBlur stdDeviation="114" result="effect1_foregroundBlur_326_2119"/>
    </filter>
  </defs>
</svg>