<svg width="796" height="220" viewBox="0 0 199 55" fill="none" xmlns="http://www.w3.org/2000/svg">
<circle cx="178.906" cy="30" r="5" fill="#FFBD13"/>
<path fill-rule="evenodd" clip-rule="evenodd" d="M133.906 14C131.145 14 128.906 16.2386 128.906 19V35C128.906 46.0457 137.861 55 148.906 55C159.617 55 168.361 46.5811 168.882 36H168.806C168.872 35.6769 168.906 35.3425 168.906 35V33C168.906 30.2386 166.668 28 163.906 28C161.145 28 158.906 30.2386 158.906 33V35C158.906 40.5228 154.429 45 148.906 45C143.383 45 138.906 40.5228 138.906 35V19V17.6756C138.855 17.7053 138.804 17.7353 138.753 17.7654C138.203 15.6011 136.242 14 133.906 14ZM159.006 36H158.906V35C158.906 35.3425 158.941 35.6769 159.006 36ZM158.906 17.6756C159.088 17.781 159.269 17.8891 159.447 18H158.906V17.6756Z" fill="#FFBD13"/>
<path fill-rule="evenodd" clip-rule="evenodd" d="M193.882 41C196.643 41 198.882 38.7614 198.882 36V20C198.882 8.95431 189.927 0 178.882 0C168.396 2.62844e-06 159.795 8.06921 158.95 18.3367C158.921 18.5537 158.906 18.7751 158.906 19L158.906 21C158.906 23.7614 161.145 26 163.906 26C166.668 26 168.906 23.7614 168.906 21V19.2935C169.269 14.1003 173.596 10 178.882 10C184.405 10 188.882 14.4772 188.882 20L188.882 36V37.3244C188.933 37.2947 188.984 37.2647 189.035 37.2346C189.585 39.3989 191.546 41 193.882 41ZM168.882 37.3244C168.7 37.219 168.519 37.1109 168.341 37H168.882V37.3244Z" fill="#0496FF"/>
<path fill-rule="evenodd" clip-rule="evenodd" d="M113.906 39.0938V13.8594V13.7812H113.905C113.857 12.523 112.668 11.5156 111.207 11.5156C109.746 11.5156 108.557 12.523 108.509 13.7812H108.508V13.8594V23.7422C107.014 22.4141 105.08 21.75 102.705 21.75C99.5555 21.75 96.9373 22.6328 94.8499 24.3984C92.6186 26.3047 91.5029 28.5469 91.5029 31.125V39.0938C91.5029 41.7031 92.6186 43.9453 94.8499 45.8203C96.9733 47.5859 99.5915 48.4688 102.705 48.4688C105.854 48.4688 108.472 47.5859 110.559 45.8203C112.791 43.9141 113.906 41.6719 113.906 39.0938ZM0 13.8594V13.7812H0.0014713C0.0489311 12.523 1.23858 11.5156 2.6992 11.5156C4.15982 11.5156 5.34947 12.523 5.39693 13.7812H5.3984V13.8594V23.7422C6.766 22.4141 8.70042 21.75 11.2017 21.75C14.3148 21.75 16.933 22.6328 19.0564 24.3984C21.2877 26.2734 22.4034 28.5156 22.4034 31.125V39.0938C22.4034 41.6719 21.2877 43.9141 19.0564 45.8203C16.969 47.5859 14.3507 48.4688 11.2017 48.4688C8.0886 48.4688 5.47038 47.5859 3.34701 45.8203C1.11567 43.9453 0 41.7031 0 39.0938V13.8594ZM5.3984 39.0938C5.3984 40.8906 5.95624 42.2109 7.0719 43.0547C8.20557 43.8828 9.58216 44.2969 11.2017 44.2969C12.8212 44.2969 14.1888 43.8828 15.3045 43.0547C16.4381 42.2109 17.005 40.8906 17.005 39.0938V31.125C17.005 29.3281 16.4381 28.0156 15.3045 27.1875C14.1888 26.3438 12.8212 25.9219 11.2017 25.9219C9.58216 25.9219 8.20557 26.3438 7.0719 27.1875C5.95624 28.0156 5.3984 29.3281 5.3984 31.125V39.0938ZM30.501 39.0938V31.125C30.501 28.5469 31.6166 26.3047 33.848 24.3984C35.9354 22.6328 38.5536 21.75 41.7026 21.75C44.8157 21.75 47.4339 22.6328 49.5573 24.3984C51.7887 26.2734 52.9043 28.5156 52.9043 31.125V39.0938C52.9043 41.6719 51.7887 43.9141 49.5573 45.8203C47.4699 47.5859 44.8517 48.4688 41.7026 48.4688C38.5896 48.4688 35.9713 47.5859 33.848 45.8203C31.6166 43.9453 30.501 41.7031 30.501 39.0938ZM35.8994 39.0938C35.8994 40.8906 36.4572 42.2109 37.5729 43.0547C38.7065 43.8828 40.0831 44.2969 41.7026 44.2969C43.3222 44.2969 44.6898 43.8828 45.8054 43.0547C46.9391 42.2109 47.5059 40.8906 47.5059 39.0938V31.125C47.5059 29.3281 46.9391 28.0156 45.8054 27.1875C44.6898 26.3438 43.3222 25.9219 41.7026 25.9219C40.0831 25.9219 38.7065 26.3438 37.5729 27.1875C36.4572 28.0156 35.8994 29.3281 35.8994 31.125V39.0938ZM61.0019 31.125V46.125V46.3281H61.0119C61.1305 47.5274 62.2892 48.4688 63.7011 48.4688C65.113 48.4688 66.2718 47.5274 66.3903 46.3281H66.4003V46.125V31.125C66.4003 29.3281 66.9582 28.0156 68.0738 27.1875C69.2075 26.3438 70.5841 25.9219 72.2036 25.9219C73.8231 25.9219 75.1907 26.3438 76.3064 27.1875C77.4401 28.0156 78.0069 29.3281 78.0069 31.125V46.125V46.3281H78.0169C78.1355 47.5274 79.2942 48.4688 80.7061 48.4688C82.118 48.4688 83.2767 47.5274 83.3953 46.3281H83.4053V46.125V31.125C83.4053 28.5156 82.2896 26.2734 80.0583 24.3984C77.9349 22.6328 75.3167 21.75 72.2036 21.75C69.0545 21.75 66.4363 22.6328 64.3489 24.3984C62.1176 26.3047 61.0019 28.5469 61.0019 31.125ZM96.9013 39.0938C96.9013 40.8906 97.4591 42.2109 98.5748 43.0547C99.7085 43.8828 101.085 44.2969 102.705 44.2969C104.324 44.2969 105.692 43.8828 106.807 43.0547C107.941 42.2109 108.508 40.8906 108.508 39.0938V31.125C108.508 29.3281 107.941 28.0156 106.807 27.1875C105.692 26.3438 104.324 25.9219 102.705 25.9219C101.085 25.9219 99.7085 26.3438 98.5748 27.1875C97.4591 28.0156 96.9013 29.3281 96.9013 31.125V39.0938Z" fill="#2A2D34"/>
</svg>
