<svg width="776" height="256" viewBox="0 0 194 64" fill="none" xmlns="http://www.w3.org/2000/svg">
<!-- <rect width="194" height="63.9991" fill="white"/> -->
<path d="M96.5762 20.0688L97.4299 14.1899L99.7365 20.0688H100.77L103.181 14.1899L103.915 20.0688H106.506L105.009 9.85733H102.418L100.276 15.3075L98.2537 9.85733H95.6925L94 20.0688H96.5762Z" fill="#3E3E59"/>
<path d="M107.93 13.2254V20.0688H110.326V13.2254H107.93ZM107.78 10.3779C107.78 11.1433 108.379 11.7557 109.128 11.7557C109.877 11.7557 110.476 11.1433 110.476 10.3779C110.476 9.61238 109.877 9 109.128 9C108.379 9 107.78 9.61238 107.78 10.3779Z" fill="#3E3E59"/>
<path d="M116.071 20.0688H118.438V17.0987L120.43 20.0688H123.365L120.639 16.5017L122.961 13.2254H120.235L118.438 16.0883V13.2254H116.071V16.0883L114.274 13.2254H111.548L113.869 16.5017L111.143 20.0688H114.079L116.071 17.0987V20.0688Z" fill="#3E3E59"/>
<path d="M124.21 20.0688H126.606V17.4662H128.838V20.0688H131.234V13.2254H128.838V15.5372H126.606V13.2254H124.21V20.0688Z" fill="#3E3E59"/>
<path d="M138.066 13.8837C137.781 13.5622 137.137 12.9958 136.058 12.9958C135.1 12.9958 134.216 13.3785 133.647 13.9603C133.108 14.5114 132.614 15.4147 132.614 16.7007C132.614 17.7264 132.928 18.5072 133.572 19.2114C134.381 20.0841 135.265 20.2984 135.984 20.2984C136.643 20.2984 137.511 20.0994 138.066 19.3186V20.0688H140.462V13.2254H138.066V13.8837ZM136.598 15.0779C137.107 15.0779 137.451 15.3075 137.676 15.5219C138.051 15.8893 138.14 16.318 138.14 16.6395C138.14 17.1906 137.901 17.5274 137.691 17.7417C137.392 18.0479 137.002 18.2163 136.613 18.2163C136.208 18.2163 135.789 18.002 135.534 17.757C135.235 17.4662 135.07 17.0375 135.07 16.6395C135.07 16.2873 135.22 15.8434 135.549 15.5219C135.894 15.185 136.298 15.0779 136.598 15.0779Z" fill="#3E3E59"/>
<path d="M144.509 19.4105C145.258 20.2066 146.157 20.2984 146.591 20.2984C147.265 20.2984 148.134 20.0994 148.883 19.3492C149.527 18.7062 149.961 17.7877 149.961 16.6395C149.961 15.4606 149.497 14.5574 148.943 13.9909C148.403 13.4398 147.595 12.9958 146.561 12.9958C145.573 12.9958 144.929 13.4398 144.509 13.9756V13.2254H142.113V23.5747H144.509V19.4105ZM145.977 15.0779C146.396 15.0779 146.771 15.2463 147.04 15.5372C147.34 15.8434 147.505 16.2873 147.505 16.6701C147.505 17.0834 147.295 17.4968 147.04 17.757C146.771 18.0479 146.396 18.2163 145.977 18.2163C145.573 18.2163 145.183 18.0479 144.899 17.757C144.644 17.4968 144.434 17.0681 144.434 16.6701C144.434 16.2873 144.599 15.8434 144.899 15.5372C145.183 15.2463 145.573 15.0779 145.977 15.0779Z" fill="#3E3E59"/>
<path d="M155.102 15.0779C155.476 15.0779 155.895 15.2616 156.165 15.5219C156.465 15.828 156.629 16.272 156.629 16.6395C156.629 17.0375 156.465 17.4355 156.165 17.7264C155.88 18.0173 155.491 18.1857 155.102 18.1857C154.697 18.1857 154.308 18.0173 154.023 17.7264C153.754 17.4509 153.559 17.0528 153.559 16.6395C153.559 16.2414 153.724 15.8127 154.023 15.5219C154.293 15.2616 154.712 15.0779 155.102 15.0779ZM159.116 16.6395C159.116 15.4147 158.576 14.6186 158.082 14.1287C157.528 13.5929 156.569 12.9958 155.087 12.9958C153.634 12.9958 152.66 13.5775 152.106 14.1287C151.612 14.6186 151.073 15.4147 151.073 16.6395C151.073 17.558 151.372 18.4307 152.106 19.1655C153.035 20.0994 154.113 20.2984 155.087 20.2984C156.165 20.2984 157.198 20.0535 158.082 19.1655C158.816 18.4307 159.116 17.558 159.116 16.6395Z" fill="#3E3E59"/>
<path d="M161.247 13.2254V15.9811C161.247 16.517 161.217 17.3743 160.648 17.9408C160.469 18.1245 160.169 18.3235 159.735 18.3541V22.059H161.832V20.0688H166.28V22.059H168.377V18.3541H167.403V13.2254H161.247ZM165.067 18.3541H162.64C162.955 18.0939 163.12 17.8183 163.269 17.4049C163.434 16.9456 163.464 16.6088 163.464 16.1036V14.9401H165.067V18.3541Z" fill="#3E3E59"/>
<path d="M169.421 20.0688H171.817V17.4662H174.049V20.0688H176.445V13.2254H174.049V15.5372H171.817V13.2254H169.421V20.0688Z" fill="#3E3E59"/>
<path d="M178.095 13.2254V20.0688H180.206L182.827 16.4557V20.0688H185.224V13.2254H183.142L180.491 16.7466V13.2254H178.095Z" fill="#3E3E59"/>
<path d="M186.871 13.2254V20.0688H188.982L191.604 16.4557V20.0688H194V13.2254H191.918L189.267 16.7466V13.2254H186.871ZM191.589 9.71955C191.529 9.93388 191.409 10.1941 191.244 10.3625C190.989 10.6381 190.69 10.6687 190.435 10.6687C190.181 10.6687 189.881 10.6381 189.626 10.3625C189.462 10.1941 189.342 9.93388 189.282 9.71955L187.679 10.3013C187.874 11.0362 188.308 11.4648 188.698 11.7098C189.267 12.0772 189.911 12.1385 190.435 12.1385C190.96 12.1385 191.604 12.0772 192.173 11.7098C192.562 11.4648 192.996 11.0362 193.191 10.3013L191.589 9.71955Z" fill="#3E3E59"/>
<path d="M94.4493 27.2081V37.4196H97.0405V27.2081H94.4493Z" fill="#3E3E59"/>
<path d="M98.9199 37.4196H101.316V34.817H103.548V37.4196H105.944V30.5762H103.548V32.888H101.316V30.5762H98.9199V37.4196Z" fill="#3E3E59"/>
<path d="M107.594 30.5762V37.4196H112.177C112.851 37.4196 113.465 37.2052 113.809 36.8531C114.094 36.5622 114.289 36.0723 114.289 35.5365C114.289 35.0619 114.169 34.6945 113.809 34.3577C113.435 34.0055 113.001 33.9137 112.851 33.8831V33.8525C113.135 33.73 113.42 33.531 113.585 33.286C113.764 33.0104 113.869 32.5971 113.869 32.2603C113.869 31.8163 113.704 31.357 113.405 31.0661C112.941 30.6221 112.177 30.5762 111.697 30.5762H107.594ZM109.99 33.3013V32.0612H110.874C111.068 32.0612 111.353 32.0765 111.518 32.2296C111.623 32.3215 111.682 32.4899 111.682 32.6583C111.682 32.8114 111.623 33.041 111.503 33.1482C111.428 33.2095 111.278 33.3013 110.889 33.3013H109.99ZM109.99 35.9345V34.572H111.053C111.263 34.572 111.458 34.5414 111.653 34.7404C111.742 34.8323 111.832 34.9854 111.832 35.2456C111.832 35.4906 111.727 35.6437 111.638 35.7355C111.443 35.9192 111.203 35.9345 111.053 35.9345H109.99Z" fill="#3E3E59"/>
<path d="M122.621 34.1893C122.621 33.4238 122.501 32.2296 121.557 31.3111C120.763 30.5456 119.76 30.3772 118.981 30.3772C117.663 30.3772 116.794 30.8212 116.24 31.3723C115.656 31.9541 115.237 32.8726 115.237 34.0209C115.237 35.3222 115.791 36.1642 116.225 36.6082C117.049 37.4502 118.112 37.6492 118.996 37.6492C120.449 37.6492 121.228 37.1899 121.722 36.7C122.216 36.2101 122.426 35.6743 122.531 35.2915H120.239C120.134 35.5059 119.97 35.659 119.82 35.7508C119.52 35.9192 119.101 35.9345 119.041 35.9345C118.502 35.9345 118.202 35.7508 118.052 35.5977C117.768 35.3069 117.633 34.817 117.633 34.4495H122.621V34.1893ZM117.708 33.041C117.753 32.7349 117.903 32.4899 118.067 32.3062C118.322 32.0459 118.637 31.9388 119.041 31.9388C119.281 31.9388 119.715 31.9847 120.03 32.3062C120.209 32.4899 120.359 32.7808 120.419 33.041H117.708Z" fill="#3E3E59"/>
<path d="M129.067 35.215C128.633 35.5977 128.184 35.6743 127.839 35.6743C127.225 35.6743 126.836 35.3987 126.611 35.1538C126.326 34.8323 126.192 34.3883 126.192 34.0055C126.192 33.6075 126.326 33.1635 126.656 32.8267C126.895 32.5818 127.255 32.3521 127.824 32.3521C128.333 32.3521 128.753 32.5665 129.067 32.7961V30.7446C128.468 30.4384 127.929 30.3619 127.51 30.3619C126.371 30.3619 125.443 30.7905 124.814 31.4029C124.14 32.0765 123.735 33.041 123.735 34.0515C123.735 35.0619 124.14 35.9805 124.769 36.6082C125.248 37.0828 126.102 37.6492 127.405 37.6492C127.899 37.6492 128.423 37.588 129.067 37.2665V35.215Z" fill="#3E3E59"/>
<path d="M131.489 37.4196H133.886V32.5818H135.623V30.5762H129.752V32.5818H131.489V37.4196Z" fill="#3E3E59"/>
<path d="M136.598 30.5762V37.4196H138.71L141.331 33.8065V37.4196H143.728V30.5762H141.646L138.995 34.0974V30.5762H136.598Z" fill="#3E3E59"/>
<path d="M145.374 37.4196H151.231V39.4098H153.328V35.4906H152.219V30.5762H149.823V35.4906H147.771V30.5762H145.374V37.4196Z" fill="#3E3E59"/>
<path d="M154.297 30.5762V37.4196H156.693V30.5762H154.297ZM154.147 27.7286C154.147 28.4941 154.746 29.1065 155.495 29.1065C156.244 29.1065 156.843 28.4941 156.843 27.7286C156.843 26.9632 156.244 26.3508 155.495 26.3508C154.746 26.3508 154.147 26.9632 154.147 27.7286Z" fill="#3E3E59"/>
<path d="M158.319 30.5762V37.4196H160.431L163.052 33.8065V37.4196H165.449V30.5762H163.367L160.716 34.0974V30.5762H158.319ZM163.037 27.0703C162.977 27.2847 162.857 27.5449 162.693 27.7133C162.438 27.9889 162.138 28.0195 161.884 28.0195C161.629 28.0195 161.33 27.9889 161.075 27.7133C160.91 27.5449 160.79 27.2847 160.731 27.0703L159.128 27.6521C159.323 28.387 159.757 28.8156 160.146 29.0606C160.716 29.428 161.36 29.4892 161.884 29.4892C162.408 29.4892 163.052 29.428 163.621 29.0606C164.011 28.8156 164.445 28.387 164.64 27.6521L163.037 27.0703Z" fill="#3E3E59"/>
<path d="M167.095 37.4196H169.492V34.817H171.723V37.4196H174.12V30.5762H171.723V32.888H169.492V30.5762H167.095V37.4196Z" fill="#3E3E59"/>
<path d="M175.769 30.5762V37.4196H177.881L180.502 33.8065V37.4196H182.898V30.5762H180.816L178.165 34.0974V30.5762H175.769Z" fill="#3E3E59"/>
<path d="M184.545 30.5762V37.4196H186.657L189.278 33.8065V37.4196H191.674V30.5762H189.592L186.941 34.0974V30.5762H184.545ZM189.263 27.0703C189.203 27.2847 189.083 27.5449 188.918 27.7133C188.664 27.9889 188.364 28.0195 188.11 28.0195C187.855 28.0195 187.555 27.9889 187.301 27.7133C187.136 27.5449 187.016 27.2847 186.956 27.0703L185.354 27.6521C185.548 28.387 185.983 28.8156 186.372 29.0606C186.941 29.428 187.585 29.4892 188.11 29.4892C188.634 29.4892 189.278 29.428 189.847 29.0606C190.236 28.8156 190.671 28.387 190.866 27.6521L189.263 27.0703Z" fill="#3E3E59"/>
<path d="M94.4493 54.7704H97.9841C99.1823 54.7704 100.381 54.6479 101.174 53.8518C101.714 53.3006 101.998 52.5046 101.998 51.6778C101.998 50.8205 101.699 50.0703 101.234 49.5651C100.485 48.769 99.3471 48.57 98.074 48.57H97.0555V46.8094H100.95V44.5589H94.4493V54.7704ZM97.0555 52.7036V50.5909H97.9541C98.2837 50.5909 98.7629 50.6062 99.0625 50.8664C99.2273 51.0195 99.3621 51.2798 99.3621 51.6319C99.3621 51.9381 99.2572 52.183 99.1074 52.3515C98.7929 52.6883 98.2387 52.7036 97.9541 52.7036H97.0555Z" fill="#3E3E59"/>
<path d="M108.607 48.5853C108.323 48.2638 107.679 47.6974 106.6 47.6974C105.642 47.6974 104.758 48.0801 104.189 48.6619C103.65 49.213 103.155 50.1163 103.155 51.4023C103.155 52.428 103.47 53.2088 104.114 53.913C104.923 54.7857 105.806 55 106.525 55C107.184 55 108.053 54.801 108.607 54.0202V54.7704H111.004V47.927H108.607V48.5853ZM107.139 49.7795C107.649 49.7795 107.993 50.0091 108.218 50.2234C108.592 50.5909 108.682 51.0195 108.682 51.341C108.682 51.8922 108.442 52.229 108.233 52.4433C107.933 52.7495 107.544 52.9179 107.154 52.9179C106.75 52.9179 106.331 52.7036 106.076 52.4586C105.776 52.1677 105.612 51.7391 105.612 51.341C105.612 50.9889 105.761 50.5449 106.091 50.2234C106.435 49.8866 106.84 49.7795 107.139 49.7795Z" fill="#3E3E59"/>
<path d="M112.654 54.7704H115.051V52.1677H117.283V54.7704H119.679V47.927H117.283V50.2387H115.051V47.927H112.654V54.7704Z" fill="#3E3E59"/>
<path d="M121.328 54.7704H123.725V51.7391L125.911 54.7704H129.012L125.986 51.142L128.757 47.927H125.747L123.725 50.7286V47.927H121.328V54.7704Z" fill="#3E3E59"/>
<path d="M25.7066 52.393L58.9452 32.9688H73.8623L56.058 63.9991H19.9683L25.7066 52.393Z" fill="#8B766C"/>
<path d="M25.8264 11.5947L59.0772 31L73.9998 31L56.189 -6.53427e-07L20.0859 -3.8147e-06L25.8264 11.5947Z" fill="#E0D6D2"/>
<path d="M56.5391 32.0009L26.7049 49.2131L26.7049 15.0312L56.5391 32.0009Z" fill="#108064"/>
<path d="M24.4609 13.5938L17.9713 1L0 32L17.9713 63L24.4609 50.4062V13.5938Z" fill="#E0D6D2"/>
</svg>
