<svg xmlns="http://www.w3.org/2000/svg" fill="none" viewBox="315 530 2839 1037">
	<style>
		.s0 { fill: #307fc3;stroke: #ffffff;stroke-miterlimit:100;stroke-width: 4.2 } 
		.s1 { fill: #307fc3;stroke: #000000;stroke-miterlimit:100;stroke-width: .1 } 
		.s2 { fill: #feda3b;stroke: #ffffff;stroke-miterlimit:100;stroke-width: 4.2 } 
	</style>
		<path id="Object 3" class="s0" d="m626.8 1283.2h21.7c20.1 0 32.2-4.1 37-12.6 4-8.6 6.4-44.1 6.4-107.3v-172.2c0-10.6-1.6-45.3-4.8-103.5q-27.7-2.6-101.3-2.6-106.1 0-142.3 2.6c-1.6 30.9-2.4 62-2.4 93.2v188.7c0 15 0.8 32.6 1.6 52.9l1.6 34.6c0 11.8 4 19.2 11.3 22.1 8 2.9 16.1 4.1 24.9 4.1h21.7v20c-25.7-1.8-52.2-2.4-79.6-2.4-26.5 0-61.9 0.6-106.1 2.4v-20h20.1c23.3 0 36.2-4.1 40.2-12.6 3.2-8.6 4.8-42.4 4.8-101.1v-188.7c0-52.3-1.6-82.9-5.6-91.4-3.2-8.5-15.3-12.6-36.2-12.6h-23.3v-20q202.6 2.6 265.3 2.6 39.8 0 233.9-2.6v20h-24.1c-23.3 0-36.2 4.7-37.8 14.1-1.6 9.4-3.2 42.9-3.2 100.2v173.7c0 61.4 1.6 96.7 4.8 105.5 3.3 8.5 15.3 12.9 36.2 12.9h24.1v20c-25.7-1.8-56.2-2.4-91.6-2.4-36.2 0-69.1 0.6-97.3 2.4z"/>
		<path id="Object 4" fill-rule="evenodd" class="s0" d="m954 1283.2h18.5c12.9 0 21.7-1.5 27.3-4.1 4.9-2.9 8.1-6.8 8.9-10.9 1.6-4.1 2.4-16.4 4-36.7-18.5 0.9-32.9 1.4-43.4 1.4-59.5 0-105.3-13.8-138.3-41.7-32.9-27.6-49.8-62-49.8-102.8q0-67.9 55.4-118.2c37-33.5 83.7-50.2 141.5-50.2 10.5 0 22.6 0.5 34.6 2-0.8-17.9-2.4-28.5-2.4-32.3-0.8-3.5-3.2-6.8-7.2-9.1-4.1-2.7-12.9-3.8-26.6-3.8h-22.5v-20c20.9 1.7 47.5 2.6 81.2 2.6 44.2 0 75.6-0.9 94.9-2.6v20h-21.7c-16.1 0-26.5 2-30.6 6.1-4 4.4-6.4 14.4-6.4 30.6 0 2.1 0.8 5 0.8 8.8 17.7-1.2 32.2-1.5 43.4-1.5 57.1 0 102.9 13.6 136.7 40.9 33.8 27.3 50.6 62 50.6 103.4 0 45.6-18.5 85.3-55.4 118.5-37 33.5-83.6 50.2-141.5 50.2q-15.7 0-33.8-2.6c0 23.2 1.6 37.9 6.4 43.5 4.1 5.9 14.5 8.5 31.4 8.5h20.1v20c-23.3-1.8-52.3-2.4-86-2.4-37.8 0-67.6 0.6-90.1 2.4zm58.7-337.1c-12.9-1.8-23.3-2.9-32.9-2.9-46.7 0-80.4 12-100.5 36.1-20.9 24.1-30.6 55.8-30.6 95.2 0 43.5 12.9 77.3 38.6 101.1 25.7 23.8 56.3 35.6 90.8 35.6 10.5 0 21.7-1.2 34.6-3.5zm59.5 0.5v260.7c11.3 1.8 22.5 2.7 32.2 2.7 46.6 0 80.4-12.1 100.5-36.2 20.9-23.8 30.5-55.5 30.5-94.9 0-34.7-7.2-61.4-21.7-80.5q-21.7-28.7-48.2-42.3c-17.7-9.2-37.8-13.6-60.3-13.6-9.7 0-20.9 1.2-33 4.1z"/>
		<path id="Object 5" class="s0" d="m1486.2 885.6c-2.4 31.1-4 64.3-4 99v178.7c0 66.4 1.6 103.2 5.6 109.9 3.3 6.8 15.3 10 35.4 10h24.1v20c-36.9-1.8-69.1-2.4-94.8-2.4-26.6 0-57.9 0.6-94.9 2.4v-20h27.3q20.5 0 26.6-5.3c4.8-3.8 7.2-10.9 8-21.4 2.4-24.7 3.2-56.2 3.2-95v-178.9q0-52.9-2.4-97h-32.1c-52.3 0-80.4 1.2-86.1 3.5-4.8 2.4-8.8 11.8-10.4 27.9l-4 42h-20.1l0.8-37.3c0-15-1.6-36.4-4.1-64.9 114.2 1.7 180.9 2.6 201 2.6l175.3-2.6q-6 53.3-7.2 102.2h-19.3l-3.3-40.8c-1.6-14.4-3.2-22.6-5.6-25.3-2.4-2.6-7.2-4.4-15.3-5-23.3-1.7-49.8-2.3-79.5-2.3z"/>
		<path id="Object 6" class="s0" d="m1993.5 969.9l-2.4-55.8c-19.3-12.4-38.6-21.5-59.5-27.6-20.1-5.9-41.8-8.9-64.3-8.9-56.3 0-102.1 17.1-136.7 51.5-33.7 34.4-51.4 80.2-51.4 137.8 0 40.3 8.8 76.1 26.5 107.9 17.7 31.4 41.8 56.7 74 74.9 32.1 18.5 65.9 27.6 102.1 27.6 28.1 0 56.3-3.2 83.6-9.7 20.9-5 41-15 61.9-30.5l7.2 6.4c-4.8 9.4-8.8 19.4-12.8 29.1-24.2 12.1-49.1 21.5-74 27.6-25.7 6.2-50.6 9.2-75.6 9.2-52.2 0-98-9.7-137.4-29.7-39.4-20-69.2-47.3-90.1-82.3-21.7-35-32.1-74.7-32.1-118.7 0-44.1 10.4-83.8 32.1-118.5 20.9-34.9 51.5-61.7 90.1-80.8 39.4-19.4 86.8-28.8 143.9-28.8 29.7 0 64.3 4.7 104.5 14.4 20.1 4.7 36.2 7.9 48.2 10.3-9.6 22.3-15.3 53.8-16.9 94.6z"/>
		<path id="Object 7" fill-rule="evenodd" class="s0" d="m384 1409.6l16.9-6.2h3.2v31.2c3.2-3 7.3-4.5 11.3-4.5 5.6 0 10.4 2.4 13.6 7.7 4.1 5.3 6.5 11.7 6.5 19.4 0 7.3-2.4 13.5-6.5 19.1-4 5.3-8.8 7.9-13.6 7.9-4.8 0-8.1-1.7-11.3-5v15.9c0 3.5 0 6.2 0.8 7 0 1.2 0.8 1.8 2.4 2.1 0.8 0.6 4.1 0.9 8.1 0.9v1.8h-31.4v-1.8c4.9 0 7.3-0.6 8.1-1.8 1.6-0.9 2.4-3.8 2.4-8.2v-15.9c-3.2 3.3-7.3 5-11.3 5q-8.4 0-14.4-7.9c-4.1-5.6-5.7-12.1-5.7-19.7 0-7.1 1.6-13.2 5.7-18.5q4.8-8 14.4-8c4 0 8.1 1.8 11.3 5.3v-13.8c0-4.7-0.8-7.6-1.6-9.1 0-1.2-1.6-1.7-3.2-1.7-1.7 0-2.5 0.2-4.1 0.8zm10.5 30.9c-2.4-4.4-5.6-6.8-9.7-6.8-3.2 0-5.6 2.1-8 6.5-1.6 4.1-3.2 10.3-3.2 18.2 0 7.4 1.6 12.9 3.2 16.5 2.4 3.8 4.8 5.6 8 5.6 4.1 0 6.5-1.8 9.7-5zm9.6 33.8c0.8 2 1.6 3.5 4.1 4.7 1.6 0.8 3.2 1.4 4.8 1.4 3.2 0 5.6-1.7 8-5.3 2.4-3.8 3.2-9.4 3.2-17 0-16.2-4-24.4-11.2-24.4-2.4 0-5.7 1.5-8.9 4.7z"/>
		<path id="Object 8" fill-rule="evenodd" class="s0" d="m543.2 1430.1c8.9 0 15.3 2.7 20.9 8.6 4.8 5.3 6.4 10.8 6.4 17.3 0 4.7-0.8 9.4-3.2 14.1-2.4 4.7-6.4 8.2-10.4 10.6q-6.1 3.5-14.5 3.5c-8.8 0-15.3-3.2-20.9-9.1-4-5.3-6.4-11.2-6.4-17.6 0-4.7 1.6-9.1 4-13.8 3.2-4.7 6.4-8.3 10.4-10.3 4.1-2.4 8.9-3.3 13.7-3.3zm-1.6 3.6q-3.6 0-7.2 1.7-3.7 1.8-4.9 6.2c-1.6 2.9-2.4 6.8-2.4 11.2q0 11.4 4.9 19.4c3.2 5.3 8 7.9 12.8 7.9 4 0 8.1-1.5 10.5-4.4 2.4-2.9 4-7.9 4-15.3 0-9.1-2.4-16.1-6.4-21.4-3.3-3.6-7.3-5.3-11.3-5.3z"/>
		<path id="Object 9" class="s0" d="m667.8 1454.2h24.9v-10.8c0-3.3-0.8-5.3-0.8-6.2q0-1.8-2.4-2.6c-0.8-0.9-3.2-1.2-5.6-1.2v-1.8h27.3v1.8c-2.4 0-4 0.3-5.6 0.9-0.8 0.5-1.6 1.1-2.4 2.3 0 0.9 0 3.2 0 6.8v27.3c0 3.2 0 5.3 0 6.5 0.8 0.9 0.8 1.7 2.4 2.3 0.8 0.9 3.2 1.2 5.6 1.2v2.1h-27.3v-2.1c3.2 0 5.6-0.6 6.4-1.8 1.6-1.1 2.4-3.8 2.4-8.2v-12.6h-24.9v12.6c0 3.2 0 5.3 0 6.5 0.8 0.9 1.6 1.7 2.4 2.3 1.6 0.9 3.2 1.2 6.5 1.2v2.1h-28.2v-2.1q6.1 0 7.3-1.8c0.8-1.4 1.6-4.1 1.6-8.2v-27.3c0-3.3 0-5.3-0.8-6.5 0-0.9-0.8-1.8-2.4-2.3-0.9-0.9-3.3-1.2-5.7-1.2v-1.8h28.2v1.8c-3.3 0-4.9 0.3-5.7 0.9-1.6 0.5-2.4 1.1-2.4 2.3-0.8 0.9-0.8 3.2-0.8 6.8z"/>
		<path id="Object 10" fill-rule="evenodd" class="s0" d="m796.5 1431.6h50.6v1.8c-2.4 0-4.8 0.3-5.6 0.9q-1.2 0.8-2.4 1.7c0 0.9-0.8 3.3-0.8 7.4v25.5c0 5.3 0.8 8.6 1.6 9.7 0.8 1.2 3.2 1.8 7.2 2.1v16.2h-2.4q0-4.9-2.4-8c-1.6-2.3-4-4.1-6.5-5-2.4-0.9-6.4-1.1-12-1.1h-14.5c-4.8 0-8 0.2-11.2 0.8-2.5 0.9-4.9 2.4-6.5 4.7-1.6 2.4-2.4 5-3.2 8.6h-1.6v-16.2c3.2-0.3 6.4-1.5 8.8-3.8 3.3-2.4 5.7-6.8 7.3-13.5 2.4-6.8 3.2-13.6 3.2-20 0-6.5-3.2-9.7-9.6-10zm13.6 3.5v2.9c0 18.6-3.2 32.1-10.4 40.9h20.9c4 0 5.6-0.3 6.4-0.9 0.8-0.6 0.8-2.6 0.8-6.5v-36.4z"/>
		<path id="Object 11" fill-rule="evenodd" class="s0" d="m952.4 1430.1c8.9 0 16.1 2.7 20.9 8.6 4.8 5.3 7.3 10.8 7.3 17.3 0 4.7-1.7 9.4-4.1 14.1-2.4 4.7-5.6 8.2-10.4 10.6q-6 3.5-14.5 3.5c-8 0-15.3-3.2-20.1-9.1-4.8-5.3-6.4-11.2-6.4-17.6 0-4.7 0.8-9.1 4-13.8 2.4-4.7 5.6-8.3 9.6-10.3 4.9-2.4 8.9-3.3 13.7-3.3zm-1.6 3.6c-2.4 0-4.8 0.6-6.4 1.7-2.4 1.2-4 3.3-5.7 6.2-1.6 2.9-2.4 6.8-2.4 11.2q0 11.4 4.9 19.4c4 5.3 8 7.9 13.6 7.9q6.1 0 9.7-4.4c2.4-2.9 4-7.9 4-15.3 0-9.1-2.4-16.1-6.4-21.4-3.3-3.6-6.5-5.3-11.3-5.3z"/>
		<path id="Object 12" fill-rule="evenodd" class="s0" d="m1095.5 1455.7c10.5 1.8 15.3 6.2 15.3 12.9 0 4.7-1.6 8.3-6.4 10.6-4.1 2.4-10.5 3.6-17.7 3.6h-29v-2.1c4.1 0 6.5-0.6 7.3-2.1 0.8-1.1 1.6-3.8 1.6-7.9v-27.3c0-4.1 0-6.5-0.8-7.1 0-0.9-0.8-1.5-1.6-2-1.6-0.6-3.3-0.9-6.5-0.9v-1.8h26.6c5.6 0 9.6 0.3 12.8 0.9 3.2 0.9 5.7 2.1 7.3 4.1 2.4 2.1 3.2 4.7 3.2 7.7q0 8.8-12.1 11.4zm-18.5-1.5c1.6 0 3.2 0 3.2 0 5.7 0 9.7-0.8 12.9-2.9 2.4-1.8 3.2-4.1 3.2-7 0-3.3-0.8-5.6-3.2-7.1-3.2-1.5-7.2-2.1-12.9-2.1h-3.2zm0 23.8q3.6 0.9 7.3 0.9c4.8 0 8.8-0.9 11.2-2.9 2.4-1.8 4-4.4 4-7.4q0-5.2-4.8-7.9c-3.2-1.8-8-2.6-13.7-2.6-0.8 0-2.4 0-4 0z"/>
		<path id="Object 13" fill-rule="evenodd" class="s0" d="m1220.9 1475.4c-6.4 3.8-9.6 6.2-11.2 6.8-2.4 1.1-4.8 1.4-7.3 1.4q-6 0-9.6-3.5c-2.4-2.3-4-5.6-4-9.7 0-2.3 0.8-4.4 1.6-6.5 2.4-2.3 4.8-4.7 9.6-7 4.1-2.4 11.3-5 20.9-8.2v-2.1c0-5-0.8-8.5-3.2-10.3-1.6-2-4-2.9-7.2-2.9-3.2 0-4.8 0.6-6.4 1.7q-2.5 2.2-2.5 4.5v3.2c0 1.7-0.8 3.2-1.6 4.1-0.8 0.9-2.4 1.5-4 1.5-1.6 0-2.4-0.6-3.2-1.5-1.6-1.2-1.6-2.4-1.6-4.1 0-3.2 1.6-6.2 5.6-8.8 3.2-2.7 8.9-3.9 15.3-3.9 4.8 0 8.8 0.6 12.1 2.1 3.2 1.2 4.8 2.9 5.6 5.6 0.8 1.5 1.6 4.7 1.6 9.7 0 5 0 25.3 0 26.4 0 0.9 0.8 1.8 0.8 2.1 0.8 0.3 1.6 0.6 1.6 0.6 0.8 0 1.6 0 2.4-0.3 0.8-0.6 2.4-2.1 4.8-4.1v2.9c-4.8 5.6-9.6 8.5-13.6 8.5-1.6 0-3.2-0.6-4.9-2-0.8-1.2-1.6-3.3-1.6-6.2zm0-3.8v-19.4c-6.4 2-10.4 3.8-12 4.7-3.2 1.5-5.7 3.2-7.3 5-1.6 2-2.4 3.8-2.4 5.9 0 2.9 0.8 5 3.2 6.7 1.7 1.8 3.3 2.7 5.7 2.7 3.2 0 7.2-1.8 12.8-5.6z"/>
		<path id="Object 14" fill-rule="evenodd" class="s0" d="m1423.5 1446c4.9-10.6 12.9-15.9 25-15.9 7.2 0 14.4 2.7 19.2 8 4.9 5.3 7.3 11.2 7.3 18.2 0 7.1-2.4 13.5-7.3 19.1-5.6 5.9-12 8.8-20.9 8.8-8.8 0-16-3.2-20.9-10-4-6.4-6.4-14.7-6.4-24.1 0-7.3 0.8-14.1 3.2-20.5 2.4-6.2 4.8-11.2 8.1-14.1 2.4-3.3 5.6-5.6 8.8-7.1 4-1.5 9.7-2.1 18.5-2.4 6.4 0 10.5-0.2 12.1-0.2 0.8-0.3 2.4-1.2 3.2-2.4h3.2c-1.6 3.5-3.2 6.2-5.6 7.9-1.6 1.5-4.1 2.7-6.5 3-1.6 0.6-5.6 0.9-12 1.2-5.7 0-10.5 0.5-12.9 1.1-2.4 0.9-4.8 2.4-7.2 5-2.4 2.7-4.9 6.2-6.5 10.6-0.8 4.1-1.6 8.8-2.4 13.8zm22.5-12.3c-4 0-8 1.7-10.4 4.7-2.4 3.2-4 7.9-4 14.7 0 8.8 1.6 15.5 5.6 20.2q4.8 7.1 12.1 7.1c4.8 0 8-1.8 10.4-5 2.4-3.2 4-8.2 4-15.3 0-7.6-1.6-13.8-4.8-18.8-3.2-5-8-7.6-12.9-7.6z"/>
		<path id="Object 15" class="s0" d="m1573.9 1430.1v40.9c0 3.2 0 5.3 0.8 6.5 0.8 1.1 1.6 1.7 2.4 2.3 0.8 0.6 2.4 0.9 5.6 0.9v2.1h-28.1v-2.1c3.2 0 4.8-0.3 5.6-0.9 0.8-0.3 1.6-1.2 2.4-2.3 0.8-1.2 0.8-3.3 0.8-6.5v-19.7c0-5.6 0-9.1-0.8-10.9 0-1.1-0.8-1.7-0.8-2.3-0.8-0.6-1.6-0.6-2.4-0.6-1.6 0-3.2 0.3-4.8 0.6l-0.8-1.8 17.7-6.2zm-4.9-26.7c1.6 0 3.2 0.6 4.1 1.5 1.6 1.1 1.6 2.6 1.6 4.1 0 1.5 0 2.9-1.6 4.1-0.9 0.9-2.5 1.5-4.1 1.5-2.4 0-4-0.6-4.8-1.5-1.6-1.2-1.6-2.6-1.6-4.1 0-1.5 0-3 1.6-4.1 0.8-0.9 2.4-1.5 4.8-1.5z"/>
		<path id="Object 16" fill-rule="evenodd" class="s0" d="m1655.9 1436.6l17.7-6.5h2.4v11.8c3.2-4.4 6.4-7.3 8.8-9.1q4.8-2.7 9.7-2.7c5.6 0 10.4 1.8 14.4 5.9 4.9 5 7.3 11.2 7.3 19.1 0 8.8-3.2 16.2-8.9 22.1-4.8 4.7-10.4 7-17.7 7-3.2 0-5.6-0.3-8-1.2-1.6-0.5-3.2-1.7-5.6-3.5v15.6c0 3.5 0.8 5.9 0.8 6.8 0.8 0.8 1.6 1.7 2.4 2.3 1.6 0.6 3.2 0.9 6.4 0.9v1.8h-29.7v-1.8h1.6c2.4 0 4-0.6 5.6-1.2 0.8-0.6 1.6-1.2 1.6-2 0.8-0.9 0.8-3.3 0.8-7.1 0-3.5 0-53.8 0-54.7-0.8-0.8-0.8-1.4-1.6-2-0.8-0.3-1.6-0.6-3.2-0.6-0.8 0-2.4 0.3-4 0.9zm20.1 8.8v19.1c0 4.1 0 6.8 0.8 8.2 0.8 2.1 1.6 3.8 4 5.6 2.4 1.8 5.6 2.4 8.8 2.4 4.1 0 7.3-1.5 10.5-4.2 3.2-3.8 4.8-9.4 4.8-16.1 0-8-1.6-13.8-5.6-18.2-3.2-3-5.6-4.4-9.7-4.4-2.4 0-4 0.5-5.6 1.4-1.6 0.6-4 2.7-8 6.2z"/>
		<path id="Object 17" class="s0" d="m1820.7 1482.8v-2.1c4-0.3 6.4-1.5 8-2.9 0.8-1.5 1.6-4.5 1.6-9.2v-11.7c-3.2 0-4.8 0.3-5.6 0.9q-1.2 0.9-4.8 6.1l-10.5 18.9h-16.9v-2.1c2.5-0.3 4.9-0.9 6.5-2.4 1.6-1.1 3.2-4.1 5.6-8.8 4-7 7.2-11.1 8.8-12.6 1.7-1.5 4.1-2.4 5.7-2.4-2.4-1.1-4.9-4.1-7.3-9.1-0.8-2.6-1.6-4.1-2.4-5-0.8-0.6-1.6-1.1-2.4-1.1-0.8 0-1.6 0.3-3.2 0.8-1.6 0.6-3.2 0.9-4 0.9-2.4 0-3.2-0.3-4-1.4-1.7-0.9-1.7-2.1-1.7-3.6 0-1.7 0.9-2.9 2.5-3.8 0.8-0.9 3.2-1.2 4.8-1.2 3.2 0 6.4 0.9 8 2.7 2.4 1.7 4 5 6.5 9.7 1.6 4.4 3.2 7 5.6 8.5 2.4 1.2 4.8 2.1 8.8 2.1v-8.6c0-4.7-0.8-7.9-1.6-9.4-1.6-1.4-4-2.3-8-2.6v-1.8h28.9v1.8q-6 0.9-7.2 2.6c-1.6 1.5-1.6 4.7-1.6 9.4v8.6c3.2 0 5.6-0.9 8-2.1 2.4-1.5 4-4.1 5.6-8.5q3.7-8.8 7.3-10.6 3.6-1.8 7.2-1.8c2.4 0 4 0.3 5.6 1.5 0.8 0.9 1.7 2.1 1.7 3.5 0 1.5 0 2.7-1.7 3.6-0.8 1.1-1.6 1.4-3.2 1.4q-2.4 0-4.8-0.9c-1.6-0.5-2.4-0.8-3.2-0.8-0.8 0-1.6 0.5-2.4 1.1-0.8 0.9-1.6 2.4-2.4 5-2.4 5-4.9 8-7.3 9.1 1.6 0 4 0.9 5.7 2.4 1.6 1.8 4.8 5.9 8.8 12.3 2.4 4.7 4 8 5.6 9.1 1.6 1.5 4 2.1 6.5 2.4v2.1h-16.9l-10.5-18.9q-3.6-5.2-4.8-6.1-1.2-0.9-4.8-0.9v11.7c0 5.3 0 8.6 1.6 9.7 0.8 1.2 3.2 1.8 7.2 2.4v2.1z"/>
		<path id="Object 18" fill-rule="evenodd" class="s0" d="m1986.3 1475.4c-5.6 3.8-9.7 6.2-11.3 6.8-2.4 1.1-4.8 1.4-7.2 1.4q-6 0-9.6-3.5c-2.5-2.3-4.1-5.6-4.1-9.7 0-2.3 0.8-4.4 2.4-6.5 1.7-2.3 4.1-4.7 8.9-7 4-2.4 11.2-5 20.9-8.2v-2.1c0-5-0.8-8.5-2.4-10.3-2.4-2-4.8-2.9-8.1-2.9-3.2 0-4.8 0.6-6.4 1.7q-2.4 2.2-2.4 4.5v3.2c0 1.7 0 3.2-1.6 4.1-0.8 0.9-1.6 1.5-3.2 1.5-1.6 0-3.2-0.6-4-1.5-0.8-1.2-1.7-2.4-1.7-4.1 0-3.2 1.7-6.2 5.7-8.8 3.2-2.7 8.8-3.9 15.2-3.9 4.9 0 9.7 0.6 12.9 2.1 2.4 1.2 4 2.9 4.8 5.6 0.8 1.5 1.6 4.7 1.6 9.7 0 5 0 25.3 0 26.4 0 0.9 0.8 1.8 0.8 2.1 0.9 0.3 1.7 0.6 2.5 0.6 0 0 0.8 0 1.6-0.3 0.8-0.6 2.4-2.1 4.8-4.1v2.9c-4.8 5.6-8.9 8.5-13.7 8.5-1.6 0-3.2-0.6-4.8-2-0.8-1.2-1.6-3.3-1.6-6.2zm0-3.8v-19.4c-6.4 2-10.5 3.8-12.1 4.7-3.2 1.5-5.6 3.2-7.2 5-1.6 2-2.4 3.8-2.4 5.9 0 2.9 0.8 5 3.2 6.7 1.6 1.8 4 2.7 5.6 2.7 3.2 0 8.1-1.8 12.9-5.6z"/>
		<path id="Object 19" class="s1" d="m2605.3 1566.8h9.7 9.6 9.7 9.6c246.8-5.6 453.4-184.3 499.3-419.4h-50.7-148.7l-143.9-142.2 143.1-141.7h149.5l-142.3 141.4 128.7 128.4 66.7-0.3q7.2-41.4 7.2-84.6c0-286.3-232.3-518.4-518.5-518.4-223.5 0-414.1 141.6-486.4 340 126.2 0 368.2 0 368.2 0v63.8c0 0-254.9 0-387.5 0l-12.9 74.3v3.6 3.5 3.5 3.8 3.6 3.5 3.5 3.5 3.6 3.5 3.5c104.5 0 314.4 0 314.4 0v64.7c0 0-207.4 0-310.4 0 5.7 39.9 14.5 78.7 28.2 115.5h368.2v64h-339.3c82.8 156.1 242 265.4 428.5 275.4z"/>
		<path id="Object 20" class="s2" d="m2598.9 1007.2h149.5l143.1 142-143.9 141.9-148.7 0.3h-65.9v-14.4h79.6l127.8-128.4z"/>
</svg>