<svg aria-hidden="true" style="position: absolute; width: 0; height: 0; overflow: hidden;" version="1.1" xmlns="http://www.w3.org/2000/svg" xmlns:xlink="http://www.w3.org/1999/xlink">
  <defs>
    <symbol id="icon-done-check" viewBox="0 0 24 24">
      <path
        id="Path"
        d="M19.5455 7L9.54545 17L5 12.4545"
        stroke-width="2"
        stroke-linecap="round"
        stroke-linejoin="round"
      />
    </symbol>
    <symbol id="icon-circle" viewBox="0 0 24 24">
      <circle cx="12" cy="12" r="4" />
    </symbol>
    <symbol id="icon-close" viewBox="0 0 24 24">
      <rect width="16" height="2"
        x="4" y="11" rx="1"
        transform-origin="center"
        transform="rotate(45)"/>
      <rect width="16" height="2"
        x="4" y="11" rx="1"
        transform-origin="center"
        transform="rotate(-45)"/>
    </symbol>
    <symbol id="icon-warning" viewBox="0 0 24 24">
      <path d="M12 13.12V9.38" stroke="#323232" stroke-width="2" stroke-linecap="round" stroke-linejoin="round"/>
      <path d="M11.999 16.125C11.861 16.125 11.749 16.237 11.75 16.375C11.75 16.513 11.862 16.625 12 16.625C12.138 16.625 12.25 16.513 12.25 16.375C12.25 16.237 12.138 16.125 11.999 16.125" stroke="#323232" stroke-width="2" stroke-linecap="round" stroke-linejoin="round"/>
      <path fill-rule="evenodd" clip-rule="evenodd" d="M14.029 4.139L21.688 17.543C22.578 19.101 21.453 21.04 19.659 21.04H4.34101C2.54601 21.04 1.42101 19.101 2.31201 17.543L9.97101 4.139C10.868 2.568 13.132 2.568 14.029 4.139Z" stroke="#323232" stroke-width="2" stroke-linecap="round" stroke-linejoin="round"/>
    </symbol>
    <symbol id="icon-world" viewBox="0 0 24 24">
      <path 
        d="M12 3C16.982 3 21 7.018 21 12C21 16.982 16.982 21 12 21"
        stroke="#282828"
        stroke-width="2"
        stroke-linecap="round"
        stroke-linejoin="round"
      />
      <path
        d="M12 21C7.018 21 3 16.982 3 12C3 7.018 7.018 3 12 3"
        stroke="#282828"
        stroke-width="2"
        stroke-linecap="round"
        stroke-linejoin="round"
      />
      <path
        fill-rule="evenodd"
        clip-rule="evenodd"
        d="M10.168 4.06C7.27799 8.885 7.27799 15.116 10.168 19.941C11.014 21.354 12.987 21.354 13.833 19.941C16.723 15.116 16.723 8.885 13.833 4.06C12.986 2.647 11.014 2.647 10.168 4.06Z"
        stroke="#282828"
        stroke-width="2"
        stroke-linecap="round"
        stroke-linejoin="round"
      />
      <path
        d="M3 12H21"
        stroke="#282828"
        stroke-width="2"
        stroke-linecap="round"
        stroke-linejoin="round"
      />
    </symbol>
    <symbol id="icon-arrow-right" viewBox="0 0 24 24">
      <path
        d="M10.2661 16L13.7334 11.9516L10.2661 8.00002"
        stroke-width="2"
        stroke-linecap="round"
      />
    </symbol>
    <symbol id="icon-arrow-down" viewBox="0 0 24 24">
      <path
        d="M8 10.2664L12.0484 13.7337L16 10.2664" 
        stroke-width="2"
        stroke-linecap="round"
      />
    </symbol>
    <symbol id="icon-arrow-up" viewBox="0 0 24 24">
      <path
        d="M10.2664 16L13.7337 11.9516L10.2664 8.00003"
        stroke-width="2"
        stroke-linecap="round"
      />
    </symbol>
    <symbol id="icon-arrow-left" viewBox="0 0 24 24">
      <path
        id="Vector 1"
        d="M13.7336 16L10.2663 11.9516L13.7336 8.00003"
        stroke-width="2"
        stroke-linecap="round"
      />
    </symbol>
    <symbol id="icon-flag-ukraine" viewBox="0 0 24 24">
      <path
        d="M21.3333 3.33325H2.66667C1.95942 3.33325 1.28115 3.6142 0.781049 4.1143C0.280952 4.6144 0 5.29267 0 5.99992L0 11.9999H24V5.99992C24 5.29267 23.719 4.6144 23.219 4.1143C22.7189 3.6142 22.0406 3.33325 21.3333 3.33325Z"
        fill="#0057B8"
      />
      <path
        d="M24 18C24 18.7072 23.719 19.3855 23.219 19.8856C22.7189 20.3857 22.0406 20.6667 21.3333 20.6667H2.66667C1.95942 20.6667 1.28115 20.3857 0.781049 19.8856C0.280952 19.3855 0 18.7072 0 18V12H24V18Z"
        fill="#FFD700"
      />
    </symbol>
    <symbol id="icon-secondary-button-arrow" viewBox="0 0 24 24">
      <path id="Path" d="M19 12H5" stroke="currentColor" stroke-width="2" stroke-linecap="round" stroke-linejoin="round"/>
      <path id="Path_2" d="M14 17L19 12" stroke="currentColor" stroke-width="2" stroke-linecap="round" stroke-linejoin="round"/>
      <path id="Path_3" d="M14 7L19 12" stroke="currentColor" stroke-width="2" stroke-linecap="round" stroke-linejoin="round"/>
    </symbol>
    <symbol id="icon-location-tag" viewBox="0 0 24 24">
      <path id="Path" fill-rule="evenodd" clip-rule="evenodd" d="M12 13V13C10.343 13 9 11.657 9 10V10C9 8.343 10.343 7 12 7V7C13.657 7 15 8.343 15 10V10C15 11.657 13.657 13 12 13Z" stroke="#E0EAF9" stroke-width="2" stroke-linecap="round" stroke-linejoin="round"/>
      <path id="Path_2" fill-rule="evenodd" clip-rule="evenodd" d="M12 21C12 21 5 15.25 5 10C5 6.134 8.134 3 12 3C15.866 3 19 6.134 19 10C19 15.25 12 21 12 21Z" stroke="#E0EAF9" stroke-width="2" stroke-linecap="round" stroke-linejoin="round"/>
    </symbol>
    <symbol id="icon-phone" viewBox="0 0 24 24">
      <path id="Path" d="M9.75 3V4.6875C9.75 4.99781 10.002 5.25 10.3125 5.25H13.6875C13.998 5.25 14.25 4.99781 14.25 4.6875V3" stroke="#E0EAF9" stroke-linecap="round" stroke-linejoin="round"/>
      <path id="Path_2" d="M10.3125 17.625H13.6875" stroke="#E0EAF9" stroke-width="2" stroke-linecap="round" stroke-linejoin="round"/>
      <path id="Path_3" fill-rule="evenodd" clip-rule="evenodd" d="M8.625 3H15.375C16.6181 3 17.625 4.00687 17.625 5.25V18.75C17.625 19.9931 16.6181 21 15.375 21H8.625C7.38187 21 6.375 19.9931 6.375 18.75V5.25C6.375 4.00687 7.38187 3 8.625 3Z" stroke="#E0EAF9" stroke-width="2" stroke-linecap="round" stroke-linejoin="round"/>    </symbol>
    <symbol id="icon-twitter-new" viewBox="0 0 24 24">
      <path d="M17.114 17.7337H15.7614L6.9314 6.1896H8.3829L17.114 17.7337Z"/>
      <path fill-rule="evenodd" clip-rule="evenodd" d="M12 24C18.6274 24 24 18.6274 24 12C24 5.37258 18.6274 0 12 0C5.37258 0 0 5.37258 0 12C0 18.6274 5.37258 24 12 24ZM19.0591 4.80526H16.6181L12.5957 9.40325L9.11787 4.80526H4.08081L10.0993 12.6752L4.39517 19.1947H6.83769L11.2401 14.1643L15.0877 19.1947H20L13.7262 10.9005L19.0591 4.80526Z"/>
    </symbol>
    <symbol id="icon-facebook" viewBox="0 0 24 24">
      <path fill-rule="evenodd" clip-rule="evenodd" d="M12 24C18.6274 24 24 18.6274 24 12C24 5.37259 18.6274 0 12 0C5.37256 0 0 5.37259 0 12C0 18.6274 5.37256 24 12 24ZM13.4352 7.94807C13.4352 6.9818 13.6746 6.5437 14.5026 6.5437L15.6763 6.54677V4.10957C15.1639 4.03517 14.6481 3.9986 14.1319 4.00005C11.6685 4.00005 10.7856 5.37985 10.7856 7.9921V9.55104H9V12.1408H10.7856V20H13.436V12.1408H15.4224L15.6437 9.55104H13.4352V7.94807Z"/>
    </symbol>
    <symbol id="icon-telegram" viewBox="0 0 24 24">
      <path d="M12 0C5.373 0 0 5.373 0 12C0 18.627 5.373 24 12 24C18.627 24 24 18.627 24 12C24 5.373 18.627 0 12 0ZM17.894 8.221L15.924 17.501C15.779 18.159 15.387 18.319 14.84 18.009L11.84 15.799L10.394 17.193C10.254 17.373 10.037 17.488 9.794 17.488C9.792 17.488 9.791 17.488 9.789 17.488L10.002 14.434L15.562 9.412C15.802 9.199 15.508 9.078 15.189 9.291L8.32 13.617L5.36 12.693C4.72 12.49 4.702 12.053 5.495 11.739L17.061 7.281C17.599 7.085 18.067 7.409 17.893 8.222L17.894 8.221Z"/>
    </symbol>
    <symbol id="icon-linkedin" viewBox="0 0 24 24">
      <path d="M12 0C5.37188 0 0 5.37188 0 12C0 18.6281 5.37188 24 12 24C18.6281 24 24 18.6281 24 12C24 5.37188 18.6281 0 12 0ZM8.64375 17.0203H6.30469V9.53437H8.64375V17.0203ZM7.41094 8.59687H7.39219C6.54375 8.59687 5.99531 8.025 5.99531 7.29844C5.99531 6.55781 6.5625 6 7.425 6C8.2875 6 8.81719 6.55781 8.83594 7.29844C8.84062 8.02031 8.29219 8.59687 7.41094 8.59687ZM18 17.0203H15.3469V13.1484C15.3469 12.1359 14.9344 11.4422 14.0203 11.4422C13.3219 11.4422 12.9328 11.9109 12.7547 12.3609C12.6891 12.5203 12.6984 12.7453 12.6984 12.975V17.0203H10.0688C10.0688 17.0203 10.1016 10.1578 10.0688 9.53437H12.6984V10.7109C12.8531 10.1953 13.6922 9.46406 15.0328 9.46406C16.6969 9.46406 18 10.5422 18 12.8578V17.0203Z" />
    </symbol>
    <symbol id="icon-search" viewBox="0 0 24 24">
      <path id="Path" fill-rule="evenodd" clip-rule="evenodd" d="M18.934 11.467V11.467C18.934 15.591 15.591 18.934 11.467 18.934V18.934C7.343 18.934 4 15.591 4 11.467V11.467C4 7.343 7.343 4 11.467 4V4C15.591 4 18.934 7.343 18.934 11.467Z" stroke-width="2" stroke-linecap="round" stroke-linejoin="round"/>
      <path id="Path_2" d="M20 20L17 17" stroke-width="2" stroke-linecap="round" stroke-linejoin="round"/>
    </symbol>
    <symbol id="icon-file-pdf" viewBox="0 0 32 32">
      <path d="M26.313 18.421c-0.427-0.42-1.372-0.643-2.812-0.662-0.974-0.011-2.147 0.075-3.38 0.248-0.552-0.319-1.122-0.665-1.568-1.083-1.202-1.122-2.205-2.68-2.831-4.394 0.041-0.16 0.075-0.301 0.108-0.444 0 0 0.677-3.846 0.498-5.146-0.025-0.178-0.040-0.23-0.088-0.369l-0.059-0.151c-0.184-0.425-0.545-0.875-1.111-0.85l-0.341-0.011c-0.631 0-1.146 0.323-1.281 0.805-0.411 1.514 0.013 3.778 0.781 6.711l-0.197 0.478c-0.55 1.34-1.238 2.689-1.846 3.88l-0.079 0.155c-0.639 1.251-1.22 2.313-1.745 3.213l-0.543 0.287c-0.040 0.021-0.97 0.513-1.188 0.645-1.852 1.106-3.079 2.361-3.282 3.357-0.065 0.318-0.017 0.725 0.313 0.913l0.525 0.264c0.228 0.114 0.468 0.172 0.714 0.172 1.319 0 2.85-1.643 4.959-5.324 2.435-0.793 5.208-1.452 7.638-1.815 1.852 1.043 4.129 1.767 5.567 1.767 0.255 0 0.475-0.024 0.654-0.072 0.276-0.073 0.508-0.23 0.65-0.444 0.279-0.42 0.335-0.998 0.26-1.59-0.023-0.176-0.163-0.393-0.315-0.541zM6.614 25.439c0.241-0.658 1.192-1.958 2.6-3.111 0.088-0.072 0.306-0.276 0.506-0.466-1.472 2.348-2.458 3.283-3.106 3.577zM14.951 6.24c0.424 0 0.665 1.069 0.685 2.070s-0.214 1.705-0.505 2.225c-0.241-0.77-0.357-1.984-0.357-2.778 0 0-0.018-1.517 0.177-1.517v0zM12.464 19.922c0.295-0.529 0.603-1.086 0.917-1.677 0.765-1.447 1.249-2.58 1.609-3.511 0.716 1.303 1.608 2.41 2.656 3.297 0.131 0.111 0.269 0.222 0.415 0.333-2.132 0.422-3.974 0.935-5.596 1.558v0zM25.903 19.802c-0.13 0.081-0.502 0.128-0.741 0.128-0.772 0-1.727-0.353-3.066-0.927 0.515-0.038 0.986-0.057 1.409-0.057 0.774 0 1.004-0.003 1.761 0.19s0.767 0.585 0.637 0.667v0z"></path>
      <path d="M28.681 7.159c-0.694-0.947-1.662-2.053-2.724-3.116s-2.169-2.030-3.116-2.724c-1.612-1.182-2.393-1.319-2.841-1.319h-15.5c-1.378 0-2.5 1.121-2.5 2.5v27c0 1.378 1.121 2.5 2.5 2.5h23c1.378 0 2.5-1.122 2.5-2.5v-19.5c0-0.448-0.137-1.23-1.319-2.841v0zM24.543 5.457c0.959 0.959 1.712 1.825 2.268 2.543h-4.811v-4.811c0.718 0.556 1.584 1.309 2.543 2.268v0zM28 29.5c0 0.271-0.229 0.5-0.5 0.5h-23c-0.271 0-0.5-0.229-0.5-0.5v-27c0-0.271 0.229-0.5 0.5-0.5 0 0 15.499-0 15.5 0v7c0 0.552 0.448 1 1 1h7v19.5z"></path>
    </symbol>
    <symbol id="icon-file-text2" viewBox="0 0 32 32">
      <path d="M28.681 7.159c-0.694-0.947-1.662-2.053-2.724-3.116s-2.169-2.030-3.116-2.724c-1.612-1.182-2.393-1.319-2.841-1.319h-15.5c-1.378 0-2.5 1.121-2.5 2.5v27c0 1.378 1.122 2.5 2.5 2.5h23c1.378 0 2.5-1.122 2.5-2.5v-19.5c0-0.448-0.137-1.23-1.319-2.841zM24.543 5.457c0.959 0.959 1.712 1.825 2.268 2.543h-4.811v-4.811c0.718 0.556 1.584 1.309 2.543 2.268zM28 29.5c0 0.271-0.229 0.5-0.5 0.5h-23c-0.271 0-0.5-0.229-0.5-0.5v-27c0-0.271 0.229-0.5 0.5-0.5 0 0 15.499-0 15.5 0v7c0 0.552 0.448 1 1 1h7v19.5z"></path>
      <path d="M23 26h-14c-0.552 0-1-0.448-1-1s0.448-1 1-1h14c0.552 0 1 0.448 1 1s-0.448 1-1 1z"></path>
      <path d="M23 22h-14c-0.552 0-1-0.448-1-1s0.448-1 1-1h14c0.552 0 1 0.448 1 1s-0.448 1-1 1z"></path>
      <path d="M23 18h-14c-0.552 0-1-0.448-1-1s0.448-1 1-1h14c0.552 0 1 0.448 1 1s-0.448 1-1 1z"></path>
    </symbol>
  </defs>
</svg>
