<svg xmlns="http://www.w3.org/2000/svg" fill="none" viewBox="33 26 197 66">
<path d="M62.9101 25.6035L32.5488 42.0579V75.1586L63.1136 91.7468L93.4109 75.3215V41.7671L62.9101 25.6035Z" fill="white"/>
<path d="M34.9619 42.3778L47.6474 35.4913V49.3458L34.9619 42.3778ZM64.4914 42.5465L76.7115 35.8345V49.2585L64.4914 42.5465ZM47.6532 65.3872L35.2702 58.5879L47.6532 51.7886V65.3872ZM76.7174 67.9231V81.3414L64.4973 74.6294L76.7174 67.9231ZM34.043 57.4712V43.6574L46.6179 50.5672L34.043 57.4712ZM34.043 73.5126V59.6989L46.6179 66.6028L34.043 73.5126ZM47.6357 82.0975L34.5781 75.0132L47.6532 67.8359V82.0917L47.6357 82.1033V82.0975ZM62.1882 90.0019L49.2759 82.9874L62.1882 75.9031V90.0019ZM76.6243 83.0805L63.7586 90.0019V76.0136L76.6243 83.0805ZM91.3861 75.1354L78.2878 82.1848V67.9464L91.3861 75.1354ZM92.1597 59.5185V73.7744L79.1079 66.6028L92.0841 59.4778L92.1597 59.5244V59.5185ZM92.1597 43.3899V57.6399L79.102 50.5614L92.1597 43.3899ZM78.2878 35.4041L90.9964 42.2382L78.2878 49.2236V35.4041ZM63.7586 27.5869L76.2346 34.299L63.7586 41.1506V27.5869ZM49.6656 34.392L62.194 27.5869V41.2669L49.6656 34.392Z" fill="#6DB33F"/>
<path d="M49.2178 81.2308V68.0452L61.2227 74.6351L49.2178 81.2308ZM49.8692 50.573L62.1765 43.8144V57.3257L49.8692 50.573ZM49.2178 35.9565L61.2227 42.5523L49.2178 49.148V35.9624V35.9565ZM63.747 57.2036V43.9365L75.8333 50.573L63.747 57.2036ZM49.2178 65.1836V51.998L61.2227 58.5937L49.2178 65.1836ZM62.1765 59.8558V73.3672L49.8692 66.6086L62.1765 59.8558ZM76.7057 51.8758V65.2999L64.4856 58.5937L76.7057 51.8816V51.8758ZM78.2703 65.265V51.9107L90.4381 58.5879L78.2703 65.265ZM63.7411 73.245V59.9722L75.8275 66.6086L63.7411 73.245Z" fill="#C41230"/>
<path d="M101.984 55.8892L103.641 52.8706L97.8076 42.2441H100.658L104.962 50.5091L109.12 42.2441H111.924L104.764 55.8892H101.978H101.984Z" fill="black"/>
<path d="M112.704 42.2441H115.281V55.8892H112.704V42.2441ZM122.516 55.8892L116.898 50.6487C116.095 49.9042 115.955 49.247 115.955 48.8922C115.955 48.6188 116.037 48.0139 116.7 47.3509L121.859 42.2441H125.041L119.149 47.8394C118.701 48.264 118.427 48.6014 118.427 48.8922C118.427 49.3168 118.91 49.7937 119.3 50.1427L125.756 55.8892H122.505H122.516Z" fill="black"/>
<path d="M125.965 55.8892V44.2857C125.965 43.7797 125.965 43.2387 126.436 42.7676C126.884 42.3198 127.506 42.2441 127.971 42.2441H134.462C135.19 42.2441 136.335 42.2441 137.173 43.0584C138.109 43.9541 138.208 45.4955 138.208 46.6471C138.208 47.7987 138.092 49.5146 137.016 50.3928C136.51 50.8058 135.736 51.0559 134.934 51.0559H128.536V55.8892H125.965ZM133.433 49.0027C133.991 49.0027 134.66 49.0027 135.108 48.4967C135.521 48.0314 135.556 47.1531 135.556 46.6238C135.556 46.0189 135.498 45.1988 135.062 44.751C134.62 44.3031 133.892 44.2799 133.462 44.2799H129.309C129.135 44.2799 128.902 44.2682 128.71 44.4602C128.53 44.6347 128.53 44.8673 128.53 45.1058V48.9969H133.427L133.433 49.0027Z" fill="black"/>
<path d="M142.384 43.6229C142.867 42.4712 143.396 42.0815 144.617 42.0815C145.839 42.0815 146.374 42.4712 146.862 43.6229L152.01 55.8837H149.305L147.892 52.4346H141.325L139.941 55.8837H137.236L142.384 43.6229ZM141.988 50.6025H147.24L145.013 45.0479C144.937 44.8501 144.798 44.4779 144.623 44.4779C144.449 44.4779 144.315 44.8501 144.239 45.0479L141.994 50.6025H141.988Z" fill="black"/>
<path d="M152.208 41.0696V38.9233H154.471V41.0696H152.208ZM154.081 55.8837V42.2386H156.652V55.8837H154.081ZM156.262 41.0696V38.9233H158.525V41.0696H156.262Z" fill="black"/>
<path d="M172.326 55.8892H169.756V49.8868H162.66V55.8892H160.083V42.2441H162.66V47.8394H169.756V42.2441H172.326V55.8892Z" fill="black"/>
<path d="M179.998 55.8892C178.695 55.8892 176.921 55.7148 175.659 54.2956C174.373 52.8473 174.274 50.7709 174.274 49.2644C174.274 47.316 174.449 45.3093 175.601 43.96C176.962 42.3605 179.09 42.2441 180.062 42.2441H185.541V44.2857H181.271C179.748 44.2857 178.468 44.3846 177.683 45.5594C177.276 46.1643 176.921 47.1997 176.921 49.2237C176.921 51.2478 177.293 52.1086 177.566 52.539C178.264 53.6092 179.515 53.8419 181.132 53.8419H185.756V55.8892H179.998Z" fill="black"/>
<path d="M190.077 42.2441V47.8394H196.556C197.207 47.8394 198.551 47.9151 199.232 49.1481C199.592 49.8112 199.738 50.8988 199.738 51.8585C199.738 53.7663 199.214 54.5631 199.115 54.7085C198.859 55.0575 198.08 55.8951 196.428 55.8951H189.169C188.471 55.8951 188.099 55.5286 187.936 55.3541C187.564 54.9063 187.506 54.3363 187.506 53.8244V42.25H190.077V42.2441ZM190.077 53.0043C190.077 53.1207 190.077 53.4696 190.199 53.6267C190.356 53.8419 190.664 53.8419 190.943 53.8419H195.09C195.288 53.8419 196.161 53.8419 196.597 53.4697C197.08 53.0625 197.08 52.3413 197.08 51.7771C197.08 51.1664 197.062 50.5266 196.539 50.1369C196.166 49.8635 195.701 49.8868 195.23 49.8868H190.077V53.0043Z" fill="black"/>
<path d="M201.682 42.2441H204.258V55.8892H201.682V42.2441ZM211.494 55.8892L205.875 50.6487C205.078 49.9042 204.939 49.247 204.939 48.8922C204.939 48.6188 205.014 48.0139 205.677 47.3509L210.848 42.2441H214.024L208.126 47.8394C207.678 48.264 207.411 48.6014 207.411 48.8922C207.411 49.3168 207.893 49.7937 208.283 50.1427L214.745 55.8892H211.488H211.494Z" fill="black"/>
<path d="M219.898 43.6229C220.387 42.4712 220.905 42.0815 222.144 42.0815C223.307 42.0815 223.894 42.4712 224.383 43.6229L229.53 55.8837H226.82L225.418 52.4346H218.846L217.456 55.8837H214.751L219.898 43.6229ZM219.509 50.6025H224.749L222.527 45.0479C222.452 44.8501 222.318 44.4779 222.144 44.4779C221.969 44.4779 221.824 44.8501 221.754 45.0479L219.509 50.6025Z" fill="black"/>
<path d="M109.551 61.1185H101.297C100.948 61.1185 100.675 61.1592 100.541 61.2756C100.384 61.4093 100.303 61.6885 100.303 61.9735V66.4986H107.242C107.986 66.4986 108.917 66.6033 109.562 67.4525C109.778 67.7491 110.185 68.4704 110.185 70.1804C110.185 70.9248 110.086 72.251 109.423 73.0071C108.783 73.7516 107.881 73.8214 107.276 73.8214H100.844C100.041 73.8214 99.6746 73.5538 99.5001 73.3212C99.2616 73.0071 99.2441 72.5011 99.2441 72.1114V61.991C99.2441 61.5664 99.279 61.0196 99.628 60.6241C99.9828 60.2344 100.471 60.1763 100.861 60.1763H109.539V61.1127L109.551 61.1185ZM100.309 71.7624C100.309 72.3498 100.367 72.5069 100.431 72.5999C100.64 72.914 101.111 72.8966 101.501 72.8966H106.904C107.37 72.8966 108.009 72.8966 108.504 72.3906C108.928 71.9369 109.068 71.14 109.068 70.1047C109.068 69.3835 108.981 68.4471 108.504 67.9236C108.009 67.4118 107.393 67.435 106.904 67.435H100.309V71.7624Z" fill="black"/>
<path d="M112.528 73.8267V60.1816H113.587V73.8267H112.528Z" fill="black"/>
<path d="M116.309 73.8267V61.7986C116.309 61.4263 116.309 60.9029 116.675 60.5539C117.047 60.1991 117.786 60.1816 117.984 60.1816H123.626C124.498 60.1816 125.434 60.2165 126.214 60.9029C126.987 61.5717 127.249 62.6012 127.249 64.3752C127.249 65.4861 127.115 66.9111 126.121 67.6731C125.655 68.0453 124.969 68.2547 124.289 68.2547H117.367V73.8326H116.314L116.309 73.8267ZM123.684 67.3183C124.812 67.3183 125.359 66.9635 125.591 66.6901C126.097 66.091 126.121 64.602 126.121 64.096C126.121 63.59 126.097 62.3453 125.557 61.7404C125.283 61.4263 124.713 61.1181 123.724 61.1181H118.152C117.367 61.1181 117.367 61.4845 117.367 61.9556V67.3183H123.69H123.684Z" fill="black"/>
<path d="M132.735 68.022C133.253 67.5277 133.66 67.1845 133.66 66.8704C133.66 66.6552 133.451 66.3877 132.887 65.8351L127.001 60.1816H128.519L133.806 65.3233C134.137 65.6548 134.725 66.283 134.725 66.8297C134.725 67.4172 133.998 68.1733 133.596 68.5455L127.861 73.8267H126.279L132.735 68.022ZM135.487 60.1816H136.539V73.8267H135.487V60.1816ZM144.164 73.8267L138.435 68.5455C137.342 67.5277 137.301 66.9809 137.301 66.8297C137.301 66.283 137.889 65.6606 138.22 65.3233L143.501 60.1816H145.031L139.139 65.8351C138.575 66.3818 138.36 66.6552 138.36 66.8704C138.36 67.1845 138.773 67.5277 139.302 68.022L145.747 73.8267H144.17H144.164Z" fill="black"/>
<path d="M151.156 61.4674C151.47 60.7229 151.854 60.0249 152.68 60.0249C153.505 60.0249 153.889 60.7403 154.192 61.4674L159.427 73.827H158.292L156.635 69.8487H148.719L147.067 73.827H145.933L151.162 61.4674H151.156ZM149.132 68.9181H156.228L153.25 61.7756C153.127 61.5081 152.953 61.002 152.68 61.002C152.406 61.002 152.232 61.5139 152.115 61.7756L149.132 68.9181Z" fill="black"/>
</svg>