<?xml version="1.0" standalone="no"?>
<!DOCTYPE svg PUBLIC "-//W3C//DTD SVG 20010904//EN"
 "http://www.w3.org/TR/2001/REC-SVG-20010904/DTD/svg10.dtd">
<svg version="1.0" xmlns="http://www.w3.org/2000/svg"
 width="700.000000pt" height="700.000000pt" viewBox="0 0 700.000000 700.000000"
 preserveAspectRatio="xMidYMid meet">
<metadata>
Created by potrace 1.14, written by Peter Selinger 2001-2017
</metadata>
<g transform="translate(0.000000,700.000000) scale(0.100000,-0.100000)"
fill="#000000" stroke="none">
<path d="M3270 6969 c-170 -15 -221 -21 -355 -44 -238 -42 -413 -89 -635 -172
-399 -148 -812 -403 -1120 -690 -402 -374 -690 -793 -883 -1283 -54 -138 -111
-308 -132 -395 -19 -78 -74 -360 -79 -406 -4 -31 -8 -66 -11 -77 -24 -129 -25
-615 -1 -792 2 -14 7 -52 11 -85 19 -159 84 -440 145 -623 285 -859 910 -1587
1715 -1996 133 -68 212 -104 295 -136 30 -11 64 -25 75 -30 11 -5 72 -26 135
-46 287 -90 541 -140 820 -161 166 -13 569 -6 656 11 12 2 45 7 75 11 30 3 61
8 69 10 8 2 35 7 60 10 25 4 97 18 160 32 1188 263 2167 1151 2543 2308 46
142 66 210 74 255 2 14 8 41 13 60 11 40 36 173 45 235 4 22 8 51 10 65 21
138 31 317 29 510 -2 192 -5 233 -29 435 -11 84 -54 305 -81 405 -97 370 -249
712 -459 1030 -393 596 -937 1041 -1609 1317 -147 60 -421 146 -539 168 -12 3
-56 11 -97 19 -112 22 -201 34 -370 52 -81 8 -444 11 -530 3z m545 -482 c11
-2 47 -7 80 -11 33 -4 83 -11 110 -16 28 -5 66 -12 85 -15 127 -21 363 -90
520 -152 372 -148 718 -374 998 -652 130 -128 157 -158 227 -246 22 -27 42
-52 45 -55 11 -10 127 -175 162 -230 84 -134 190 -338 237 -460 18 -47 39 -98
46 -115 28 -66 94 -293 111 -380 4 -22 8 -44 9 -50 14 -64 26 -127 30 -160 3
-22 7 -56 10 -75 33 -236 23 -651 -21 -880 -2 -14 -6 -34 -8 -45 -117 -607
-396 -1137 -826 -1565 -289 -288 -591 -492 -961 -649 -164 -69 -472 -162 -584
-177 -16 -2 -52 -8 -80 -13 -135 -27 -268 -36 -500 -36 -182 0 -378 10 -395
20 -3 1 -27 6 -55 9 -41 6 -103 16 -125 21 -3 1 -23 5 -45 9 -344 68 -742 237
-1062 453 -267 180 -544 449 -745 723 -169 231 -313 510 -411 796 -40 115
-100 348 -112 434 -1 8 -5 33 -9 55 -24 137 -31 243 -31 470 0 279 15 433 61
638 9 38 17 74 18 81 18 82 76 267 123 386 247 627 700 1154 1290 1498 162 95
392 198 568 255 79 25 291 81 350 92 116 20 229 36 298 41 45 4 84 8 86 11 6
5 480 -4 506 -10z"/>
<path d="M3388 6185 c-2 -1 -43 -5 -93 -8 -97 -7 -210 -21 -290 -37 -27 -6
-59 -12 -70 -14 -193 -38 -475 -142 -685 -253 -97 -51 -340 -205 -371 -235 -8
-7 -36 -31 -64 -53 -247 -197 -489 -484 -649 -771 -130 -233 -251 -554 -282
-749 -3 -21 -10 -49 -15 -62 -5 -13 -8 -27 -7 -31 1 -4 -2 -27 -6 -52 -40
-244 -41 -570 -2 -825 9 -55 18 -111 22 -125 3 -14 8 -36 10 -50 3 -14 10 -43
16 -65 5 -22 12 -49 14 -60 2 -11 18 -63 35 -115 133 -411 361 -783 664 -1084
336 -333 763 -578 1215 -696 46 -12 53 -14 130 -30 25 -5 56 -12 70 -15 14 -3
47 -7 75 -11 27 -3 52 -7 55 -9 12 -7 228 -19 350 -19 116 0 339 12 350 19 3
2 29 6 59 10 30 4 61 8 70 10 309 64 521 138 771 268 613 319 1091 885 1304
1545 41 126 78 274 91 362 3 20 7 47 10 60 5 24 10 72 21 175 24 234 1 593
-51 805 -8 30 -16 66 -19 80 -30 160 -160 483 -276 690 -32 55 -155 242 -184
276 -8 11 -36 46 -63 79 -193 242 -434 448 -738 632 -169 101 -441 214 -655
270 -103 27 -109 29 -165 37 -20 4 -40 8 -44 10 -3 2 -33 7 -66 11 -32 3 -62
8 -65 10 -17 10 -461 29 -472 20z m372 -1300 c135 -16 302 -64 402 -117 62
-33 78 -32 102 5 12 17 13 31 7 54 l-9 31 161 -2 161 -1 27 -105 c15 -58 53
-202 84 -320 31 -118 60 -231 64 -250 8 -34 67 -258 77 -291 3 -12 -4 -18 -28
-24 -46 -10 -38 -8 -190 -54 -75 -23 -140 -41 -145 -41 -4 0 -26 35 -48 78
-101 197 -253 382 -400 487 -124 88 -247 128 -390 128 -250 -1 -441 -126 -562
-368 -34 -67 -68 -164 -60 -171 2 -3 63 -5 136 -6 l131 -1 0 -147 0 -147 -156
1 c-93 1 -159 -3 -163 -9 -13 -17 -11 -204 2 -212 7 -4 80 -7 162 -8 l150 0 3
-147 3 -147 -108 0 c-60 0 -116 0 -126 0 -15 -1 -12 -11 19 -73 201 -401 604
-557 1004 -390 180 76 366 220 519 402 30 36 58 69 62 74 5 5 37 -15 72 -45
35 -30 86 -72 112 -94 27 -22 60 -50 74 -61 l25 -21 -60 -84 c-81 -114 -297
-329 -414 -411 -138 -97 -347 -201 -470 -234 -170 -45 -249 -56 -408 -58 -395
-6 -719 120 -983 384 -145 145 -268 345 -330 538 l-23 72 -146 0 -147 0 -28
68 c-15 37 -36 85 -46 107 -21 49 -49 117 -49 119 0 1 80 2 177 2 l178 -1 5
29 c3 15 4 66 2 112 l-3 84 -227 0 -227 0 -44 113 c-25 61 -48 117 -51 122 -4
6 -10 22 -14 37 l-6 27 310 -2 310 -2 26 80 c47 143 130 302 210 406 53 69
223 226 297 274 235 153 505 225 817 219 63 -1 140 -5 170 -9z"/>
</g>
</svg>
